<?xml version="1.0" encoding="utf-8" standalone="yes"?>
<!DOCTYPE svg PUBLIC "-//W3C//DTD SVG 1.1//EN" "http://www.w3.org/Graphics/SVG/1.1/DTD/svg11.dtd">
<svg style="fill:none;stroke:none;fill-rule:evenodd;clip-rule:evenodd;stroke-linecap:round;stroke-linejoin:round;stroke-miterlimit:1.5;" version="1.1" xmlns="http://www.w3.org/2000/svg" xmlns:xlink="http://www.w3.org/1999/xlink" width="602" height="516" viewBox="0 0 602 516"><style class="text-font-style fontImports" data-font-family="Roboto">@import url(https://fonts.googleapis.com/css2?family=Roboto:wght@400;700&amp;amp;display=block);</style><g id="items" style="isolation: isolate"><g id="blend" style="mix-blend-mode: normal"><g id="g-root-cp_5_g-5_hu0xmx48iwpa-fill" data-item-order="-231759" transform="translate(206, 284.994140625)"></g><g id="g-root-cp_5_g-5_hu0xmx48iwpa-stroke" data-item-order="-231759" transform="translate(206, 284.994140625)"><g id="cp_5_g-5_hu0xmx48iwpa-stroke" fill="none" stroke-linecap="round" stroke-linejoin="round" stroke-miterlimit="4" stroke="#3f3f3f" stroke-width="1" stroke-opacity="1"><g><path d="M 178 10L 178 24.9777C 178 29.3949 174.42 32.9762 170.0028 32.9777L 107 33M 10 10L 10 25.0254C 10 29.4437 13.5817 33.0254 18 33.0254L 82 33.0255"></path></g></g></g><g id="g-root-cp_4_g-4_4j6wcp48iv4f-fill" data-item-order="-231755" transform="translate(278, 295.994140625)"></g><g id="g-root-cp_4_g-4_4j6wcp48iv4f-stroke" data-item-order="-231755" transform="translate(278, 295.994140625)"><g id="cp_4_g-4_4j6wcp48iv4f-stroke" fill="none" stroke-linecap="round" stroke-linejoin="round" stroke-miterlimit="4" stroke="#3f3f3f" stroke-width="1" stroke-opacity="1"><g><path d="M 22.043 10C 28.6943 10 34.0869 15.3726 34.0869 22C 34.0869 28.6274 28.6943 34 22.043 34C 15.3918 33.9999 10 28.6273 10 22C 10 15.3727 15.3918 10.0001 22.043 10ZM 22 16C 18.6863 16 16 18.6863 16 22C 16 25.3137 18.6863 28 22 28C 25.3137 28 28 25.3137 28 22C 28 18.6863 25.3137 16 22 16Z"></path></g></g></g><g id="g-root-cp_3_g-3_1ltnex548iu4o-fill" data-item-order="-231751" transform="translate(242, 317.3203125)"></g><g id="g-root-cp_3_g-3_1ltnex548iu4o-stroke" data-item-order="-231751" transform="translate(242, 317.3203125)"><g id="cp_3_g-3_1ltnex548iu4o-stroke" fill="none" stroke-linecap="round" stroke-linejoin="round" stroke-miterlimit="4" stroke="#3f3f3f" stroke-width="1" stroke-opacity="1"><g><path d="M 22 78.6744L 94 78.6744C 94 78.6744 73.9918 28.1666 65.9587 10.0582C 63.7253 11.9521 61.0733 12.9969 58.0432 12.9969C 54.9864 12.9969 52.2877 11.9334 50.072 10C 42.047 28.1148 22 78.6744 22 78.6744Z"></path></g></g><g id="cp_3_g-3_1ltnex548iu4o-stroke" fill="none" stroke-linecap="round" stroke-linejoin="round" stroke-miterlimit="4" stroke="#3f3f3f" stroke-width="1" stroke-opacity="1"><g><path d="M 18.000024 78.678955C 13.581824 78.678955 10.000124 82.260655 10.000024 86.678855L 10.000024 88.678955C 10.000024 89.783555 10.895424 90.678955 12.000024 90.678955L 104.000024 90.678955C 105.104524 90.678955 106.000024 89.783555 106.000024 88.678955L 106.000024 86.678955C 106.000024 82.260655 102.418224 78.678955 98.000024 78.678955L 18.000024 78.678955ZM 58 70.678955C 59.4571 70.678955 60.8233 71.068555 62 71.749255L 62 62.678955L 58 58.678955L 54 62.678955L 54 71.749255C 55.1767 71.068555 56.5428 70.678955 58 70.678955ZM 66 78.678955C 66 75.717855 64.3912 73.132455 62 71.749255C 60.8233 71.068555 59.4571 70.678955 58 70.678955C 56.5428 70.678955 55.1767 71.068555 54 71.749255C 51.6088 73.132455 50 75.717855 50 78.678955L 66 78.678955ZM 58.00007 49.678955L 58.00007 55.478955M 78.50307 58.175955L 74.40437 62.274655M 37.49707 58.175955L 41.59577 62.274655M 64.74737 53.468255L 64.00307 56.261955M 44.94037 56.078255L 46.40007 58.591655M 71.03077 56.068655L 69.59037 58.572255M 51.22377 53.477955L 51.97777 56.271655"></path></g></g></g><g id="g-root-cp_right-lines_g-right-lines_qrjd5548iuwx-fill" data-item-order="-231747" transform="translate(338, 265.994140625)"></g><g id="g-root-cp_right-lines_g-right-lines_qrjd5548iuwx-stroke" data-item-order="-231747" transform="translate(338, 265.994140625)"><g id="cp_right-lines_g-right-lines_qrjd5548iuwx-stroke" fill="none" stroke-linecap="round" stroke-linejoin="round" stroke-miterlimit="4" stroke="#3f3f3f" stroke-width="1" stroke-opacity="1"><g><path d="M 10 11.8C 10 10.8059 10.8059 10 11.8 10L 80.2 10C 81.1941 10 82 10.8059 82 11.8C 82 20.747 74.747 28 65.8 28L 26.2 28C 17.253 28 10 20.747 10 11.8Z"></path></g></g></g><g id="g-root-cp_left-lines_g-left-lines_dg2urt48iwhu-fill" data-item-order="-231743" transform="translate(170, 265.994140625)"></g><g id="g-root-cp_left-lines_g-left-lines_dg2urt48iwhu-stroke" data-item-order="-231743" transform="translate(170, 265.994140625)"><g id="cp_left-lines_g-left-lines_dg2urt48iwhu-stroke" fill="none" stroke-linecap="round" stroke-linejoin="round" stroke-miterlimit="4" stroke="#3f3f3f" stroke-width="1" stroke-opacity="1"><g><path d="M 10 11.8C 10 10.8059 10.8059 10 11.8 10L 80.2 10C 81.1941 10 82 10.8059 82 11.8C 82 20.747 74.747 28 65.8 28L 26.2 28C 17.253 28 10 20.747 10 11.8Z"></path></g></g></g><g id="g-root-tx_compares_4l2bm148iu4r-fill" data-item-order="0" transform="translate(19.243499755859375, 38)"><g id="tx_compares_4l2bm148iu4r-fill-merged" stroke="none" fill="#3f3f3f" fill-opacity="1"><g><text style="font: bold 25px Roboto, sans-serif; white-space: pre;" transform="translate(280.7565002441406, 40)" font-weight="bold" font-size="25px" font-family="Roboto, sans-serif"><tspan x="-268.76" y="0" dominant-baseline="ideographic">Compare security approaches in enterprise and </tspan><tspan x="-117.85" y="30" dominant-baseline="ideographic">cloud environments.</tspan></text></g></g></g><g id="g-root-tx_compares_4l2bm148iu4r-stroke" data-item-order="0" transform="translate(19.243499755859375, 38)"></g><g id="g-root-ic_spir_1q5q2ix48k9hp-fill" data-item-order="0" transform="translate(182, 139.9970703125)"></g><g id="g-root-ic_spir_1q5q2ix48k9hp-stroke" data-item-order="0" transform="translate(182, 139.9970703125)"><g id="ic_spir_1q5q2ix48k9hp-stroke" fill="none" stroke-linecap="round" stroke-linejoin="round" stroke-miterlimit="4" stroke="#3f3f3f" stroke-width="1" stroke-opacity="1"><g><path d="M 40.290001 44.046001L 43.812 53.731998M 46.509998 40.094002L 54.902 56.880001M 21.714001 29.153999C 21.305212 29.545916 21.074085 30.087692 21.074085 30.654001C 21.074085 31.220308 21.305212 31.762087 21.714001 32.153999C 23.950001 34.299999 28.576 38 33.919998 38C 39.264 38 43.889999 34.304001 46.119999 32.155998C 46.52879 31.764086 46.759918 31.222309 46.759918 30.656C 46.759918 30.089693 46.52879 29.547915 46.120003 29.156C 43.883999 27.007999 39.257999 23.312 33.919998 23.312C 28.582001 23.312 23.950001 27 21.714001 29.153999ZM 27.549999 44.046001L 24.028 53.731998M 21.332001 40.094002L 12.938 56.880001M 30.525999 30.653999C 30.52565 32.528702 32.0453 34.04863 33.919998 34.04863C 35.794701 34.04863 37.314346 32.528702 37.313999 30.653999C 37.314346 28.779299 35.794701 27.259367 33.919998 27.259367C 32.0453 27.259367 30.52565 28.779299 30.525999 30.653999M 13.238 36.947998C 11.722983 35.413258 10.912565 33.318775 11 31.164C 11.093611 26.511602 14.890661 22.788324 19.544001 22.785999L 19.632 22.785999C 20.984043 16.033026 26.895119 11.159626 33.781998 11.12L 34.028 11.12C 39.233734 11.100551 44.0602 13.840269 46.711998 18.32C 52.393223 18.576611 56.897076 23.203918 57 28.890001L 57 29C 56.925987 30.999535 56.310043 32.94138 55.217999 34.618M 33.919998 44.226002L 33.919998 53.015999"></path></g></g></g><g id="g-root-ic_rain_24j7t48g1sf-fill" data-item-order="0" transform="translate(350, 139.9970703125)"></g><g id="g-root-ic_rain_24j7t48g1sf-stroke" data-item-order="0" transform="translate(350, 139.9970703125)"><g id="ic_rain_24j7t48g1sf-stroke" fill="none" stroke-linecap="round" stroke-linejoin="round" stroke-miterlimit="4" stroke="#3f3f3f" stroke-width="1" stroke-opacity="1"><g><path d="M 54.970001 28.166C 56.293137 27.23415 57.055462 25.696533 56.996132 24.079277C 56.936802 22.462021 56.063862 20.984396 54.676003 20.152C 55.088272 18.959038 54.864681 17.63825 54.082729 16.647453C 53.300777 15.656657 52.068111 15.132248 50.812 15.256001C 49.791637 12.329463 46.807678 10.56707 43.752167 11.086305C 40.696655 11.605538 38.462368 14.254686 38.466 17.354C 35.798504 17.360685 33.474312 19.173393 32.818146 21.758936C 32.16198 24.344479 33.340508 27.046118 35.681999 28.323999M 40.760002 28.02L 38.73 39M 45.835999 28.02L 43.804001 39M 50.91 28.02L 48.880001 39M 23 33L 11 45L 23 57M 21 35C 21 35 25 37.5 25 45C 25 52.5 21 55 21 55M 31 45L 34 45M 38 45L 41 45M 45 45L 48 45M 52 45L 55 45"></path></g></g></g><g id="g-root-tx_fullcont_1hgya8948ivbg-fill" data-item-order="0" transform="translate(61.3125, 146)"><g id="tx_fullcont_1hgya8948ivbg-fill-merged" stroke="none" fill="#3f3f3f" fill-opacity="1"><g><text style="font: 15px Roboto, sans-serif; white-space: pre;" transform="translate(118.6875, 27.9970703125)" font-size="15px" font-family="Roboto, sans-serif"><tspan x="-106.69" y="-0.5" dominant-baseline="ideographic">Full Control and </tspan><tspan x="-57.96" y="17.5" dominant-baseline="ideographic">Visibility</tspan></text></g></g></g><g id="g-root-tx_fullcont_1hgya8948ivbg-stroke" data-item-order="0" transform="translate(61.3125, 146)"></g><g id="g-root-tx_zerocont_92rc5l48en0j-fill" data-item-order="0" transform="translate(410, 146)"><g id="tx_zerocont_92rc5l48en0j-fill-merged" stroke="none" fill="#3f3f3f" fill-opacity="1"><g><text style="font: 15px Roboto, sans-serif; white-space: pre;" transform="translate(10, 27.9970703125)" font-size="15px" font-family="Roboto, sans-serif"><tspan x="2" y="-0.5" dominant-baseline="ideographic">Zero Control and </tspan><tspan x="2" y="17.5" dominant-baseline="ideographic">Visibility</tspan></text></g></g></g><g id="g-root-tx_zerocont_92rc5l48en0j-stroke" data-item-order="0" transform="translate(410, 146)"></g><g id="g-root-ic_rada_1hyyx48vimn-fill" data-item-order="0" transform="translate(182, 202.994140625)"></g><g id="g-root-ic_rada_1hyyx48vimn-stroke" data-item-order="0" transform="translate(182, 202.994140625)"><g id="ic_rada_1hyyx48vimn-stroke" fill="none" stroke-linecap="round" stroke-linejoin="round" stroke-miterlimit="4" stroke="#3f3f3f" stroke-width="1" stroke-opacity="1"><g><path d="M 29 34L 29 47M 11 29L 24 29M 29 29L 42.5 17.299999M 35 38C 35 39.656853 39.92487 41 46 41C 52.075134 41 57 39.656853 57 38C 57 36.343147 52.075134 35 46 35C 39.92487 35 35 36.343147 35 38M 53.779999 44C 51.484859 45.521454 48.744347 46.225956 46 46C 43.255653 46.225956 40.515141 45.521454 38.220001 44M 51.080002 50C 49.483006 50.709824 47.746876 51.051579 46 51C 44.25312 51.051579 42.516991 50.709824 40.919998 50M 48.759998 55C 48.759998 55 47.52 57 46 57C 44.48 57 43.240002 55 43.240002 55M 34 46.279999C 32.348167 46.754025 30.6385 46.996338 28.92 47C 21.467266 46.953869 14.813744 42.319622 12.18671 35.345093C 9.559676 28.370564 11.50252 20.498398 17.072868 15.546978C 22.643219 10.595556 30.688873 9.589055 37.307304 13.015675C 43.925735 16.442295 47.747955 23.593258 46.920002 31M 31.02 39.82C 30.359982 39.939129 29.690683 39.999367 29.02 40C 24.463654 40.006618 20.374851 37.203529 18.738182 32.951275C 17.101517 28.69902 18.255806 23.877895 21.640789 20.827942C 25.025772 17.777988 29.940701 17.1306 34 19.200001M 37.32 21.799999C 39.502739 24.330269 40.421967 27.713018 39.82 31M 29 28.5C 29.276142 28.5 29.5 28.723858 29.5 29C 29.5 29.276142 29.276142 29.5 29 29.5C 28.723858 29.5 28.5 29.276142 28.5 29C 28.5 28.723858 28.723858 28.5 29 28.5M 47 29L 34 29M 29 11L 29 24"></path></g></g></g><g id="g-root-ic_shie_qp1jyh48kb9r-fill" data-item-order="0" transform="translate(350, 202.994140625)"></g><g id="g-root-ic_shie_qp1jyh48kb9r-stroke" data-item-order="0" transform="translate(350, 202.994140625)"><g id="ic_shie_qp1jyh48kb9r-stroke" fill="none" stroke-linecap="round" stroke-linejoin="round" stroke-miterlimit="4" stroke="#3f3f3f" stroke-width="1" stroke-opacity="1"><g><path d="M 15 13C 15 11.895431 15.895431 11 17 11L 51 11C 52.104568 11 53 11.895431 53 13L 53 25.528C 52.999878 38.732285 45.684467 50.849682 34 57C 22.314255 50.851032 14.998331 38.732784 15 25.528ZM 26 21.996L 42 37.996002M 42 21.996L 26 37.996002"></path></g></g></g><g id="g-root-tx_allthrea_mcyt6x48u5fn-fill" data-item-order="0" transform="translate(19.2421875, 217.994140625)"><g id="tx_allthrea_mcyt6x48u5fn-fill-merged" stroke="none" fill="#3f3f3f" fill-opacity="1"><g><text style="font: 15px Roboto, sans-serif; white-space: pre;" transform="translate(160.7578125, 19)" font-size="15px" font-family="Roboto, sans-serif"><tspan x="-148.76" y="8.5" dominant-baseline="ideographic">All Threats Detectable</tspan></text></g></g></g><g id="g-root-tx_allthrea_mcyt6x48u5fn-stroke" data-item-order="0" transform="translate(19.2421875, 217.994140625)"></g><g id="g-root-tx_zerodefe_145hv0p48ivpn-fill" data-item-order="0" transform="translate(410, 217.994140625)"><g id="tx_zerodefe_145hv0p48ivpn-fill-merged" stroke="none" fill="#3f3f3f" fill-opacity="1"><g><text style="font: 15px Roboto, sans-serif; white-space: pre;" transform="translate(10, 19)" font-size="15px" font-family="Roboto, sans-serif"><tspan x="2" y="8.5" dominant-baseline="ideographic">Zero Defense</tspan></text></g></g></g><g id="g-root-tx_zerodefe_145hv0p48ivpn-stroke" data-item-order="0" transform="translate(410, 217.994140625)"></g><g id="g-root-tx_traditio_hss2mh48pxjc-fill" data-item-order="0" transform="translate(26.286468505859375, 337.994140625)"><g id="tx_traditio_hss2mh48pxjc-fill-merged" stroke="none" fill="#3f3f3f" fill-opacity="1"><g><text style="font: 15px Roboto, sans-serif; white-space: pre;" transform="translate(111.71353149414062, 19)" font-size="15px" font-family="Roboto, sans-serif"><tspan x="-99.71" y="8.5" dominant-baseline="ideographic">Traditional Enterprise Security</tspan></text></g></g></g><g id="g-root-tx_traditio_hss2mh48pxjc-stroke" data-item-order="0" transform="translate(26.286468505859375, 337.994140625)"></g><g id="g-root-tx_cloudbas_4mxu1548ohz9-fill" data-item-order="0" transform="translate(371.66668701171875, 337.994140625)"><g id="tx_cloudbas_4mxu1548ohz9-fill-merged" stroke="none" fill="#3f3f3f" fill-opacity="1"><g><text style="font: 15px Roboto, sans-serif; white-space: pre;" transform="translate(90.33331298828125, 19)" font-size="15px" font-family="Roboto, sans-serif"><tspan x="-78.33" y="8.5" dominant-baseline="ideographic">Cloud-Based Agentic AI</tspan></text></g></g></g><g id="g-root-tx_cloudbas_4mxu1548ohz9-stroke" data-item-order="0" transform="translate(371.66668701171875, 337.994140625)"></g></g></g></svg>