<?xml version="1.0" encoding="utf-8" standalone="yes"?>
<!DOCTYPE svg PUBLIC "-//W3C//DTD SVG 1.1//EN" "http://www.w3.org/Graphics/SVG/1.1/DTD/svg11.dtd">
<svg style="fill:none;stroke:none;fill-rule:evenodd;clip-rule:evenodd;stroke-linecap:round;stroke-linejoin:round;stroke-miterlimit:1.5;" version="1.1" xmlns="http://www.w3.org/2000/svg" xmlns:xlink="http://www.w3.org/1999/xlink" width="1068" height="546" viewBox="0 0 1068 546"><style class="text-font-style fontImports" data-font-family="Roboto">@import url(https://fonts.googleapis.com/css2?family=Roboto:wght@400;700&amp;amp;display=block);</style><g id="items" style="isolation: isolate"><g id="blend" style="mix-blend-mode: normal"><g id="g-root-cp_1_Common_1um682hww6bl-fill" data-item-order="-458979" transform="translate(32, 117)"></g><g id="g-root-cp_1_Common_1um682hww6bl-stroke" data-item-order="-458979" transform="translate(32, 117)"><g id="cp_1_Common_1um682hww6bl-stroke" fill="none" stroke-linecap="round" stroke-linejoin="round" stroke-miterlimit="4" stroke="#3f3f3f" stroke-width="1" stroke-opacity="1"><g><path d="M 33 10L 190 10M 190 106L 33 106M 10 10L 40 10M 40 106L 10 106"></path></g></g></g><g id="g-root-cp_1_lines_1hbc6s9ww4qq-fill" data-item-order="-458969" transform="translate(25.99999237060547, 117)"></g><g id="g-root-cp_1_lines_1hbc6s9ww4qq-stroke" data-item-order="-458969" transform="translate(25.99999237060547, 117)"><g id="cp_1_lines_1hbc6s9ww4qq-stroke" fill="none" stroke-linecap="round" stroke-linejoin="round" stroke-miterlimit="4" stroke="#3f3f3f" stroke-width="1" stroke-opacity="1"><g><path d="M 234.058123 89.8839L 250.000023 57.9999M 250.000023 57.9999L 225.999623 10L 196.000023 10L 196.000023 16L 196.000023 22M 250.000023 57.9999L 234.058123 26.1159M 250.000023 57.9999L 225.999623 106L 196.000023 106L 196.000023 94M 160.000008 58C 160.000008 77.882251 176.117757 94 196.000008 94C 215.882259 94 232.000008 77.882251 232.000008 58C 232.000008 38.117749 215.882259 22 196.000008 22C 176.117757 22 160.000008 38.117749 160.000008 58M 196.000008 94L 196.000008 106M 196.000008 10L 196.000008 22M 10.000008 10L 16.000008 10L 40.000008 58L 16.000008 106L 10.000008 106L 34.000008 58L 10.000008 10Z"></path></g></g></g><g id="g-root-cp_2_Common_1_18fp6jdww5jf-fill" data-item-order="-458939" transform="translate(284, 117)"></g><g id="g-root-cp_2_Common_1_18fp6jdww5jf-stroke" data-item-order="-458939" transform="translate(284, 117)"><g id="cp_2_Common_1_18fp6jdww5jf-stroke" fill="none" stroke-linecap="round" stroke-linejoin="round" stroke-miterlimit="4" stroke="#3f3f3f" stroke-width="1" stroke-opacity="1"><g><path d="M 33 10L 190 10M 190 106L 33 106M 10 10L 40 10M 40 106L 10 106"></path></g></g></g><g id="g-root-cp_2_lines_1_v48o61ww74c-fill" data-item-order="-458929" transform="translate(278, 117)"></g><g id="g-root-cp_2_lines_1_v48o61ww74c-stroke" data-item-order="-458929" transform="translate(278, 117)"><g id="cp_2_lines_1_v48o61ww74c-stroke" fill="none" stroke-linecap="round" stroke-linejoin="round" stroke-miterlimit="4" stroke="#3f3f3f" stroke-width="1" stroke-opacity="1"><g><path d="M 234.058115 89.8839L 250.000015 57.9999M 250.000015 57.9999L 225.999615 10L 196.000015 10L 196.000015 16L 196.000015 22M 250.000015 57.9999L 234.058115 26.1159M 250.000015 57.9999L 225.999615 106L 196.000015 106L 196.000015 94M 160 58C 160 77.882251 176.117749 94 196 94C 215.882251 94 232 77.882251 232 58C 232 38.117749 215.882251 22 196 22C 176.117749 22 160 38.117749 160 58M 196 94L 196 106M 196 10L 196 22M 10 10L 16 10L 40 58L 16 106L 10 106L 34 58L 10 10Z"></path></g></g></g><g id="g-root-cp_3_Common_2_qp1n4pww4qt-fill" data-item-order="-458899" transform="translate(536, 117)"></g><g id="g-root-cp_3_Common_2_qp1n4pww4qt-stroke" data-item-order="-458899" transform="translate(536, 117)"><g id="cp_3_Common_2_qp1n4pww4qt-stroke" fill="none" stroke-linecap="round" stroke-linejoin="round" stroke-miterlimit="4" stroke="#3f3f3f" stroke-width="1" stroke-opacity="1"><g><path d="M 33 10L 190 10M 190 106L 33 106M 10 10L 40 10M 40 106L 10 106"></path></g></g></g><g id="g-root-cp_3_lines_2_htemvtww5ji-fill" data-item-order="-458889" transform="translate(530, 117)"></g><g id="g-root-cp_3_lines_2_htemvtww5ji-stroke" data-item-order="-458889" transform="translate(530, 117)"><g id="cp_3_lines_2_htemvtww5ji-stroke" fill="none" stroke-linecap="round" stroke-linejoin="round" stroke-miterlimit="4" stroke="#3f3f3f" stroke-width="1" stroke-opacity="1"><g><path d="M 234.058115 89.8839L 250.000015 57.9999M 250.000015 57.9999L 225.999615 10L 196.000015 10L 196.000015 16L 196.000015 22M 250.000015 57.9999L 234.058115 26.1159M 250.000015 57.9999L 225.999615 106L 196.000015 106L 196.000015 94M 160 58C 160 77.882251 176.117749 94 196 94C 215.882251 94 232 77.882251 232 58C 232 38.117749 215.882251 22 196 22C 176.117749 22 160 38.117749 160 58M 196 94L 196 106M 196 10L 196 22M 10 10L 16 10L 40 58L 16 106L 10 106L 34 58L 10 10Z"></path></g></g></g><g id="g-root-cp_4_Common_3_4hy4ihww74f-fill" data-item-order="-458859" transform="translate(788, 117)"></g><g id="g-root-cp_4_Common_3_4hy4ihww74f-stroke" data-item-order="-458859" transform="translate(788, 117)"><g id="cp_4_Common_3_4hy4ihww74f-stroke" fill="none" stroke-linecap="round" stroke-linejoin="round" stroke-miterlimit="4" stroke="#3f3f3f" stroke-width="1" stroke-opacity="1"><g><path d="M 33 10L 190 10M 190 106L 33 106M 10 10L 40 10M 40 106L 10 106"></path></g></g></g><g id="g-root-cp_4_lines_3_2r3h5ww4qw-fill" data-item-order="-458849" transform="translate(782, 117)"></g><g id="g-root-cp_4_lines_3_2r3h5ww4qw-stroke" data-item-order="-458849" transform="translate(782, 117)"><g id="cp_4_lines_3_2r3h5ww4qw-stroke" fill="none" stroke-linecap="round" stroke-linejoin="round" stroke-miterlimit="4" stroke="#3f3f3f" stroke-width="1" stroke-opacity="1"><g><path d="M 234.058115 89.8839L 250.000015 57.9999M 250.000015 57.9999L 225.999615 10L 196.000015 10L 196.000015 16L 196.000015 22M 250.000015 57.9999L 234.058115 26.1159M 250.000015 57.9999L 225.999615 106L 196.000015 106L 196.000015 94M 160 58C 160 77.882251 176.117749 94 196 94C 215.882251 94 232 77.882251 232 58C 232 38.117749 215.882251 22 196 22C 176.117749 22 160 38.117749 160 58M 196 94L 196 106M 196 10L 196 22M 10 10L 16 10L 40 58L 16 106L 10 106L 34 58L 10 10Z"></path></g></g></g><g id="g-root-cp_1_container_5_1lsen2xww64p-fill" data-item-order="-458815" transform="translate(31.999996185302734, 392)"></g><g id="g-root-cp_1_container_5_1lsen2xww64p-stroke" data-item-order="-458815" transform="translate(31.999996185302734, 392)"></g><g id="g-root-cp_1_container_6_1lsen2xww64q-fill" data-item-order="-458807" transform="translate(32, 428)"></g><g id="g-root-cp_1_container_6_1lsen2xww64q-stroke" data-item-order="-458807" transform="translate(32, 428)"></g><g id="g-root-sy_1_Subtract_1hcl4yhww6wz-fill" data-item-order="-458799" transform="translate(48, 214)"></g><g id="g-root-sy_1_Subtract_1hcl4yhww6wz-stroke" data-item-order="-458799" transform="translate(48, 214)"><g id="sy_1_Subtract_1hcl4yhww6wz-stroke" fill="none" stroke-linecap="round" stroke-linejoin="round" stroke-miterlimit="4" stroke="#3f3f3f" stroke-width="1" stroke-opacity="1"><g><path d="M 10 171L 10 10"></path></g></g></g><g id="g-root-sy_1_Subtract-start_18gy4plww7po-fill" data-item-order="-458797" transform="translate(45, 376)"></g><g id="g-root-sy_1_Subtract-start_18gy4plww7po-stroke" data-item-order="-458797" transform="translate(45, 376)"><g id="sy_1_Subtract-start_18gy4plww7po-stroke" fill="none" stroke-linecap="round" stroke-linejoin="round" stroke-miterlimit="4" stroke="#3f3f3f" stroke-width="1" stroke-opacity="1"><g><path d="M 10 13C 10 14.6557 11.3443 16 13 16C 14.6557 16 16 14.6557 16 13C 16 11.3443 14.6557 10 13 10C 11.3443 10 10 11.3443 10 13Z"></path></g></g></g><g id="g-root-cp_2_container_8_141r3o9ww5c5-fill" data-item-order="-458791" transform="translate(284, 296)"></g><g id="g-root-cp_2_container_8_141r3o9ww5c5-stroke" data-item-order="-458791" transform="translate(284, 296)"></g><g id="g-root-cp_2_container_9_v643fdww64u-fill" data-item-order="-458783" transform="translate(284, 332)"></g><g id="g-root-cp_2_container_9_v643fdww64u-stroke" data-item-order="-458783" transform="translate(284, 332)"></g><g id="g-root-sy_2_Subtract_v643fdww64v-fill" data-item-order="-458775" transform="translate(300, 214)"></g><g id="g-root-sy_2_Subtract_v643fdww64v-stroke" data-item-order="-458775" transform="translate(300, 214)"><g id="sy_2_Subtract_v643fdww64v-stroke" fill="none" stroke-linecap="round" stroke-linejoin="round" stroke-miterlimit="4" stroke="#3f3f3f" stroke-width="1" stroke-opacity="1"><g><path d="M 10 75L 10 10"></path></g></g></g><g id="g-root-sy_2_Subtract-start_qqalaxww6x4-fill" data-item-order="-458773" transform="translate(297, 280)"></g><g id="g-root-sy_2_Subtract-start_qqalaxww6x4-stroke" data-item-order="-458773" transform="translate(297, 280)"><g id="sy_2_Subtract-start_qqalaxww6x4-stroke" fill="none" stroke-linecap="round" stroke-linejoin="round" stroke-miterlimit="4" stroke="#3f3f3f" stroke-width="1" stroke-opacity="1"><g><path d="M 10 13C 10 14.6557 11.3443 16 13 16C 14.6557 16 16 14.6557 16 13C 16 11.3443 14.6557 10 13 10C 11.3443 10 10 11.3443 10 13Z"></path></g></g></g><g id="g-root-cp_3_container_11_mah36hww7pd-fill" data-item-order="-458767" transform="translate(536, 392)"></g><g id="g-root-cp_3_container_11_mah36hww7pd-stroke" data-item-order="-458767" transform="translate(536, 392)"></g><g id="g-root-cp_3_container_12_dfgk0pww5ca-fill" data-item-order="-458759" transform="translate(536, 428)"></g><g id="g-root-cp_3_container_12_dfgk0pww5ca-stroke" data-item-order="-458759" transform="translate(536, 428)"></g><g id="g-root-sy_3_Subtract_dfgk0pww5cb-fill" data-item-order="-458751" transform="translate(552, 214)"></g><g id="g-root-sy_3_Subtract_dfgk0pww5cb-stroke" data-item-order="-458751" transform="translate(552, 214)"><g id="sy_3_Subtract_dfgk0pww5cb-stroke" fill="none" stroke-linecap="round" stroke-linejoin="round" stroke-miterlimit="4" stroke="#3f3f3f" stroke-width="1" stroke-opacity="1"><g><path d="M 10 171L 10 10"></path></g></g></g><g id="g-root-sy_3_Subtract-start_8zn1w9ww64k-fill" data-item-order="-458749" transform="translate(549, 376)"></g><g id="g-root-sy_3_Subtract-start_8zn1w9ww64k-stroke" data-item-order="-458749" transform="translate(549, 376)"><g id="sy_3_Subtract-start_8zn1w9ww64k-stroke" fill="none" stroke-linecap="round" stroke-linejoin="round" stroke-miterlimit="4" stroke="#3f3f3f" stroke-width="1" stroke-opacity="1"><g><path d="M 10 13C 10 14.6557 11.3443 16 13 16C 14.6557 16 16 14.6557 16 13C 16 11.3443 14.6557 10 13 10C 11.3443 10 10 11.3443 10 13Z"></path></g></g></g><g id="g-root-cp_4_container_14_401ndww6x9-fill" data-item-order="-458743" transform="translate(788, 296)"></g><g id="g-root-cp_4_container_14_401ndww6x9-stroke" data-item-order="-458743" transform="translate(788, 296)"></g><g id="g-root-cp_4_container_15_1upali1ww7ie-fill" data-item-order="-458735" transform="translate(788, 332)"></g><g id="g-root-cp_4_container_15_1upali1ww7ie-stroke" data-item-order="-458735" transform="translate(788, 332)"></g><g id="g-root-sy_4_Subtract_1upali1ww7if-fill" data-item-order="-458727" transform="translate(804, 214)"></g><g id="g-root-sy_4_Subtract_1upali1ww7if-stroke" data-item-order="-458727" transform="translate(804, 214)"><g id="sy_4_Subtract_1upali1ww7if-stroke" fill="none" stroke-linecap="round" stroke-linejoin="round" stroke-miterlimit="4" stroke="#3f3f3f" stroke-width="1" stroke-opacity="1"><g><path d="M 10 75L 10 10"></path></g></g></g><g id="g-root-sy_4_Subtract-start_1qa3kgpww54w-fill" data-item-order="-458725" transform="translate(801, 280)"></g><g id="g-root-sy_4_Subtract-start_1qa3kgpww54w-stroke" data-item-order="-458725" transform="translate(801, 280)"><g id="sy_4_Subtract-start_1qa3kgpww54w-stroke" fill="none" stroke-linecap="round" stroke-linejoin="round" stroke-miterlimit="4" stroke="#3f3f3f" stroke-width="1" stroke-opacity="1"><g><path d="M 10 13C 10 14.6557 11.3443 16 13 16C 14.6557 16 16 14.6557 16 13C 16 11.3443 14.6557 10 13 10C 11.3443 10 10 11.3443 10 13Z"></path></g></g></g><g id="g-root-tx_earlyspr_dgplcpwxlag-fill" data-item-order="0" transform="translate(284, 296)"><g id="tx_earlyspr_dgplcpwxlag-fill-merged" stroke="none" fill="#3f3f3f" fill-opacity="1"><g><text style="font: bold 15px Roboto, sans-serif; white-space: pre;" transform="translate(10, 19)" font-weight="bold" font-size="15px" font-family="Roboto, sans-serif"><tspan x="2" y="8.5" dominant-baseline="ideographic">Early Spread</tspan></text></g></g></g><g id="g-root-tx_earlyspr_dgplcpwxlag-stroke" data-item-order="0" transform="translate(284, 296)"></g><g id="g-root-tx_day67_1uo1qhlww5qj-fill" data-item-order="0" transform="translate(818, 152)"><g id="tx_day67_1uo1qhlww5qj-fill-merged" stroke="none" fill="#3f3f3f" fill-opacity="1"><g><text style="font: bold 11.3px Roboto, sans-serif; white-space: pre;" transform="translate(31.61590576171875, 17)" font-weight="bold" font-size="11.3px" font-family="Roboto, sans-serif"><tspan x="-19.62" y="6.33" dominant-baseline="ideographic">Day 6-7</tspan></text></g></g></g><g id="g-root-tx_day67_1uo1qhlww5qj-stroke" data-item-order="0" transform="translate(818, 152)"></g><g id="g-root-tx_widespre_v48rbtwyz2k-fill" data-item-order="0" transform="translate(788, 296)"><g id="tx_widespre_v48rbtwyz2k-fill-merged" stroke="none" fill="#3f3f3f" fill-opacity="1"><g><text style="font: bold 15px Roboto, sans-serif; white-space: pre;" transform="translate(10, 19)" font-weight="bold" font-size="15px" font-family="Roboto, sans-serif"><tspan x="2" y="8.5" dominant-baseline="ideographic">Widespread Outbreak</tspan></text></g></g></g><g id="g-root-tx_widespre_v48rbtwyz2k-stroke" data-item-order="0" transform="translate(788, 296)"></g><g id="g-root-tx_day45_1qegz89wp3ws-fill" data-item-order="0" transform="translate(566, 152)"><g id="tx_day45_1qegz89wp3ws-fill-merged" stroke="none" fill="#3f3f3f" fill-opacity="1"><g><text style="font: bold 11.3px Roboto, sans-serif; white-space: pre;" transform="translate(31.61590576171875, 17)" font-weight="bold" font-size="11.3px" font-family="Roboto, sans-serif"><tspan x="-19.62" y="6.33" dominant-baseline="ideographic">Day 4-5</tspan></text></g></g></g><g id="g-root-tx_day45_1qegz89wp3ws-stroke" data-item-order="0" transform="translate(566, 152)"></g><g id="g-root-tx_day23_143mm3dwkwee-fill" data-item-order="0" transform="translate(314, 152)"><g id="tx_day23_143mm3dwkwee-fill-merged" stroke="none" fill="#3f3f3f" fill-opacity="1"><g><text style="font: bold 11.3px Roboto, sans-serif; white-space: pre;" transform="translate(31.615875244140625, 17)" font-weight="bold" font-size="11.3px" font-family="Roboto, sans-serif"><tspan x="-19.62" y="6.33" dominant-baseline="ideographic">Day 2-3</tspan></text></g></g></g><g id="g-root-tx_day23_143mm3dwkwee-stroke" data-item-order="0" transform="translate(314, 152)"></g><g id="g-root-tx_agent1in_hyeiqhwxjih-fill" data-item-order="0" transform="translate(284, 332)"><g id="tx_agent1in_hyeiqhwxjih-fill-merged" stroke="none" fill="#3f3f3f" fill-opacity="1"><g><text style="font: 15px Roboto, sans-serif; white-space: pre;" transform="translate(10, 27.9970703125)" font-size="15px" font-family="Roboto, sans-serif"><tspan x="2" y="-0.5" dominant-baseline="ideographic">Agent-1 infects 3-5 other </tspan><tspan x="2" y="17.5" dominant-baseline="ideographic">agents via email</tspan></text></g></g></g><g id="g-root-tx_agent1in_hyeiqhwxjih-stroke" data-item-order="0" transform="translate(284, 332)"></g><g id="g-root-tx_50100age_1lseq8pwyy2t-fill" data-item-order="0" transform="translate(788, 332)"><g id="tx_50100age_1lseq8pwyy2t-fill-merged" stroke="none" fill="#3f3f3f" fill-opacity="1"><g><text style="font: 15px Roboto, sans-serif; white-space: pre;" transform="translate(10, 36.9951171875)" font-size="15px" font-family="Roboto, sans-serif"><tspan x="2" y="-9.49" dominant-baseline="ideographic">50-100+ agents are </tspan><tspan x="2" y="8.5" dominant-baseline="ideographic">compromised, organization at </tspan><tspan x="2" y="26.49" dominant-baseline="ideographic">risk</tspan></text></g></g></g><g id="g-root-tx_50100age_1lseq8pwyy2t-stroke" data-item-order="0" transform="translate(788, 332)"></g><g id="g-root-tx_day1_1czw09lx1r7x-fill" data-item-order="0" transform="translate(62, 152)"><g id="tx_day1_1czw09lx1r7x-fill-merged" stroke="none" fill="#3f3f3f" fill-opacity="1"><g><text style="font: bold 11.3px Roboto, sans-serif; white-space: pre;" transform="translate(26.147132873535156, 17)" font-weight="bold" font-size="11.3px" font-family="Roboto, sans-serif"><tspan x="-14.15" y="6.33" dominant-baseline="ideographic">Day 1</tspan></text></g></g></g><g id="g-root-tx_day1_1czw09lx1r7x-stroke" data-item-order="0" transform="translate(62, 152)"></g><g id="g-root-ic_1_zofl21wqk21-fill" data-item-order="0" transform="translate(944, 141)"></g><g id="g-root-ic_1_zofl21wqk21-stroke" data-item-order="0" transform="translate(944, 141)"><g id="ic_1_zofl21wqk21-stroke" fill="none" stroke-linecap="round" stroke-linejoin="round" stroke-miterlimit="4" stroke="#3f3f3f" stroke-width="1" stroke-opacity="1"><g><path d="M 16.348 45.931999L 12 57M 18 57L 19.785999 47M 51.652 45.931999L 56 57M 50 57L 48.214001 47M 38.664001 34.732002L 45.880001 40.503998M 22.119999 40.503998L 29.334 34.732002M 18.622 39.035999L 17.66 28.938M 30.195999 48.223999L 22.614 44.686001M 45.383999 44.688L 37.804001 48.223999M 50.334 29L 49.377998 39.026001M 37.697998 16.524L 47.414001 20.524M 20.584 20.524L 30.304001 16.521999M 15 43C 15 45.209141 16.790861 47 19 47C 21.209139 47 23 45.209141 23 43C 23 40.790863 21.209139 39 19 39C 16.790861 39 15 40.790863 15 43ZM 30 15C 30 17.209139 31.790861 19 34 19C 36.209137 19 38 17.209139 38 15C 38 12.790861 36.209137 11 34 11C 31.790861 11 30 12.790861 30 15ZM 12 24C 12 26.761423 14.238577 29 17 29C 19.761425 29 22 26.761423 22 24C 22 21.238577 19.761425 19 17 19C 14.238577 19 12 21.238577 12 24ZM 45 43C 45 45.209141 46.790859 47 49 47C 51.209141 47 53 45.209141 53 43C 53 40.790863 51.209141 39 49 39C 46.790859 39 45 40.790863 45 43ZM 46 24C 46 26.761423 48.238575 29 51 29C 53.761425 29 56 26.761423 56 24C 56 21.238577 53.761425 19 51 19C 48.238575 19 46 21.238577 46 24ZM 28.43 28.771999L 19 25M 49 25L 39.566002 28.774M 34 19L 34 25M 36.214001 36.576L 39 57M 29 57L 31.785999 36.576M 28 31C 28 34.313709 30.686293 37 34 37C 37.313709 37 40 34.313709 40 31C 40 27.686293 37.313709 25 34 25C 30.686293 25 28 27.686293 28 31Z"></path></g></g></g><g id="g-root-tx_wormspre_1hegk7tww5xl-fill" data-item-order="0" transform="translate(375.8932189941406, 38)"><g id="tx_wormspre_1hegk7tww5xl-fill-merged" stroke="none" fill="#3f3f3f" fill-opacity="1"><g><text style="font: bold 25px Roboto, sans-serif; white-space: pre;" transform="translate(158.10678100585938, 25)" font-weight="bold" font-size="25px" font-family="Roboto, sans-serif"><tspan x="-146.11" y="15" dominant-baseline="ideographic">Worm Spread Over 7 Days</tspan></text></g></g></g><g id="g-root-tx_wormspre_1hegk7tww5xl-stroke" data-item-order="0" transform="translate(375.8932189941406, 38)"></g><g id="g-root-tx_initiali_404t5ww7bg-fill" data-item-order="0" transform="translate(32, 392)"><g id="tx_initiali_404t5ww7bg-fill-merged" stroke="none" fill="#3f3f3f" fill-opacity="1"><g><text style="font: bold 15px Roboto, sans-serif; white-space: pre;" transform="translate(10, 19)" font-weight="bold" font-size="15px" font-family="Roboto, sans-serif"><tspan x="2" y="8.5" dominant-baseline="ideographic">Initial Infection</tspan></text></g></g></g><g id="g-root-tx_initiali_404t5ww7bg-stroke" data-item-order="0" transform="translate(32, 392)"></g><g id="g-root-ic_arro_147zxp5wkyyx-fill" data-item-order="0" transform="translate(692, 141)"></g><g id="g-root-ic_arro_147zxp5wkyyx-stroke" data-item-order="0" transform="translate(692, 141)"><g id="ic_arro_147zxp5wkyyx-stroke" fill="none" stroke-linecap="round" stroke-linejoin="round" stroke-miterlimit="4" stroke="#3f3f3f" stroke-width="1" stroke-opacity="1"><g><path d="M 44.066002 44C 44.065998 46.300819 45.931183 48.166 48.231998 48.166C 50.532818 48.166 52.397999 46.300819 52.397999 44C 52.397999 41.699181 50.532818 39.834 48.231998 39.834C 45.931183 39.834 44.065998 41.699181 44.065998 44M 45.453999 56.5L 56.563999 56.5C 55.899048 53.89912 54.057701 51.757942 51.585693 50.711067C 49.113686 49.664192 46.294624 49.831722 43.964001 51.164001M 15.602 44C 15.602 46.300819 17.467182 48.166 19.768 48.166C 22.068817 48.166 23.934 46.300819 23.934 44C 23.934 41.699181 22.068817 39.834 19.768 39.834C 17.467182 39.834 15.602 41.699181 15.602 44M 22.487999 56.5L 11.436 56.5C 12.098295 53.912041 13.925614 51.778793 16.381168 50.726917C 18.836721 49.675037 21.641655 49.823986 23.972 51.130005M 44.158001 56.5C 44.209476 52.827229 42.279564 49.411205 39.107155 47.559803C 35.934746 45.708397 32.011253 45.708397 28.838844 47.559803C 25.666435 49.411205 23.736523 52.827229 23.787998 56.499996ZM 28.684 34.461998C 31.572502 37.455845 36.012802 38.348686 39.834 36.704002M 27.85 37.517998C 27.85 40.841652 30.544352 43.536003 33.868004 43.536003C 37.19165 43.536003 39.886002 40.841652 39.886002 37.518002C 39.886002 34.194351 37.19165 31.500002 33.868004 31.500002C 30.544352 31.500002 27.85 34.194351 27.85 37.518002M 46.972 35.5C 46.972 35.5 40.972 29.5 40.972 24.5L 49.972 24.5L 33.972 11.5L 17.972 24.5L 26.972 24.5C 26.972 29.5 20.972 35.5 20.972 35.5"></path></g></g></g><g id="g-root-tx_exponent_mfgz15wxkwa-fill" data-item-order="0" transform="translate(536, 392)"><g id="tx_exponent_mfgz15wxkwa-fill-merged" stroke="none" fill="#3f3f3f" fill-opacity="1"><g><text style="font: bold 15px Roboto, sans-serif; white-space: pre;" transform="translate(10, 19)" font-weight="bold" font-size="15px" font-family="Roboto, sans-serif"><tspan x="2" y="8.5" dominant-baseline="ideographic">Exponential Growth</tspan></text></g></g></g><g id="g-root-tx_exponent_mfgz15wxkwa-stroke" data-item-order="0" transform="translate(536, 392)"></g><g id="g-root-tx_1020agen_zs6fkpwxlhf-fill" data-item-order="0" transform="translate(536, 428)"><g id="tx_1020agen_zs6fkpwxlhf-fill-merged" stroke="none" fill="#3f3f3f" fill-opacity="1"><g><text style="font: 15px Roboto, sans-serif; white-space: pre;" transform="translate(10, 27.9970703125)" font-size="15px" font-family="Roboto, sans-serif"><tspan x="2" y="-0.5" dominant-baseline="ideographic">10-20 agents are compromised, </tspan><tspan x="2" y="17.5" dominant-baseline="ideographic">exponential spread begins</tspan></text></g></g></g><g id="g-root-tx_1020agen_zs6fkpwxlhf-stroke" data-item-order="0" transform="translate(536, 428)"></g><g id="g-root-tx_agent1is_1hhl0t5ww6q7-fill" data-item-order="0" transform="translate(32, 428)"><g id="tx_agent1is_1hhl0t5ww6q7-fill-merged" stroke="none" fill="#3f3f3f" fill-opacity="1"><g><text style="font: 15px Roboto, sans-serif; white-space: pre;" transform="translate(10, 19)" font-size="15px" font-family="Roboto, sans-serif"><tspan x="2" y="8.5" dominant-baseline="ideographic">Agent-1 is compromised</tspan></text></g></g></g><g id="g-root-tx_agent1is_1hhl0t5ww6q7-stroke" data-item-order="0" transform="translate(32, 428)"></g><g id="g-root-ic_dist_1i8gpwgr9e-fill" data-item-order="0" transform="translate(440, 141)"></g><g id="g-root-ic_dist_1i8gpwgr9e-stroke" data-item-order="0" transform="translate(440, 141)"><g id="ic_dist_1i8gpwgr9e-stroke" fill="none" stroke-linecap="round" stroke-linejoin="round" stroke-miterlimit="4" stroke="#3f3f3f" stroke-width="1" stroke-opacity="1"><g><path d="M 28.714001 14.02C 30.632814 16.010712 33.279076 17.134922 36.043999 17.133999C 37.431149 17.134844 38.80386 16.852406 40.077999 16.304001M 27.865999 17.133999C 27.865053 20.522383 30.611614 23.269712 34 23.269712C 37.388382 23.269712 40.134945 20.522383 40.133999 17.133999C 40.134945 13.745616 37.388382 10.998286 34 10.998286C 30.611614 10.998286 27.865053 13.745616 27.865999 17.133999M 24.799999 35.534C 24.8013 30.453899 28.919899 26.336355 34 26.336355C 39.080101 26.336355 43.198696 30.453899 43.199997 35.533997ZM 34 26.334L 34 30.968M 34 42.178001L 34 57M 28.888 51.888L 34 57L 39.112 51.888M 57 42.178001L 11 42.178001M 16.112 47.287998L 11 42.178001L 16.112 37.066002M 51.888 47.287998L 57 42.178001L 51.888 37.066002"></path></g></g></g><g id="g-root-ic_1_1ur60rdww6iq-fill" data-item-order="0" transform="translate(188, 141)"></g><g id="g-root-ic_1_1ur60rdww6iq-stroke" data-item-order="0" transform="translate(188, 141)"><g id="ic_1_1ur60rdww6iq-stroke" fill="none" stroke-linecap="round" stroke-linejoin="round" stroke-miterlimit="4" stroke="#3f3f3f" stroke-width="1" stroke-opacity="1"><g><path d="M 38.854797 21.85314C 36.788799 18.37406 32.993797 16.04224 28.653999 16.04224C 22.106579 16.04224 16.79882 21.349979 16.79882 27.897421C 16.79882 34.444801 22.106579 39.752602 28.653999 39.752602C 29.73736 39.752602 30.7868 39.607201 31.7838 39.334999M 50.5998 47.972801L 50.5998 32.826202C 50.600201 32.205399 50.478199 31.590799 50.240799 31.0172C 50.003399 30.4438 49.655201 29.922581 49.2164 29.48366C 48.777401 29.044741 48.256199 28.69664 47.6828 28.459261C 47.1092 28.22188 46.4944 28.09988 45.873798 28.10022L 41.665398 28.10022C 41.0448 28.09988 40.43 28.22188 39.8564 28.459261C 39.283001 28.69664 38.761803 29.044741 38.3228 29.48366C 37.884003 29.922581 37.535801 30.4438 37.298401 31.0172C 37.061199 31.590799 36.939201 32.205399 36.9394 32.826202L 36.9394 47.972801M 48.781799 54.9482L 38.762001 54.9482M 43.769001 47.972599L 43.769001 54.9468M 10 10M 43.770199 28.09984L 43.770199 19.583019M 55.460201 47.973L 32.080799 47.973M 20.689621 36.700401L 17.73106 39.987999M 10 10M 36.554001 19.08346L 39.506599 15.777121M 19.812721 19.96052L 16.525139 17.001961M 10 10M 26.163441 39.4874L 25.24522 43.813801M 10 10M 31.079399 16.29644L 32.016399 11.963888M 10 10M 17.02566 25.434681L 12.69312 24.497681M 10 10M 24.95796 16.626419L 23.583981 12.40186M 10 10M 17.355179 31.555799L 13.13062 32.929802M 24.852959 31.8134C 24.4156 31.955601 23.945721 31.7164 23.803459 31.278999C 23.661221 30.8416 23.900459 30.371799 24.337841 30.229401M 24.85284 31.8132C 25.290199 31.671 25.529461 31.2012 25.387199 30.7638C 25.244961 30.326401 24.77508 30.0872 24.3377 30.229401M 36.9394 35.149597L 42.9384 35.149597M 36.9394 41.539398L 42.9384 41.539398M 30.5042 26.61932C 31.820801 26.61932 32.888199 25.55196 32.888199 24.235321C 32.888199 22.91868 31.820801 21.85132 30.5042 21.85132C 29.187481 21.85132 28.120119 22.91868 28.120119 24.235321C 28.120119 25.55196 29.187481 26.61932 30.5042 26.61932Z"></path></g></g></g></g></g></svg>