<?xml version="1.0" encoding="utf-8" standalone="yes"?>
<!DOCTYPE svg PUBLIC "-//W3C//DTD SVG 1.1//EN" "http://www.w3.org/Graphics/SVG/1.1/DTD/svg11.dtd">
<svg style="fill:none;stroke:none;fill-rule:evenodd;clip-rule:evenodd;stroke-linecap:round;stroke-linejoin:round;stroke-miterlimit:1.5;" version="1.1" xmlns="http://www.w3.org/2000/svg" xmlns:xlink="http://www.w3.org/1999/xlink" width="804" height="666" viewBox="0 0 804 666"><style class="text-font-style fontImports" data-font-family="Roboto">@import url(https://fonts.googleapis.com/css2?family=Roboto:wght@400;700&amp;amp;display=block);</style><g id="items" style="isolation: isolate"><g id="blend" style="mix-blend-mode: normal"><g id="g-root-cp_0_g-0_141rgbd20jc3q-fill" data-item-order="-376423" transform="translate(38.1309814453125, 272.484375)"></g><g id="g-root-cp_0_g-0_141rgbd20jc3q-stroke" data-item-order="-376423" transform="translate(38.1309814453125, 272.484375)"><g id="cp_0_g-0_141rgbd20jc3q-stroke" fill="none" stroke-linecap="round" stroke-linejoin="round" stroke-miterlimit="4" stroke="#3f3f3f" stroke-width="1" stroke-opacity="1"><g><path d="M 645.869141 51.5L 717.869141 51.5M 106 51L 262 51M 286 51L 442 51M 274 63.5L 274 93M 454 10L 454 39.5M 466 51L 622 51M 634 63.5L 634 93M 10 51L 82 51M 94 10L 94 39.5"></path></g></g></g><g id="g-root-cp_1_g-1_4mvdl20jaiv-fill" data-item-order="-376403" transform="translate(77.13101196289062, 148.984375)"></g><g id="g-root-cp_1_g-1_4mvdl20jaiv-stroke" data-item-order="-376403" transform="translate(77.13101196289062, 148.984375)"><g id="cp_1_g-1_4mvdl20jaiv-stroke" fill="none" stroke-linecap="round" stroke-linejoin="round" stroke-miterlimit="4" stroke="#3f3f3f" stroke-width="1" stroke-opacity="1"><g><path d="M 100 55C 100 66.244 94.5 77.5875 89 86L 55.816 132.848C 55.4175 133.4106 54.5825 133.4106 54.184 132.848L 21 86C 14.5 77 10 66.7284 10 55C 10 30.1472 30.1472 10 55 10C 79.8528 10 100 30.1472 100 55ZM 55 91C 74.8822 91 91 74.8822 91 55C 91 35.1177 74.8822 19 55 19C 35.1177 19 19 35.1177 19 55C 19 74.8822 35.1177 91 55 91Z"></path></g></g><g id="cp_1_g-1_4mvdl20jaiv-stroke" fill="none" stroke-linecap="round" stroke-linejoin="round" stroke-miterlimit="4" stroke="#3f3f3f" stroke-width="1" stroke-opacity="1"><g><path d="M 55 187C 61.6274 187 67 181.6274 67 175C 67 168.3726 61.6274 163 55 163C 48.3726 163 43 168.3726 43 175C 43 181.6274 48.3726 187 55 187ZM 55 181C 58.3137 181 61 178.3137 61 175C 61 171.6863 58.3137 169 55 169C 51.6863 169 49 171.6863 49 175C 49 178.3137 51.6863 181 55 181Z"></path></g></g></g><g id="g-root-cp_2_g-2_hx5u1l20jabs-fill" data-item-order="-376399" transform="translate(257.1309814453125, 301.984375)"></g><g id="g-root-cp_2_g-2_hx5u1l20jabs-stroke" data-item-order="-376399" transform="translate(257.1309814453125, 301.984375)"><g id="cp_2_g-2_hx5u1l20jabs-stroke" fill="none" stroke-linecap="round" stroke-linejoin="round" stroke-miterlimit="4" stroke="#3f3f3f" stroke-width="1" stroke-opacity="1"><g><path d="M 100 142.000369C 100 130.756469 94.5 119.412869 89 111.000369L 55.816 64.152469C 55.4175 63.589769 54.5825 63.589769 54.184 64.152469L 21 111.000369C 14.5 120.000369 10 130.271969 10 142.000369C 10 166.853269 30.1472 187.000369 55 187.000369C 79.8528 187.000369 100 166.853269 100 142.000369ZM 55 106.000369C 74.8822 106.000369 91 122.118169 91 142.000369C 91 161.882669 74.8822 178.000369 55 178.000369C 35.1177 178.000369 19 161.882669 19 142.000369C 19 122.118169 35.1177 106.000369 55 106.000369Z"></path></g></g><g id="cp_2_g-2_hx5u1l20jabs-stroke" fill="none" stroke-linecap="round" stroke-linejoin="round" stroke-miterlimit="4" stroke="#3f3f3f" stroke-width="1" stroke-opacity="1"><g><path d="M 55 34C 61.6274 34 67 28.6274 67 22C 67 15.3726 61.6274 10 55 10C 48.3726 10 43 15.3726 43 22C 43 28.6274 48.3726 34 55 34ZM 55 28C 58.3137 28 61 25.3137 61 22C 61 18.6863 58.3137 16 55 16C 51.6863 16 49 18.6863 49 22C 49 25.3137 51.6863 28 55 28Z"></path></g></g></g><g id="g-root-cp_3_g-3_1qbzcd520ja4p-fill" data-item-order="-376393" transform="translate(437.1309814453125, 148.984375)"></g><g id="g-root-cp_3_g-3_1qbzcd520ja4p-stroke" data-item-order="-376393" transform="translate(437.1309814453125, 148.984375)"><g id="cp_3_g-3_1qbzcd520ja4p-stroke" fill="none" stroke-linecap="round" stroke-linejoin="round" stroke-miterlimit="4" stroke="#3f3f3f" stroke-width="1" stroke-opacity="1"><g><path d="M 100 55C 100 66.244 94.5 77.5875 89 86L 55.816 132.848C 55.4175 133.4106 54.5825 133.4106 54.184 132.848L 21 86C 14.5 77 10 66.7284 10 55C 10 30.1472 30.1472 10 55 10C 79.8528 10 100 30.1472 100 55ZM 55 91C 74.8822 91 91 74.8822 91 55C 91 35.1177 74.8822 19 55 19C 35.1177 19 19 35.1177 19 55C 19 74.8822 35.1177 91 55 91Z"></path></g></g><g id="cp_3_g-3_1qbzcd520ja4p-stroke" fill="none" stroke-linecap="round" stroke-linejoin="round" stroke-miterlimit="4" stroke="#3f3f3f" stroke-width="1" stroke-opacity="1"><g><path d="M 55 187C 61.6274 187 67 181.6274 67 175C 67 168.3726 61.6274 163 55 163C 48.3726 163 43 168.3726 43 175C 43 181.6274 48.3726 187 55 187ZM 55 181C 58.3137 181 61 178.3137 61 175C 61 171.6863 58.3137 169 55 169C 51.6863 169 49 171.6863 49 175C 49 178.3137 51.6863 181 55 181Z"></path></g></g></g><g id="g-root-cp_4_g-4_me8ac920jbpm-fill" data-item-order="-376387" transform="translate(617.1309814453125, 301.984375)"></g><g id="g-root-cp_4_g-4_me8ac920jbpm-stroke" data-item-order="-376387" transform="translate(617.1309814453125, 301.984375)"><g id="cp_4_g-4_me8ac920jbpm-stroke" fill="none" stroke-linecap="round" stroke-linejoin="round" stroke-miterlimit="4" stroke="#3f3f3f" stroke-width="1" stroke-opacity="1"><g><path d="M 100 142.000369C 100 130.756469 94.5 119.412869 89 111.000369L 55.816 64.152469C 55.4175 63.589769 54.5825 63.589769 54.184 64.152469L 21 111.000369C 14.5 120.000369 10 130.271969 10 142.000369C 10 166.853269 30.1472 187.000369 55 187.000369C 79.8528 187.000369 100 166.853269 100 142.000369ZM 55 106.000369C 74.8822 106.000369 91 122.118169 91 142.000369C 91 161.882669 74.8822 178.000369 55 178.000369C 35.1177 178.000369 19 161.882669 19 142.000369C 19 122.118169 35.1177 106.000369 55 106.000369Z"></path></g></g><g id="cp_4_g-4_me8ac920jbpm-stroke" fill="none" stroke-linecap="round" stroke-linejoin="round" stroke-miterlimit="4" stroke="#3f3f3f" stroke-width="1" stroke-opacity="1"><g><path d="M 55 34C 61.6274 34 67 28.6274 67 22C 67 15.3726 61.6274 10 55 10C 48.3726 10 43 15.3726 43 22C 43 28.6274 48.3726 34 55 34ZM 55 28C 58.3137 28 61 25.3137 61 22C 61 18.6863 58.3137 16 55 16C 51.6863 16 49 18.6863 49 22C 49 25.3137 51.6863 28 55 28Z"></path></g></g></g><g id="g-root-tx_attacker_zqxqvt20jcar-fill" data-item-order="0" transform="translate(187.02474975585938, 38)"><g id="tx_attacker_zqxqvt20jcar-fill-merged" stroke="none" fill="#3f3f3f" fill-opacity="1"><g><text style="font: bold 25px Roboto, sans-serif; white-space: pre;" transform="translate(214.97525024414062, 25)" font-weight="bold" font-size="25px" font-family="Roboto, sans-serif"><tspan x="-202.98" y="15" dominant-baseline="ideographic">Attacker Sophistication Progression</tspan></text></g></g></g><g id="g-root-tx_attacker_zqxqvt20jcar-stroke" data-item-order="0" transform="translate(187.02474975585938, 38)"></g><g id="g-root-tx_zombieag_18lygd520ujut-fill" data-item-order="0" transform="translate(217.91015625, 128)"><g id="tx_zombieag_18lygd520ujut-fill-merged" stroke="none" fill="#3f3f3f" fill-opacity="1"><g><text style="font: bold 15px Roboto, sans-serif; white-space: pre;" transform="translate(94.08984375, 27.9970703125)" font-weight="bold" font-size="15px" font-family="Roboto, sans-serif"><tspan x="-82.09" y="-0.5" dominant-baseline="ideographic">ZombieAgent Scenarios </tspan><tspan x="-45.94" y="17.5" dominant-baseline="ideographic">1-2 Jan 2026</tspan></text></g></g></g><g id="g-root-tx_zombieag_18lygd520ujut-stroke" data-item-order="0" transform="translate(217.91015625, 128)"></g><g id="g-root-tx_zombieag_1cuwtp520vwug-fill" data-item-order="0" transform="translate(580.9309692382812, 128)"><g id="tx_zombieag_1cuwtp520vwug-fill-merged" stroke="none" fill="#3f3f3f" fill-opacity="1"><g><text style="font: bold 15px Roboto, sans-serif; white-space: pre;" transform="translate(91.06903076171875, 27.9970703125)" font-weight="bold" font-size="15px" font-family="Roboto, sans-serif"><tspan x="-79.07" y="-0.5" dominant-baseline="ideographic">ZombieAgent Scenario </tspan><tspan x="-39.52" y="17.5" dominant-baseline="ideographic">4 Jan 2026</tspan></text></g></g></g><g id="g-root-tx_zombieag_1cuwtp520vwug-stroke" data-item-order="0" transform="translate(580.9309692382812, 128)"></g><g id="g-root-ic_warn_1ly1izd20vz0s-fill" data-item-order="0" transform="translate(98.1309814453125, 169.984375)"></g><g id="g-root-ic_warn_1ly1izd20vz0s-stroke" data-item-order="0" transform="translate(98.1309814453125, 169.984375)"><g id="ic_warn_1ly1izd20vz0s-stroke" fill="none" stroke-linecap="round" stroke-linejoin="round" stroke-miterlimit="4" stroke="#3f3f3f" stroke-width="1" stroke-opacity="1"><g><path d="M 44.98 50.986C 45.256142 50.986 45.48 51.209858 45.48 51.486C 45.48 51.762142 45.256142 51.986 44.98 51.986C 44.703857 51.986 44.48 51.762142 44.48 51.486C 44.48 51.209858 44.703857 50.986 44.98 50.986M 44.98 46.986L 44.98 40.986M 46.655998 35C 46.326572 34.380157 45.681942 33.992744 44.98 33.992744C 44.278057 33.992744 43.633427 34.380157 43.303997 35L 33.200001 54.262001C 32.89592 54.839626 32.920265 55.535053 33.264 56.09C 33.608978 56.648647 34.219421 56.987949 34.875999 56.986L 55.091999 56.986C 55.749187 56.988258 56.360371 56.648964 56.706001 56.09C 57.048298 55.534451 57.071873 54.839462 56.767998 54.261997ZM 26.98 57.07L 12.98 57.07C 11.87543 57.07 10.98 56.174568 10.98 55.07L 10.98 13.07C 10.98 11.96543 11.87543 11.07 12.98 11.07L 39.566002 11.07C 40.09639 11.070113 40.605015 11.280901 40.98 11.656L 48.400002 19.07C 48.775097 19.444984 48.985886 19.953609 48.986 20.484001L 48.986 29.07M 16.98 41.07L 34.98 41.07M 19.98 31.07L 21.98 31.07C 22.532284 31.07 22.98 31.517715 22.98 32.07L 22.98 41.07L 22.98 41.07L 18.98 41.07L 18.98 41.07L 18.98 32.07C 18.98 31.517715 19.427715 31.07 19.98 31.07ZM 30.98 41.07L 30.98 26.07C 30.98 25.517715 30.532286 25.07 29.98 25.07L 27.98 25.07C 27.427715 25.07 26.98 25.517715 26.98 26.07L 26.98 41.07M 38.98 33.07L 38.98 30.07C 38.98 29.517715 38.532288 29.07 37.98 29.07L 35.98 29.07C 35.427715 29.07 34.98 29.517715 34.98 30.07L 34.98 41.07"></path></g></g></g><g id="g-root-ic_sele_1lt0evt2alpmo-fill" data-item-order="0" transform="translate(458.1309814453125, 169.984375)"></g><g id="g-root-ic_sele_1lt0evt2alpmo-stroke" data-item-order="0" transform="translate(458.1309814453125, 169.984375)"><g id="ic_sele_1lt0evt2alpmo-stroke" fill="none" stroke-linecap="round" stroke-linejoin="round" stroke-miterlimit="4" stroke="#3f3f3f" stroke-width="1" stroke-opacity="1"><g><path d="M 47.435978 15.243997L 48.435974 15.243997M 53.283974 16.955996C 54.69799 18.285063 55.423031 20.190069 55.250507 22.122971C 55.077984 24.055872 54.02702 25.802359 52.399975 26.859989M 49.955975 27.799988C 49.625301 27.85322 49.290905 27.879972 48.955975 27.879988M 44.839977 48.527973L 44.923977 49.523972M 45.429977 55.599968L 45.513977 56.59597L 46.513977 56.59597M 51.405972 56.59597L 52.405972 56.59597L 52.487972 55.599968M 52.827972 51.529972L 53.109974 48.139973M 53.279972 46.105976L 53.363972 45.109978L 54.363968 45.109978M 55.999969 45.109978L 56.999969 45.109978L 56.999969 44.109978M 56.999969 38.95998L 56.999969 38.217983C 56.99939 34.611279 54.598774 31.445608 51.125973 30.471987M 48.573975 30.185987C 48.242062 30.20154 47.91143 30.23761 47.583977 30.293985M 27.203989 18.281994C 27.203989 22.080606 30.283373 25.15999 34.081985 25.15999C 37.880596 25.15999 40.95998 22.080606 40.95998 18.281994C 40.95998 14.483382 37.880596 11.403999 34.081985 11.403999C 30.283373 11.403999 27.203989 14.483382 27.203989 18.281994M 25.32799 36.411983C 25.400284 31.629423 29.297878 27.790298 34.080982 27.790298C 38.86409 27.790298 42.761681 31.629423 42.833977 36.41198L 42.833977 43.915977L 38.87598 43.915977L 37.831982 56.419968L 30.329987 56.419968L 29.287987 43.915977L 25.32799 43.915977ZM 20.563993 15.243997L 19.563993 15.243997M 14.715997 16.955996C 13.301977 18.285063 12.576937 20.190069 12.749462 22.122971C 12.921987 24.055872 13.972948 25.802359 15.599997 26.859989M 18.043995 27.799988C 18.374668 27.85322 18.709064 27.879972 19.043993 27.879988M 23.15999 48.527973L 23.075993 49.523972M 22.569992 55.599968L 22.485992 56.59597L 21.485992 56.59597M 16.593996 56.59597L 15.593996 56.59597L 15.511996 55.599968M 15.171996 51.529972L 14.889997 48.139973M 14.719996 46.105976L 14.635997 45.109978L 13.635998 45.109978M 11.999999 45.109978L 10.999999 45.109978L 10.999999 44.109978M 10.999999 38.95998L 10.999999 38.217983C 11.000578 34.611279 13.401192 31.445608 16.873995 30.471987M 19.425993 30.185987C 19.761251 30.201126 20.095234 30.237198 20.425993 30.293985M 29.147987 13.493998C 32.223946 16.69175 36.513508 18.432295 40.947979 18.281994"></path></g></g></g><g id="g-root-tx_cloudsid_1lrsoyh20vzeu-fill" data-item-order="0" transform="translate(221.26953125, 175.994140625)"><g id="tx_cloudsid_1lrsoyh20vzeu-fill-merged" stroke="none" fill="#3f3f3f" fill-opacity="1"><g><text style="font: 15px Roboto, sans-serif; white-space: pre;" transform="translate(90.73046875, 36.9951171875)" font-size="15px" font-family="Roboto, sans-serif"><tspan x="-66.23" y="-9.49" dominant-baseline="ideographic">Cloud-side evasion, </tspan><tspan x="-78.73" y="8.5" dominant-baseline="ideographic">Character-by-character, </tspan><tspan x="-36.07" y="26.49" dominant-baseline="ideographic">File-based</tspan></text></g></g></g><g id="g-root-tx_cloudsid_1lrsoyh20vzeu-stroke" data-item-order="0" transform="translate(221.26953125, 175.994140625)"></g><g id="g-root-tx_memorype_qpoqc920vy89-fill" data-item-order="0" transform="translate(588.4895629882812, 175.994140625)"><g id="tx_memorype_qpoqc920vy89-fill-merged" stroke="none" fill="#3f3f3f" fill-opacity="1"><g><text style="font: 15px Roboto, sans-serif; white-space: pre;" transform="translate(83.51043701171875, 36.9951171875)" font-size="15px" font-family="Roboto, sans-serif"><tspan x="-71.51" y="-9.49" dominant-baseline="ideographic">Memory persistence, </tspan><tspan x="-68.5" y="8.5" dominant-baseline="ideographic">Indefinite execution, </tspan><tspan x="-62.71" y="26.49" dominant-baseline="ideographic">Permanent insider</tspan></text></g></g></g><g id="g-root-tx_memorype_qpoqc920vy89-stroke" data-item-order="0" transform="translate(588.4895629882812, 175.994140625)"></g><g id="g-root-tx_shadowle_1cza5ax20vzey-fill" data-item-order="0" transform="translate(43.723968505859375, 397.984375)"><g id="tx_shadowle_1cza5ax20vzey-fill-merged" stroke="none" fill="#3f3f3f" fill-opacity="1"><g><text style="font: bold 15px Roboto, sans-serif; white-space: pre;" transform="translate(88.27603149414062, 19)" font-weight="bold" font-size="15px" font-family="Roboto, sans-serif"><tspan x="-76.28" y="8.5" dominant-baseline="ideographic">ShadowLeak Jan 2025</tspan></text></g></g></g><g id="g-root-tx_shadowle_1cza5ax20vzey-stroke" data-item-order="0" transform="translate(43.723968505859375, 397.984375)"></g><g id="g-root-ic_head_htezix20kqh0-fill" data-item-order="0" transform="translate(278.1309814453125, 409.984375)"></g><g id="g-root-ic_head_htezix20kqh0-stroke" data-item-order="0" transform="translate(278.1309814453125, 409.984375)"><g id="ic_head_htezix20kqh0-stroke" fill="none" stroke-linecap="round" stroke-linejoin="round" stroke-miterlimit="4" stroke="#3f3f3f" stroke-width="1" stroke-opacity="1"><g><path d="M 33.000015 50.999973L 35.000015 50.999973M 46.000008 38.999981C 46.000008 32.37257 40.62743 26.999989 34.000015 26.999989C 27.372602 26.999989 22.000023 32.37257 22.000023 38.999981L 22.000023 42.999977C 22.000023 49.627392 27.372602 54.999969 34.000015 54.999969C 40.62743 54.999969 46.000008 49.627392 46.000008 42.999977ZM 22.000023 38.961983C 24.576021 38.739983 29.000017 35.999985 29.000017 31.999985C 32.000015 36.999981 36.000015 38.999981 42.000008 38.999981L 46.000008 38.999981M 22.000023 43.571976C 22.000023 45.463978 25.532021 46.999977 27.834019 46.999977C 29.924637 47.18293 31.777008 45.658707 32.000015 43.57198C 32.000015 41.677979 30.134018 40.999981 27.834019 40.999981C 25.534021 40.999981 22.000023 41.677979 22.000023 43.571976ZM 46.000008 43.571976C 46.000008 45.463978 42.468006 46.999977 40.166012 46.999977C 38.075394 47.18293 36.223022 45.658707 36.000015 43.57198C 36.000015 41.677979 37.866013 40.999981 40.166012 40.999981C 42.466007 40.999981 46.000008 41.677979 46.000008 43.571976ZM 36.000015 42.999977L 32.000015 42.999977M 51.000004 12.999998L 52.000004 12.999998C 52.552288 12.999998 53.000004 13.447713 53.000004 13.999997L 53.000004 20.999992M 51.000004 20.999992L 55 20.999992M 51.000004 26.999989L 52.000004 26.999989C 52.552288 26.999989 53.000004 27.447704 53.000004 27.999989L 53.000004 34.999985M 51.000004 34.999985L 55 34.999985M 13.000029 12.999998L 14.000028 12.999998C 14.552312 12.999998 15.000028 13.447713 15.000028 13.999997L 15.000028 20.999992M 13.000029 20.999992L 17.000027 20.999992M 13.000029 42.999977L 14.000028 42.999977C 14.552312 42.999977 15.000028 43.447693 15.000028 43.999977L 15.000028 50.999973M 13.000029 50.999973L 17.000027 50.999973M 43.000008 18.999994C 43.000008 20.104563 42.104576 20.999992 41.000011 20.999992C 39.895439 20.999992 39.000011 20.104563 39.000011 18.999994L 39.000011 14.999997C 39.000011 13.895428 39.895439 12.999998 41.000011 12.999998C 42.104576 12.999998 43.000008 13.895428 43.000008 14.999997ZM 55 48.999973C 55 50.104542 54.104568 50.999973 53.000004 50.999973C 51.895435 50.999973 51.000004 50.104542 51.000004 48.999973L 51.000004 44.999977C 51.000004 43.895409 51.895435 42.999977 53.000004 42.999977C 54.104568 42.999977 55 43.895409 55 44.999977ZM 29.000017 18.999994C 29.000017 20.104563 28.104589 20.999992 27.000019 20.999992C 25.895451 20.999992 25.000021 20.104563 25.000021 18.999994L 25.000021 14.999997C 25.000021 13.895428 25.895451 12.999998 27.000019 12.999998C 28.104589 12.999998 29.000017 13.895428 29.000017 14.999997ZM 17.000027 32.999985C 17.000027 34.104553 16.104595 34.999985 15.000028 34.999985C 13.895458 34.999985 13.000029 34.104553 13.000029 32.999985L 13.000029 28.999987C 13.000029 27.895418 13.895458 26.999989 15.000028 26.999989C 16.104595 26.999989 17.000027 27.895418 17.000027 28.999987Z"></path></g></g></g><g id="g-root-tx_zombieag_mg2no92akcg6-fill" data-item-order="0" transform="translate(400.93096923828125, 397.984375)"><g id="tx_zombieag_mg2no92akcg6-fill-merged" stroke="none" fill="#3f3f3f" fill-opacity="1"><g><text style="font: bold 15px Roboto, sans-serif; white-space: pre;" transform="translate(91.06903076171875, 27.9970703125)" font-weight="bold" font-size="15px" font-family="Roboto, sans-serif"><tspan x="-79.07" y="-0.5" dominant-baseline="ideographic">ZombieAgent Scenario </tspan><tspan x="-39.52" y="17.5" dominant-baseline="ideographic">3 Jan 2026</tspan></text></g></g></g><g id="g-root-tx_zombieag_mg2no92akcg6-stroke" data-item-order="0" transform="translate(400.93096923828125, 397.984375)"></g><g id="g-root-ic_bug_4mbz2x20vztb-fill" data-item-order="0" transform="translate(638.1309814453125, 409.984375)"></g><g id="g-root-ic_bug_4mbz2x20vztb-stroke" data-item-order="0" transform="translate(638.1309814453125, 409.984375)"><g id="ic_bug_4mbz2x20vztb-stroke" fill="none" stroke-linecap="round" stroke-linejoin="round" stroke-miterlimit="4" stroke="#3f3f3f" stroke-width="1" stroke-opacity="1"><g><path d="M 11.008 19.001999C 11.008 23.420277 19.514591 27.002001 30.007999 27.002001C 40.501411 27.002001 49.007999 23.420277 49.007999 19.001999C 49.007999 14.583722 40.501411 11.002 30.007999 11.002C 19.514591 11.002 11.008 14.583722 11.008 19.001999ZM 33 34.900002C 32.021999 34.966 31.02 35.001999 30 35.001999C 19.507999 35.001999 11 31.422001 11 27.002001M 30 44C 19.515999 44 11 40.422001 11 36M 30 53C 19.507999 53 11 49.419998 11 45L 11 19M 49.007999 19.001999L 49.007999 33.001999M 53 51C 53 54.313709 50.313709 57 47 57C 43.686291 57 41 54.313709 41 51L 41 45C 41 41.686295 43.686291 39 47 39C 50.313709 39 53 41.686295 53 45ZM 52.206001 42.018002L 57 39.001999M 41.793999 42.018002L 37 39.001999M 52.206001 53.984001L 57 57.001999M 41.793999 53.984001L 37 57.001999M 53 49.001999L 57 49.001999M 41 49.001999L 37 49.001999M 41 45.001999L 53 45.001999"></path></g></g></g><g id="g-root-tx_singleev_1urt3yx20vz7v-fill" data-item-order="0" transform="translate(39.38151550292969, 427.984375)"><g id="tx_singleev_1urt3yx20vz7v-fill-merged" stroke="none" fill="#3f3f3f" fill-opacity="1"><g><text style="font: 15px Roboto, sans-serif; white-space: pre;" transform="translate(92.61848449707031, 27.9970703125)" font-size="15px" font-family="Roboto, sans-serif"><tspan x="-80.62" y="-0.5" dominant-baseline="ideographic">Single-event exfiltration, </tspan><tspan x="-51.65" y="17.5" dominant-baseline="ideographic">No persistence</tspan></text></g></g></g><g id="g-root-tx_singleev_1urt3yx20vz7v-stroke" data-item-order="0" transform="translate(39.38151550292969, 427.984375)"></g><g id="g-root-tx_contacth_dcbhax2alqtj-fill" data-item-order="0" transform="translate(413.70440673828125, 445.978515625)"><g id="tx_contacth_dcbhax2alqtj-fill-merged" stroke="none" fill="#3f3f3f" fill-opacity="1"><g><text style="font: 15px Roboto, sans-serif; white-space: pre;" transform="translate(78.29559326171875, 36.9951171875)" font-size="15px" font-family="Roboto, sans-serif"><tspan x="-66.3" y="-9.49" dominant-baseline="ideographic">Contact harvesting, </tspan><tspan x="-62.34" y="8.5" dominant-baseline="ideographic">100+ propagation, </tspan><tspan x="-52.23" y="26.49" dominant-baseline="ideographic">Cascade effect</tspan></text></g></g></g><g id="g-root-tx_contacth_dcbhax2alqtj-stroke" data-item-order="0" transform="translate(413.70440673828125, 445.978515625)"></g></g></g></svg>