<?xml version="1.0" encoding="utf-8" standalone="yes"?>
<!DOCTYPE svg PUBLIC "-//W3C//DTD SVG 1.1//EN" "http://www.w3.org/Graphics/SVG/1.1/DTD/svg11.dtd">
<svg style="fill:none;stroke:none;fill-rule:evenodd;clip-rule:evenodd;stroke-linecap:round;stroke-linejoin:round;stroke-miterlimit:1.5;" version="1.1" xmlns="http://www.w3.org/2000/svg" xmlns:xlink="http://www.w3.org/1999/xlink" width="792" height="774" viewBox="0 0 792 774"><style class="text-font-style fontImports" data-font-family="Roboto">@import url(https://fonts.googleapis.com/css2?family=Roboto:wght@400;700&amp;amp;display=block);</style><g id="items" style="isolation: isolate"><g id="blend" style="mix-blend-mode: normal"><g id="g-root-cp_common_g-common_7qt093yc7po-fill" data-item-order="-496981" transform="translate(261, 417.8046875)"></g><g id="g-root-cp_common_g-common_7qt093yc7po-stroke" data-item-order="-496981" transform="translate(261, 417.8046875)"><g id="cp_common_g-common_7qt093yc7po-stroke" fill="none" stroke-linecap="round" stroke-linejoin="round" stroke-miterlimit="4" stroke="#3f3f3f" stroke-width="1" stroke-opacity="1"><g><path d="M 186.4443 81.9707C 188.1635 82.5027 190.3501 82.9705 193.1064 83.3262C 197.9834 83.9555 201.5758 86.3592 204.1709 89.4287C 200.7634 90.5042 195.4913 91.1963 189.5732 91.1963C 179.2987 91.1963 170.9687 89.1165 170.9678 86.5508C 170.9678 84.2512 177.6589 82.3423 186.4443 81.9707ZM 211.4746 45.041C 212.1625 53.3235 212.6731 62.0517 213.0215 71.2178C 211.0721 71.2945 209.1036 71.3359 207.125 71.3359C 207.0781 71.3359 207.0313 71.335 206.9844 71.335C 200.806 69.7471 199.6529 64.9566 196.6074 65.8262C 194.1897 66.517 194.9272 69.0438 195.083 71.25C 172.4858 70.9828 152.1538 70.358 152.1523 73.8984C 152.1523 78.0621 159.339 79.7388 159.3398 82.1035C 159.3398 84.4684 149.5554 86.7109 113.75 86.7109C 98.2292 86.7109 77.0024 85.6264 57.9326 83.4336C 58.2316 70.1216 58.6227 57.6394 59.1328 45.9414C 72.708 55.8456 101.4507 62.6767 134.7139 62.6768C 155.1443 62.6768 173.8689 60.0977 188.4219 55.8145C 189.1183 55.7663 189.7703 55.5598 190.3438 55.2305C 199.3077 52.4269 206.5591 48.9579 211.4746 45.041ZM 49.8398 24.377C 48.4762 41.7109 47.523 60.8707 46.8711 81.9922C 27.0377 79.0725 11.7723 74.7866 11.7715 69.0947C 11.7715 57.2435 46.2324 55.9617 46.2324 46.6729C 46.2321 37.3842 10.0008 36.1029 10 26.1738C 10 19.6081 33.3346 12.3735 48.249 10L 49.8398 24.377ZM 170.6016 75.4355C 173.7071 75.6371 176 76.3401 176 77.1787C 175.9994 78.1743 172.7673 78.9814 168.7803 78.9814C 164.7932 78.9814 161.5611 78.1743 161.5605 77.1787C 161.5605 76.4662 163.2158 75.8523 165.6182 75.5596C 165.7354 76.8313 166.8051 77.8271 168.1074 77.8271C 169.4515 77.8269 170.5447 76.7657 170.6016 75.4355ZM 221.0439 11.2139C 233.0247 13.5745 248.625 17.1462 248.625 20.7295C 248.6246 26.8141 231.6451 30.0171 231.6445 37.3838C 231.6445 44.7508 259 50.5168 259 57.2432C 258.9997 62.2024 245.3984 67.5088 227.4893 69.9551C 226.0581 67.6917 225.4996 64.4438 223.9551 62.6475L 223.7217 62.3965L 223.5342 60.1494C 222.4997 48.0791 221.0955 36.9277 219.334 26.667L 221.0439 11.2139Z"></path></g></g></g><g id="g-root-cp_common_g-common_1_18lxu8p3ycaod-fill" data-item-order="-496977" transform="translate(264.8459167480469, 199.0009765625)"></g><g id="g-root-cp_common_g-common_1_18lxu8p3ycaod-stroke" data-item-order="-496977" transform="translate(264.8459167480469, 199.0009765625)"><g id="cp_common_g-common_1_18lxu8p3ycaod-stroke" fill="none" stroke-linecap="round" stroke-linejoin="round" stroke-miterlimit="4" stroke="#3f3f3f" stroke-width="1" stroke-opacity="1"><g><path d="M 29.461539 135.524411C 31.184739 138.48741 33.045539 141.36741 35.035739 144.156211L 36.083539 153.618211C 31.509839 148.090111 27.450739 142.151411 23.975139 135.869111C 25.821039 135.700211 27.650539 135.583311 29.461539 135.524411ZM 246.188039 78.234411C 249.368039 79.027611 251.702339 81.850511 251.734939 85.186511L 251.731039 85.510711C 250.833839 111.228311 241.222439 134.799911 225.652939 153.618211L 226.700739 144.155311C 238.734639 127.292011 246.039239 107.098211 246.798439 85.338911L 246.796439 85.142611C 246.742739 84.165711 246.037639 83.283011 244.992739 83.022511L 239.906839 81.754911L 240.451739 76.803711L 246.188039 78.234411ZM 21.692939 81.789111L 16.742739 83.022511C 15.628239 83.300411 14.900439 84.285911 14.937039 85.338911C 15.512239 101.824511 19.845539 117.411211 27.145039 131.332011C 25.386539 131.422111 23.604439 131.559611 21.801339 131.745111C 14.757339 117.681711 10.581039 102.039411 10.004439 85.510711C 9.883339 82.034711 12.264939 79.053211 15.547439 78.234411L 21.144139 76.838911L 21.692939 81.789111Z"></path></g></g><g id="cp_common_g-common_1_18lxu8p3ycaod-stroke" fill="none" stroke-linecap="round" stroke-linejoin="round" stroke-miterlimit="4" stroke="#3f3f3f" stroke-width="1" stroke-opacity="1"><g><path d="M 224.428764 164.676773C 216.992064 163.620073 209.518964 163.478773 202.060664 164.353473C 201.472064 164.422673 200.881264 164.745473 200.778364 165.329073C 200.595564 166.367973 201.372664 167.115173 202.732564 166.519573C 203.026264 166.390773 203.332164 166.283573 203.652464 166.266573C 210.370564 165.910973 217.200364 166.478073 224.074264 167.883773L 215.487364 245.471673C 203.435164 175.265273 174.629364 146.761973 132.653364 151.001973C 130.452164 151.224573 129.211864 153.875173 132.418064 154.463873C 132.572164 154.492173 132.737664 154.493573 132.893664 154.479473C 180.477664 150.179273 201.381464 188.630673 207.628064 263.844773C 202.712564 267.761673 195.461164 271.230573 186.497164 274.034173C 187.848964 273.257873 188.760864 271.801573 188.760864 270.130873C 188.760864 267.645773 186.745864 265.631073 184.260864 265.630873C 181.775564 265.630873 179.760864 267.645573 179.760864 270.130873C 179.760864 272.616173 181.775564 274.630873 184.260864 274.630873C 184.366564 274.630873 184.471364 274.625373 184.575264 274.618173C 170.022564 278.901373 151.297664 281.480473 130.867264 281.480473C 97.603564 281.480373 68.860964 274.648573 55.286264 264.744173C 60.293364 149.921573 76.646564 110.643173 127.434664 103.602573C 128.661964 103.432373 129.759664 102.848373 129.759864 101.609373C 129.759864 100.768273 129.242564 100.030973 128.469864 99.769573C 128.290864 99.709073 128.092164 99.709773 127.904364 99.730473C 74.481964 105.620573 53.695464 145.276573 45.993264 243.179673L 34.076264 135.497073C 44.228464 135.703973 53.689664 137.726573 61.956164 141.659173C 63.173564 142.238373 64.614864 141.384073 64.636764 140.036173C 64.647264 139.394573 64.327764 138.800973 63.769664 138.484373C 55.585564 133.845373 45.232564 131.413773 33.602664 131.217773L 26.388764 66.030273C 43.694264 76.618073 83.958264 84.039973 130.867264 84.040073C 177.776464 84.040073 218.041264 76.618173 235.346764 66.030273L 224.428764 164.676773Z"></path></g></g><g id="cp_common_g-common_1_18lxu8p3ycaod-stroke" fill="none" stroke-linecap="round" stroke-linejoin="round" stroke-miterlimit="4" stroke="#3f3f3f" stroke-width="1" stroke-opacity="1"><g><path d="M 130.867747 9.999023C 68.167847 9.999023 17.339447 23.258623 17.339447 39.615123L 17.339447 54.423123C 17.339447 58.542523 20.563347 62.465423 26.388847 66.029523C 43.694347 76.617423 83.958647 84.039223 130.867747 84.039223C 177.776947 84.039223 218.041147 76.617423 235.346747 66.029523C 241.172247 62.465423 244.396147 58.542523 244.396147 54.423123L 244.396147 39.615123C 244.396147 23.258623 193.567747 9.999023 130.867747 9.999023ZM 27.211447 39.615123C 27.211447 25.984723 73.619947 14.935023 130.867747 14.935023C 188.115547 14.935023 234.524047 25.984723 234.524047 39.615123C 234.524047 43.774823 230.201847 47.694223 222.568447 51.132523C 205.188747 58.960723 170.644747 64.295223 130.867747 64.295223C 91.090747 64.295223 56.546747 58.960623 39.167147 51.132523C 31.533647 47.694223 27.211447 43.774823 27.211447 39.615123ZM 222.568447 51.132523C 230.201847 47.694223 234.524047 43.774823 234.524047 39.615123C 234.524047 25.984723 188.115547 14.935023 130.867747 14.935023C 73.619947 14.935023 27.211447 25.984723 27.211447 39.615123C 27.211447 43.774823 31.533647 47.694223 39.167147 51.132523C 56.546747 43.304323 91.090747 37.969723 130.867747 37.969723C 170.644747 37.969723 205.188747 43.304323 222.568447 51.132523Z"></path></g></g><g id="cp_common_g-common_1_18lxu8p3ycaod-stroke" fill="none" stroke-linecap="round" stroke-linejoin="round" stroke-miterlimit="4" stroke="#3f3f3f" stroke-width="1" stroke-opacity="1"><g><path d="M 21.060898 76.073887C 20.896198 74.582087 21.419198 73.096487 22.481998 72.036787L 26.601298 67.929687L 28.989998 89.500587C 27.109998 88.308787 25.693698 87.437587 24.071798 86.424287C 22.800398 85.629987 21.968398 84.293987 21.803898 82.803887L 21.060898 76.073887Z"></path></g></g><g id="cp_common_g-common_1_18lxu8p3ycaod-stroke" fill="none" stroke-linecap="round" stroke-linejoin="round" stroke-miterlimit="4" stroke="#3f3f3f" stroke-width="1" stroke-opacity="1"><g><path d="M 240.534292 76.070175C 240.698792 74.580675 240.177692 73.097175 239.117992 72.037775L 235.125992 68.046875L 232.750092 89.478475L 237.534892 86.432175C 238.796692 85.628875 239.626092 84.296775 239.790192 82.810075L 240.534292 76.070175Z"></path></g></g></g><g id="g-root-cp_common_g-common_2_hznal53ycaoe-fill" data-item-order="-496965" transform="translate(284.6149597167969, 284.921875)"></g><g id="g-root-cp_common_g-common_2_hznal53ycaoe-stroke" data-item-order="-496965" transform="translate(284.6149597167969, 284.921875)"><g id="cp_common_g-common_2_hznal53ycaoe-stroke" fill="none" stroke-linecap="round" stroke-linejoin="round" stroke-miterlimit="4" stroke="#3f3f3f" stroke-width="1" stroke-dasharray="2.5, 3.5" stroke-opacity="1"><g><path d="M 212.204431 10C 208.637831 25.4332 164.734231 37.6285 111.098531 37.6285C 96.279831 37.6285 82.204031 36.6976 69.516631 35.0247C 67.135031 34.7107 64.802431 34.3705 62.522931 34.0055C 33.023031 29.281 12.431031 20.3871 10.000031 10.0318M 207.926131 49.4688C 205.526231 60.3125 184.055331 69.5578 153.680331 74.0975M 14.278831 49.5006C 15.924031 56.8184 26.254931 63.4064 42.144131 68.309M 203.545931 88.9375C 202.109031 95.7374 193.512231 101.9086 180.149231 106.6852M 18.659231 88.9693C 19.751631 94.0586 24.854931 98.7948 32.964731 102.8566M 198.990731 128.0781C 198.263531 131.7418 195.609931 135.2255 191.372331 138.4124M 22.990731 128.1104C 23.574231 131.0045 25.359931 133.7859 28.178931 136.3972M 41.775331 106.5869C 58.749631 112.7085 83.517031 116.566 111.099131 116.566C 135.320731 116.566 157.371731 113.5912 173.880631 108.7207M 37.684631 142.7443C 53.514931 150.7856 80.437531 156.0781 110.987531 156.0781C 141.023531 156.0781 167.553131 150.9622 183.482031 143.1479M 147.211931 74.9759C 136.049431 76.3443 123.861931 77.0972 111.098931 77.0972C 87.828231 77.0972 66.470531 74.5942 49.750931 70.4211"></path></g></g></g><g id="g-root-cp_common_g-common_3_4ot9ax3yc93j-fill" data-item-order="-496961" transform="translate(294.0129699707031, 226.97265625)"></g><g id="g-root-cp_common_g-common_3_4ot9ax3yc93j-stroke" data-item-order="-496961" transform="translate(294.0129699707031, 226.97265625)"><g id="cp_common_g-common_3_4ot9ax3yc93j-stroke" fill="none" stroke-linecap="round" stroke-linejoin="round" stroke-miterlimit="4" stroke="#3f3f3f" stroke-width="1" stroke-opacity="1"><g><path d="M 101.7006 36.3254C 61.9236 36.3254 27.3796 30.9909 10 23.1627C 27.3796 15.3345 61.9236 10 101.7006 10C 141.4776 10 176.0216 15.3345 193.4013 23.1627C 176.0216 30.9909 141.4776 36.3254 101.7006 36.3254Z"></path></g></g></g><g id="g-root-cp_1_g-1_1uuab153ycagw-fill" data-item-order="-496957" transform="translate(92.60598754882812, 320.203125)"></g><g id="g-root-cp_1_g-1_1uuab153ycagw-stroke" data-item-order="-496957" transform="translate(92.60598754882812, 320.203125)"><g id="cp_1_g-1_1uuab153ycagw-stroke" fill="none" stroke-linecap="round" stroke-linejoin="round" stroke-miterlimit="4" stroke="#3f3f3f" stroke-width="1" stroke-opacity="1"><g><path d="M 78.4999 180.924C 66.5844 182.4615 62.3329 194.5871 61.5752 201.1519C 61.5189 201.6399 61.2539 202.0836 60.8417 202.3509C 55.65 205.7186 48.9066 205.7554 43.7148 202.3877C 43.269 202.0986 43.0025 201.6042 42.9891 201.073C 42.7152 190.2353 37.2562 177.288 27.9999 173.9237C 23.8713 172.4231 21.116 170.6914 22.4998 167.9256C 24.1133 164.7006 28.3302 166.6785 32 169.4012C 32.8792 170.0534 33.7269 170.7485 34.5 171.4249C 38.5 174.925 41 176.9248 46 177.4248C 46.4096 177.4658 46.8025 177.4732 47.1804 177.4525C 51.4163 177.2209 53.7869 173.4645 57.0001 173.9236C 57.5037 173.9955 57.966 174.1399 58.4002 174.336C 60.9835 175.5026 62.5756 178.4968 66 178.9248C 70 179.4248 76.5001 177.4239 79.5001 175.4239C 81.1676 174.3123 83.144 173.2006 85 172.6041C 86.4833 172.1274 87.8894 171.9798 88.9999 172.424C 91.4999 173.424 93.9999 178.924 78.4999 180.924ZM 88 153.9248C 88 156.4101 85.9853 158.4248 83.5 158.4248C 81.0147 158.4248 79 156.4101 79 153.9248C 79 151.4395 81.0147 149.4248 83.5 149.4248C 85.9853 149.4248 88 151.4395 88 153.9248ZM 106 172.9248C 106 174.3055 104.8807 175.4248 103.5 175.4248C 102.1193 175.4248 101 174.3055 101 172.9248C 101 171.5441 102.1193 170.4248 103.5 170.4248C 104.8807 170.4248 106 171.5441 106 172.9248ZM 17 161.9248C 17 163.8578 15.433 165.4248 13.5 165.4248C 11.567 165.4248 10 163.8578 10 161.9248C 10 159.9918 11.567 158.4248 13.5 158.4248C 15.433 158.4248 17 159.9918 17 161.9248ZM 234.1966 20.4568C 235.414 21.036 236.8549 20.1819 236.8767 18.8339C 236.8871 18.1921 236.5678 17.5983 236.0094 17.2818C 189.3624 -9.1593 72.2614 36.0332 49.7691 158.9877C 48.6768 164.959 47.8076 171.1137 47.1804 177.4525C 51.4163 177.2209 53.7869 173.4645 57.0001 173.9236C 57.5037 173.9955 57.966 174.1399 58.4002 174.336C 58.5378 172.5974 58.6966 170.8712 58.8762 169.1576C 71.0811 52.7072 179.1395 -5.7356 234.1966 20.4568ZM 41 169.9248C 37.4 170.7248 36.5 170.4248 32 169.4012C 32.8792 170.0534 33.7269 170.7485 34.5 171.4249C 38.5 174.925 41 176.9248 46 177.4248C 46.4096 177.4658 46.8025 177.4732 47.1804 177.4525C 47.8076 171.1137 48.6768 164.959 49.7691 158.9877C 45.1256 159.8251 46.2414 168.7601 41 169.9248ZM 66 178.9248C 70 179.4248 76.5001 177.4239 79.5001 175.4239C 81.1676 174.3123 83.144 173.2006 85 172.6041C 83.5 172.5441 78.5001 173.4244 77 171.4249C 75.3843 169.2714 78.5001 164.4244 75 163.4243C 71.4999 162.4242 70.5 168.9012 61.5001 169.4012C 60.4735 169.4582 59.6095 169.3659 58.8762 169.1576C 58.6966 170.8712 58.5378 172.5974 58.4002 174.336C 60.9835 175.5026 62.5756 178.4968 66 178.9248Z"></path></g></g></g><g id="g-root-cp_2_g-2_18nt9i13yc9op-fill" data-item-order="-496953" transform="translate(269.60498046875, 288.7158203125)"></g><g id="g-root-cp_2_g-2_18nt9i13yc9op-stroke" data-item-order="-496953" transform="translate(269.60498046875, 288.7158203125)"><g id="cp_2_g-2_18nt9i13yc9op-stroke" fill="none" stroke-linecap="round" stroke-linejoin="round" stroke-miterlimit="4" stroke="#3f3f3f" stroke-width="1" stroke-opacity="1"><g><path d="M 20.614 296.585338C 30.9553 298.154138 34.5723 310.644938 35.164 317.217338C 35.1963 317.576138 35.3758 317.907638 35.6632 318.124838C 40.0716 321.455638 46.1914 321.482938 50.5998 318.152138C 50.909 317.918538 51.0894 317.555238 51.0954 317.167738C 51.265 306.179838 55.9621 292.940738 63.9682 289.519638C 67.5125 288.005038 69.878 286.257238 68.69 283.465538C 67.3048 280.210538 63.6848 282.206938 60.5343 284.955038C 60.3299 285.133238 60.1276 285.314738 59.9279 285.498038C 59.3901 285.991838 58.872 286.499738 58.388 286.997638C 54.954 290.530438 52.8078 292.548938 48.5153 293.053538C 48.5021 293.055138 48.489 293.056638 48.4759 293.058038C 44.2096 293.530438 42.0672 289.016538 39.0717 289.519638C 38.3096 289.647638 37.658 290.002938 37.0538 290.470238C 35.2757 291.845438 33.9084 294.190838 31.3453 294.567538C 27.9113 295.072238 22.3309 293.052638 19.7555 291.034038C 18.492 290.043638 17.0218 289.053338 15.5985 288.420538C 15.4092 288.336438 15.2208 288.258538 15.0338 288.187938C 13.7604 287.706738 12.553 287.557638 11.5997 288.005938C 9.4535 289.015338 7.3072 294.566638 20.614 296.585338ZM 13.001 269.781238C 13.001 272.266538 15.0157 274.281238 17.501 274.281238C 19.9863 274.281238 22.001 272.266538 22.001 269.781238C 22.001 267.295938 19.9863 265.281238 17.501 265.281238C 15.0157 265.281238 13.001 267.295938 13.001 269.781238ZM 30.001 258.781238C 30.001 260.161938 31.1203 261.281238 32.501 261.281238C 33.8817 261.281238 35.001 260.161938 35.001 258.781238C 35.001 257.400538 33.8817 256.281238 32.501 256.281238C 31.1203 256.281238 30.001 257.400538 30.001 258.781238ZM 69.001 268.781238C 69.001 270.714238 70.568 272.281238 72.501 272.281238C 74.434 272.281238 76.001 270.714238 76.001 268.781238C 76.001 266.848238 74.434 265.281238 72.501 265.281238C 70.568 265.281238 69.001 266.848238 69.001 268.781238ZM 23.6792 279.263338C 20.6414 280.259638 23.3457 285.087838 21.9434 287.233038C 20.7997 288.982638 17.312 288.518638 15.5985 288.420538C 17.0218 289.053338 18.492 290.043638 19.7555 291.034038C 22.3309 293.052638 27.9113 295.072238 31.3453 294.567538C 33.9084 294.190838 35.2757 291.845438 37.0538 290.470238C 37.0614 288.678938 37.0698 286.898038 37.0791 285.127238C 36.5818 285.223238 36.024 285.257138 35.3961 285.217038C 27.5849 284.719038 26.7171 278.267138 23.6792 279.263338ZM 122.6757 13.884938C 123.9031 13.714838 125.001 13.130838 125.001 11.891738C 125.001 11.050538 124.484 10.313638 123.7113 10.052138C 123.532 9.991538 123.3331 9.992338 123.1451 10.013038C 50.2246 18.052938 38.1114 89.004338 37.0791 285.127238C 37.0698 286.898038 37.0614 288.678938 37.0538 290.470238C 37.658 290.002938 38.3096 289.647638 39.0717 289.519638C 42.0672 289.016538 44.2096 293.530438 48.4759 293.058038C 48.4885 288.045938 48.5057 283.118538 48.5281 278.274338C 49.4361 82.323038 58.9417 22.720238 122.6757 13.884938ZM 48.5153 293.053538C 52.8078 292.548938 54.954 290.530438 58.388 286.997638C 58.872 286.499738 59.3901 285.991838 59.9279 285.498038C 56.917 286.285138 56.0043 286.456838 53.1887 285.738638C 50.3202 285.007138 49.6455 281.198138 48.5281 278.274338C 48.5057 283.118538 48.4885 288.045938 48.4759 293.058038L 48.5153 293.053538Z"></path></g></g></g><g id="g-root-cp_3_g-3_qn64pl3ydngi-fill" data-item-order="-496949" transform="translate(385.31793212890625, 339.587890625)"></g><g id="g-root-cp_3_g-3_qn64pl3ydngi-stroke" data-item-order="-496949" transform="translate(385.31793212890625, 339.587890625)"><g id="cp_3_g-3_qn64pl3ydngi-stroke" fill="none" stroke-linecap="round" stroke-linejoin="round" stroke-miterlimit="4" stroke="#3f3f3f" stroke-width="1" stroke-opacity="1"><g><path d="M 68.7887 161.53728C 80.7042 163.07478 84.9556 175.20038 85.7133 181.76518C 85.7696 182.25318 86.0347 182.69678 86.4468 182.96418C 91.6386 186.33178 98.382 186.36868 103.5738 183.00098C 104.0196 182.71178 104.2861 182.21748 104.2995 181.68628C 104.5734 170.84858 110.0324 157.90118 119.2887 154.53688C 123.4172 153.03638 126.1726 151.30468 124.7888 148.53888C 123.1752 145.31388 118.9588 147.29168 115.2891 150.01438C 114.4099 150.66668 113.5621 151.36168 112.789 152.03818C 108.7891 155.53828 106.2891 157.53808 101.2891 158.03808C 101.0316 158.06378 100.7808 158.07628 100.5362 158.07688C 96.029 158.08778 93.6088 154.06258 90.2889 154.53678C 89.7871 154.60848 89.3263 154.75218 88.8934 154.94728C 86.3074 156.11238 84.7155 159.10978 81.2891 159.53808C 77.2891 160.03808 70.7889 158.03718 67.7889 156.03718C 66.1215 154.92548 64.1451 153.81388 62.2891 153.21738C 60.8058 152.74068 59.3991 152.59308 58.2887 153.03728C 55.7887 154.03728 53.2887 159.53728 68.7887 161.53728ZM 59.2891 129.53808C 59.2891 132.02338 61.3038 134.03808 63.7891 134.03808C 66.2743 134.03808 68.2891 132.02338 68.2891 129.53808C 68.2891 127.05278 66.2743 125.03808 63.7891 125.03808C 61.3038 125.03808 59.2891 127.05278 59.2891 129.53808ZM 41.2891 153.53808C 41.2891 154.91878 42.4084 156.03808 43.7891 156.03808C 45.1698 156.03808 46.2891 154.91878 46.2891 153.53808C 46.2891 152.15738 45.1698 151.03808 43.7891 151.03808C 42.4084 151.03808 41.2891 152.15738 41.2891 153.53808ZM 67.7889 156.03718C 70.7889 158.03718 77.2891 160.03808 81.2891 159.53808C 84.7155 159.10978 86.3074 156.11238 88.8934 154.94728C 88.8393 153.17178 88.7794 151.41208 88.7137 149.66818C 87.9249 149.93468 86.9441 150.07858 85.7889 150.01438C 76.7891 149.51438 75.7892 143.03748 72.2891 144.03758C 68.7889 145.03768 71.9047 149.88468 70.2891 152.03818C 68.7889 154.03768 63.7891 153.15728 62.2891 153.21738C 64.1451 153.81388 66.1215 154.92548 67.7889 156.03718ZM 12.1824 10.40938C 9.981 10.63178 8.7405 13.28208 11.947 13.87078C 12.1012 13.89908 12.2666 13.90108 12.4227 13.88698C 65.2923 9.10918 85.2266 57.10728 88.7137 149.66818C 88.7794 151.41208 88.8393 153.17178 88.8934 154.94728C 89.3263 154.75218 89.7871 154.60848 90.2889 154.53678C 93.6088 154.06258 96.029 158.08778 100.5362 158.07688C 100.2383 152.05548 99.8605 146.23308 99.4039 140.60688C 91.5877 44.30638 60.6719 5.51148 12.1824 10.40938ZM 115.2891 150.01438C 110.7891 151.03808 109.8891 151.33808 106.2891 150.53808C 101.9133 149.56568 101.9683 143.17758 99.4039 140.60688C 99.8605 146.23308 100.2383 152.05548 100.5362 158.07688C 100.7808 158.07628 101.0316 158.06378 101.2891 158.03808C 106.2891 157.53808 108.7891 155.53828 112.789 152.03818C 113.5621 151.36168 114.4099 150.66668 115.2891 150.01438Z"></path></g></g></g><g id="g-root-cp_4_g-4_dbpmc93ydp1f-fill" data-item-order="-496945" transform="translate(455.5980224609375, 352.78125)"></g><g id="g-root-cp_4_g-4_dbpmc93ydp1f-stroke" data-item-order="-496945" transform="translate(455.5980224609375, 352.78125)"><g id="cp_4_g-4_dbpmc93ydp1f-stroke" fill="none" stroke-linecap="round" stroke-linejoin="round" stroke-miterlimit="4" stroke="#3f3f3f" stroke-width="1" stroke-opacity="1"><g><path d="M 215.3953 232.5179C 205.054 234.0867 201.437 246.5775 200.8453 253.1499C 200.813 253.5087 200.6335 253.8403 200.3461 254.0575C 195.9376 257.3883 189.8179 257.4156 185.4095 254.0847C 185.1003 253.8512 184.9198 253.4878 184.9138 253.1004C 184.7442 242.1125 180.0472 228.8734 172.0411 225.4522C 168.4968 223.9377 166.1313 222.1898 167.3193 219.3982C 168.7045 216.1431 172.3245 218.1395 175.475 220.8877C 175.6793 221.0659 175.8817 221.2473 176.0814 221.4306C 176.6192 221.9245 177.1373 222.4324 177.6213 222.9303C 180.6804 226.0774 182.7176 228.0227 186.1605 228.7668C 186.5824 228.8579 187.0254 228.9311 187.494 228.9862C 191.7865 229.4908 193.9328 224.9476 196.9376 225.4522C 196.9725 225.4581 197.0072 225.4645 197.0417 225.4713C 199.9726 226.0503 201.2699 230.0014 204.664 230.5002C 208.098 231.0048 213.6783 228.9853 216.2538 226.9666C 217.5173 225.9763 218.9874 224.9859 220.4108 224.3531C 220.6 224.269 220.7885 224.1912 220.9755 224.1205C 222.2488 223.6394 223.4562 223.4903 224.4095 223.9386C 226.5558 224.9479 228.7021 230.4993 215.3953 232.5179ZM 223.0078 205.7139C 223.0078 208.1991 220.9931 210.2139 218.5078 210.2139C 216.0225 210.2139 214.0078 208.1991 214.0078 205.7139C 214.0078 203.2286 216.0225 201.2139 218.5078 201.2139C 220.9931 201.2139 223.0078 203.2286 223.0078 205.7139ZM 206.0078 194.7139C 206.0078 196.0946 204.8885 197.2139 203.5078 197.2139C 202.1271 197.2139 201.0078 196.0946 201.0078 194.7139C 201.0078 193.3332 202.1271 192.2139 203.5078 192.2139C 204.8885 192.2139 206.0078 193.3332 206.0078 194.7139ZM 167.0078 204.7109C 167.0078 206.6439 165.4408 208.2109 163.5078 208.2109C 161.5748 208.2109 160.0078 206.6439 160.0078 204.7109C 160.0078 202.7779 161.5748 201.2109 163.5078 201.2109C 165.4408 201.2109 167.0078 202.7779 167.0078 204.7109ZM 11.9812 12.739C 12.2751 12.6102 12.5808 12.503 12.9012 12.486C 85.6799 8.6336 171.538 113.0182 185.192 219.8644C 185.5711 222.8307 185.8945 225.7989 186.1605 228.7668C 186.5824 228.8579 187.0254 228.9311 187.494 228.9862C 191.7865 229.4908 193.9328 224.9476 196.9376 225.4522C 196.9725 225.4581 197.0072 225.4645 197.0417 225.4713C 196.7607 223.4075 196.4504 221.3363 196.1116 219.2587C 179.5329 117.6065 94.5195 0.8134 11.3093 10.5729C 10.7206 10.6419 10.1292 10.9651 10.0265 11.5489C 9.8436 12.5878 10.6211 13.3349 11.9812 12.739ZM 176.0814 221.4306C 176.6192 221.9245 177.1373 222.4324 177.6213 222.9303C 180.6804 226.0774 182.7176 228.0227 186.1605 228.7668C 185.8945 225.7989 185.5711 222.8307 185.192 219.8644C 184.6045 220.7431 183.8553 221.4074 182.8206 221.6713C 180.005 222.3894 179.0923 222.2178 176.0814 221.4306ZM 214.0659 223.1656C 212.6636 221.0205 215.3679 216.1922 212.33 215.196C 209.2922 214.1997 208.4244 220.6516 200.6132 221.1497C 198.3859 221.2917 197.0073 220.457 196.1116 219.2587C 196.4504 221.3363 196.7607 223.4075 197.0417 225.4713C 199.9726 226.0503 201.2699 230.0014 204.664 230.5002C 208.098 231.0048 213.6783 228.9853 216.2538 226.9666C 217.5173 225.9763 218.9874 224.9859 220.4108 224.3531C 218.6973 224.4512 215.2096 224.9153 214.0659 223.1656Z"></path></g></g></g><g id="g-root-tx_llmsecur_18fp3dl3ydn9g-fill" data-item-order="0" transform="translate(226.15496826171875, 38)"><g id="tx_llmsecur_18fp3dl3ydn9g-fill-merged" stroke="none" fill="#3f3f3f" fill-opacity="1"><g><text style="font: bold 25px Roboto, sans-serif; white-space: pre;" transform="translate(169.84503173828125, 25)" font-weight="bold" font-size="25px" font-family="Roboto, sans-serif"><tspan x="-157.85" y="15" dominant-baseline="ideographic">LLM Security Vulnerabilities</tspan></text></g></g></g><g id="g-root-tx_llmsecur_18fp3dl3ydn9g-stroke" data-item-order="0" transform="translate(226.15496826171875, 38)"></g><g id="g-root-tx_excessiv_141r0ih3ydma5-fill" data-item-order="0" transform="translate(71.45964050292969, 536)"><g id="tx_excessiv_141r0ih3ydma5-fill-merged" stroke="none" fill="#3f3f3f" fill-opacity="1"><g><text style="font: bold 15px Roboto, sans-serif; white-space: pre;" transform="translate(72.54035949707031, 19)" font-weight="bold" font-size="15px" font-family="Roboto, sans-serif"><tspan x="-60.54" y="8.5" dominant-baseline="ideographic">Excessive Agency</tspan></text></g></g></g><g id="g-root-tx_excessiv_141r0ih3ydma5-stroke" data-item-order="0" transform="translate(71.45964050292969, 536)"></g><g id="g-root-tx_intentve_1qbcfh53ydngv-fill" data-item-order="0" transform="translate(407.4271240234375, 536)"><g id="tx_intentve_1qbcfh53ydngv-fill-merged" stroke="none" fill="#3f3f3f" fill-opacity="1"><g><text style="font: bold 15px Roboto, sans-serif; white-space: pre;" transform="translate(72.5728759765625, 19)" font-weight="bold" font-size="15px" font-family="Roboto, sans-serif"><tspan x="-60.57" y="8.5" dominant-baseline="ideographic">Intent Verification</tspan></text></g></g></g><g id="g-root-tx_intentve_1qbcfh53ydngv-stroke" data-item-order="0" transform="translate(407.4271240234375, 536)"></g><g id="g-root-tx_untruste_1ltni3d3ydp8u-fill" data-item-order="0" transform="translate(79.25912475585938, 566)"><g id="tx_untruste_1ltni3d3ydp8u-fill-merged" stroke="none" fill="#3f3f3f" fill-opacity="1"><g><text style="font: 15px Roboto, sans-serif; white-space: pre;" transform="translate(64.74087524414062, 27.9970703125)" font-size="15px" font-family="Roboto, sans-serif"><tspan x="-52.74" y="-0.5" dominant-baseline="ideographic">Untrusted rules </tspan><tspan x="-34.23" y="17.5" dominant-baseline="ideographic">execution</tspan></text></g></g></g><g id="g-root-tx_untruste_1ltni3d3ydp8u-stroke" data-item-order="0" transform="translate(79.25912475585938, 566)"></g><g id="g-root-tx_rulesdon_dikuah3ydngg-fill" data-item-order="0" transform="translate(411.87371826171875, 566)"><g id="tx_rulesdon_dikuah3ydngg-fill-merged" stroke="none" fill="#3f3f3f" fill-opacity="1"><g><text style="font: 15px Roboto, sans-serif; white-space: pre;" transform="translate(68.12628173828125, 27.9970703125)" font-size="15px" font-family="Roboto, sans-serif"><tspan x="-56.13" y="-0.5" dominant-baseline="ideographic">Rules don't align </tspan><tspan x="-36.76" y="17.5" dominant-baseline="ideographic">with intent</tspan></text></g></g></g><g id="g-root-tx_rulesdon_dikuah3ydngg-stroke" data-item-order="0" transform="translate(411.87371826171875, 566)"></g><g id="g-root-tx_memoryin_zqxb2x3ydmh5-fill" data-item-order="0" transform="translate(241.88153076171875, 620)"><g id="tx_memoryin_zqxb2x3ydmh5-fill-merged" stroke="none" fill="#3f3f3f" fill-opacity="1"><g><text style="font: bold 15px Roboto, sans-serif; white-space: pre;" transform="translate(70.11846923828125, 19)" font-weight="bold" font-size="15px" font-family="Roboto, sans-serif"><tspan x="-58.12" y="8.5" dominant-baseline="ideographic">Memory Integrity</tspan></text></g></g></g><g id="g-root-tx_memoryin_zqxb2x3ydmh5-stroke" data-item-order="0" transform="translate(241.88153076171875, 620)"></g><g id="g-root-tx_priority_vl213yf0uj-fill" data-item-order="0" transform="translate(576.2083129882812, 620)"><g id="tx_priority_vl213yf0uj-fill-merged" stroke="none" fill="#3f3f3f" fill-opacity="1"><g><text style="font: bold 15px Roboto, sans-serif; white-space: pre;" transform="translate(71.79168701171875, 19)" font-weight="bold" font-size="15px" font-family="Roboto, sans-serif"><tspan x="-59.79" y="8.5" dominant-baseline="ideographic">Priority Execution</tspan></text></g></g></g><g id="g-root-tx_priority_vl213yf0uj-stroke" data-item-order="0" transform="translate(576.2083129882812, 620)"></g><g id="g-root-tx_unprotec_1hjg9qx3ydma2-fill" data-item-order="0" transform="translate(247.78646850585938, 650)"><g id="tx_unprotec_1hjg9qx3ydma2-fill-merged" stroke="none" fill="#3f3f3f" fill-opacity="1"><g><text style="font: 15px Roboto, sans-serif; white-space: pre;" transform="translate(64.21353149414062, 27.9970703125)" font-size="15px" font-family="Roboto, sans-serif"><tspan x="-40.99" y="-0.5" dominant-baseline="ideographic">Unprotected </tspan><tspan x="-52.21" y="17.5" dominant-baseline="ideographic">memory entries</tspan></text></g></g></g><g id="g-root-tx_unprotec_1hjg9qx3ydma2-stroke" data-item-order="0" transform="translate(247.78646850585938, 650)"></g><g id="g-root-tx_memoryru_qof2vt3yf30k-fill" data-item-order="0" transform="translate(574.0859375, 650)"><g id="tx_memoryru_qof2vt3yf30k-fill-merged" stroke="none" fill="#3f3f3f" fill-opacity="1"><g><text style="font: 15px Roboto, sans-serif; white-space: pre;" transform="translate(73.9140625, 27.9970703125)" font-size="15px" font-family="Roboto, sans-serif"><tspan x="-45.76" y="-0.5" dominant-baseline="ideographic">Memory rules </tspan><tspan x="-61.91" y="17.5" dominant-baseline="ideographic">override user input</tspan></text></g></g></g><g id="g-root-tx_memoryru_qof2vt3yf30k-stroke" data-item-order="0" transform="translate(574.0859375, 650)"></g></g></g></svg>