<?xml version="1.0" encoding="utf-8" standalone="yes"?>
<!DOCTYPE svg PUBLIC "-//W3C//DTD SVG 1.1//EN" "http://www.w3.org/Graphics/SVG/1.1/DTD/svg11.dtd">
<svg style="fill:none;stroke:none;fill-rule:evenodd;clip-rule:evenodd;stroke-linecap:round;stroke-linejoin:round;stroke-miterlimit:1.5;" version="1.1" xmlns="http://www.w3.org/2000/svg" xmlns:xlink="http://www.w3.org/1999/xlink" width="855" height="534" viewBox="0 0 855 534"><style class="text-font-style fontImports" data-font-family="Roboto">@import url(https://fonts.googleapis.com/css2?family=Roboto:wght@400;700&amp;amp;display=block);</style><g id="items" style="isolation: isolate"><g id="blend" style="mix-blend-mode: normal"><g id="g-root-cp_6_g-6_4o6ve1cu7f0-fill" data-item-order="-352141" transform="translate(416, 386)"></g><g id="g-root-cp_6_g-6_4o6ve1cu7f0-stroke" data-item-order="-352141" transform="translate(416, 386)"><g id="cp_6_g-6_4o6ve1cu7f0-stroke" fill="none" stroke-linecap="round" stroke-linejoin="round" stroke-miterlimit="4" stroke="#3f3f3f" stroke-width="1" stroke-opacity="1"><g><path d="M 47.7393 64C 52.9026 81.3489 68.9739 94 88 94C 107.0261 94 123.0974 81.3489 128.2607 64L 166 64L 166 76L 202 52L 166 28L 166 40L 128.2607 40C 123.0974 22.6511 107.0261 10 88 10C 68.9739 10 52.9026 22.6511 47.7393 40L 10 40L 10 64L 47.7393 64Z"></path></g></g></g><g id="g-root-cp_5_g-5_1d30dplcu77x-fill" data-item-order="-352137" transform="translate(230, 356)"></g><g id="g-root-cp_5_g-5_1d30dplcu77x-stroke" data-item-order="-352137" transform="translate(230, 356)"><g id="cp_5_g-5_1d30dplcu77x-stroke" fill="none" stroke-linecap="round" stroke-linejoin="round" stroke-miterlimit="4" stroke="#3f3f3f" stroke-width="1" stroke-opacity="1"><g><path d="M 78.4063 67.9537C 52.8297 61.0888 34 37.7434 34 10L 10 10C 10 50.6672 38.8992 84.5847 77.2814 92.3362C 81.8866 110.5341 98.3707 124 118 124C 137.0261 124 153.0974 111.3489 158.2607 94L 196 94L 196 70L 158.2607 70C 153.0974 52.6511 137.0261 40 118 40C 99.7303 40 84.1851 51.6652 78.4063 67.9537Z"></path></g></g></g><g id="g-root-cp_4_g-4_mgpu21cu77y-fill" data-item-order="-352133" transform="translate(230, 242)"></g><g id="g-root-cp_4_g-4_mgpu21cu77y-stroke" data-item-order="-352133" transform="translate(230, 242)"><g id="cp_4_g-4_mgpu21cu77y-stroke" fill="none" stroke-linecap="round" stroke-linejoin="round" stroke-miterlimit="4" stroke="#3f3f3f" stroke-width="1" stroke-opacity="1"><g><path d="M 78.4063 66.0463C 84.1851 82.3348 99.7303 94 118 94C 137.0261 94 153.0974 81.3489 158.2607 64L 196 64L 196 40L 158.2607 40C 153.0974 22.6511 137.0261 10 118 10C 98.3707 10 81.8866 23.4659 77.2814 41.6638C 38.8992 49.4153 10 83.3328 10 124L 34 124C 34 96.2566 52.8297 72.9112 78.4063 66.0463Z"></path></g></g></g><g id="g-root-cp_3_g-3_8vw7e1cvk7j-fill" data-item-order="-352129" transform="translate(416, 212)"></g><g id="g-root-cp_3_g-3_8vw7e1cvk7j-stroke" data-item-order="-352129" transform="translate(416, 212)"><g id="cp_3_g-3_8vw7e1cvk7j-stroke" fill="none" stroke-linecap="round" stroke-linejoin="round" stroke-miterlimit="4" stroke="#3f3f3f" stroke-width="1" stroke-opacity="1"><g><path d="M 128.7186 92.3362C 167.1008 84.5847 196 50.6672 196 10L 172 10C 172 37.7434 153.1703 61.0888 127.5937 67.9537C 121.8149 51.6652 106.2697 40 88 40C 68.9739 40 52.9026 52.6511 47.7393 70L 10 70L 10 94L 47.7393 94C 52.9026 111.3489 68.9739 124 88 124C 107.6293 124 124.1134 110.5341 128.7186 92.3362Z"></path></g></g></g><g id="g-root-cp_2_g-2_1q5q8vdcvmdk-fill" data-item-order="-352125" transform="translate(416, 98)"></g><g id="g-root-cp_2_g-2_1q5q8vdcvmdk-stroke" data-item-order="-352125" transform="translate(416, 98)"><g id="cp_2_g-2_1q5q8vdcvmdk-stroke" fill="none" stroke-linecap="round" stroke-linejoin="round" stroke-miterlimit="4" stroke="#3f3f3f" stroke-width="1" stroke-opacity="1"><g><path d="M 47.7393 64C 52.9026 81.3489 68.9739 94 88 94C 106.2697 94 121.8149 82.3348 127.5937 66.0463C 153.1703 72.9112 172 96.2566 172 124L 196 124C 196 83.3328 167.1008 49.4153 128.7186 41.6638C 124.1134 23.4659 107.6293 10 88 10C 68.9739 10 52.9026 22.6511 47.7393 40L 10 40L 10 64L 47.7393 64Z"></path></g></g></g><g id="g-root-cp_1_g-1_18f2pgpcvlkx-fill" data-item-order="-352121" transform="translate(248, 98)"></g><g id="g-root-cp_1_g-1_18f2pgpcvlkx-stroke" data-item-order="-352121" transform="translate(248, 98)"><g id="cp_1_g-1_18f2pgpcvlkx-stroke" fill="none" stroke-linecap="round" stroke-linejoin="round" stroke-miterlimit="4" stroke="#3f3f3f" stroke-width="1" stroke-opacity="1"><g><path d="M 59.7393 64C 64.9026 81.3489 80.9739 94 100 94C 119.0261 94 135.0974 81.3489 140.2607 64L 178 64L 178 40L 140.2607 40C 135.0974 22.6511 119.0261 10 100 10C 80.9739 10 64.9026 22.6511 59.7393 40L 10 40L 10 64L 59.7393 64Z"></path></g></g></g><g id="g-root-cp_-1_container_m8lnxlcvksq-fill" data-item-order="-352113" transform="translate(38.90625, 137.0029296875)"></g><g id="g-root-cp_-1_container_m8lnxlcvksq-stroke" data-item-order="-352113" transform="translate(38.90625, 137.0029296875)"></g><g id="g-root-cp_-1_container_1_4hy4ixcvk03-fill" data-item-order="-352101" transform="translate(23.984375, 281.0029296875)"></g><g id="g-root-cp_-1_container_1_4hy4ixcvk03-stroke" data-item-order="-352101" transform="translate(23.984375, 281.0029296875)"></g><g id="g-root-cp_-1_container_2_1hbynvtcvm6k-fill" data-item-order="-352089" transform="translate(15, 425.0029296875)"></g><g id="g-root-cp_-1_container_2_1hbynvtcvm6k-stroke" data-item-order="-352089" transform="translate(15, 425.0029296875)"></g><g id="g-root-cp_-1_container_3_zlb4h5cvldx-fill" data-item-order="-352077" transform="translate(638, 137.0029296875)"></g><g id="g-root-cp_-1_container_3_zlb4h5cvldx-stroke" data-item-order="-352077" transform="translate(638, 137.0029296875)"></g><g id="g-root-cp_-1_container_4_deu2y1cvklq-fill" data-item-order="-352065" transform="translate(638, 281.0029296875)"></g><g id="g-root-cp_-1_container_4_deu2y1cvklq-stroke" data-item-order="-352065" transform="translate(638, 281.0029296875)"></g><g id="g-root-cp_-1_container_5_1upalihcvjlz-fill" data-item-order="-352053" transform="translate(638, 425.0029296875)"></g><g id="g-root-cp_-1_container_5_1upalihcvjlz-stroke" data-item-order="-352053" transform="translate(638, 425.0029296875)"></g><g id="g-root-tx_signwith_dhbzahczt3c-fill" data-item-order="0" transform="translate(638, 137.0029296875)"><g id="tx_signwith_dhbzahczt3c-fill-merged" stroke="none" fill="#3f3f3f" fill-opacity="1"><g><text style="font: 15px Roboto, sans-serif; white-space: pre;" transform="translate(10, 27.9970703125)" font-size="15px" font-family="Roboto, sans-serif"><tspan x="2" y="-0.5" dominant-baseline="ideographic">Sign with org key: HMAC-</tspan><tspan x="2" y="17.5" dominant-baseline="ideographic">SHA256</tspan></text></g></g></g><g id="g-root-tx_signwith_dhbzahczt3c-stroke" data-item-order="0" transform="translate(638, 137.0029296875)"></g><g id="g-root-tx_attacker_1449015cwz5v-fill" data-item-order="0" transform="translate(70.32551574707031, 251.0029296875)"><g id="tx_attacker_1449015cwz5v-fill-merged" stroke="none" fill="#3f3f3f" fill-opacity="1"><g><text style="font: bold 15px Roboto, sans-serif; white-space: pre;" transform="translate(133.6744842529297, 19)" font-weight="bold" font-size="15px" font-family="Roboto, sans-serif"><tspan x="-121.67" y="8.5" dominant-baseline="ideographic">Attacker Injection</tspan></text></g></g></g><g id="g-root-tx_attacker_1449015cwz5v-stroke" data-item-order="0" transform="translate(70.32551574707031, 251.0029296875)"></g><g id="g-root-ic_mail_znt0tld2kn9-fill" data-item-order="0" transform="translate(314, 260)"></g><g id="g-root-ic_mail_znt0tld2kn9-stroke" data-item-order="0" transform="translate(314, 260)"><g id="ic_mail_znt0tld2kn9-stroke" fill="none" stroke-linecap="round" stroke-linejoin="round" stroke-miterlimit="4" stroke="#3f3f3f" stroke-width="1" stroke-opacity="1"><g><path d="M 17 28.002001L 11.002 28.002001L 14 23L 11 18.001999L 17 18.001999L 17 10.998L 22 14L 28 10.998L 28 17.001999M 37 40.001999C 37 41.658855 38.343147 43.002003 40 43.002003C 41.656853 43.002003 43 41.658855 43 40.001999C 43 38.345146 41.656853 37.001999 40 37.001999C 38.343147 37.001999 37 38.345146 37 40.001999M 43 40L 43 41.5C 43 42.880711 44.119289 44 45.5 44L 45.5 44C 46.879932 44 47.998898 42.881931 48 41.501999C 48 35.32 44.346001 32.101997 40.200001 32.003998C 36.093945 31.871368 32.554855 34.870361 32.011902 38.94252C 31.468945 43.014679 34.098637 46.836174 38.096001 47.784C 39.398273 48.090786 40.755901 48.073616 42.049999 47.734001M 40 23C 37.663963 22.997522 35.352745 23.47897 33.211998 24.414001C 32.459602 24.743263 31.582392 24.579082 31 24L 29.417999 22.417999C 28.637001 21.637238 27.371 21.637238 26.59 22.417999L 22.414 26.586C 22.038445 26.961136 21.827427 27.470182 21.827427 28.000999C 21.827427 28.531818 22.038445 29.040863 22.414 29.416L 24 31C 24.581324 31.581844 24.747166 32.460258 24.417999 33.214001C 21.417522 40.105843 23.299269 48.150066 29.045471 52.995838C 34.791672 57.84161 43.038105 58.338478 49.324566 54.217705C 55.611023 50.096931 58.445023 42.336842 56.293747 35.134594C 54.142475 27.932346 47.51667 22.997852 40 23ZM 21 21.001999L 24.5 24.501999"></path></g></g></g><g id="g-root-ic_shop_1qa3tyhcn668-fill" data-item-order="0" transform="translate(470, 260)"></g><g id="g-root-ic_shop_1qa3tyhcn668-stroke" data-item-order="0" transform="translate(470, 260)"><g id="ic_shop_1qa3tyhcn668-stroke" fill="none" stroke-linecap="round" stroke-linejoin="round" stroke-miterlimit="4" stroke="#3f3f3f" stroke-width="1" stroke-opacity="1"><g><path d="M 11 34C 11 46.702549 21.297451 57 34 57C 46.702549 57 57 46.702549 57 34C 57 21.297451 46.702549 11 34 11C 21.297451 11 11 21.297451 11 34M 18 34C 18 42.836555 25.163445 50 34 50C 42.836555 50 50 42.836555 50 34C 50 25.163445 42.836555 18 34 18C 25.163445 18 18 25.163445 18 34M 26.860001 35.700001C 33.099998 34.900002 40.360001 31.700001 39.900002 27.9C 39.48 24.52 35.080002 24.6 32.440002 26C 26.959999 28.940001 24.26 40 30 42.560001C 34.52 44.560001 38.379997 38.959999 38.379997 38.959999"></path></g></g></g><g id="g-root-tx_legitima_13ymq95d172h-fill" data-item-order="0" transform="translate(638, 251.0029296875)"><g id="tx_legitima_13ymq95d172h-fill-merged" stroke="none" fill="#3f3f3f" fill-opacity="1"><g><text style="font: bold 15px Roboto, sans-serif; white-space: pre;" transform="translate(10, 19)" font-weight="bold" font-size="15px" font-family="Roboto, sans-serif"><tspan x="2" y="8.5" dominant-baseline="ideographic">Legitimate User</tspan></text></g></g></g><g id="g-root-tx_legitima_13ymq95d172h-stroke" data-item-order="0" transform="translate(638, 251.0029296875)"></g><g id="g-root-tx_createsm_1lrs609cwzk2-fill" data-item-order="0" transform="translate(38.90625, 137.0029296875)"><g id="tx_createsm_1lrs609cwzk2-fill-merged" stroke="none" fill="#3f3f3f" fill-opacity="1"><g><text style="font: 15px Roboto, sans-serif; white-space: pre;" transform="translate(165.09375, 27.9970703125)" font-size="15px" font-family="Roboto, sans-serif"><tspan x="-153.09" y="-0.5" dominant-baseline="ideographic">Creates memory entry: </tspan><tspan x="-123.55" y="17.5" dominant-baseline="ideographic">Store daily reports</tspan></text></g></g></g><g id="g-root-tx_createsm_1lrs609cwzk2-stroke" data-item-order="0" transform="translate(38.90625, 137.0029296875)"></g><g id="g-root-tx_legitima_1cw55rdczr4f-fill" data-item-order="0" transform="translate(638, 107.0029296875)"><g id="tx_legitima_1cw55rdczr4f-fill-merged" stroke="none" fill="#3f3f3f" fill-opacity="1"><g><text style="font: bold 15px Roboto, sans-serif; white-space: pre;" transform="translate(10, 19)" font-weight="bold" font-size="15px" font-family="Roboto, sans-serif"><tspan x="2" y="8.5" dominant-baseline="ideographic">Legitimate User</tspan></text></g></g></g><g id="g-root-tx_legitima_1cw55rdczr4f-stroke" data-item-order="0" transform="translate(638, 107.0029296875)"></g><g id="g-root-tx_maliciou_959bopcx0ck-fill" data-item-order="0" transform="translate(23.984375, 281.0029296875)"><g id="tx_maliciou_959bopcx0ck-fill-merged" stroke="none" fill="#3f3f3f" fill-opacity="1"><g><text style="font: 15px Roboto, sans-serif; white-space: pre;" transform="translate(180.015625, 27.9970703125)" font-size="15px" font-family="Roboto, sans-serif"><tspan x="-168.02" y="-0.5" dominant-baseline="ideographic">Malicious injection: Send </tspan><tspan x="-106.92" y="17.5" dominant-baseline="ideographic">data to attacker</tspan></text></g></g></g><g id="g-root-tx_maliciou_959bopcx0ck-stroke" data-item-order="0" transform="translate(23.984375, 281.0029296875)"></g><g id="g-root-tx_storeinm_1q8857td1896-fill" data-item-order="0" transform="translate(638, 281.0029296875)"><g id="tx_storeinm_1q8857td1896-fill-merged" stroke="none" fill="#3f3f3f" fill-opacity="1"><g><text style="font: 15px Roboto, sans-serif; white-space: pre;" transform="translate(10, 27.9970703125)" font-size="15px" font-family="Roboto, sans-serif"><tspan x="2" y="-0.5" dominant-baseline="ideographic">Store in Memory — Entry + </tspan><tspan x="2" y="17.5" dominant-baseline="ideographic">Signature — Validated</tspan></text></g></g></g><g id="g-root-tx_storeinm_1q8857td1896-stroke" data-item-order="0" transform="translate(638, 281.0029296875)"></g><g id="g-root-ic_2_qssktlckdtz-fill" data-item-order="0" transform="translate(470, 116)"></g><g id="g-root-ic_2_qssktlckdtz-stroke" data-item-order="0" transform="translate(470, 116)"><g id="ic_2_qssktlckdtz-stroke" fill="none" stroke-linecap="round" stroke-linejoin="round" stroke-miterlimit="4" stroke="#3f3f3f" stroke-width="1" stroke-opacity="1"><g><path d="M 17.625481 56.5C 20.939201 56.5 23.625481 53.813801 23.625481 50.5C 23.625481 47.186199 20.939201 44.5 17.625481 44.5C 14.31178 44.5 11.625488 47.186199 11.625488 50.5C 11.625488 53.813801 14.31178 56.5 17.625481 56.5ZM 15.67188 44.828201L 11.625294 32.299999C 11.225294 31.299999 11.825276 30.1 12.82528 29.70002L 16.625299 28.5M 10 10M 18.025341 35.701202L 13.17968 37.114403M 11.5 23.5L 11.5 15.5C 11.5 13.3 13.3 11.5 15.5 11.5L 52.5 11.5C 54.700001 11.5 56.5 13.3 56.5 15.5L 56.5 42.5C 56.5 44.700001 54.700001 46.5 52.5 46.5L 28.5 46.5M 29.8999 30.2988C 32.109001 30.2988 33.900002 28.507959 33.900002 26.29882C 33.900002 24.08968 32.109001 22.29882 29.8999 22.29882C 27.69076 22.29882 25.8999 24.08968 25.8999 26.29882C 25.8999 28.507959 27.69076 30.2988 29.8999 30.2988ZM 35.5 34.498398C 34.299999 32.898399 32.299999 31.898399 30.1 31.898399C 27.899981 31.898399 25.89996 32.898399 24.699959 34.498398M 45.900002 30.2988C 48.109001 30.2988 49.900002 28.507959 49.900002 26.29882C 49.900002 24.08968 48.109001 22.29882 45.900002 22.29882C 43.6908 22.29882 41.900002 24.08968 41.900002 26.29882C 41.900002 28.507959 43.6908 30.2988 45.900002 30.2988ZM 51.5 34.498398C 50.299999 32.898399 48.299999 31.898399 46.099998 31.898399C 43.900002 31.898399 41.900002 32.898399 40.700001 34.498398"></path></g></g></g><g id="g-root-ic_cale_1lr5s2xcn6ko-fill" data-item-order="0" transform="translate(314, 116)"></g><g id="g-root-ic_cale_1lr5s2xcn6ko-stroke" data-item-order="0" transform="translate(314, 116)"><g id="ic_cale_1lr5s2xcn6ko-stroke" fill="none" stroke-linecap="round" stroke-linejoin="round" stroke-miterlimit="4" stroke="#3f3f3f" stroke-width="1" stroke-opacity="1"><g><path d="M 22 11L 22 21M 34 11L 34 21M 46 11L 46 21M 50 15L 54 15C 55.104568 15 56 15.895431 56 17L 56 55C 56 56.104568 55.104568 57 54 57L 14 57C 12.895431 57 12 56.104568 12 55L 12 17C 12 15.895431 12.895431 15 14 15L 17.938 15M 18 25L 18 50C 18 50.552284 18.447716 51 19 51L 49 51C 49.552284 51 50 50.552284 50 50L 50 25M 25.938 15L 34 15M 38 15L 46 15"></path></g></g></g><g id="g-root-tx_verifica_18fp6jtd2lu4-fill" data-item-order="0" transform="translate(638, 425.0029296875)"><g id="tx_verifica_18fp6jtd2lu4-fill-merged" stroke="none" fill="#3f3f3f" fill-opacity="1"><g><text style="font: 15px Roboto, sans-serif; white-space: pre;" transform="translate(10, 27.9970703125)" font-size="15px" font-family="Roboto, sans-serif"><tspan x="2" y="-0.5" dominant-baseline="ideographic">Verification FAILS — Entry </tspan><tspan x="2" y="17.5" dominant-baseline="ideographic">Rejected</tspan></text></g></g></g><g id="g-root-tx_verifica_18fp6jtd2lu4-stroke" data-item-order="0" transform="translate(638, 425.0029296875)"></g><g id="g-root-ic_stac_qof97tcixvq-fill" data-item-order="0" transform="translate(314, 404)"></g><g id="g-root-ic_stac_qof97tcixvq-stroke" data-item-order="0" transform="translate(314, 404)"><g id="ic_stac_qof97tcixvq-stroke" fill="none" stroke-linecap="round" stroke-linejoin="round" stroke-miterlimit="4" stroke="#3f3f3f" stroke-width="1" stroke-opacity="1"><g><path d="M 49.661201 11.828124L 18.335941 11.828124C 17.231359 11.828124 16.335939 12.72356 16.335939 13.82812L 16.335939 20.57032C 16.335939 21.674881 17.23138 22.57032 18.335941 22.57032L 49.661201 22.57032C 50.7658 22.57032 51.661201 21.674881 51.661201 20.57032L 51.661201 13.82812C 51.661201 12.72356 50.7658 11.828124 49.661201 11.828124ZM 49.661201 45.421799L 18.335941 45.421799C 17.231359 45.421799 16.335939 46.317402 16.335939 47.421799L 16.335939 54.164001C 16.335939 55.2686 17.23138 56.164001 18.335941 56.164001L 49.661201 56.164001C 50.7658 56.164001 51.661201 55.2686 51.661201 54.164001L 51.661201 47.421799C 51.661201 46.317402 50.7658 45.421799 49.661201 45.421799ZM 49.661201 28.625L 18.335941 28.625C 17.231359 28.625 16.335939 29.520439 16.335939 30.625L 16.335939 37.367203C 16.335939 38.471802 17.23138 39.367203 18.335941 39.367203L 49.661201 39.367203C 50.7658 39.367203 51.661201 38.471802 51.661201 37.367203L 51.661201 30.625C 51.661201 29.520439 50.7658 28.625 49.661201 28.625Z"></path></g></g></g><g id="g-root-ic_badg_v4veqxcye4l-fill" data-item-order="0" transform="translate(470, 404)"></g><g id="g-root-ic_badg_v4veqxcye4l-stroke" data-item-order="0" transform="translate(470, 404)"><g id="ic_badg_v4veqxcye4l-stroke" fill="none" stroke-linecap="round" stroke-linejoin="round" stroke-miterlimit="4" stroke="#3f3f3f" stroke-width="1" stroke-opacity="1"><g><path d="M 26 25.998001L 42 41.998001M 42 25.998001L 26 41.998001M 31.4 12.242001C 32.031952 11.452291 32.988564 10.9926 34 10.9926C 35.011436 10.9926 35.968048 11.452291 36.599998 12.242L 39.690002 16.087999C 40.402359 16.974262 41.517693 17.43578 42.647999 17.312L 47.551998 16.778C 48.554867 16.671108 49.552216 17.023924 50.264782 17.737656C 50.977348 18.451385 51.328533 19.449312 51.220001 20.452L 50.686001 25.354C 50.563076 26.484615 51.025303 27.599844 51.912003 28.312L 55.756001 31.4C 56.545029 32.032375 57.0042 32.988834 57.0042 34C 57.0042 35.011169 56.545029 35.967628 55.756001 36.599998L 51.911999 39.690002C 51.025326 40.401295 50.563019 41.515953 50.686001 42.646004L 51.220001 47.549999C 51.329647 48.553497 50.978172 49.552563 50.264366 50.266365C 49.550564 50.980171 48.551498 51.331646 47.548 51.222L 42.644001 50.688C 41.513493 50.565838 40.398621 51.027916 39.685997 51.914001L 36.599998 55.754002C 35.968048 56.543709 35.011436 57.003399 34 57.003399C 32.988564 57.003399 32.031952 56.543709 31.4 55.753998L 28.313999 51.91C 27.601379 51.023918 26.486506 50.561836 25.355999 50.683998L 20.452 51.217999C 19.448502 51.327648 18.449436 50.97617 17.735632 50.262367C 17.021828 49.548561 16.670353 48.5495 16.779999 47.545998L 17.313999 42.641998C 17.436983 41.511951 16.974678 40.397293 16.088001 39.686005L 12.243999 36.599998C 11.454974 35.967628 10.9958 35.011169 10.9958 34C 10.9958 32.988834 11.454974 32.032375 12.243999 31.400002L 16.087999 28.312C 16.974699 27.599844 17.436926 26.484615 17.313999 25.354L 16.780001 20.452C 16.671253 19.448542 17.022943 18.449837 17.736458 17.735935C 18.44997 17.022034 19.448483 16.6698 20.452 16.778L 25.355999 17.312C 26.486307 17.43578 27.601641 16.974262 28.313999 16.087999Z"></path></g></g></g><g id="g-root-tx_attacker_4nkeaxd16a3-fill" data-item-order="0" transform="translate(638, 395.0029296875)"><g id="tx_attacker_4nkeaxd16a3-fill-merged" stroke="none" fill="#3f3f3f" fill-opacity="1"><g><text style="font: bold 15px Roboto, sans-serif; white-space: pre;" transform="translate(10, 19)" font-weight="bold" font-size="15px" font-family="Roboto, sans-serif"><tspan x="2" y="8.5" dominant-baseline="ideographic">Attacker Injection</tspan></text></g></g></g><g id="g-root-tx_attacker_4nkeaxd16a3-stroke" data-item-order="0" transform="translate(638, 395.0029296875)"></g><g id="g-root-tx_legitima_1qegw2xcvjsx-fill" data-item-order="0" transform="translate(83.0859375, 107.0029296875)"><g id="tx_legitima_1qegw2xcvjsx-fill-merged" stroke="none" fill="#3f3f3f" fill-opacity="1"><g><text style="font: bold 15px Roboto, sans-serif; white-space: pre;" transform="translate(120.9140625, 19)" font-weight="bold" font-size="15px" font-family="Roboto, sans-serif"><tspan x="-108.91" y="8.5" dominant-baseline="ideographic">Legitimate User</tspan></text></g></g></g><g id="g-root-tx_legitima_1qegw2xcvjsx-stroke" data-item-order="0" transform="translate(83.0859375, 107.0029296875)"></g><g id="g-root-tx_defensem_qrjjhlcvl6w-fill" data-item-order="0" transform="translate(219.52734375, 38)"><g id="tx_defensem_qrjjhlcvl6w-fill-merged" stroke="none" fill="#3f3f3f" fill-opacity="1"><g><text style="font: bold 25px Roboto, sans-serif; white-space: pre;" transform="translate(206.47265625, 25)" font-weight="bold" font-size="25px" font-family="Roboto, sans-serif"><tspan x="-194.47" y="15" dominant-baseline="ideographic">Defense Mechanism Flow Diagram</tspan></text></g></g></g><g id="g-root-tx_defensem_qrjjhlcvl6w-stroke" data-item-order="0" transform="translate(219.52734375, 38)"></g><g id="g-root-tx_novalids_hz0wo9cydxi-fill" data-item-order="0" transform="translate(15, 425.0029296875)"><g id="tx_novalids_hz0wo9cydxi-fill-merged" stroke="none" fill="#3f3f3f" fill-opacity="1"><g><text style="font: 15px Roboto, sans-serif; white-space: pre;" transform="translate(189, 27.9970703125)" font-size="15px" font-family="Roboto, sans-serif"><tspan x="-177" y="-0.5" dominant-baseline="ideographic">No valid signature (cannot </tspan><tspan x="-42.31" y="17.5" dominant-baseline="ideographic">forge)</tspan></text></g></g></g><g id="g-root-tx_novalids_hz0wo9cydxi-stroke" data-item-order="0" transform="translate(15, 425.0029296875)"></g><g id="g-root-tx_attacker_909iztcyebp-fill" data-item-order="0" transform="translate(70.32551574707031, 395.0029296875)"><g id="tx_attacker_909iztcyebp-fill-merged" stroke="none" fill="#3f3f3f" fill-opacity="1"><g><text style="font: bold 15px Roboto, sans-serif; white-space: pre;" transform="translate(133.6744842529297, 19)" font-weight="bold" font-size="15px" font-family="Roboto, sans-serif"><tspan x="-121.67" y="8.5" dominant-baseline="ideographic">Attacker Injection</tspan></text></g></g></g><g id="g-root-tx_attacker_909iztcyebp-stroke" data-item-order="0" transform="translate(70.32551574707031, 395.0029296875)"></g></g></g></svg>