<?xml version="1.0" encoding="utf-8" standalone="yes"?>
<!DOCTYPE svg PUBLIC "-//W3C//DTD SVG 1.1//EN" "http://www.w3.org/Graphics/SVG/1.1/DTD/svg11.dtd">
<svg style="fill:none;stroke:none;fill-rule:evenodd;clip-rule:evenodd;stroke-linecap:round;stroke-linejoin:round;stroke-miterlimit:1.5;" version="1.1" xmlns="http://www.w3.org/2000/svg" xmlns:xlink="http://www.w3.org/1999/xlink" width="360" height="570" viewBox="0 0 360 570"><style class="text-font-style fontImports" data-font-family="Roboto">@import url(https://fonts.googleapis.com/css2?family=Roboto:wght@400;700&amp;amp;display=block);</style><g id="items" style="isolation: isolate"><g id="blend" style="mix-blend-mode: normal"><g id="g-root-cp_1_g-1_1lr5yeh20j9qh-fill" data-item-order="-142244" transform="translate(14, 164)"></g><g id="g-root-cp_1_g-1_1lr5yeh20j9qh-stroke" data-item-order="-142244" transform="translate(14, 164)"><g id="cp_1_g-1_1lr5yeh20j9qh-stroke" fill="none" stroke-linecap="round" stroke-linejoin="round" stroke-miterlimit="4" stroke="#3f3f3f" stroke-width="1" stroke-opacity="1"><g><path d="M 82 10L 139.6 10L 154 34L 139.6 58L 82 58L 96.4 34L 82 10ZM 38.8 10L 67.6 10L 82 34L 67.6 58L 38.8 58L 53.2 34L 38.8 10ZM 10 10L 24.4 10L 38.8 34L 24.4 58L 10 58L 24.4 34L 10 10ZM 82 34L 53.2 34M 38.8 34L 24.4 34M 96.4 34L 154 34M 82 70L 82 154"></path></g></g></g><g id="g-root-cp_2_g-2_hvabmx20jabm-fill" data-item-order="-142226" transform="translate(182, 164)"></g><g id="g-root-cp_2_g-2_hvabmx20jabm-stroke" data-item-order="-142226" transform="translate(182, 164)"><g id="cp_2_g-2_hvabmx20jabm-stroke" fill="none" stroke-linecap="round" stroke-linejoin="round" stroke-miterlimit="4" stroke="#3f3f3f" stroke-width="1" stroke-opacity="1"><g><path d="M 82 10L 139.6 10L 154 34L 139.6 58L 82 58L 96.4 34L 82 10ZM 38.8 10L 67.6 10L 82 34L 67.6 58L 38.8 58L 53.2 34L 38.8 10ZM 10 10L 24.4 10L 38.8 34L 24.4 58L 10 58L 24.4 34L 10 10ZM 82 34L 53.2 34M 38.8 34L 24.4 34M 96.4 34L 154 34M 82 70L 82 226"></path></g></g></g><g id="g-root-tx_aiagentm_qs6a2120jax7-fill" data-item-order="0" transform="translate(43.9765625, 38)"><g id="tx_aiagentm_qs6a2120jax7-fill-merged" stroke="none" fill="#3f3f3f" fill-opacity="1"><g><text style="font: bold 25px Roboto, sans-serif; white-space: pre;" transform="translate(136.0234375, 40)" font-weight="bold" font-size="25px" font-family="Roboto, sans-serif"><tspan x="-116.38" y="0" dominant-baseline="ideographic">AI Agent Monitoring </tspan><tspan x="-44.45" y="30" dominant-baseline="ideographic">Phases</tspan></text></g></g></g><g id="g-root-tx_aiagentm_qs6a2120jax7-stroke" data-item-order="0" transform="translate(43.9765625, 38)"></g><g id="g-root-tx_weeks18_qoffjd20kr2c-fill" data-item-order="0" transform="translate(49.46875, 122)"><g id="tx_weeks18_qoffjd20kr2c-fill-merged" stroke="none" fill="#3f3f3f" fill-opacity="1"><g><text style="font: 15px Roboto, sans-serif; white-space: pre;" transform="translate(46.53125, 19)" font-size="15px" font-family="Roboto, sans-serif"><tspan x="-34.53" y="8.5" dominant-baseline="ideographic">Weeks 1-8</tspan></text></g></g></g><g id="g-root-tx_weeks18_qoffjd20kr2c-stroke" data-item-order="0" transform="translate(49.46875, 122)"></g><g id="g-root-tx_week9_vb45m120kop1-fill" data-item-order="0" transform="translate(223.3671875, 122)"><g id="tx_week9_vb45m120kop1-fill-merged" stroke="none" fill="#3f3f3f" fill-opacity="1"><g><text style="font: 15px Roboto, sans-serif; white-space: pre;" transform="translate(40.6328125, 19)" font-size="15px" font-family="Roboto, sans-serif"><tspan x="-28.63" y="8.5" dominant-baseline="ideographic">Week 9+</tspan></text></g></g></g><g id="g-root-tx_week9_vb45m120kop1-stroke" data-item-order="0" transform="translate(223.3671875, 122)"></g><g id="g-root-tx_baseline_1upauzt20m39q-fill" data-item-order="0" transform="translate(35.842437744140625, 320)"><g id="tx_baseline_1upauzt20m39q-fill-merged" stroke="none" fill="#3f3f3f" fill-opacity="1"><g><text style="font: bold 15px Roboto, sans-serif; white-space: pre;" transform="translate(60.157562255859375, 27.998046875)" font-weight="bold" font-size="15px" font-family="Roboto, sans-serif"><tspan x="-28.93" y="-0.5" dominant-baseline="ideographic">Baseline </tspan><tspan x="-48.16" y="17.5" dominant-baseline="ideographic">Establishment</tspan></text></g></g></g><g id="g-root-tx_baseline_1upauzt20m39q-stroke" data-item-order="0" transform="translate(35.842437744140625, 320)"></g><g id="g-root-tx_learning_1ulk0h520njev-fill" data-item-order="0" transform="translate(29.44921875, 367.99609375)"><g id="tx_learning_1ulk0h520njev-fill-merged" stroke="none" fill="#3f3f3f" fill-opacity="1"><g><text style="font: 15px Roboto, sans-serif; white-space: pre;" transform="translate(66.55078125, 36.994140625)" font-size="15px" font-family="Roboto, sans-serif"><tspan x="-45.12" y="-9.49" dominant-baseline="ideographic">Learning and </tspan><tspan x="-54.55" y="8.5" dominant-baseline="ideographic">documenting AI </tspan><tspan x="-51.2" y="26.49" dominant-baseline="ideographic">agent behavior</tspan></text></g></g></g><g id="g-root-tx_learning_1ulk0h520njev-stroke" data-item-order="0" transform="translate(29.44921875, 367.99609375)"></g><g id="g-root-tx_continuo_1hgyq2120njeo-fill" data-item-order="0" transform="translate(211.5703125, 392)"><g id="tx_continuo_1hgyq2120njeo-fill-merged" stroke="none" fill="#3f3f3f" fill-opacity="1"><g><text style="font: bold 15px Roboto, sans-serif; white-space: pre;" transform="translate(52.4296875, 27.998046875)" font-weight="bold" font-size="15px" font-family="Roboto, sans-serif"><tspan x="-40.43" y="-0.5" dominant-baseline="ideographic">Continuous </tspan><tspan x="-38.75" y="17.5" dominant-baseline="ideographic">Monitoring</tspan></text></g></g></g><g id="g-root-tx_continuo_1hgyq2120njeo-stroke" data-item-order="0" transform="translate(211.5703125, 392)"></g><g id="g-root-tx_ongoingt_909sh520oxzd-fill" data-item-order="0" transform="translate(193.47784423828125, 439.99609375)"><g id="tx_ongoingt_909sh520oxzd-fill-merged" stroke="none" fill="#3f3f3f" fill-opacity="1"><g><text style="font: 15px Roboto, sans-serif; white-space: pre;" transform="translate(70.52215576171875, 36.994140625)" font-size="15px" font-family="Roboto, sans-serif"><tspan x="-58.52" y="-9.49" dominant-baseline="ideographic">Ongoing tracking </tspan><tspan x="-44.71" y="8.5" dominant-baseline="ideographic">and anomaly </tspan><tspan x="-33.12" y="26.49" dominant-baseline="ideographic">detection</tspan></text></g></g></g><g id="g-root-tx_ongoingt_909sh520oxzd-stroke" data-item-order="0" transform="translate(193.47784423828125, 439.99609375)"></g></g></g></svg>