<?xml version="1.0" encoding="utf-8" standalone="yes"?>
<!DOCTYPE svg PUBLIC "-//W3C//DTD SVG 1.1//EN" "http://www.w3.org/Graphics/SVG/1.1/DTD/svg11.dtd">
<svg style="fill:none;stroke:none;fill-rule:evenodd;clip-rule:evenodd;stroke-linecap:round;stroke-linejoin:round;stroke-miterlimit:1.5;" version="1.1" xmlns="http://www.w3.org/2000/svg" xmlns:xlink="http://www.w3.org/1999/xlink" width="600" height="570" viewBox="0 0 600 570"><style class="text-font-style fontImports" data-font-family="Roboto">@import url(https://fonts.googleapis.com/css2?family=Roboto:wght@400;700&amp;amp;display=block);</style><g id="items" style="isolation: isolate"><g id="blend" style="mix-blend-mode: normal"><g id="g-root-cp_3_col-3_deufl52ukv0l-fill" data-item-order="-261635" transform="translate(110, 128)"></g><g id="g-root-cp_3_col-3_deufl52ukv0l-stroke" data-item-order="-261635" transform="translate(110, 128)"><g id="cp_3_col-3_deufl52ukv0l-stroke" fill="none" stroke-linecap="round" stroke-linejoin="round" stroke-miterlimit="4" stroke="#3f3f3f" stroke-width="1" stroke-opacity="1"><g><path d="M 82 22L 46 34L 10 22M 82 22L 46 10L 10 22M 82 22L 82 34M 10 22L 10 34M 46 34L 46 108M 82 34L 82 108M 10 34L 10 108M 46 130L 82 118L 82 108M 46 130C 31.9411 125.3137 24.0589 122.6863 10 118L 10 108M 46 130L 46 108"></path></g></g></g><g id="g-root-cp_3_bar-3_1lt1gtl2ukxza-fill" data-item-order="-261621" transform="translate(247.0078125, 140)"></g><g id="g-root-cp_3_bar-3_1lt1gtl2ukxza-stroke" data-item-order="-261621" transform="translate(247.0078125, 140)"><g id="cp_3_bar-3_1lt1gtl2ukxza-stroke" fill="none" stroke-linecap="round" stroke-linejoin="round" stroke-miterlimit="4" stroke="#3f3f3f" stroke-width="1" stroke-opacity="1"><g><path d="M 27.990201 22L 35.980801 22L 22.990401 10L 10 22L 17.990201 22"></path></g></g><g id="cp_3_bar-3_1lt1gtl2ukxza-stroke" fill="none" stroke-linecap="round" stroke-linejoin="round" stroke-miterlimit="4" stroke="#3f3f3f" stroke-width="1" stroke-opacity="1"><g><path d="M 28.992188 58L 88.992188 58M 28.992188 22L 28.992188 106M 16.992188 22L 16.992188 106"></path></g></g></g><g id="g-root-cp_2_col-2_1qaqe7d2ukw7b-fill" data-item-order="-261597" transform="translate(86, 227)"></g><g id="g-root-cp_2_col-2_1qaqe7d2ukw7b-stroke" data-item-order="-261597" transform="translate(86, 227)"><g id="cp_2_col-2_1qaqe7d2ukw7b-stroke" fill="none" stroke-linecap="round" stroke-linejoin="round" stroke-miterlimit="4" stroke="#3f3f3f" stroke-width="1" stroke-opacity="1"><g><path d="M 130 19.0584L 70 40.9999L 10 19.0584L 34 10L 34 19.0584L 70 31.1363L 106 19.0584L 106 10L 130 19.0584ZM 130 19.0584L 130 41M 10 19.0584L 10 41M 130 103L 130 41M 70 103L 70 41M 10 103L 10 41M 70 137L 130 115.1286L 130 103M 70 137L 70 103M 70 137L 10 115.1286L 10 103"></path></g></g></g><g id="g-root-cp_2_bar-2_mczc6h2ukxs8-fill" data-item-order="-261583" transform="translate(254, 236)"></g><g id="g-root-cp_2_bar-2_mczc6h2ukxs8-stroke" data-item-order="-261583" transform="translate(254, 236)"><g id="cp_2_bar-2_mczc6h2ukxs8-stroke" fill="none" stroke-linecap="round" stroke-linejoin="round" stroke-miterlimit="4" stroke="#3f3f3f" stroke-width="1" stroke-opacity="1"><g><path d="M 10 10L 22 10L 22 106L 10 106Z"></path></g></g><g id="cp_2_bar-2_mczc6h2ukxs8-stroke" fill="none" stroke-linecap="round" stroke-linejoin="round" stroke-miterlimit="4" stroke="#3f3f3f" stroke-width="1" stroke-opacity="1"><g><path d="M 22 58L 82 58"></path></g></g></g><g id="g-root-cp_1_col-1_1ursui12ukxl5-fill" data-item-order="-261565" transform="translate(62, 323)"></g><g id="g-root-cp_1_col-1_1ursui12ukxl5-stroke" data-item-order="-261565" transform="translate(62, 323)"><g id="cp_1_col-1_1ursui12ukxl5-stroke" fill="none" stroke-linecap="round" stroke-linejoin="round" stroke-miterlimit="4" stroke="#3f3f3f" stroke-width="1" stroke-opacity="1"><g><path d="M 178 19L 94 51L 10 19L 34 10L 34 19L 94 41L 154 19L 154 10L 178 19ZM 178 19L 178 51M 10 19L 10 51M 94 51L 94 103M 10 51L 10 103M 178 51L 178 103M 94 147L 178 115L 178 103M 94 147L 10 115L 10 103M 94 147L 94 103"></path></g></g></g><g id="g-root-cp_1_bar-1_145iauh2ukxl6-fill" data-item-order="-261551" transform="translate(254, 332)"></g><g id="g-root-cp_1_bar-1_145iauh2ukxl6-stroke" data-item-order="-261551" transform="translate(254, 332)"><g id="cp_1_bar-1_145iauh2ukxl6-stroke" fill="none" stroke-linecap="round" stroke-linejoin="round" stroke-miterlimit="4" stroke="#3f3f3f" stroke-width="1" stroke-opacity="1"><g><path d="M 10 10L 22 10L 22 106L 10 106Z"></path></g></g><g id="cp_1_bar-1_145iauh2ukxl6-stroke" fill="none" stroke-linecap="round" stroke-linejoin="round" stroke-miterlimit="4" stroke="#3f3f3f" stroke-width="1" stroke-opacity="1"><g><path d="M 22 58L 82 58"></path></g></g></g><g id="g-root-tx_aisecuri_dj7r6x2ukxl7-fill" data-item-order="0" transform="translate(169.14581298828125, 38)"><g id="tx_aisecuri_dj7r6x2ukxl7-fill-merged" stroke="none" fill="#3f3f3f" fill-opacity="1"><g><text style="font: bold 25px Roboto, sans-serif; white-space: pre;" transform="translate(130.85418701171875, 25)" font-weight="bold" font-size="25px" font-family="Roboto, sans-serif"><tspan x="-118.85" y="15" dominant-baseline="ideographic">AI Security Hierarchy</tspan></text></g></g></g><g id="g-root-tx_aisecuri_dj7r6x2ukxl7-stroke" data-item-order="0" transform="translate(169.14581298828125, 38)"></g><g id="g-root-tx_systemco_1umt1t52umbkc-fill" data-item-order="0" transform="translate(338, 155.001953125)"><g id="tx_systemco_1umt1t52umbkc-fill-merged" stroke="none" fill="#3f3f3f" fill-opacity="1"><g><text style="font: bold 15px Roboto, sans-serif; white-space: pre;" transform="translate(10, 19)" font-weight="bold" font-size="15px" font-family="Roboto, sans-serif"><tspan x="2" y="8.5" dominant-baseline="ideographic">System Configuration</tspan></text></g></g></g><g id="g-root-tx_systemco_1umt1t52umbkc-stroke" data-item-order="0" transform="translate(338, 155.001953125)"></g><g id="g-root-tx_encrypte_1qaqe7d2um9l9-fill" data-item-order="0" transform="translate(338, 185.001953125)"><g id="tx_encrypte_1qaqe7d2um9l9-fill-merged" stroke="none" fill="#3f3f3f" fill-opacity="1"><g><text style="font: 15px Roboto, sans-serif; white-space: pre;" transform="translate(10, 27.998046875)" font-size="15px" font-family="Roboto, sans-serif"><tspan x="2" y="-0.5" dominant-baseline="ideographic">Encrypted and signed, </tspan><tspan x="2" y="17.5" dominant-baseline="ideographic">read-only post-creation</tspan></text></g></g></g><g id="g-root-tx_encrypte_1qaqe7d2um9l9-stroke" data-item-order="0" transform="translate(338, 185.001953125)"></g><g id="g-root-tx_conversa_18mkr552umccu-fill" data-item-order="0" transform="translate(338, 251.001953125)"><g id="tx_conversa_18mkr552umccu-fill-merged" stroke="none" fill="#3f3f3f" fill-opacity="1"><g><text style="font: bold 15px Roboto, sans-serif; white-space: pre;" transform="translate(10, 19)" font-weight="bold" font-size="15px" font-family="Roboto, sans-serif"><tspan x="2" y="8.5" dominant-baseline="ideographic">Conversation History</tspan></text></g></g></g><g id="g-root-tx_conversa_18mkr552umccu-stroke" data-item-order="0" transform="translate(338, 251.001953125)"></g><g id="g-root-tx_encrypte_1cw5ieh2uno5j-fill" data-item-order="0" transform="translate(338, 281.001953125)"><g id="tx_encrypte_1cw5ieh2uno5j-fill-merged" stroke="none" fill="#3f3f3f" fill-opacity="1"><g><text style="font: 15px Roboto, sans-serif; white-space: pre;" transform="translate(10, 27.998046875)" font-size="15px" font-family="Roboto, sans-serif"><tspan x="2" y="-0.5" dominant-baseline="ideographic">Encrypted, short retention, </tspan><tspan x="2" y="17.5" dominant-baseline="ideographic">session-scoped</tspan></text></g></g></g><g id="g-root-tx_encrypte_1cw5ieh2uno5j-stroke" data-item-order="0" transform="translate(338, 281.001953125)"></g><g id="g-root-tx_userpref_dhcbxl2unq4g-fill" data-item-order="0" transform="translate(338, 347.001953125)"><g id="tx_userpref_dhcbxl2unq4g-fill-merged" stroke="none" fill="#3f3f3f" fill-opacity="1"><g><text style="font: bold 15px Roboto, sans-serif; white-space: pre;" transform="translate(10, 19)" font-weight="bold" font-size="15px" font-family="Roboto, sans-serif"><tspan x="2" y="8.5" dominant-baseline="ideographic">User Preferences</tspan></text></g></g></g><g id="g-root-tx_userpref_dhcbxl2unq4g-stroke" data-item-order="0" transform="translate(338, 347.001953125)"></g><g id="g-root-tx_encrypte_9mo2x2unoy1-fill" data-item-order="0" transform="translate(338, 377.001953125)"><g id="tx_encrypte_9mo2x2unoy1-fill-merged" stroke="none" fill="#3f3f3f" fill-opacity="1"><g><text style="font: 15px Roboto, sans-serif; white-space: pre;" transform="translate(10, 27.998046875)" font-size="15px" font-family="Roboto, sans-serif"><tspan x="2" y="-0.5" dominant-baseline="ideographic">Encrypted, hashed, intent </tspan><tspan x="2" y="17.5" dominant-baseline="ideographic">verification required</tspan></text></g></g></g><g id="g-root-tx_encrypte_9mo2x2unoy1-stroke" data-item-order="0" transform="translate(338, 377.001953125)"></g></g></g></svg>