<?xml version="1.0" encoding="utf-8" standalone="yes"?>
<!DOCTYPE svg PUBLIC "-//W3C//DTD SVG 1.1//EN" "http://www.w3.org/Graphics/SVG/1.1/DTD/svg11.dtd">
<svg style="fill:none;stroke:none;fill-rule:evenodd;clip-rule:evenodd;stroke-linecap:round;stroke-linejoin:round;stroke-miterlimit:1.5;" version="1.1" xmlns="http://www.w3.org/2000/svg" xmlns:xlink="http://www.w3.org/1999/xlink" width="877" height="704" viewBox="0 0 877 704"><style class="text-font-style fontImports" data-font-family="Roboto">@import url(https://fonts.googleapis.com/css2?family=Roboto:wght@400;700&amp;amp;display=block);</style><g id="items" style="isolation: isolate"><g id="blend" style="mix-blend-mode: normal"><g id="g-root-cp_5_text-5_1cxea9l2m58p-fill" data-item-order="-478906" transform="translate(290, 128)"></g><g id="g-root-cp_5_text-5_1cxea9l2m58p-stroke" data-item-order="-478906" transform="translate(290, 128)"><g id="cp_5_text-5_1cxea9l2m58p-stroke" fill="none" stroke-linecap="round" stroke-linejoin="round" stroke-miterlimit="4" stroke="#3f3f3f" stroke-width="1" stroke-opacity="1"><g><path d="M 10 16C 10 12.6863 12.6863 10 16 10L 64 10C 67.3137 10 70 12.6863 70 16L 70 64C 70 67.3137 67.3137 70 64 70L 16 70C 12.6863 70 10 67.3137 10 64L 10 16Z"></path></g></g></g><g id="g-root-cp_4_text-4_4kg77d2m4g2-fill" data-item-order="-478892" transform="translate(290, 223.99609375)"></g><g id="g-root-cp_4_text-4_4kg77d2m4g2-stroke" data-item-order="-478892" transform="translate(290, 223.99609375)"><g id="cp_4_text-4_4kg77d2m4g2-stroke" fill="none" stroke-linecap="round" stroke-linejoin="round" stroke-miterlimit="4" stroke="#3f3f3f" stroke-width="1" stroke-opacity="1"><g><path d="M 10 16C 10 12.6863 12.6863 10 16 10L 64 10C 67.3137 10 70 12.6863 70 16L 70 64C 70 67.3137 67.3137 70 64 70L 16 70C 12.6863 70 10 67.3137 10 64L 10 16Z"></path></g></g></g><g id="g-root-cp_3_text-3_qs66wp2m6mj-fill" data-item-order="-478878" transform="translate(290, 337.984375)"></g><g id="g-root-cp_3_text-3_qs66wp2m6mj-stroke" data-item-order="-478878" transform="translate(290, 337.984375)"><g id="cp_3_text-3_qs66wp2m6mj-stroke" fill="none" stroke-linecap="round" stroke-linejoin="round" stroke-miterlimit="4" stroke="#3f3f3f" stroke-width="1" stroke-opacity="1"><g><path d="M 10 16C 10 12.6863 12.6863 10 16 10L 64 10C 67.3137 10 70 12.6863 70 16L 70 64C 70 67.3137 67.3137 70 64 70L 16 70C 12.6863 70 10 67.3137 10 64L 10 16Z"></path></g></g></g><g id="g-root-cp_2_text-2_1hgc5tl2m5ms-fill" data-item-order="-478864" transform="translate(290, 433.98046875)"></g><g id="g-root-cp_2_text-2_1hgc5tl2m5ms-stroke" data-item-order="-478864" transform="translate(290, 433.98046875)"><g id="cp_2_text-2_1hgc5tl2m5ms-stroke" fill="none" stroke-linecap="round" stroke-linejoin="round" stroke-miterlimit="4" stroke="#3f3f3f" stroke-width="1" stroke-opacity="1"><g><path d="M 10 16C 10 12.6863 12.6863 10 16 10L 64 10C 67.3137 10 70 12.6863 70 16L 70 64C 70 67.3137 67.3137 70 64 70L 16 70C 12.6863 70 10 67.3137 10 64L 10 16Z"></path></g></g></g><g id="g-root-cp_1_text-1_4nkkmx2m4ul-fill" data-item-order="-478850" transform="translate(290, 529.9765625)"></g><g id="g-root-cp_1_text-1_4nkkmx2m4ul-stroke" data-item-order="-478850" transform="translate(290, 529.9765625)"><g id="cp_1_text-1_4nkkmx2m4ul-stroke" fill="none" stroke-linecap="round" stroke-linejoin="round" stroke-miterlimit="4" stroke="#3f3f3f" stroke-width="1" stroke-opacity="1"><g><path d="M 10 16C 10 12.6863 12.6863 10 16 10L 64 10C 67.3137 10 70 12.6863 70 16L 70 64C 70 67.3137 67.3137 70 64 70L 16 70C 12.6863 70 10 67.3137 10 64L 10 16Z"></path></g></g></g><g id="g-root-cp_0_g-0_i0a16h2m5fq-fill" data-item-order="-478832" transform="translate(399, 121.9765625)"></g><g id="g-root-cp_0_g-0_i0a16h2m5fq-stroke" data-item-order="-478832" transform="translate(399, 121.9765625)"><g id="cp_0_g-0_i0a16h2m5fq-stroke" fill="none" stroke-linecap="round" stroke-linejoin="round" stroke-miterlimit="4" stroke="#3f3f3f" stroke-width="1" stroke-opacity="1"><g><path d="M 220.057 58.4363C 265.1547 33.9806 315.7197 17.8143 369.9294 12.1824C 398.4494 9.2193 426.5819 9.3171 454 12.2104M 199.3082 70.5089C 176.2046 84.8974 154.7355 101.5414 135.1768 120.101M 118.2668 137.1313C 99.805 156.8647 83.349 178.425 69.1777 201.4687M 57.2208 222.2763C 44.4942 246.0359 34.1088 271.1624 26.3389 297.3179M 20.1999 320.5213C 14.2528 346.0914 10.7727 372.5128 10 399.4899M 10.0286 423.4866C 10.3313 433.2638 10.9908 443.1013 12.0182 452.9852C 13.8173 470.2923 16.6911 487.2278 20.5664 503.7323"></path></g></g></g><g id="g-root-cp_5_g-5_1qf3ji12m58n-fill" data-item-order="-478828" transform="translate(586.6309814453125, 164.2109375)"></g><g id="g-root-cp_5_g-5_1qf3ji12m58n-stroke" data-item-order="-478828" transform="translate(586.6309814453125, 164.2109375)"><g id="cp_5_g-5_1qf3ji12m58n-stroke" fill="none" stroke-linecap="round" stroke-linejoin="round" stroke-miterlimit="4" stroke="#3f3f3f" stroke-width="1" stroke-opacity="1"><g><path d="M 33.9367 20.7606C 34.6217 27.3525 29.8333 33.2516 23.2413 33.9367C 16.6494 34.6217 10.7503 29.8333 10.0652 23.2413C 9.3802 16.6494 14.1686 10.7503 20.7606 10.0652C 27.3525 9.3802 33.2516 14.1686 33.9367 20.7606Z"></path></g></g></g><g id="g-root-cp_4_g-4_m7cw3d2nle0-fill" data-item-order="-478824" transform="translate(503.66900634765625, 228.4140625)"></g><g id="g-root-cp_4_g-4_m7cw3d2nle0-stroke" data-item-order="-478824" transform="translate(503.66900634765625, 228.4140625)"><g id="cp_4_g-4_m7cw3d2nle0-stroke" fill="none" stroke-linecap="round" stroke-linejoin="round" stroke-miterlimit="4" stroke="#3f3f3f" stroke-width="1" stroke-opacity="1"><g><path d="M 33.9367 20.7606C 34.6217 27.3525 29.8333 33.2516 23.2413 33.9367C 16.6494 34.6217 10.7503 29.8333 10.0652 23.2413C 9.3802 16.6494 14.1686 10.7503 20.7606 10.0652C 27.3525 9.3802 33.2516 14.1686 33.9367 20.7606Z"></path></g></g></g><g id="g-root-cp_3_g-3_1cviv092nke9-fill" data-item-order="-478820" transform="translate(440.1199951171875, 311.703125)"></g><g id="g-root-cp_3_g-3_1cviv092nke9-stroke" data-item-order="-478820" transform="translate(440.1199951171875, 311.703125)"><g id="cp_3_g-3_1cviv092nke9-stroke" fill="none" stroke-linecap="round" stroke-linejoin="round" stroke-miterlimit="4" stroke="#3f3f3f" stroke-width="1" stroke-opacity="1"><g><path d="M 33.9367 20.7606C 34.6217 27.3525 29.8333 33.2516 23.2413 33.9367C 16.6494 34.6217 10.7503 29.8333 10.0652 23.2413C 9.3802 16.6494 14.1686 10.7503 20.7606 10.0652C 27.3525 9.3802 33.2516 14.1686 33.9367 20.7606Z"></path></g></g></g><g id="g-root-cp_2_g-2_2r9tl2njm2-fill" data-item-order="-478816" transform="translate(400.17498779296875, 408.80078125)"></g><g id="g-root-cp_2_g-2_2r9tl2njm2-stroke" data-item-order="-478816" transform="translate(400.17498779296875, 408.80078125)"><g id="cp_2_g-2_2r9tl2njm2-stroke" fill="none" stroke-linecap="round" stroke-linejoin="round" stroke-miterlimit="4" stroke="#3f3f3f" stroke-width="1" stroke-opacity="1"><g><path d="M 33.9367 20.7606C 34.6217 27.3525 29.8333 33.2516 23.2413 33.9367C 16.6494 34.6217 10.7503 29.8333 10.0652 23.2413C 9.3802 16.6494 14.1686 10.7503 20.7606 10.0652C 27.3525 9.3802 33.2516 14.1686 33.9367 20.7606Z"></path></g></g></g><g id="g-root-cp_1_g-1_qqx8qh2nimb-fill" data-item-order="-478812" transform="translate(386.9169921875, 511.423828125)"></g><g id="g-root-cp_1_g-1_qqx8qh2nimb-stroke" data-item-order="-478812" transform="translate(386.9169921875, 511.423828125)"><g id="cp_1_g-1_qqx8qh2nimb-stroke" fill="none" stroke-linecap="round" stroke-linejoin="round" stroke-miterlimit="4" stroke="#3f3f3f" stroke-width="1" stroke-opacity="1"><g><path d="M 33.9367 20.7606C 34.6217 27.3525 29.8333 33.2516 23.2413 33.9367C 16.6494 34.6217 10.7503 29.8333 10.0652 23.2413C 9.3802 16.6494 14.1686 10.7503 20.7606 10.0652C 27.3525 9.3802 33.2516 14.1686 33.9367 20.7606Z"></path></g></g></g><g id="g-root-ic_chec_4hbwxl2jbbe-fill" data-item-order="0" transform="translate(302, 235.99609375)"></g><g id="g-root-ic_chec_4hbwxl2jbbe-stroke" data-item-order="0" transform="translate(302, 235.99609375)"><g id="ic_chec_4hbwxl2jbbe-stroke" fill="none" stroke-linecap="round" stroke-linejoin="round" stroke-miterlimit="4" stroke="#3f3f3f" stroke-width="1" stroke-opacity="1"><g><path d="M 36.925003 20.800104L 18.925014 20.800104L 18.925014 44.800148L 36.925003 44.800148L 36.925003 20.800104ZM 39.925003 29.19985L 44.724998 29.19985M 39.925003 35.199852L 44.724998 35.199852M 39.925003 41.199852L 43.224998 41.199852C 44.125 41.199852 44.724998 40.59985 44.724998 39.699852L 44.724998 24.699894C 44.724998 23.799896 44.125 23.199894 43.224998 23.199894L 39.925003 23.199894M 19.675014 28.749849L 36.925003 28.749849M 19.675014 36.999851L 36.925003 36.999851M 15.924985 29.19985L 11.125 29.19985M 15.924985 35.199852L 11.125 35.199852M 15.925 41.199852L 12.625 41.199852C 11.725 41.199852 11.125 40.59985 11.125 39.699852L 11.125 24.699894C 11.125 23.799896 11.725 23.199894 12.625 23.199894L 15.925 23.199894M 10 10M 25.674999 12.699895L 27.924999 14.79988L 31.674999 11.19989"></path></g></g></g><g id="g-root-tx_20242026_htf2pl2kq2s-fill" data-item-order="0" transform="translate(543, 229.9765625)"><g id="tx_20242026_htf2pl2kq2s-fill-merged" stroke="none" fill="#3f3f3f" fill-opacity="1"><g><text style="font: bold 15px Roboto, sans-serif; white-space: pre;" transform="translate(10, 19)" font-weight="bold" font-size="15px" font-family="Roboto, sans-serif"><tspan x="2" y="8.5" dominant-baseline="ideographic">2024-2026</tspan></text></g></g></g><g id="g-root-tx_20242026_htf2pl2kq2s-stroke" data-item-order="0" transform="translate(543, 229.9765625)"></g><g id="g-root-tx_verifysa_4mbpmh2hxc9-fill" data-item-order="0" transform="translate(65.5234375, 253.99609375)"><g id="tx_verifysa_4mbpmh2hxc9-fill-merged" stroke="none" fill="#3f3f3f" fill-opacity="1"><g><text style="font: 15px Roboto, sans-serif; white-space: pre;" transform="translate(222.4765625, 36.994140625)" font-size="15px" font-family="Roboto, sans-serif"><tspan x="-210.48" y="-9.49" dominant-baseline="ideographic">Verify → Sanitize → Retrieve → </tspan><tspan x="-141.02" y="8.5" dominant-baseline="ideographic">Execute → Output → </tspan><tspan x="-151.4" y="26.49" dominant-baseline="ideographic">Communicate pipeline</tspan></text></g></g></g><g id="g-root-tx_verifysa_4mbpmh2hxc9-stroke" data-item-order="0" transform="translate(65.5234375, 253.99609375)"></g><g id="g-root-tx_agentpro_1ha3i492hyps-fill" data-item-order="0" transform="translate(118.94793701171875, 223.99609375)"><g id="tx_agentpro_1ha3i492hyps-fill-merged" stroke="none" fill="#3f3f3f" fill-opacity="1"><g><text style="font: bold 15px Roboto, sans-serif; white-space: pre;" transform="translate(169.05206298828125, 19)" font-weight="bold" font-size="15px" font-family="Roboto, sans-serif"><tspan x="-157.05" y="8.5" dominant-baseline="ideographic">Agent Processing Flow</tspan></text></g></g></g><g id="g-root-tx_agentpro_1ha3i492hyps-stroke" data-item-order="0" transform="translate(118.94793701171875, 223.99609375)"></g><g id="g-root-tx_singletu_92rrzt2xd6o-fill" data-item-order="0" transform="translate(68.24481201171875, 559.9765625)"><g id="tx_singletu_92rrzt2xd6o-fill-merged" stroke="none" fill="#3f3f3f" fill-opacity="1"><g><text style="font: 15px Roboto, sans-serif; white-space: pre;" transform="translate(219.75518798828125, 19)" font-size="15px" font-family="Roboto, sans-serif"><tspan x="-207.76" y="8.5" dominant-baseline="ideographic">Single-turn, stateless AI agents</tspan></text></g></g></g><g id="g-root-tx_singletu_92rrzt2xd6o-stroke" data-item-order="0" transform="translate(68.24481201171875, 559.9765625)"></g><g id="g-root-tx_20242026_146rc6x2jb4b-fill" data-item-order="0" transform="translate(627, 163.9765625)"><g id="tx_20242026_146rc6x2jb4b-fill-merged" stroke="none" fill="#3f3f3f" fill-opacity="1"><g><text style="font: bold 15px Roboto, sans-serif; white-space: pre;" transform="translate(10, 19)" font-weight="bold" font-size="15px" font-family="Roboto, sans-serif"><tspan x="2" y="8.5" dominant-baseline="ideographic">2024-2026</tspan></text></g></g></g><g id="g-root-tx_20242026_146rc6x2jb4b-stroke" data-item-order="0" transform="translate(627, 163.9765625)"></g><g id="g-root-tx_gen3ai_m98eih2vz7x-fill" data-item-order="0" transform="translate(214.546875, 337.984375)"><g id="tx_gen3ai_m98eih2vz7x-fill-merged" stroke="none" fill="#3f3f3f" fill-opacity="1"><g><text style="font: bold 15px Roboto, sans-serif; white-space: pre;" transform="translate(73.453125, 19)" font-weight="bold" font-size="15px" font-family="Roboto, sans-serif"><tspan x="-61.45" y="8.5" dominant-baseline="ideographic">Gen-3 AI</tspan></text></g></g></g><g id="g-root-tx_gen3ai_m98eih2vz7x-stroke" data-item-order="0" transform="translate(214.546875, 337.984375)"></g><g id="g-root-ic_mq_148041l2w0lj-fill" data-item-order="0" transform="translate(302, 349.984375)"></g><g id="g-root-ic_mq_148041l2w0lj-stroke" data-item-order="0" transform="translate(302, 349.984375)"><g id="ic_mq_148041l2w0lj-stroke" fill="none" stroke-linecap="round" stroke-linejoin="round" stroke-miterlimit="4" stroke="#3f3f3f" stroke-width="1" stroke-opacity="1"><g><path d="M 14.125 31.15015C 15.781855 31.15015 17.125 29.807051 17.125 28.15015C 17.125 26.49325 15.781855 25.15015 14.125 25.15015C 12.468145 25.15015 11.125 26.49325 11.125 28.15015C 11.125 29.807051 12.468145 31.15015 14.125 31.15015ZM 41.875 31.15015C 43.531902 31.15015 44.875 29.807051 44.875 28.15015C 44.875 26.49325 43.531902 25.15015 41.875 25.15015C 40.218098 25.15015 38.875 26.49325 38.875 28.15015C 38.875 29.807051 40.218098 31.15015 41.875 31.15015ZM 14.400385 25.164101C 15.000385 22.31407 16.524925 19.599926 18.624926 17.799925M 41.578602 31.1362C 40.9786 33.986198 39.44455 36.56995 37.344551 38.369949M 31.825001 28.1497C 31.825001 29.949699 32.275002 31.599701 33.025002 33.099701C 31.525002 32.349701 29.875 31.8997 28.075001 31.8997C 26.275002 31.8997 24.625 32.349701 23.125 33.099701C 23.875 31.599701 24.325001 29.949699 24.325001 28.1497C 24.325001 26.349701 23.875 24.699699 23.125 23.199699C 24.625 23.949699 26.275002 24.399715 28.075001 24.399715C 29.875 24.399715 31.525002 23.949699 33.025002 23.199699C 32.275002 24.5497 31.825001 26.349701 31.825001 28.1497ZM 10 10M 17.125 28.15015L 24.324894 28.15015M 31.82485 28.15015L 38.875 28.15015M 14.125 31.15015C 15.781855 31.15015 17.125 29.807051 17.125 28.15015C 17.125 26.49325 15.781855 25.15015 14.125 25.15015C 12.468145 25.15015 11.125 26.49325 11.125 28.15015C 11.125 29.807051 12.468145 31.15015 14.125 31.15015ZM 41.875 31.15015C 43.531902 31.15015 44.875 29.807051 44.875 28.15015C 44.875 26.49325 43.531902 25.15015 41.875 25.15015C 40.218098 25.15015 38.875 26.49325 38.875 28.15015C 38.875 29.807051 40.218098 31.15015 41.875 31.15015ZM 21.174925 43C 22.831779 43 24.174925 41.656902 24.174925 40C 24.174925 38.343098 22.831779 37 21.174925 37C 19.51807 37 18.174925 38.343098 18.174925 40C 18.174925 41.656902 19.51807 43 21.174925 43ZM 34.974998 19C 36.631901 19 37.974998 17.656855 37.974998 16C 37.974998 14.343145 36.631901 13 34.974998 13C 33.318249 13 31.974998 14.343145 31.974998 16C 31.974998 17.656855 33.318249 19 34.974998 19ZM 34.824852 43C 36.48175 43 37.824852 41.656902 37.824852 40C 37.824852 38.343098 36.48175 37 34.824852 37C 33.168098 37 31.82485 38.343098 31.82485 40C 31.82485 41.656902 33.168098 43 34.824852 43ZM 21.024969 19C 22.681824 19 24.024971 17.656855 24.024971 16C 24.024971 14.343145 22.681824 13 21.024969 13C 19.368114 13 18.024969 14.343145 18.024969 16C 18.024969 17.656855 19.368114 19 21.024969 19ZM 23.775385 14.7997C 25.13335 14.3497 26.64205 14.199699 28 14.199699C 29.50885 14.199699 30.86665 14.3497 32.224598 14.7997M 32.229549 41.499851C 30.869949 41.949852 29.5105 42.09985 28 42.09985C 26.4895 42.09985 25.130051 41.949852 23.77054 41.499851M 37.525002 17.799925C 39.625 19.749926 41.125 22.149925 41.724998 24.999926M 18.64843 38.371151C 16.548445 36.42115 15.012115 33.984699 14.412115 31.134701"></path></g></g></g><g id="g-root-tx_largeaic_1lvja0p2w0zq-fill" data-item-order="0" transform="translate(50.06773376464844, 367.984375)"><g id="tx_largeaic_1lvja0p2w0zq-fill-merged" stroke="none" fill="#3f3f3f" fill-opacity="1"><g><text style="font: 15px Roboto, sans-serif; white-space: pre;" transform="translate(237.93226623535156, 27.998046875)" font-size="15px" font-family="Roboto, sans-serif"><tspan x="-198.94" y="-0.5" dominant-baseline="ideographic">Large AI circle with persistent </tspan><tspan x="-225.93" y="17.5" dominant-baseline="ideographic">memory and external integrations</tspan></text></g></g></g><g id="g-root-tx_largeaic_1lvja0p2w0zq-stroke" data-item-order="0" transform="translate(50.06773376464844, 367.984375)"></g><g id="g-root-tx_defensei_1lxem492oxse-fill" data-item-order="0" transform="translate(53.34898376464844, 158)"><g id="tx_defensei_1lxem492oxse-fill-merged" stroke="none" fill="#3f3f3f" fill-opacity="1"><g><text style="font: 15px Roboto, sans-serif; white-space: pre;" transform="translate(234.65101623535156, 27.998046875)" font-size="15px" font-family="Roboto, sans-serif"><tspan x="-206.93" y="-0.5" dominant-baseline="ideographic">Defense-in-depth, single failure </tspan><tspan x="-222.65" y="17.5" dominant-baseline="ideographic">resilience, security best practices</tspan></text></g></g></g><g id="g-root-tx_defensei_1lxem492oxse-stroke" data-item-order="0" transform="translate(53.34898376464844, 158)"></g><g id="g-root-tx_20222024_zp2et52kqa6-fill" data-item-order="0" transform="translate(441, 409.9765625)"><g id="tx_20222024_zp2et52kqa6-fill-merged" stroke="none" fill="#3f3f3f" fill-opacity="1"><g><text style="font: bold 15px Roboto, sans-serif; white-space: pre;" transform="translate(10, 19)" font-weight="bold" font-size="15px" font-family="Roboto, sans-serif"><tspan x="2" y="8.5" dominant-baseline="ideographic">2022-2024</tspan></text></g></g></g><g id="g-root-tx_20222024_zp2et52kqa6-stroke" data-item-order="0" transform="translate(441, 409.9765625)"></g><g id="g-root-ic_netw_zk2cmx2qcqv-fill" data-item-order="0" transform="translate(302, 140)"></g><g id="g-root-ic_netw_zk2cmx2qcqv-stroke" data-item-order="0" transform="translate(302, 140)"><g id="ic_netw_zk2cmx2qcqv-stroke" fill="none" stroke-linecap="round" stroke-linejoin="round" stroke-miterlimit="4" stroke="#3f3f3f" stroke-width="1" stroke-opacity="1"><g><path d="M 34.945 30.185499C 34.952644 34.349815 32.064503 37.959682 28.000002 38.866001C 23.935499 37.959682 21.047359 34.349815 21.055 30.185501L 21.055 26.713001C 21.055279 26.015459 21.472101 25.385502 22.113998 25.112499C 25.862011 23.45048 30.137989 23.45048 33.886002 25.112501C 34.527897 25.385502 34.944717 26.015459 34.945 26.712999ZM 25 13.75C 25 15.406855 26.343145 16.75 28 16.75C 29.656855 16.75 31 15.406855 31 13.75C 31 12.093145 29.656855 10.75 28 10.75C 26.343145 10.75 25 12.093145 25 13.75M 37.720001 42.25C 37.720001 43.906857 39.063148 45.25 40.720001 45.25C 42.376854 45.25 43.720001 43.906857 43.720001 42.25C 43.720001 40.593143 42.376854 39.25 40.720001 39.25C 39.063148 39.25 37.720001 40.593143 37.720001 42.25M 39.220001 21.615999C 39.220001 23.272854 40.563148 24.616001 42.220001 24.616001C 43.876854 24.616001 45.220001 23.272854 45.220001 21.615999C 45.220001 19.959146 43.876854 18.615999 42.220001 18.615999C 40.563148 18.615999 39.220001 19.959146 39.220001 21.615999M 10.78 21.615999C 10.78 23.272854 12.123146 24.616001 13.78 24.616001C 15.436854 24.616001 16.780001 23.272854 16.780001 21.615999C 16.780001 19.959146 15.436854 18.615999 13.78 18.615999C 12.123146 18.615999 10.78 19.959146 10.78 21.615999M 12.28 42.25C 12.28 43.906857 13.623146 45.25 15.28 45.25C 16.936853 45.25 18.280001 43.906857 18.280001 42.25C 18.280001 40.593143 16.936853 39.25 15.28 39.25C 13.623146 39.25 12.28 40.593143 12.28 42.25M 28 16.75L 28 23.8675M 34.871498 26.215L 39.718002 23.268999M 32.870499 35.900501L 38.3335 40.441002M 21.1285 26.215L 16.282 23.268999M 23.129501 35.900501L 17.6665 40.441002M 28 28L 28 34M 25 31L 31 31"></path></g></g></g><g id="g-root-tx_gen2ai_1d2e6493311m-fill" data-item-order="0" transform="translate(214.546875, 433.98046875)"><g id="tx_gen2ai_1d2e6493311m-fill-merged" stroke="none" fill="#3f3f3f" fill-opacity="1"><g><text style="font: bold 15px Roboto, sans-serif; white-space: pre;" transform="translate(73.453125, 19)" font-weight="bold" font-size="15px" font-family="Roboto, sans-serif"><tspan x="-61.45" y="8.5" dominant-baseline="ideographic">Gen-2 AI</tspan></text></g></g></g><g id="g-root-tx_gen2ai_1d2e6493311m-stroke" data-item-order="0" transform="translate(214.546875, 433.98046875)"></g><g id="g-root-ic_api_zmkfax2hwcs-fill" data-item-order="0" transform="translate(302, 445.98046875)"></g><g id="g-root-ic_api_zmkfax2hwcs-stroke" data-item-order="0" transform="translate(302, 445.98046875)"><g id="ic_api_zmkfax2hwcs-stroke" fill="none" stroke-linecap="round" stroke-linejoin="round" stroke-miterlimit="4" stroke="#3f3f3f" stroke-width="1" stroke-opacity="1"><g><path d="M 43.6315 45.25L 43.6315 36.784M 42.013 36.784L 45.25 36.784M 42.013 45.25L 45.25 45.25M 33.112 45.25L 33.112 41.638M 33.112 41.638L 35.540501 41.638C 36.880898 41.638 37.967499 40.551395 37.967499 39.211002C 37.967499 37.870605 36.880898 36.784 35.540501 36.784L 33.112 36.784ZM 21.784 45.25L 22.6975 38.783501C 22.868608 37.631351 23.857714 36.77829 25.022501 36.77829C 26.187286 36.77829 27.176392 37.631351 27.3475 38.783501L 28.261 45.25M 22.210001 42.042999L 27.8335 42.042999M 38.875 34.6315C 39.5644 33.242855 40.068699 31.769794 40.375 30.25L 43.75 30.25C 44.578426 30.25 45.25 29.578428 45.25 28.75L 45.25 27.25C 45.25 26.421572 44.578426 25.75 43.75 25.75L 40.379501 25.75C 40.073677 24.229595 39.569359 22.755978 38.879501 21.367001L 41.258499 18.985001C 41.84407 18.39925 41.84407 17.449749 41.258499 16.864L 39.136002 14.7415C 38.550251 14.155927 37.60075 14.155927 37.014999 14.7415L 34.630001 17.125C 33.24218 16.434891 31.769518 15.930555 30.25 15.625L 30.25 12.25C 30.25 11.421573 29.578428 10.75 28.75 10.75L 27.25 10.75C 26.421572 10.75 25.75 11.421573 25.75 12.25L 25.75 15.622C 24.230003 15.927564 22.756849 16.431896 21.3685 17.122L 18.9835 14.7415C 18.397751 14.155927 17.44825 14.155927 16.862499 14.7415L 14.74 16.864C 14.154427 17.449749 14.154427 18.39925 14.74 18.985001L 17.125 21.3685C 16.435602 22.757143 15.931301 24.230206 15.625 25.75L 12.25 25.75C 11.421573 25.75 10.75 26.421572 10.75 27.25L 10.75 28.75C 10.75 29.578428 11.421573 30.25 12.25 30.25L 15.619 30.25C 15.925302 31.769794 16.429602 33.242855 17.118999 34.6315L 14.734 37.016499C 14.148427 37.602249 14.148427 38.55175 14.734 39.137497L 16.856501 41.258499C 17.442249 41.84407 18.39175 41.84407 18.977501 41.258499M 24.172001 33.560501C 21.832066 31.949659 20.75111 29.046169 21.467949 26.297308C 22.184788 23.548447 24.545984 21.542587 27.374577 21.279577C 30.203167 21.016567 32.893707 22.5527 34.105072 25.122272C 35.316429 27.691847 34.78933 30.744858 32.786499 32.759499"></path></g></g></g><g id="g-root-tx_multitur_1ihyx2hwqz-fill" data-item-order="0" transform="translate(79.41668701171875, 463.98046875)"><g id="tx_multitur_1ihyx2hwqz-fill-merged" stroke="none" fill="#3f3f3f" fill-opacity="1"><g><text style="font: 15px Roboto, sans-serif; white-space: pre;" transform="translate(208.58331298828125, 27.998046875)" font-size="15px" font-family="Roboto, sans-serif"><tspan x="-196.58" y="-0.5" dominant-baseline="ideographic">Multi-turn, limited integration, </tspan><tspan x="-137.2" y="17.5" dominant-baseline="ideographic">conversation history</tspan></text></g></g></g><g id="g-root-tx_multitur_1ihyx2hwqz-stroke" data-item-order="0" transform="translate(79.41668701171875, 463.98046875)"></g><g id="g-root-tx_zerotrus_141ra0p2oxl1-fill" data-item-order="0" transform="translate(141.99481201171875, 128)"><g id="tx_zerotrus_141ra0p2oxl1-fill-merged" stroke="none" fill="#3f3f3f" fill-opacity="1"><g><text style="font: bold 15px Roboto, sans-serif; white-space: pre;" transform="translate(146.00518798828125, 19)" font-weight="bold" font-size="15px" font-family="Roboto, sans-serif"><tspan x="-134.01" y="8.5" dominant-baseline="ideographic">Zero-Trust Benefits</tspan></text></g></g></g><g id="g-root-tx_zerotrus_141ra0p2oxl1-stroke" data-item-order="0" transform="translate(141.99481201171875, 128)"></g><g id="g-root-tx_agentpro_7r2ih2nj0s-fill" data-item-order="0" transform="translate(160.34115600585938, 38)"><g id="tx_agentpro_7r2ih2nj0s-fill-merged" stroke="none" fill="#3f3f3f" fill-opacity="1"><g><text style="font: bold 25px Roboto, sans-serif; white-space: pre;" transform="translate(278.1588439941406, 25)" font-weight="bold" font-size="25px" font-family="Roboto, sans-serif"><tspan x="-266.16" y="15" dominant-baseline="ideographic">Agent Processing Flow and Zero-Trust Benefits</tspan></text></g></g></g><g id="g-root-tx_agentpro_7r2ih2nj0s-stroke" data-item-order="0" transform="translate(160.34115600585938, 38)"></g><g id="g-root-tx_20202022_1lyntrt2krgv-fill" data-item-order="0" transform="translate(429, 511.9765625)"><g id="tx_20202022_1lyntrt2krgv-fill-merged" stroke="none" fill="#3f3f3f" fill-opacity="1"><g><text style="font: bold 15px Roboto, sans-serif; white-space: pre;" transform="translate(10, 19)" font-weight="bold" font-size="15px" font-family="Roboto, sans-serif"><tspan x="2" y="8.5" dominant-baseline="ideographic">2020-2022</tspan></text></g></g></g><g id="g-root-tx_20202022_1lyntrt2krgv-stroke" data-item-order="0" transform="translate(429, 511.9765625)"></g><g id="g-root-tx_gen1ai_1430eih2xde7-fill" data-item-order="0" transform="translate(214.546875, 529.9765625)"><g id="tx_gen1ai_1430eih2xde7-fill-merged" stroke="none" fill="#3f3f3f" fill-opacity="1"><g><text style="font: bold 15px Roboto, sans-serif; white-space: pre;" transform="translate(73.453125, 19)" font-weight="bold" font-size="15px" font-family="Roboto, sans-serif"><tspan x="-61.45" y="8.5" dominant-baseline="ideographic">Gen-1 AI</tspan></text></g></g></g><g id="g-root-tx_gen1ai_1430eih2xde7-stroke" data-item-order="0" transform="translate(214.546875, 529.9765625)"></g><g id="g-root-ic_auth_1lynqm12xedd-fill" data-item-order="0" transform="translate(302, 541.9765625)"></g><g id="g-root-ic_auth_1lynqm12xedd-stroke" data-item-order="0" transform="translate(302, 541.9765625)"><g id="ic_auth_1lynqm12xedd-stroke" fill="none" stroke-linecap="round" stroke-linejoin="round" stroke-miterlimit="4" stroke="#3f3f3f" stroke-width="1" stroke-opacity="1"><g><path d="M 10.75 28C 10.75 37.526913 18.473087 45.25 28 45.25C 37.526913 45.25 45.25 37.526913 45.25 28C 45.25 18.473087 37.526913 10.75 28 10.75C 18.473087 10.75 10.75 18.473087 10.75 28M 10 10M 32.185001 27.835001L 27.684999 23.335001C 26.244436 21.778904 24.068466 21.134787 22.012989 21.656012C 19.957512 22.177235 18.351402 23.780401 17.826412 25.834921C 17.301422 27.889439 17.941545 30.066586 19.494999 31.509998L 22.780001 34.795002M 10 10M 25 29.349998L 28.27 32.619999C 30.550507 34.738968 34.09832 34.675484 36.301556 32.47628C 38.504791 30.277077 38.574783 26.729389 36.459999 24.445L 33.189999 21.16"></path></g></g></g><g id="g-root-tx_20242026_1heh01l2kpol-fill" data-item-order="0" transform="translate(477, 313.9765625)"><g id="tx_20242026_1heh01l2kpol-fill-merged" stroke="none" fill="#3f3f3f" fill-opacity="1"><g><text style="font: bold 15px Roboto, sans-serif; white-space: pre;" transform="translate(10, 19)" font-weight="bold" font-size="15px" font-family="Roboto, sans-serif"><tspan x="2" y="8.5" dominant-baseline="ideographic">2024-2026</tspan></text></g></g></g><g id="g-root-tx_20242026_1heh01l2kpol-stroke" data-item-order="0" transform="translate(477, 313.9765625)"></g></g></g></svg>