<?xml version="1.0" encoding="utf-8" standalone="yes"?>
<!DOCTYPE svg PUBLIC "-//W3C//DTD SVG 1.1//EN" "http://www.w3.org/Graphics/SVG/1.1/DTD/svg11.dtd">
<svg style="fill:none;stroke:none;fill-rule:evenodd;clip-rule:evenodd;stroke-linecap:round;stroke-linejoin:round;stroke-miterlimit:1.5;" version="1.1" xmlns="http://www.w3.org/2000/svg" xmlns:xlink="http://www.w3.org/1999/xlink" width="720" height="752" viewBox="0 0 720 752"><style class="text-font-style fontImports" data-font-family="Roboto">@import url(https://fonts.googleapis.com/css2?family=Roboto:wght@400;700&amp;amp;display=block);</style><g id="items" style="isolation: isolate"><g id="blend" style="mix-blend-mode: normal"><g id="g-root-sy_-1_cu_zissc916x6o3-fill" data-item-order="-440605" transform="translate(398.826171875, 167.11328125)"></g><g id="g-root-sy_-1_cu_zissc916x6o3-stroke" data-item-order="-440605" transform="translate(398.826171875, 167.11328125)"><g id="sy_-1_cu_zissc916x6o3-stroke" fill="none" stroke-linecap="round" stroke-linejoin="round" stroke-miterlimit="4" stroke="#2c2c2c" stroke-width="1" stroke-opacity="1"><g><path d="M 55.991 87.71361L 67.3469 87.71361L 80.2971 103.48291L 86.1997 111.42371L 92.0979 111.42371L 96.4739 116.82691L 69.3386 116.82691L 10 116.82691L 27.2343 95.84081L 33.1782 95.84081L 45.9513 80.28711L 55.991 87.71361ZM 132.163069 10L 132.163069 89.8979L 120.990669 107.5191L 100.431869 107.5191L 94.965369 103.5194L 85.409569 103.4833L 69.338469 83.9137L 56.782669 83.9137L 48.355469 77.3598L 69.338469 51.809L 80.296969 51.809L 104.005569 22.9393L 114.099969 19.3811L 121.006269 10L 132.163069 10ZM 216.904591 116.827389L 261.797691 116.827389L 246.390391 97.984689L 240.280591 97.984689L 210.097291 60.138489L 203.090491 60.138489L 197.777591 48.696289L 186.189091 48.696289L 166.963591 72.106989L 160.05179 72.106989L 153.150391 77.414789L 153.150391 89.897889L 176.765091 116.827389L 185.118291 116.827389L 216.904591 116.827389ZM 184.230391 43.9649L 166.963591 64.3436L 153.150391 64.3436L 153.150391 10L 168.556791 10L 184.230391 43.9649ZM 33.173828 95.894532L 51.673828 95.894532L 58.189628 88.261732M 81.173828 75.394532L 69.173828 75.394532L 61.604328 84.261732M 240.960331 97.980333L 227.237731 97.980333L 216.168531 85.013533L 204.466831 85.013533L 195.457031 74.036133"></path></g></g></g><g id="g-root-sy_-1_cu_1_140hpq116x4w4-fill" data-item-order="-440603" transform="translate(474.470703125, 37.998046875)"></g><g id="g-root-sy_-1_cu_1_140hpq116x4w4-stroke" data-item-order="-440603" transform="translate(474.470703125, 37.998046875)"><g id="sy_-1_cu_1_140hpq116x4w4-stroke" fill="none" stroke-linecap="round" stroke-linejoin="round" stroke-miterlimit="4" stroke="#2c2c2c" stroke-width="1" stroke-opacity="1"><g><path d="M 110.4446 78.6181C 110.9235 78.7155 111.4192 78.7666 111.9268 78.7666C 115.3298 78.7666 118.196 76.4681 119.0576 73.3389C 119.3238 73.3679 119.5942 73.3828 119.8682 73.3828C 123.9526 73.3828 127.2637 70.0717 127.2637 65.9873C 127.2637 62.6752 125.0864 59.8716 122.085 58.9298C 121.1484 54.3227 117.156 50.826 112.316 50.6478C 112.4192 49.9425 112.4727 49.2212 112.4727 48.4873C 112.4727 48.2025 112.4646 47.9196 112.4487 47.6387C 114.934 46.898 116.7461 44.5952 116.7461 41.8691C 116.7461 38.5446 114.0511 35.8496 110.7266 35.8496L 110.7206 35.8496C 110.5427 30.8533 106.4362 26.8574 101.3965 26.8574C 99.5601 26.8574 97.8476 27.388 96.404 28.3041C 94.1397 24.494 90.2127 21.7876 85.6233 21.1852C 84.7037 18.1472 81.8821 15.9355 78.5439 15.9355C 77.793 15.9355 77.0682 16.0475 76.3853 16.2555C 75.8371 12.7124 72.7739 10 69.0771 10C 66.5505 10 64.3199 11.267 62.9858 13.2003C 62.276 13.0467 61.539 12.9658 60.7832 12.9658C 55.7848 12.9658 51.6128 16.5038 50.6347 21.2122C 50.0473 21.1112 49.4434 21.0586 48.8271 21.0586C 42.9748 21.0586 38.2305 25.8029 38.2305 31.6553C 38.2305 31.7714 38.2323 31.8871 38.236 32.0023C 37.6049 31.7776 36.9251 31.6553 36.2168 31.6553C 32.8923 31.6553 30.1973 34.3503 30.1973 37.6748C 30.1973 39.3549 30.8855 40.8741 31.9955 41.9661C 31.259 42.875 30.6731 43.9109 30.276 45.036C 29.5201 44.7753 28.7087 44.6338 27.8643 44.6338C 24.1367 44.6338 21.0532 47.3916 20.5429 50.9781C 19.8023 50.7585 19.0179 50.6406 18.2061 50.6406C 13.674 50.6406 10 54.3146 10 58.8467C 10 62.2284 12.0456 65.1323 14.9669 66.3887C 15.4272 69.7109 18.0945 72.3278 21.4408 72.7113C 21.4308 72.9339 21.4258 73.1578 21.4258 73.3828C 21.4258 81.5517 28.0479 88.1738 36.2168 88.1738C 37.2354 88.1738 38.2299 88.0709 39.1906 87.8748C 39.3602 91.8089 42.6032 94.9463 46.5791 94.9463C 47.7594 94.9463 48.8752 94.6698 49.8651 94.178C 51.2212 97.2273 53.5785 99.733 56.5195 101.2775L 56.5195 87.9876C 57.8633 88.63 59.4029 88.9021 60.9894 88.6903C 62.2904 88.5166 63.4755 88.0371 64.482 87.334C 66.8803 90.6541 70.9809 92.5819 75.3248 92.0019C 76.0808 91.9009 76.8098 91.7286 77.5059 91.4926L 77.5059 100.4688C 78.432 100.7402 79.4119 100.8857 80.4258 100.8857C 83.8415 100.8857 86.8713 99.2336 88.7597 96.6847C 89.7545 97.1827 90.8772 97.4629 92.0654 97.4629C 96.1397 97.4629 99.4445 94.1682 99.4609 90.0978C 105.0084 88.7413 109.3285 84.2559 110.4446 78.6181ZM 70.934531 126.047484C 66.996131 126.047484 63.713831 128.856684 62.982231 132.580784C 62.005431 131.731484 60.729531 131.217384 59.333531 131.217384C 58.306831 131.217384 57.345131 131.495484 56.519531 131.980384L 56.519531 87.987584C 57.863331 88.629984 59.402931 88.902084 60.989431 88.690284C 62.290331 88.516584 63.475431 88.037084 64.482031 87.333984C 66.880231 90.654084 70.980831 92.581884 75.324831 92.001884C 76.080831 91.900884 76.809831 91.728584 77.505831 91.492584L 77.505831 129.407384C 76.033631 127.371884 73.638731 126.047484 70.934531 126.047484ZM 52.066406 81.86965C 52.435106 84.63075 54.180906 86.87005 56.519606 87.98805C 57.863406 88.63035 59.403006 88.90245 60.989506 88.69065C 62.290506 88.51695 63.475606 88.03755 64.482106 87.33435C 66.880406 90.65455 70.981006 92.58225 75.324906 92.00225C 76.080906 91.90135 76.809906 91.72905 77.506006 91.49305C 80.861206 90.35545 83.451606 87.73845 84.618406 84.50335C 85.932406 84.98715 87.380206 85.16695 88.864706 84.96875C 93.737006 84.31825 97.159406 79.84105 96.508906 74.96875M 51.150503 39.401702C 47.732903 38.486002 44.248603 39.629702 42.015303 42.072202C 41.196703 41.313702 40.186503 40.737802 39.033603 40.428802C 35.249403 39.414902 31.359703 41.660602 30.345703 45.444802M 104.369141 42.442563C 105.325141 42.233563 106.343941 42.243863 107.354441 42.514663C 110.731041 43.419363 112.734941 46.890163 111.830141 50.266863M 32.5584 71.911197C 32.0302 72.734997 31.3025 73.448097 30.3965 73.971097C 27.3691 75.718997 23.4979 74.681797 21.75 71.654297M 52.170255 81.201787C 51.341455 81.786387 50.364255 82.186887 49.290155 82.335187C 45.700855 82.830987 42.389355 80.323187 41.893555 76.733887M 99.752042 89.338584C 95.332242 90.714684 90.685642 88.962084 88.198242 85.333984M 93.499953 41.965642C 93.499953 39.153542 91.636753 36.776642 89.077453 36.002042C 88.919053 31.699842 85.381353 28.260742 81.040453 28.260742C 77.104653 28.260743 73.829153 31.087942 73.134053 34.822242C 73.088953 34.821242 73.043653 34.820642 72.998353 34.820642C 69.928253 34.820642 67.439453 37.309442 67.439453 40.379542M 70.060547 92.104492L 70.060547 108.569292M 63.962891 101.628906L 63.962892 122.878906M 70.060547 113.599609L 70.060547 119.778509M 63.962891 87.333984L 63.962892 95.336884"></path></g></g></g><g id="g-root-sy_-1_cu_2_hte73t16x79p-fill" data-item-order="-440601" transform="translate(14, 261.998046875)"></g><g id="g-root-sy_-1_cu_2_hte73t16x79p-stroke" data-item-order="-440601" transform="translate(14, 261.998046875)"><g id="sy_-1_cu_2_hte73t16x79p-stroke" fill="none" stroke-linecap="round" stroke-linejoin="round" stroke-miterlimit="4" stroke="#2c2c2c" stroke-width="1" stroke-opacity="1"><g><path d="M 478.7607 22L 369.9995 22L 357.9995 10L 345.9995 10L 333.9995 16.8371L 321.9995 16.8371L 309.9995 22L 237.9995 22L 225.9995 16.8371L 213.9995 16.8371L 207.8438 22L 190 22L 183.3372 16.8371L 170.7578 22L 10 22M 572.523 22L 658 22L 670 16.8371L 682 22"></path></g></g></g><g id="g-root-sy_-1_cu_3_1upwmt516x5am-fill" data-item-order="-440599" transform="translate(412.3828125, 132.5234375)"></g><g id="g-root-sy_-1_cu_3_1upwmt516x5am-stroke" data-item-order="-440599" transform="translate(412.3828125, 132.5234375)"><g id="sy_-1_cu_3_1upwmt516x5am-stroke" fill="none" stroke-linecap="round" stroke-linejoin="round" stroke-miterlimit="4" stroke="#2c2c2c" stroke-width="1" stroke-opacity="1"><g><path d="M 133.0225 31.523423C 136.4777 31.523423 139.4279 33.685623 140.593801 36.730723C 140.768 36.706123 140.946 36.693323 141.127 36.693323C 143.208801 36.693323 144.896501 38.381023 144.896501 40.462923L 145.1222 40.462923C 145.577101 39.421323 146.616401 38.693323 147.825701 38.693323C 149.035001 38.693323 150.0742 39.421323 150.529201 40.462923L 152.73 40.462923C 152.991501 40.462923 153.2427 40.565323 153.4296 40.748323L 154.2612 41.562423C 154.448101 41.745423 154.6992 41.847823 154.960701 41.847823L 157.3038 41.847823C 157.698101 41.847823 158.0555 42.079423 158.216601 42.439223L 164.575401 56.644123C 165.2164 58.076023 164.645901 59.760023 163.2666 60.507523L 162.542201 60.900123L 155.0493 44.610423L 139.595801 44.610423L 139.595801 98.954123L 153.409001 98.954123L 170.222601 78.575423L 183.972101 78.575423C 185.139601 78.575423 186.201101 79.252723 186.6929 80.311623L 191.8446 91.403023L 192.4723 91.403023C 193.5769 91.403023 194.4723 92.298423 194.4723 93.403023L 194.4723 94.630423C 194.4723 94.685723 194.4275 94.730423 194.372301 94.730423L 189.538 94.730423L 184.2296 83.287423L 172.6344 83.306723L 153.409001 106.717223L 146.5024 106.717223L 139.595801 112.041923L 139.595801 124.508123L 163.244701 151.426023L 171.6412 151.426023L 191.9985 179.433123L 191.7096 226.100923L 204.4723 246.409023L 223.4016 273.900223L 223.4016 317.645823L 252.331 356.154923L 252.331 443.173923L 194.4723 496.102423L 194.4723 527.534423L 141.8115 571.149423L 100.711301 544.220223L 71.855501 544.220223L 55.784401 526.535423L 55.784401 495.347223L 33.2385 469.123623L 32.837601 424.670423L 10 399.297923L 10 311.926223L 48.797301 267.590623L 48.797301 211.118823L 86.8427 169.048023L 86.8427 156.259323L 78.537501 145.996323L 72.641901 145.996323L 66.7428 138.093623L 53.7926 122.324323L 42.436801 122.324323L 32.400301 114.880123L 26.281901 122.324323C 24.743601 121.029923 24.548801 118.732423 25.847101 117.197523L 28.9634 113.513023C 30.6934 111.467723 33.728001 111.149223 35.8449 112.790723L 43.2385 118.524023L 55.784401 118.524023L 71.855501 138.093623L 81.4014 138.093623L 86.8427 142.104523L 107.452201 142.104523L 118.608901 124.556823L 118.608901 44.610423L 107.452201 44.610423L 100.678101 53.795423L 100.3923 53.645823C 98.749701 52.785823 98.2727 50.656723 99.391301 49.178023L 105.6844 40.859523C 105.873401 40.609723 106.1686 40.462923 106.481901 40.462923L 110.4287 40.462923C 110.843501 39.425923 111.8574 38.693323 113.042501 38.693323C 114.227501 38.693323 115.2415 39.425923 115.656201 40.462923L 116.153101 40.462923C 116.899701 38.270423 118.976401 36.693323 121.421401 36.693323C 122.817401 36.693323 124.093301 37.207423 125.070201 38.056723C 125.8018 34.332723 129.084001 31.523423 133.0225 31.523423ZM 167.789269 31.870921C 164.064468 30.253521 157.111869 31.740121 153.417969 34.173321C 158.306169 32.344221 162.805169 33.075321 166.792768 34.859321C 168.745268 35.732821 170.202168 32.918621 167.789269 31.870921ZM 157.568115 15.479516C 152.447016 16.971016 146.669215 24.307616 144.978515 29.866016C 148.383016 23.915816 153.542516 20.879016 159.068816 19.335416C 161.774916 18.579616 160.885416 14.513416 157.568115 15.479516ZM 104.82989 32.788969C 102.14739 30.367069 96.71599 28.306569 93.50759 29.152269C 91.42929 29.699969 92.25789 32.153069 93.942991 31.688969C 97.384091 30.741269 101.108091 30.707269 104.82989 32.788969ZM 114.308651 27.793085C 113.67735 24.813985 111.039551 17.624485 105.53945 12.699485C 98.66425 6.543285 95.82955 12.574385 98.71245 14.514185C 99.38525 14.966885 100.11535 15.230585 100.95095 15.532285C 103.696251 16.523485 107.580151 17.925885 114.308651 27.793085ZM 126.050781 45.996079L 126.050781 69.225579M 126.050781 90.114243L 126.050781 119.554843M 132.148438 67.289048L 132.148438 75.585948M 126.050781 77.244126L 126.050781 82.224626M 132.148439 111.124009L 132.148438 130.108409M 132.148438 45.996079L 132.148439 61.246079M 132.148438 82.222641L 132.148438 104.688641"></path></g></g></g><g id="g-root-sy_-1_cu_4_1cymmbd16x7nr-fill" data-item-order="-440597" transform="translate(458, 266.595703125)"></g><g id="g-root-sy_-1_cu_4_1cymmbd16x7nr-stroke" data-item-order="-440597" transform="translate(458, 266.595703125)"><g id="sy_-1_cu_4_1cymmbd16x7nr-stroke" fill="none" stroke-linecap="round" stroke-linejoin="round" stroke-miterlimit="4" stroke="#2c2c2c" stroke-width="1" stroke-opacity="1"><g><path d="M 118 45.1326L 118 104.8245L 142 139.0299L 142 189.004L 166 225.004L 166 303.004L 94.6358 374.3681L 71.3642 374.3681L 24 317.004L 24 263.004L 10 249.004L 10 171.004L 22 159.004L 34 147.0041L 34 79.0041L 64.8652 45.1326L 64.8652 35.3462L 79.2523 10L 88.6943 10L 118 45.1326Z"></path></g></g></g><g id="g-root-sy_-1_line_v7z2wp16x6v4-fill" data-item-order="-440593" transform="translate(362, 189.994140625)"></g><g id="g-root-sy_-1_line_v7z2wp16x6v4-stroke" data-item-order="-440593" transform="translate(362, 189.994140625)"><g id="sy_-1_line_v7z2wp16x6v4-stroke" fill="none" stroke-linecap="round" stroke-linejoin="round" stroke-miterlimit="4" stroke="#2c2c2c" stroke-width="1" stroke-opacity="1"><style>.fillAsStrokeColor-mk-9251fd1gtz4f { fill:#2c2c2c; }</style><g><path d="M 10 10L 151.17 10"></path><path d="M 152.6 10L 147.6 12.8L 147.6 7.2Z" stroke-dasharray="none" class="fillAsStrokeColor-mk-9251fd1gtz4f" fill="#2c2c2c"></path></g></g></g><g id="g-root-sy_1_line_hx51mh16x5a9-fill" data-item-order="-440587" transform="translate(362, 357.994140625)"></g><g id="g-root-sy_1_line_hx51mh16x5a9-stroke" data-item-order="-440587" transform="translate(362, 357.994140625)"><g id="sy_1_line_hx51mh16x5a9-stroke" fill="none" stroke-linecap="round" stroke-linejoin="round" stroke-miterlimit="4" stroke="#2c2c2c" stroke-width="1" stroke-opacity="1"><style>.fillAsStrokeColor-mk-dhyjjt1gtz40 { fill:#2c2c2c; }</style><g><path d="M 10 10L 187.17 10"></path><path d="M 188.6 10L 183.6 12.8L 183.6 7.2Z" stroke-dasharray="none" class="fillAsStrokeColor-mk-dhyjjt1gtz40" fill="#2c2c2c"></path></g></g></g><g id="g-root-sy_2_line_4loj9516x6v6-fill" data-item-order="-440581" transform="translate(362, 417.998046875)"></g><g id="g-root-sy_2_line_4loj9516x6v6-stroke" data-item-order="-440581" transform="translate(362, 417.998046875)"><g id="sy_2_line_4loj9516x6v6-stroke" fill="none" stroke-linecap="round" stroke-linejoin="round" stroke-miterlimit="4" stroke="#2c2c2c" stroke-width="1" stroke-opacity="1"><style>.fillAsStrokeColor-mk-4mbjax1gtzwp { fill:#2c2c2c; }</style><g><path d="M 10 10L 149.17 10"></path><path d="M 150.6 10L 145.6 12.8L 145.6 7.2Z" stroke-dasharray="none" class="fillAsStrokeColor-mk-4mbjax1gtzwp" fill="#2c2c2c"></path></g></g></g><g id="g-root-sy_3_line_1hgbjp516x5vv-fill" data-item-order="-440575" transform="translate(362, 477.994140625)"></g><g id="g-root-sy_3_line_1hgbjp516x5vv-stroke" data-item-order="-440575" transform="translate(362, 477.994140625)"><g id="sy_3_line_1hgbjp516x5vv-stroke" fill="none" stroke-linecap="round" stroke-linejoin="round" stroke-miterlimit="4" stroke="#2c2c2c" stroke-width="1" stroke-opacity="1"><style>.fillAsStrokeColor-mk-4mbjax1gtzwq { fill:#2c2c2c; }</style><g><path d="M 10 10L 211.17 10"></path><path d="M 212.6 10L 207.6 12.8L 207.6 7.2Z" stroke-dasharray="none" class="fillAsStrokeColor-mk-4mbjax1gtzwq" fill="#2c2c2c"></path></g></g></g><g id="g-root-sy_4_line_qu101l16x5vw-fill" data-item-order="-440569" transform="translate(362, 537.994140625)"></g><g id="g-root-sy_4_line_qu101l16x5vw-stroke" data-item-order="-440569" transform="translate(362, 537.994140625)"><g id="sy_4_line_qu101l16x5vw-stroke" fill="none" stroke-linecap="round" stroke-linejoin="round" stroke-miterlimit="4" stroke="#2c2c2c" stroke-width="1" stroke-opacity="1"><style>.fillAsStrokeColor-mk-74i9l1gtxj7 { fill:#2c2c2c; }</style><g><path d="M 10 10L 175.17 10"></path><path d="M 176.6 10L 171.6 12.8L 171.6 7.2Z" stroke-dasharray="none" class="fillAsStrokeColor-mk-74i9l1gtxj7" fill="#2c2c2c"></path></g></g></g><g id="g-root-sy_5_line_7qge116x5vx-fill" data-item-order="-440563" transform="translate(362, 597.994140625)"></g><g id="g-root-sy_5_line_7qge116x5vx-stroke" data-item-order="-440563" transform="translate(362, 597.994140625)"><g id="sy_5_line_7qge116x5vx-stroke" fill="none" stroke-linecap="round" stroke-linejoin="round" stroke-miterlimit="4" stroke="#2c2c2c" stroke-width="1" stroke-opacity="1"><style>.fillAsStrokeColor-mk-1qcljzt1gty4s { fill:#2c2c2c; }</style><g><path d="M 10 10L 199.17 10"></path><path d="M 200.6 10L 195.6 12.8L 195.6 7.2Z" stroke-dasharray="none" class="fillAsStrokeColor-mk-1qcljzt1gty4s" fill="#2c2c2c"></path></g></g></g><g id="g-root-sy_6_line_1lxdzzt16x79q-fill" data-item-order="-440557" transform="translate(362, 657.994140625)"></g><g id="g-root-sy_6_line_1lxdzzt16x79q-stroke" data-item-order="-440557" transform="translate(362, 657.994140625)"><g id="sy_6_line_1lxdzzt16x79q-stroke" fill="none" stroke-linecap="round" stroke-linejoin="round" stroke-miterlimit="4" stroke="#2c2c2c" stroke-width="1" stroke-opacity="1"><style>.fillAsStrokeColor-mk-1qcljzt1gty4t { fill:#2c2c2c; }</style><g><path d="M 10 10L 181.17 10"></path><path d="M 182.6 10L 177.6 12.8L 177.6 7.2Z" stroke-dasharray="none" class="fillAsStrokeColor-mk-1qcljzt1gty4t" fill="#2c2c2c"></path></g></g></g><g id="g-root-ic_dete_1ur5xmh16vq4p-fill" data-item-order="0" transform="translate(302, 165.998046875)"></g><g id="g-root-ic_dete_1ur5xmh16vq4p-stroke" data-item-order="0" transform="translate(302, 165.998046875)"><g id="ic_dete_1ur5xmh16vq4p-stroke" fill="none" stroke-linecap="round" stroke-linejoin="round" stroke-miterlimit="4" stroke="#2c2c2c" stroke-width="1" stroke-opacity="1"><g><path d="M 11.5 27.9L 11.5 21.5C 11.5 20.299999 12.3 19.5 13.5 19.5L 19.900021 19.5M 11.5 38.9002L 11.5 45.300201C 11.5 46.500198 12.3 47.300201 13.5 47.300201L 19.900021 47.300201M 48.5 38.9002L 48.5 45.300201C 48.5 46.500198 47.700001 47.300201 46.5 47.300201L 39.900002 47.300201M 39.5 38.9002C 37.700001 42.300201 34.299999 44.700199 30.1 44.700199C 24.3001 44.700199 19.700081 39.9002 19.700081 34.300201C 19.700081 28.70014 24.500099 23.900139 30.1 23.900139L 30.296801 23.900139M 43.900002 56.500198C 40.299999 52.9002 35.5 50.700199 30.1 50.700199C 24.700039 50.700199 19.90004 52.9002 16.300039 56.500198M 30.299999 23.900139L 30.299999 44.700199M 19.700081 34.099998L 32.900002 34.099998M 46.621399 22.14996L 46.621399 18.949959M 10 10M 56.2216 28.549999L 48.2216 12.55C 47.4216 11.15 45.4216 11.15 44.621601 12.55L 36.621597 28.549999C 35.821602 29.950001 36.821602 31.549999 38.4216 31.549999L 54.4216 31.549999C 56.021599 31.549999 57.021599 29.950001 56.2216 28.549999ZM 46.621601 26.549959L 46.621601 26.549959"></path></g></g></g><g id="g-root-tx_critical_v488e1171ds5-fill" data-item-order="0" transform="translate(153.7474365234375, 180.998046875)"><g id="tx_critical_v488e1171ds5-fill-merged" stroke="none" fill="#2c2c2c" fill-opacity="1"><g><text style="font: 15px Roboto, sans-serif; white-space: pre;" transform="translate(146.2525634765625, 19)" font-size="15px" font-family="Roboto, sans-serif"><tspan x="-134.25" y="8.5" dominant-baseline="ideographic">Critical Vulnerability</tspan></text></g></g></g><g id="g-root-tx_critical_v488e1171ds5-stroke" data-item-order="0" transform="translate(153.7474365234375, 180.998046875)"></g><g id="g-root-tx_zombieag_v5hpix16kjrh-fill" data-item-order="0" transform="translate(37.99998474121094, 81.998046875)"><g id="tx_zombieag_v5hpix16kjrh-fill-merged" stroke="none" fill="#2c2c2c" fill-opacity="1"><g><text style="font: bold 25px Roboto, sans-serif; white-space: pre;" transform="translate(10.000015258789062, 40)" font-weight="bold" font-size="25px" font-family="Roboto, sans-serif"><tspan x="2" y="0" dominant-baseline="ideographic">ZombieAgent: Unveiling </tspan><tspan x="2" y="30" dominant-baseline="ideographic">the Hidden Vulnerability</tspan></text></g></g></g><g id="g-root-tx_zombieag_v5hpix16kjrh-stroke" data-item-order="0" transform="translate(37.99998474121094, 81.998046875)"></g><g id="g-root-ic_head_1hitsop16nbb4-fill" data-item-order="0" transform="translate(302, 333.998046875)"></g><g id="g-root-ic_head_1hitsop16nbb4-stroke" data-item-order="0" transform="translate(302, 333.998046875)"><g id="ic_head_1hitsop16nbb4-stroke" fill="none" stroke-linecap="round" stroke-linejoin="round" stroke-miterlimit="4" stroke="#2c2c2c" stroke-width="1" stroke-opacity="1"><g><path d="M 33 51L 35 51M 46 39C 46 32.372581 40.627419 27 34 27C 27.372583 27 22 32.372581 22 39L 22 43C 22 49.627419 27.372583 55 34 55C 40.627419 55 46 49.627419 46 43ZM 22 38.961998C 24.576 38.739998 29 36 29 32C 32 37 36 39 42 39L 46 39M 22 43.571999C 22 45.464001 25.532 47 27.834 47C 29.92462 47.182953 31.776991 45.65873 32 43.572002C 32 41.678001 30.134001 41 27.834 41C 25.534 41 22 41.678001 22 43.571999ZM 46 43.571999C 46 45.464001 42.467999 47 40.166 47C 38.075382 47.182953 36.223011 45.65873 36 43.572002C 36 41.678001 37.865997 41 40.166 41C 42.466 41 46 41.678001 46 43.571999ZM 36 43L 32 43M 51 13L 52 13C 52.552284 13 53 13.447716 53 14L 53 21M 51 21L 55 21M 51 27L 52 27C 52.552284 27 53 27.447716 53 28L 53 35M 51 35L 55 35M 13 13L 14 13C 14.552284 13 15 13.447716 15 14L 15 21M 13 21L 17 21M 13 43L 14 43C 14.552284 43 15 43.447716 15 44L 15 51M 13 51L 17 51M 43 19C 43 20.104568 42.104568 21 41 21C 39.895432 21 39 20.104568 39 19L 39 15C 39 13.895431 39.895432 13 41 13C 42.104568 13 43 13.895431 43 15ZM 55 49C 55 50.104568 54.104568 51 53 51C 51.895432 51 51 50.104568 51 49L 51 45C 51 43.895432 51.895432 43 53 43C 54.104568 43 55 43.895432 55 45ZM 29 19C 29 20.104568 28.10457 21 27 21C 25.895432 21 25 20.104568 25 19L 25 15C 25 13.895431 25.895432 13 27 13C 28.10457 13 29 13.895431 29 15ZM 17 33C 17 34.104568 16.104568 35 15 35C 13.895431 35 13 34.104568 13 33L 13 29C 13 27.89543 13.895431 27 15 27C 16.104568 27 17 27.89543 17 29Z"></path></g></g></g><g id="g-root-tx_untruste_1qd7i4916zy10-fill" data-item-order="0" transform="translate(107.54949951171875, 348.998046875)"><g id="tx_untruste_1qd7i4916zy10-fill-merged" stroke="none" fill="#2c2c2c" fill-opacity="1"><g><text style="font: 15px Roboto, sans-serif; white-space: pre;" transform="translate(192.45050048828125, 19)" font-size="15px" font-family="Roboto, sans-serif"><tspan x="-180.45" y="8.5" dominant-baseline="ideographic">Untrusted Data Processing</tspan></text></g></g></g><g id="g-root-tx_untruste_1qd7i4916zy10-stroke" data-item-order="0" transform="translate(107.54949951171875, 348.998046875)"></g><g id="g-root-ic_chip_1uuws5516gavh-fill" data-item-order="0" transform="translate(302, 393.998046875)"></g><g id="g-root-ic_chip_1uuws5516gavh-stroke" data-item-order="0" transform="translate(302, 393.998046875)"><g id="ic_chip_1uuws5516gavh-stroke" fill="none" stroke-linecap="round" stroke-linejoin="round" stroke-miterlimit="4" stroke="#2c2c2c" stroke-width="1" stroke-opacity="1"><g><path d="M 27.099979 35.5C 35.715599 35.5 42.700001 32.455399 42.700001 28.6999C 42.700001 24.944359 35.715599 21.8999 27.099979 21.8999C 18.484341 21.8999 11.5 24.944359 11.5 28.6999C 11.5 32.455399 18.484341 35.5 27.099979 35.5ZM 11.5 29.299801L 11.5 49.699799C 11.5 53.499802 18.499981 56.499802 27.099979 56.499802C 35.700001 56.499802 42.700001 53.499802 42.700001 49.699799L 42.700001 29.299801M 39.5 18.5L 39.5 16.5C 39.5 15.3 40.299999 14.5 41.5 14.5L 51.5 14.5C 52.700001 14.5 53.5 15.3 53.5 16.5L 53.5 22.5C 53.5 23.700001 52.700001 24.5 51.5 24.5L 46.5 24.5M 40.5 11.5L 40.5 14.71656M 46.5 11.5L 46.5 14.5M 52.5 11.5L 52.5 14.71656M 46.5 24.5L 46.5 27.5M 10 10M 52.5 24.27636L 52.5 27.5M 56.5 22.5L 53.5 22.5M 56.5 16.5L 53.5 16.5M 39.5 16.5L 36.5 16.5M 23.0415 50.504398L 23.0415 41.2798C 23.0415 40.995003 23.27232 40.764198 23.55706 40.764198L 23.55706 40.764198C 23.74044 40.764198 23.91 40.861603 24.002399 41.02L 26.48958 45.2836C 26.616199 45.500801 26.8486 45.634201 27.09992 45.634201L 27.09992 45.634201C 27.351219 45.634201 27.58362 45.500801 27.710239 45.2836L 30.197399 41.02C 30.289801 40.861603 30.4594 40.764198 30.642799 40.764198L 30.642799 40.764198C 30.927601 40.764198 31.1584 40.995003 31.1584 41.2798L 31.1584 50.504398"></path></g></g></g><g id="g-root-tx_persiste_dfg48p16zxu3-fill" data-item-order="0" transform="translate(104.34637451171875, 408.998046875)"><g id="tx_persiste_dfg48p16zxu3-fill-merged" stroke="none" fill="#2c2c2c" fill-opacity="1"><g><text style="font: 15px Roboto, sans-serif; white-space: pre;" transform="translate(195.65362548828125, 19)" font-size="15px" font-family="Roboto, sans-serif"><tspan x="-183.65" y="8.5" dominant-baseline="ideographic">Persistent Memory Storage</tspan></text></g></g></g><g id="g-root-tx_persiste_dfg48p16zxu3-stroke" data-item-order="0" transform="translate(104.34637451171875, 408.998046875)"></g><g id="g-root-ic_chec_hzn7g916x62q-fill" data-item-order="0" transform="translate(302, 453.998046875)"></g><g id="g-root-ic_chec_hzn7g916x62q-stroke" data-item-order="0" transform="translate(302, 453.998046875)"><g id="ic_chec_hzn7g916x62q-stroke" fill="none" stroke-linecap="round" stroke-linejoin="round" stroke-miterlimit="4" stroke="#2c2c2c" stroke-width="1" stroke-opacity="1"><g><path d="M 45.900002 24.400139L 21.900021 24.400139L 21.900021 56.4002L 45.900002 56.4002L 45.900002 24.400139ZM 49.900002 35.5998L 56.299999 35.5998M 49.900002 43.5998L 56.299999 43.5998M 49.900002 51.5998L 54.299999 51.5998C 55.5 51.5998 56.299999 50.799801 56.299999 49.5998L 56.299999 29.599859C 56.299999 28.39986 55.5 27.599859 54.299999 27.599859L 49.900002 27.599859M 22.900021 34.999802L 45.900002 34.999802M 22.900021 45.999802L 45.900002 45.999802M 17.899981 35.5998L 11.5 35.5998M 17.899981 43.5998L 11.5 43.5998M 17.9 51.5998L 13.5 51.5998C 12.3 51.5998 11.5 50.799801 11.5 49.5998L 11.5 29.599859C 11.5 28.39986 12.3 27.599859 13.5 27.599859L 17.9 27.599859M 10 10M 30.9 13.59986L 33.900002 16.399839L 38.900002 11.599854"></path></g></g></g><g id="g-root-tx_services_147zerd16ym0y-fill" data-item-order="0" transform="translate(135.0755615234375, 468.998046875)"><g id="tx_services_147zerd16ym0y-fill-merged" stroke="none" fill="#2c2c2c" fill-opacity="1"><g><text style="font: 15px Roboto, sans-serif; white-space: pre;" transform="translate(164.9244384765625, 19)" font-size="15px" font-family="Roboto, sans-serif"><tspan x="-152.92" y="8.5" dominant-baseline="ideographic">Service-Side Execution</tspan></text></g></g></g><g id="g-root-tx_services_147zerd16ym0y-stroke" data-item-order="0" transform="translate(135.0755615234375, 468.998046875)"></g><g id="g-root-ic_free_vccnzt16lybz-fill" data-item-order="0" transform="translate(302, 513.998046875)"></g><g id="g-root-ic_free_vccnzt16lybz-stroke" data-item-order="0" transform="translate(302, 513.998046875)"><g id="ic_free_vccnzt16lybz-stroke" fill="none" stroke-linecap="round" stroke-linejoin="round" stroke-miterlimit="4" stroke="#2c2c2c" stroke-width="1" stroke-opacity="1"><g><path d="M 10 10M 11.5 11.5L 56.5 56.5M 24 24L 20 26L 20 42L 34 49L 44 44M 24.4 50.799999C 24.179087 50.799999 24 50.620914 24 50.400002C 24 50.179089 24.179087 50 24.400002 50M 24.4 50.799999C 24.620914 50.799999 24.799999 50.620914 24.799999 50.400002C 24.799999 50.179089 24.620914 50 24.400002 50M 18.4 55.299999C 18.179087 55.299999 18 55.120914 18 54.900002C 18 54.679089 18.179087 54.5 18.400002 54.5M 18.4 55.299999C 18.620914 55.299999 18.799999 55.120914 18.799999 54.900002C 18.799999 54.679089 18.620914 54.5 18.400002 54.5M 12.4 50.799999C 12.179087 50.799999 12 50.620914 12 50.400002C 12 50.179089 12.179087 50 12.4 50M 12.4 50.799999C 12.620914 50.799999 12.8 50.620914 12.8 50.400002C 12.8 50.179089 12.620914 50 12.4 50M 34 34L 34 49M 38 31L 48 26L 34 19L 28 22M 48 41L 48 26.007999"></path></g></g></g><g id="g-root-tx_indefini_1qbc2ux16ylmx-fill" data-item-order="0" transform="translate(141.8984375, 528.998046875)"><g id="tx_indefini_1qbc2ux16ylmx-fill-merged" stroke="none" fill="#2c2c2c" fill-opacity="1"><g><text style="font: 15px Roboto, sans-serif; white-space: pre;" transform="translate(158.1015625, 19)" font-size="15px" font-family="Roboto, sans-serif"><tspan x="-146.1" y="8.5" dominant-baseline="ideographic">Indefinite Persistence</tspan></text></g></g></g><g id="g-root-tx_indefini_1qbc2ux16ylmx-stroke" data-item-order="0" transform="translate(141.8984375, 528.998046875)"></g><g id="g-root-ic_1_1heg7ll16x6gx-fill" data-item-order="0" transform="translate(302, 573.998046875)"></g><g id="g-root-ic_1_1heg7ll16x6gx-stroke" data-item-order="0" transform="translate(302, 573.998046875)"><g id="ic_1_1heg7ll16x6gx-stroke" fill="none" stroke-linecap="round" stroke-linejoin="round" stroke-miterlimit="4" stroke="#2c2c2c" stroke-width="1" stroke-opacity="1"><g><path d="M 21.942001 25.184L 25.799999 13C 26.097818 12.1644 26.750179 11.503448 27.581812 11.194721C 28.413443 10.885994 29.339069 10.961151 30.110001 11.4L 32.510002 12.772C 33.432083 13.29871 34.563915 13.29871 35.486 12.772L 37.889999 11.4C 38.661259 10.959661 39.587982 10.883679 40.420662 11.19251C 41.253349 11.50134 41.906403 12.163238 42.204002 13L 46.057999 25.200001M 14 23.779999C 27.172585 26.708023 40.827415 26.708023 54 23.779999M 23.18 21.268C 30.362448 22.212002 37.63755 22.212002 44.82 21.268M 24.136 37.246002C 25.02 42.534 31.226 45.976002 34 45.976002C 36.774002 45.976002 42.98 42.534 43.863998 37.246002M 10 10M 32 38.975998L 36 38.975998M 10 10M 19.610001 50.386002L 15.976 51.585999C 13.528628 52.450115 11.666185 54.46751 11 56.976002M 10 10M 48.400002 50.386002L 52.034 51.585999C 54.477524 52.452854 56.3358 54.469791 57 56.976002M 10 10M 46 56.976002L 47.292 55.787998C 47.682381 55.397499 47.682381 54.7645 47.292 54.374001L 45.981998 53.062C 45.755219 52.834969 45.651165 52.512894 45.702248 52.196091C 45.753334 51.879284 45.95335 51.606243 46.240002 51.462002L 51.422001 48.862C 51.744469 48.701321 51.955578 48.379597 51.974621 48.019817C 51.993668 47.660038 51.817703 47.317825 51.514 47.124001L 45 42.976002C 42.98 49.035999 39.658001 51.318001 34 56.976002C 28.341999 51.318001 25.02 49.035999 23 42.976002L 16.486 47.132C 16.182297 47.325825 16.006334 47.668037 16.025379 48.027817C 16.044422 48.3876 16.255531 48.70932 16.577999 48.869999L 21.76 51.470001C 22.04665 51.614243 22.246666 51.887283 22.297752 52.20409C 22.348835 52.520893 22.244783 52.842968 22.018 53.07L 20.708 54.382C 20.317619 54.772499 20.317619 55.405499 20.708 55.796001L 22 56.976002M 10 10M 31.014 54.060001L 33.141998 50.509998C 33.322609 50.208313 33.648384 50.023651 34 50.023651C 34.351616 50.023651 34.677391 50.208313 34.858002 50.509998L 36.986 54.060001M 24.146 25.448C 22.842896 27.205992 22.600224 29.534004 23.512745 31.522953C 24.42527 33.511902 26.348251 34.846321 28.530773 35.005119C 30.713293 35.163918 32.809181 34.12191 34 32.286003C 35.190819 34.12191 37.286705 35.163918 39.469231 35.005119C 41.651749 34.846321 43.574734 33.511902 44.487255 31.522953C 45.399776 29.534004 45.157104 27.205992 43.854 25.448002"></path></g></g></g><g id="g-root-tx_agentasi_hte73t16ylfk-fill" data-item-order="0" transform="translate(178.0443115234375, 588.998046875)"><g id="tx_agentasi_hte73t16ylfk-fill-merged" stroke="none" fill="#2c2c2c" fill-opacity="1"><g><text style="font: 15px Roboto, sans-serif; white-space: pre;" transform="translate(121.9556884765625, 19)" font-size="15px" font-family="Roboto, sans-serif"><tspan x="-109.96" y="8.5" dominant-baseline="ideographic">Agent as Insider</tspan></text></g></g></g><g id="g-root-tx_agentasi_hte73t16ylfk-stroke" data-item-order="0" transform="translate(178.0443115234375, 588.998046875)"></g><g id="g-root-ic_meet_1qbc2ux171cem-fill" data-item-order="0" transform="translate(302, 633.998046875)"></g><g id="g-root-ic_meet_1qbc2ux171cem-stroke" data-item-order="0" transform="translate(302, 633.998046875)"><g id="ic_meet_1qbc2ux171cem-stroke" fill="none" stroke-linecap="round" stroke-linejoin="round" stroke-miterlimit="4" stroke="#2c2c2c" stroke-width="1" stroke-opacity="1"><g><path d="M 29.5 15.5C 29.5 17.985281 31.514719 20 34 20C 36.485283 20 38.5 17.985281 38.5 15.5C 38.5 13.014719 36.485283 11 34 11C 31.514719 11 29.5 13.014719 29.5 15.5M 43 29C 41.933315 24.902742 38.233833 22.043076 34 22.043076C 29.766167 22.043076 26.066687 24.902742 25 29ZM 15.5 43.5C 15.5 45.985283 17.514719 48 20 48C 22.485281 48 24.5 45.985283 24.5 43.5C 24.5 41.014717 22.485281 39 20 39C 17.514719 39 15.5 41.014717 15.5 43.5M 29 57C 27.933313 52.902744 24.233833 50.043076 20 50.043076C 15.766167 50.043076 12.066687 52.902744 11 57ZM 43.5 43.5C 43.5 45.985283 45.514717 48 48 48C 50.485283 48 52.5 45.985283 52.5 43.5C 52.5 41.014717 50.485283 39 48 39C 45.514717 39 43.5 41.014717 43.5 43.5M 57 57C 55.933315 52.902744 52.233833 50.043076 48 50.043076C 43.766167 50.043076 40.066689 52.902744 39 57ZM 40 47.84C 36.151478 49.396805 31.848522 49.396805 28 47.84M 43 19.779999C 47.96957 23.158754 50.62685 29.037214 49.880001 35M 25 19.779999C 20.03043 23.158754 17.37315 29.037214 18.119999 35"></path></g></g></g><g id="g-root-tx_organiza_qvwfax16x4w7-fill" data-item-order="0" transform="translate(127.6015625, 648.998046875)"><g id="tx_organiza_qvwfax16x4w7-fill-merged" stroke="none" fill="#2c2c2c" fill-opacity="1"><g><text style="font: 15px Roboto, sans-serif; white-space: pre;" transform="translate(172.3984375, 19)" font-size="15px" font-family="Roboto, sans-serif"><tspan x="-160.4" y="8.5" dominant-baseline="ideographic">Organizational Cascade</tspan></text></g></g></g><g id="g-root-tx_organiza_qvwfax16x4w7-stroke" data-item-order="0" transform="translate(127.6015625, 648.998046875)"></g></g></g></svg>