<?xml version="1.0" encoding="utf-8" standalone="yes"?>
<!DOCTYPE svg PUBLIC "-//W3C//DTD SVG 1.1//EN" "http://www.w3.org/Graphics/SVG/1.1/DTD/svg11.dtd">
<svg style="fill:none;stroke:none;fill-rule:evenodd;clip-rule:evenodd;stroke-linecap:round;stroke-linejoin:round;stroke-miterlimit:1.5;" version="1.1" xmlns="http://www.w3.org/2000/svg" xmlns:xlink="http://www.w3.org/1999/xlink" width="919" height="771" viewBox="0 0 919 771"><style class="text-font-style fontImports" data-font-family="Roboto">@import url(https://fonts.googleapis.com/css2?family=Roboto:wght@400;700&amp;amp;display=block);</style><g id="items" style="isolation: isolate"><g id="blend" style="mix-blend-mode: normal"><g id="g-root-ro_144v1fc16gb9e-fill" data-item-order="0" transform="translate(725.106689453125, 113)"></g><g id="g-root-ro_144v1fc16gb9e-stroke" data-item-order="0" transform="translate(725.106689453125, 113)"><g id="ro_144v1fc16gb9e-stroke" fill="none" stroke-linecap="round" stroke-linejoin="round" stroke-miterlimit="4" stroke="#3f3f3f" stroke-width="1" stroke-opacity="1"><g><path d="M 22 10L 157.08 10C 157.08 10 169.08 10 169.08 22L 169.08 55C 169.08 55 169.08 67 157.08 67L 22 67C 22 67 10 67 10 55L 10 22C 10 22 10 10 22 10"></path></g></g></g><g id="g-root-ic_targ_1hfp2pk16gcu9-fill" data-item-order="0" transform="translate(737.106689453125, 125)"></g><g id="g-root-ic_targ_1hfp2pk16gcu9-stroke" data-item-order="0" transform="translate(737.106689453125, 125)"><g id="ic_targ_1hfp2pk16gcu9-stroke" fill="none" stroke-linecap="round" stroke-linejoin="round" stroke-miterlimit="4" stroke="#3f3f3f" stroke-width="1" stroke-opacity="1"><g><path d="M 32.709999 12.875C 28.005833 9.881551 21.994167 9.881551 17.290001 12.875M 37.125 32.709999C 40.119995 28.006283 40.119995 21.993715 37.125 17.289999M 12.875 17.289999C 9.880006 21.993715 9.880006 28.006283 12.875 32.709999M 17.289999 37.125C 21.994167 40.11845 28.005833 40.11845 32.710003 37.125M 39.375 39.375L 33.75 33.75M 10.625 39.375L 16.25 33.75M 39.375 10.625L 33.75 16.25M 10.625 10.625L 16.25 16.25M 33.125 21.25L 33.125 29.375C 33.125 30.065355 32.565353 30.625 31.875 30.625L 18.125 30.625C 17.434645 30.625 16.875 30.065355 16.875 29.375L 16.875 21.25M 33.125 21.25L 33.125 20.625C 33.125 19.934645 32.565353 19.375 31.875 19.375L 18.125 19.375C 17.434645 19.375 16.875 19.934645 16.875 20.625L 16.875 21.25L 24.00625 25.31625C 24.614258 25.696257 25.385742 25.696257 25.99375 25.31625Z"></path></g></g></g><g id="g-root-ic_auth_147z5dk16naq1-fill" data-item-order="0" transform="translate(26, 535.9954833984375)"></g><g id="g-root-ic_auth_147z5dk16naq1-stroke" data-item-order="0" transform="translate(26, 535.9954833984375)"><g id="ic_auth_147z5dk16naq1-stroke" fill="none" stroke-linecap="round" stroke-linejoin="round" stroke-miterlimit="4" stroke="#3f3f3f" stroke-width="1" stroke-opacity="1"><g><path d="M 10.625 25C 10.625 32.939095 17.060907 39.375 25 39.375C 32.939095 39.375 39.375 32.939095 39.375 25C 39.375 17.060907 32.939095 10.625 25 10.625C 17.060907 10.625 10.625 17.060907 10.625 25M 10 10M 28.487499 24.862501L 24.737499 21.112501C 23.537029 19.815752 21.723722 19.27899 20.010824 19.713343C 18.297926 20.147696 16.959503 21.483667 16.522011 23.195766C 16.084518 24.907866 16.617954 26.722155 17.9125 27.924999L 20.650002 30.6625M 10 10M 22.5 26.125L 25.225 28.85C 27.125423 30.615807 30.081932 30.562901 31.917963 28.730232C 33.753994 26.897564 33.812317 23.941156 32.049999 22.0375L 29.325001 19.299999"></path></g></g></g><g id="g-root-tx_email_1ur5l2w16gb9c-fill" data-item-order="0" transform="translate(773.106689453125, 131)"><g id="tx_email_1ur5l2w16gb9c-fill-merged" stroke="none" fill="#3f3f3f" fill-opacity="1"><g><text style="font: 15px Roboto, sans-serif; white-space: pre;" transform="translate(10, 19)" font-size="15px" font-family="Roboto, sans-serif"><tspan x="2" y="8.5" dominant-baseline="ideographic">Email</tspan></text></g></g></g><g id="g-root-tx_email_1ur5l2w16gb9c-stroke" data-item-order="0" transform="translate(773.106689453125, 131)"></g><g id="g-root-ro_dl2e4816kkjo-fill" data-item-order="0" transform="translate(725.106689453125, 187)"></g><g id="g-root-ro_dl2e4816kkjo-stroke" data-item-order="0" transform="translate(725.106689453125, 187)"><g id="ro_dl2e4816kkjo-stroke" fill="none" stroke-linecap="round" stroke-linejoin="round" stroke-miterlimit="4" stroke="#3f3f3f" stroke-width="1" stroke-opacity="1"><g><path d="M 22 10L 157.08 10C 157.08 10 169.08 10 169.08 22L 169.08 55C 169.08 55 169.08 67 157.08 67L 22 67C 22 67 10 67 10 55L 10 22C 10 22 10 10 22 10"></path></g></g></g><g id="g-root-ic_1_i0vw8o16kjrf-fill" data-item-order="0" transform="translate(737.106689453125, 199)"></g><g id="g-root-ic_1_i0vw8o16kjrf-stroke" data-item-order="0" transform="translate(737.106689453125, 199)"><g id="ic_1_i0vw8o16kjrf-stroke" fill="none" stroke-linecap="round" stroke-linejoin="round" stroke-miterlimit="4" stroke="#3f3f3f" stroke-width="1" stroke-opacity="1"><g><path d="M 25 10.625C 17.944029 10.618344 11.926377 15.73381 10.796829 22.698788C 9.667281 29.663765 13.75982 36.418854 20.456249 38.642498C 21.17375 38.767502 21.401251 38.346249 21.401251 37.966248C 21.401251 37.622498 21.408751 36.670002 21.401251 35.466248C 17.401251 36.333748 16.575001 33.572498 16.575001 33.572498C 16.311279 32.703777 15.745539 31.958029 14.98 31.469997C 13.675 30.577499 15.077499 30.594999 15.077499 30.594999C 16.000828 30.721729 16.813784 31.268005 17.280001 32.075001C 17.673092 32.791286 18.336319 33.320618 19.121941 33.545082C 19.907564 33.769543 20.750328 33.670498 21.4625 33.27C 21.528818 32.543343 21.852411 31.864244 22.375 31.355001C 19.18375 30.99 15.8275 29.7575 15.8275 24.247499C 15.807239 22.819101 16.337673 21.437733 17.30875 20.389999C 16.868723 19.15061 16.918804 17.78994 17.44875 16.58625C 17.44875 16.58625 18.657499 16.200001 21.401251 18.061251C 23.757694 17.414604 26.244808 17.414604 28.60125 18.061251C 31.35125 16.20125 32.550003 16.58625 32.550003 16.58625C 33.080135 17.789761 33.1311 19.150196 32.692497 20.389999C 33.663826 21.438402 34.193481 22.820971 34.171249 24.25C 34.171249 29.775 30.810001 30.98875 27.6075 31.342499C 28.303474 32.041836 28.662298 33.008423 28.591249 33.9925L 28.591249 37.9725C 28.591249 38.356251 28.82375 38.78125 29.553749 38.642498C 36.251999 36.418274 40.344685 29.660307 39.21241 22.69384C 38.080132 15.727373 32.057873 10.613414 25 10.625Z"></path></g></g></g><g id="g-root-tx_gen12020_1hit6ns16ncaw-fill" data-item-order="0" transform="translate(62, 532.998046875)"><g id="tx_gen12020_1hit6ns16ncaw-fill-merged" stroke="none" fill="#3f3f3f" fill-opacity="1"><g><text style="font: 15px Roboto, sans-serif; white-space: pre;" transform="translate(10, 27.9974365234375)" font-size="15px" font-family="Roboto, sans-serif"><tspan x="2" y="-0.5" dominant-baseline="ideographic">Gen-1 (2020-</tspan><tspan x="2" y="17.5" dominant-baseline="ideographic">2022)</tspan></text></g></g></g><g id="g-root-tx_gen12020_1hit6ns16ncaw-stroke" data-item-order="0" transform="translate(62, 532.998046875)"></g><g id="g-root-tx_github_18n6fw816kjre-fill" data-item-order="0" transform="translate(773.106689453125, 205)"><g id="tx_github_18n6fw816kjre-fill-merged" stroke="none" fill="#3f3f3f" fill-opacity="1"><g><text style="font: 15px Roboto, sans-serif; white-space: pre;" transform="translate(10, 19)" font-size="15px" font-family="Roboto, sans-serif"><tspan x="2" y="8.5" dominant-baseline="ideographic">GitHub</tspan></text></g></g></g><g id="g-root-tx_github_18n6fw816kjre-stroke" data-item-order="0" transform="translate(773.106689453125, 205)"></g><g id="g-root-ro_18lb0mw16oqha-fill" data-item-order="0" transform="translate(725.106689453125, 261)"></g><g id="g-root-ro_18lb0mw16oqha-stroke" data-item-order="0" transform="translate(725.106689453125, 261)"><g id="ro_18lb0mw16oqha-stroke" fill="none" stroke-linecap="round" stroke-linejoin="round" stroke-miterlimit="4" stroke="#3f3f3f" stroke-width="1" stroke-opacity="1"><g><path d="M 22 10L 157.08 10C 157.08 10 169.08 10 169.08 22L 169.08 55C 169.08 55 169.08 67 157.08 67L 22 67C 22 67 10 67 10 55L 10 22C 10 22 10 10 22 10"></path></g></g></g><g id="g-root-ic_soft_1hgy0vs16opol-fill" data-item-order="0" transform="translate(737.106689453125, 273)"></g><g id="g-root-ic_soft_1hgy0vs16opol-stroke" data-item-order="0" transform="translate(737.106689453125, 273)"><g id="ic_soft_1hgy0vs16opol-stroke" fill="none" stroke-linecap="round" stroke-linejoin="round" stroke-miterlimit="4" stroke="#3f3f3f" stroke-width="1" stroke-opacity="1"><g><path d="M 10 10M 25 20L 20 25L 26.0625 31.0625C 27.108253 32.10601 27.695942 33.522667 27.695942 35C 27.695942 36.477333 27.108253 37.893986 26.0625 38.9375C 25.473469 39.518898 24.526531 39.518898 23.9375 38.9375L 11.0625 26.0625C 10.481103 25.473469 10.481103 24.526531 11.0625 23.9375L 23.9375 11.0625C 24.220325 10.782577 24.602072 10.625387 25.000002 10.625M 10 10M 25 30L 30 25L 23.9375 18.9375C 22.891747 17.893988 22.304058 16.477335 22.304058 15C 22.304058 13.522665 22.891747 12.106012 23.9375 11.0625C 24.526531 10.481103 25.473469 10.481103 26.0625 11.0625L 38.9375 23.9375C 39.518898 24.526531 39.518898 25.473469 38.9375 26.0625L 26.0625 38.9375C 25.779675 39.217422 25.39793 39.374615 25.000002 39.375004"></path></g></g></g><g id="g-root-ro_142cvlk16zy18-fill" data-item-order="0" transform="translate(482.6719055175781, 329.00128173828125)"></g><g id="g-root-ro_142cvlk16zy18-stroke" data-item-order="0" transform="translate(482.6719055175781, 329.00128173828125)"><g id="ro_142cvlk16zy18-stroke" fill="none" stroke-linecap="round" stroke-linejoin="round" stroke-miterlimit="4" stroke="#3f3f3f" stroke-width="1" stroke-opacity="1"><g><path d="M 22 10L 184.43 10C 184.43 10 196.43 10 196.43 22L 196.43 70C 196.43 70 196.43 82 184.43 82L 22 82C 22 82 10 82 10 70L 10 22C 10 22 10 10 22 10"></path></g></g></g><g id="g-root-tx_jira_1urs26016or9g-fill" data-item-order="0" transform="translate(773.106689453125, 279)"><g id="tx_jira_1urs26016or9g-fill-merged" stroke="none" fill="#3f3f3f" fill-opacity="1"><g><text style="font: 15px Roboto, sans-serif; white-space: pre;" transform="translate(10, 19)" font-size="15px" font-family="Roboto, sans-serif"><tspan x="2" y="8.5" dominant-baseline="ideographic">Jira</tspan></text></g></g></g><g id="g-root-tx_jira_1urs26016or9g-stroke" data-item-order="0" transform="translate(773.106689453125, 279)"></g><g id="g-root-tx_multitur_146qdiw16x5vo-fill" data-item-order="0" transform="translate(530.671875, 580.9986572265625)"><g id="tx_multitur_146qdiw16x5vo-fill-merged" stroke="none" fill="#3f3f3f" fill-opacity="1"><g><text style="font: 15px Roboto, sans-serif; white-space: pre;" transform="translate(10, 69.9947509765625)" font-size="15px" font-family="Roboto, sans-serif"><tspan x="2" y="-18.49" dominant-baseline="ideographic">Multi-turn, Limited </tspan><tspan x="2" y="-0.5" dominant-baseline="ideographic">Integration, </tspan><tspan x="2" y="17.5" dominant-baseline="ideographic">Conversation </tspan><tspan x="2" y="35.49" dominant-baseline="ideographic">History</tspan></text></g></g></g><g id="g-root-tx_multitur_146qdiw16x5vo-stroke" data-item-order="0" transform="translate(530.671875, 580.9986572265625)"></g><g id="g-root-ic_robo_1cxderc1700eb-fill" data-item-order="0" transform="translate(494.6719055175781, 343.99871826171875)"></g><g id="g-root-ic_robo_1cxderc1700eb-stroke" data-item-order="0" transform="translate(494.6719055175781, 343.99871826171875)"><g id="ic_robo_1cxderc1700eb-stroke" fill="none" stroke-linecap="round" stroke-linejoin="round" stroke-miterlimit="4" stroke="#3f3f3f" stroke-width="1" stroke-opacity="1"><g><path d="M 33.327374 26.262375C 33.383125 26.711876 33.411873 27.16975 33.411873 27.634375C 33.411873 33.727501 28.472374 38.667126 22.379112 38.667126C 16.285887 38.667126 11.34635 33.727501 11.34635 27.634375C 11.34635 21.5411 16.285887 16.601563 22.379112 16.601563C 22.7635 16.601563 23.14325 16.621212 23.517376 16.659575M 10 10M 22.37915 21.767574L 22.379499 33.508625M 10 10M 28.2495 27.636749L 16.508438 27.637125M 30.671251 14.55125L 36.153751 14.55125C 36.153751 14.55125 38.653751 14.55125 38.653751 17.05125L 38.653751 20.206249C 38.653751 20.206249 38.653751 22.706249 36.153751 22.706249L 30.671251 22.706249C 30.671251 22.706249 28.171249 22.706249 28.171249 20.206249L 28.171249 17.05125C 28.171249 17.05125 28.171249 14.55125 30.671251 14.55125M 10 10M 33.411873 11.334312L 33.411873 14.550775M 10 10M 31.596624 17.903236L 31.596624 19.345699M 10 10M 35.228249 17.903236L 35.228249 19.345699"></path></g></g></g><g id="g-root-ro_4osws816szy8-fill" data-item-order="0" transform="translate(725.106689453125, 335)"></g><g id="g-root-ro_4osws816szy8-stroke" data-item-order="0" transform="translate(725.106689453125, 335)"><g id="ro_4osws816szy8-stroke" fill="none" stroke-linecap="round" stroke-linejoin="round" stroke-miterlimit="4" stroke="#3f3f3f" stroke-width="1" stroke-opacity="1"><g><path d="M 22 10L 157.08 10C 157.08 10 169.08 10 169.08 22L 169.08 55C 169.08 55 169.08 67 157.08 67L 22 67C 22 67 10 67 10 55L 10 22C 10 22 10 10 22 10"></path></g></g></g><g id="g-root-ro_i09bzs16x53i-fill" data-item-order="0" transform="translate(482.6719055175781, 568.9986572265625)"></g><g id="g-root-ro_i09bzs16x53i-stroke" data-item-order="0" transform="translate(482.6719055175781, 568.9986572265625)"><g id="ro_i09bzs16x53i-stroke" fill="none" stroke-linecap="round" stroke-linejoin="round" stroke-miterlimit="4" stroke="#3f3f3f" stroke-width="1" stroke-opacity="1"><g><path d="M 22 10L 186.51 10C 186.51 10 198.51 10 198.51 22L 198.51 141.99C 198.51 141.99 198.51 153.99 186.51 153.99L 22 153.99C 22 153.99 10 153.99 10 141.99L 10 22C 10 22 10 10 22 10"></path></g></g></g><g id="g-root-tx_gen32024_1q8tx4o16zyte-fill" data-item-order="0" transform="translate(530.671875, 341.0013427734375)"><g id="tx_gen32024_1q8tx4o16zyte-fill-merged" stroke="none" fill="#3f3f3f" fill-opacity="1"><g><text style="font: 15px Roboto, sans-serif; white-space: pre;" transform="translate(10, 27.99737548828125)" font-size="15px" font-family="Roboto, sans-serif"><tspan x="2" y="-0.5" dominant-baseline="ideographic">Gen-3 (2024-</tspan><tspan x="2" y="17.5" dominant-baseline="ideographic">2026)</tspan></text></g></g></g><g id="g-root-tx_gen32024_1q8tx4o16zyte-stroke" data-item-order="0" transform="translate(530.671875, 341.0013427734375)"></g><g id="g-root-ic_even_94mewo16sz5z-fill" data-item-order="0" transform="translate(737.106689453125, 347)"></g><g id="g-root-ic_even_94mewo16sz5z-stroke" data-item-order="0" transform="translate(737.106689453125, 347)"><g id="ic_even_94mewo16sz5z-stroke" fill="none" stroke-linecap="round" stroke-linejoin="round" stroke-miterlimit="4" stroke="#3f3f3f" stroke-width="1" stroke-opacity="1"><g><path d="M 17.862288 18.7724C 18.941275 18.7724 19.815975 17.897713 19.815975 16.818726C 19.815975 15.739725 18.941275 14.865038 17.862288 14.865038C 16.7833 14.865038 15.9086 15.739725 15.9086 16.818726C 15.9086 17.897713 16.7833 18.7724 17.862288 18.7724ZM 17.862288 29.637625C 18.941275 29.637625 19.815975 28.763 19.815975 27.684C 19.815975 26.605 18.941275 25.730249 17.862288 25.730249C 16.7833 25.730249 15.9086 26.605 15.9086 27.684C 15.9086 28.763 16.7833 29.637625 17.862288 29.637625ZM 33.226501 30.802374C 34.782127 30.802374 36.043251 29.54125 36.043251 27.985626C 36.043251 26.43 34.782127 25.168875 33.226501 25.168875C 31.670876 25.168875 30.409752 26.43 30.409752 27.985626C 30.409752 29.54125 31.670876 30.802374 33.226501 30.802374ZM 31.272873 18.7724C 32.351749 18.7724 33.226501 17.897713 33.226501 16.818726C 33.226501 15.739725 32.351749 14.865038 31.272873 14.865038C 30.193874 14.865038 29.319126 15.739725 29.319126 16.818726C 29.319126 17.897713 30.193874 18.7724 31.272873 18.7724ZM 21.281162 22.19145C 21.281162 21.284687 20.92095 20.415075 20.279774 19.773888C 19.638588 19.132713 18.768974 18.772512 17.862213 18.772512C 16.95545 18.772512 16.085926 19.132713 15.44475 19.773888C 14.803575 20.415075 14.443362 21.284687 14.443362 22.19145M 21.281162 33.056751C 21.281162 32.149998 20.92095 31.280375 20.279774 30.63925C 19.638588 29.997999 18.768974 29.637875 17.862213 29.637875C 16.95545 29.637875 16.085926 29.997999 15.44475 30.63925C 14.803575 31.280375 14.443362 32.149998 14.443362 33.056751M 38.444 38.673748C 38.444 37.290001 37.894375 35.962875 36.915874 34.984375C 35.937378 34.005875 34.610249 33.456249 33.226501 33.456249C 31.842625 33.456249 30.515625 34.005875 29.537251 34.984375C 28.55875 35.962875 28.008999 37.290001 28.008999 38.673748M 33.69025 19.773888C 33.049126 19.132713 32.179501 18.772512 31.272751 18.772512C 30.366001 18.772512 29.496376 19.132713 28.855249 19.773888C 28.214125 20.415075 27.853874 21.284687 27.853874 22.19145M 37.361 21.741062L 37.361 12.576213C 37.361 11.885862 36.801373 11.326213 36.111 11.326213L 12.805938 11.326213C 12.115587 11.326213 11.555938 11.885862 11.555938 12.576213L 11.555938 31.806751C 11.555938 32.497124 12.115587 33.056751 12.805938 33.056751L 26.217876 33.056751M 24.4585 11.326213L 24.4585 33.056751M 11.555938 22.191463L 30.57025 22.191463"></path></g></g></g><g id="g-root-ro_144v4l416lxxg-fill" data-item-order="0" transform="translate(725.106689453125, 560)"></g><g id="g-root-ro_144v4l416lxxg-stroke" data-item-order="0" transform="translate(725.106689453125, 560)"><g id="ro_144v4l416lxxg-stroke" fill="none" stroke-linecap="round" stroke-linejoin="round" stroke-miterlimit="4" stroke="#3f3f3f" stroke-width="1" stroke-opacity="1"><g><path d="M 22 10L 157.08 10C 157.08 10 169.08 10 169.08 22L 169.08 70C 169.08 70 169.08 82 157.08 82L 22 82C 22 82 10 82 10 70L 10 22C 10 22 10 10 22 10"></path></g></g></g><g id="g-root-ic_chec_18kompk16lx57-fill" data-item-order="0" transform="translate(737.106689453125, 574.9974365234375)"></g><g id="g-root-ic_chec_18kompk16lx57-stroke" data-item-order="0" transform="translate(737.106689453125, 574.9974365234375)"><g id="ic_chec_18kompk16lx57-stroke" fill="none" stroke-linecap="round" stroke-linejoin="round" stroke-miterlimit="4" stroke="#3f3f3f" stroke-width="1" stroke-opacity="1"><g><path d="M 32.4375 19.000088L 17.437511 19.000088L 17.437511 39.000126L 32.4375 39.000126L 32.4375 19.000088ZM 34.9375 25.999874L 38.9375 25.999874M 34.9375 30.999874L 38.9375 30.999874M 34.9375 35.999874L 37.6875 35.999874C 38.4375 35.999874 38.9375 35.499874 38.9375 34.749874L 38.9375 22.249912C 38.9375 21.499912 38.4375 20.999912 37.6875 20.999912L 34.9375 20.999912M 18.062511 25.624874L 32.4375 25.624874M 18.062511 32.499878L 32.4375 32.499878M 14.937488 25.999874L 10.9375 25.999874M 14.937488 30.999874L 10.9375 30.999874M 14.9375 35.999874L 12.1875 35.999874C 11.4375 35.999874 10.9375 35.499874 10.9375 34.749874L 10.9375 22.249912C 10.9375 21.499912 11.4375 20.999912 12.1875 20.999912L 14.9375 20.999912M 10 10M 23.0625 12.249912L 24.9375 13.9999L 28.0625 10.999908"></path></g></g></g><g id="g-root-ro_znset416ndhq-fill" data-item-order="0" transform="translate(248.3359375, 592.99609375)"></g><g id="g-root-ro_znset416ndhq-stroke" data-item-order="0" transform="translate(248.3359375, 592.99609375)"><g id="ro_znset416ndhq-stroke" fill="none" stroke-linecap="round" stroke-linejoin="round" stroke-miterlimit="4" stroke="#3f3f3f" stroke-width="1" stroke-opacity="1"><g><path d="M 22 10L 176.34 10C 176.34 10 188.34 10 188.34 22L 188.34 117.99C 188.34 117.99 188.34 129.99 176.34 129.99L 22 129.99C 22 129.99 10 129.99 10 117.99L 10 22C 10 22 10 10 22 10"></path></g></g></g><g id="g-root-tx_persiste_1lvinzs16lyq2-fill" data-item-order="0" transform="translate(773.106689453125, 572)"><g id="tx_persiste_1lvinzs16lyq2-fill-merged" stroke="none" fill="#3f3f3f" fill-opacity="1"><g><text style="font: 15px Roboto, sans-serif; white-space: pre;" transform="translate(10, 27.9974365234375)" font-size="15px" font-family="Roboto, sans-serif"><tspan x="2" y="-0.5" dominant-baseline="ideographic">Persistent </tspan><tspan x="2" y="17.5" dominant-baseline="ideographic">Memory</tspan></text></g></g></g><g id="g-root-tx_persiste_1lvinzs16lyq2-stroke" data-item-order="0" transform="translate(773.106689453125, 572)"></g><g id="g-root-tx_teams_qv9ybc16szym-fill" data-item-order="0" transform="translate(773.106689453125, 353)"><g id="tx_teams_qv9ybc16szym-fill-merged" stroke="none" fill="#3f3f3f" fill-opacity="1"><g><text style="font: 15px Roboto, sans-serif; white-space: pre;" transform="translate(10, 19)" font-size="15px" font-family="Roboto, sans-serif"><tspan x="2" y="8.5" dominant-baseline="ideographic">Teams</tspan></text></g></g></g><g id="g-root-tx_teams_qv9ybc16szym-stroke" data-item-order="0" transform="translate(773.106689453125, 353)"></g><g id="g-root-ro_18jff2016x728-fill" data-item-order="0" transform="translate(482.6719055175781, 417.9986572265625)"></g><g id="g-root-ro_18jff2016x728-stroke" data-item-order="0" transform="translate(482.6719055175781, 417.9986572265625)"><g id="ro_18jff2016x728-stroke" fill="none" stroke-linecap="round" stroke-linejoin="round" stroke-miterlimit="4" stroke="#3f3f3f" stroke-width="1" stroke-opacity="1"><g><path d="M 22 10L 184.43 10C 184.43 10 196.43 10 196.43 22L 196.43 55C 196.43 55 196.43 67 184.43 67L 22 67C 22 67 10 67 10 55L 10 22C 10 22 10 10 22 10"></path></g></g></g><g id="g-root-ro_4l229k16zyf8-fill" data-item-order="0" transform="translate(725.106689453125, 409)"></g><g id="g-root-ro_4l229k16zyf8-stroke" data-item-order="0" transform="translate(725.106689453125, 409)"><g id="ro_4l229k16zyf8-stroke" fill="none" stroke-linecap="round" stroke-linejoin="round" stroke-miterlimit="4" stroke="#3f3f3f" stroke-width="1" stroke-opacity="1"><g><path d="M 22 10L 157.08 10C 157.08 10 169.08 10 169.08 22L 169.08 55C 169.08 55 169.08 67 157.08 67L 22 67C 22 67 10 67 10 55L 10 22C 10 22 10 10 22 10"></path></g></g></g><g id="g-root-ic_gate_1hf2faw16x5hr-fill" data-item-order="0" transform="translate(494.6719055175781, 429.9986572265625)"></g><g id="g-root-ic_gate_1hf2faw16x5hr-stroke" data-item-order="0" transform="translate(494.6719055175781, 429.9986572265625)"><g id="ic_gate_1hf2faw16x5hr-stroke" fill="none" stroke-linecap="round" stroke-linejoin="round" stroke-miterlimit="4" stroke="#3f3f3f" stroke-width="1" stroke-opacity="1"><g><path d="M 31.5625 36.5625C 31.5625 37.9375 30.4375 39.0625 29.0625 39.0625L 15.3125 39.0625C 13.9375 39.0625 12.8125 37.9375 12.8125 36.5625L 12.8125 13.4375C 12.8125 12.0625 13.9375 10.9375 15.3125 10.9375L 29.0625 10.9375C 30.4375 10.9375 31.5625 12.0625 31.5625 13.4375L 31.5625 21.437489M 10.9375 16.5625L 22.1875 16.5625M 31.5625 16.5625L 39.0625 16.5625M 10 10M 35.3125 12.8125L 39.0625 16.5625L 35.3125 20.3125M 10 10M 35.3125 25L 39.0625 25M 39.0625 32.5L 35.3125 32.5M 10 10M 37.1875 25L 37.1875 32.5M 10 10M 17.937925 32.5L 20.240288 25.592876C 20.358313 25.238874 20.689688 25 21.062925 25L 21.062925 25C 21.436174 25 21.767538 25.238874 21.885574 25.592876L 24.187874 32.5M 18.771263 30L 23.354624 30M 10 10M 27.25 32.5L 27.25 29.375M 27.25 29.375L 27.25 25L 30.375 25C 31.410501 25 32.25 25.8395 32.25 26.875L 32.25 27.5C 32.25 28.5355 31.410501 29.375 30.375 29.375L 27.25 29.375Z"></path></g></g></g><g id="g-root-ic_chec_9093aw1700sr-fill" data-item-order="0" transform="translate(737.106689453125, 421)"></g><g id="g-root-ic_chec_9093aw1700sr-stroke" data-item-order="0" transform="translate(737.106689453125, 421)"><g id="ic_chec_9093aw1700sr-stroke" fill="none" stroke-linecap="round" stroke-linejoin="round" stroke-miterlimit="4" stroke="#3f3f3f" stroke-width="1" stroke-opacity="1"><g><path d="M 16.987499 35.625L 13.125 35.625C 12.434644 35.625 11.875 35.065353 11.875 34.375L 11.875 11.875C 11.875 11.184644 12.434644 10.625 13.125 10.625L 36.875 10.625C 37.565353 10.625 38.125 11.184644 38.125 11.875L 38.125 34.375C 38.125 35.065353 37.565353 35.625 36.875 35.625L 31.875 35.625M 16.875 15.625L 33.125 15.625M 16.875 19.375L 33.125 19.375M 16.875 23.125L 27.5 23.125M 18.75 33.75C 18.75 36.856602 21.268398 39.375 24.375 39.375C 27.481602 39.375 30 36.856602 30 33.75C 30 30.643398 27.481602 28.125 24.375 28.125C 21.268398 28.125 18.75 30.643398 18.75 33.75M 21.875 33.75L 23.75 35.625L 26.875 31.875"></path></g></g></g><g id="g-root-ro_1cu91bs16rlds-fill" data-item-order="0" transform="translate(248.3359375, 449)"></g><g id="g-root-ro_1cu91bs16rlds-stroke" data-item-order="0" transform="translate(248.3359375, 449)"><g id="ro_1cu91bs16rlds-stroke" fill="none" stroke-linecap="round" stroke-linejoin="round" stroke-miterlimit="4" stroke="#3f3f3f" stroke-width="1" stroke-opacity="1"><g><path d="M 22 10L 176.34 10C 176.34 10 188.34 10 188.34 22L 188.34 70C 188.34 70 188.34 82 176.34 82L 22 82C 22 82 10 82 10 70L 10 22C 10 22 10 10 22 10"></path></g></g></g><g id="g-root-ic_pay_1cz8x6g16nbwt-fill" data-item-order="0" transform="translate(260.3359375, 616.9908447265625)"></g><g id="g-root-ic_pay_1cz8x6g16nbwt-stroke" data-item-order="0" transform="translate(260.3359375, 616.9908447265625)"><g id="ic_pay_1cz8x6g16nbwt-stroke" fill="none" stroke-linecap="round" stroke-linejoin="round" stroke-miterlimit="4" stroke="#3f3f3f" stroke-width="1" stroke-opacity="1"><g><path d="M 35.794998 15.924999C 32.839085 13.257162 28.981276 11.809814 25 11.875C 17.061251 11.875 10.625 17.21125 10.625 23.799999C 10.693668 27.154745 12.288243 30.295113 14.95625 32.330002C 15.039169 32.396931 15.082087 32.501625 15.07 32.607498L 14.5 37.783749C 14.486608 37.905739 14.545858 38.024277 14.651471 38.086781C 14.757084 38.149288 14.889505 38.144192 14.99 38.07375C 14.99 38.07375 18.778749 35.482498 19.4825 34.94875C 19.557516 34.891342 19.654543 34.871109 19.74625 34.893749C 21.468212 35.332718 23.226845 35.612644 24.999998 35.73C 32.938751 35.73 39.375 30.388752 39.375 23.799999C 39.369293 21.967587 38.872467 20.170204 37.936253 18.594999C 37.849613 18.447548 37.706333 18.342041 37.539814 18.303068C 37.373291 18.264095 37.198074 18.295061 37.055 18.38875L 20.766251 29.0425C 20.70866 29.080093 20.638124 29.0923 20.571249 29.07625C 20.504694 29.059927 20.447756 29.016998 20.41375 28.9575L 16.05125 21.39875C 15.99624 21.301563 16.01236 21.179678 16.090744 21.100132C 16.169128 21.020586 16.290764 21.002676 16.38875 21.05625L 21.682499 24C 21.759851 24.044659 21.85515 24.044659 21.932501 24L 35.794998 15.924999"></path></g></g></g><g id="g-root-tx_api_1upwgl416x72m-fill" data-item-order="0" transform="translate(530.671875, 435.9986572265625)"><g id="tx_api_1upwgl416x72m-fill-merged" stroke="none" fill="#3f3f3f" fill-opacity="1"><g><text style="font: 15px Roboto, sans-serif; white-space: pre;" transform="translate(10, 19)" font-size="15px" font-family="Roboto, sans-serif"><tspan x="2" y="8.5" dominant-baseline="ideographic">API</tspan></text></g></g></g><g id="g-root-tx_api_1upwgl416x72m-stroke" data-item-order="0" transform="translate(530.671875, 435.9986572265625)"></g><g id="g-root-tx_docs_v7clx416zyf6-fill" data-item-order="0" transform="translate(773.106689453125, 427)"><g id="tx_docs_v7clx416zyf6-fill-merged" stroke="none" fill="#3f3f3f" fill-opacity="1"><g><text style="font: 15px Roboto, sans-serif; white-space: pre;" transform="translate(10, 19)" font-size="15px" font-family="Roboto, sans-serif"><tspan x="2" y="8.5" dominant-baseline="ideographic">Docs</tspan></text></g></g></g><g id="g-root-tx_docs_v7clx416zyf6-stroke" data-item-order="0" transform="translate(773.106689453125, 427)"></g><g id="g-root-ic_api_1ha2jg816rklj-fill" data-item-order="0" transform="translate(260.3359375, 463.9974365234375)"></g><g id="g-root-ic_api_1ha2jg816rklj-stroke" data-item-order="0" transform="translate(260.3359375, 463.9974365234375)"><g id="ic_api_1ha2jg816rklj-stroke" fill="none" stroke-linecap="round" stroke-linejoin="round" stroke-miterlimit="4" stroke="#3f3f3f" stroke-width="1" stroke-opacity="1"><g><path d="M 38.026249 39.375L 38.026249 32.32M 36.677498 32.32L 39.375 32.32M 36.677498 39.375L 39.375 39.375M 29.26 39.375L 29.26 36.364998M 29.26 36.364998L 31.283751 36.364998C 32.400745 36.365002 33.306252 35.459496 33.306252 34.342503C 33.306252 33.225506 32.400745 32.32 31.283751 32.32L 29.26 32.32ZM 19.82 39.375L 20.581249 33.986248C 20.723841 33.026127 21.548096 32.315243 22.518751 32.315243C 23.489407 32.315243 24.31366 33.026127 24.456249 33.986248L 25.217499 39.375M 20.175001 36.702499L 24.86125 36.702499M 34.0625 30.526249C 34.636997 29.369047 35.057251 28.141497 35.3125 26.875L 38.125 26.875C 38.815353 26.875 39.375 26.315357 39.375 25.625L 39.375 24.375C 39.375 23.684643 38.815353 23.125 38.125 23.125L 35.31625 23.125C 35.061398 21.857996 34.641132 20.62998 34.06625 19.4725L 36.048752 17.487499C 36.536728 16.999374 36.536728 16.208124 36.048752 15.72L 34.279999 13.95125C 33.791878 13.463272 33.000626 13.463272 32.512501 13.95125L 30.525 15.9375C 29.368481 15.36241 28.141266 14.942129 26.875 14.6875L 26.875 11.875C 26.875 11.184644 26.315357 10.625 25.625 10.625L 24.375 10.625C 23.684643 10.625 23.125 11.184644 23.125 11.875L 23.125 14.684999C 21.858337 14.939636 20.630707 15.359914 19.473749 15.935L 17.48625 13.95125C 16.998125 13.463272 16.206875 13.463272 15.71875 13.95125L 13.95 15.72C 13.462023 16.208124 13.462023 16.999374 13.95 17.487499L 15.9375 19.473749C 15.363001 20.630953 14.942751 21.858503 14.6875 23.125L 11.875 23.125C 11.184644 23.125 10.625 23.684643 10.625 24.375L 10.625 25.625C 10.625 26.315357 11.184644 26.875 11.875 26.875L 14.6825 26.875C 14.937752 28.141497 15.358002 29.369047 15.9325 30.526249L 13.945 32.513748C 13.457023 33.001877 13.457023 33.793125 13.945 34.28125L 15.71375 36.048752C 16.201874 36.536728 16.993126 36.536728 17.481251 36.048752M 21.809999 29.633749C 19.860054 28.291382 18.959259 25.871809 19.556623 23.581089C 20.15399 21.290371 22.121655 19.618824 24.478813 19.399649C 26.835972 19.180473 29.078091 20.460585 30.087559 22.601894C 31.097027 24.743206 30.657772 27.287382 28.98875 28.966251"></path></g></g></g><g id="g-root-tx_singletu_1qa2ygo16ndho-fill" data-item-order="0" transform="translate(296.3359375, 604.99609375)"><g id="tx_singletu_1qa2ygo16ndho-fill-merged" stroke="none" fill="#3f3f3f" fill-opacity="1"><g><text style="font: 15px Roboto, sans-serif; white-space: pre;" transform="translate(10, 36.9947509765625)" font-size="15px" font-family="Roboto, sans-serif"><tspan x="2" y="-9.49" dominant-baseline="ideographic">Single-turn, </tspan><tspan x="2" y="8.5" dominant-baseline="ideographic">Stateless, No </tspan><tspan x="2" y="26.49" dominant-baseline="ideographic">Integration</tspan></text></g></g></g><g id="g-root-tx_singletu_1qa2ygo16ndho-stroke" data-item-order="0" transform="translate(296.3359375, 604.99609375)"></g><g id="g-root-tx_gen22022_1ulj1tk16rj0m-fill" data-item-order="0" transform="translate(296.3359375, 461)"><g id="tx_gen22022_1ulj1tk16rj0m-fill-merged" stroke="none" fill="#3f3f3f" fill-opacity="1"><g><text style="font: 15px Roboto, sans-serif; white-space: pre;" transform="translate(10, 27.9974365234375)" font-size="15px" font-family="Roboto, sans-serif"><tspan x="2" y="-0.5" dominant-baseline="ideographic">Gen-2 (2022-</tspan><tspan x="2" y="17.5" dominant-baseline="ideographic">2024)</tspan></text></g></g></g><g id="g-root-tx_gen22022_1ulj1tk16rj0m-stroke" data-item-order="0" transform="translate(296.3359375, 461)"></g><g id="g-root-ic_sync_qv9v5k16x7gl-fill" data-item-order="0" transform="translate(494.6719055175781, 625.993408203125)"></g><g id="g-root-ic_sync_qv9v5k16x7gl-stroke" data-item-order="0" transform="translate(494.6719055175781, 625.993408203125)"><g id="ic_sync_qv9v5k16x7gl-stroke" fill="none" stroke-linecap="round" stroke-linejoin="round" stroke-miterlimit="4" stroke="#3f3f3f" stroke-width="1" stroke-opacity="1"><g><path d="M 36.662498 23.099998C 36.802399 22.493238 36.87368 21.872679 36.875 21.25C 36.875 15.3875 31 10.625 23.75 10.625C 16.5 10.625 10.625 15.3875 10.625 21.25C 10.668588 24.19039 12.048841 26.950895 14.375 28.749998L 11.875 34.425003L 18.924999 31.175001C 19.884974 31.481407 20.873249 31.690788 21.875 31.800001M 33.862499 28.925001L 37.662498 30.625L 39.375 26.7875M 24.15 29.075001C 25.210592 25.98177 28.280867 24.043419 31.52957 24.416073C 34.778271 24.788727 37.32988 27.371956 37.662502 30.625M 27.975 34.825001L 24.174999 33.125L 22.4625 36.962502M 37.6875 34.662498C 36.628666 37.755024 33.561069 39.694588 30.313261 39.325039C 27.065451 38.95549 24.512007 36.376347 24.174999 33.125"></path></g></g></g><g id="g-root-tx_evolutio_dj720o16sz5w-fill" data-item-order="0" transform="translate(322.1640625, 38)"><g id="tx_evolutio_dj720o16sz5w-fill-merged" stroke="none" fill="#3f3f3f" fill-opacity="1"><g><text style="font: bold 25px Roboto, sans-serif; white-space: pre;" transform="translate(136.92837524414062, 25)" font-weight="bold" font-size="25px" font-family="Roboto, sans-serif"><tspan x="-124.93" y="15" dominant-baseline="ideographic">Evolution of AI Agents</tspan></text></g></g></g><g id="g-root-tx_evolutio_dj720o16sz5w-stroke" data-item-order="0" transform="translate(322.1640625, 38)"></g><g id="g-root-ro_1hgbgmw16lybm-fill" data-item-order="0" transform="translate(482.6719055175781, 491.9986572265625)"></g><g id="g-root-ro_1hgbgmw16lybm-stroke" data-item-order="0" transform="translate(482.6719055175781, 491.9986572265625)"><g id="ro_1hgbgmw16lybm-stroke" fill="none" stroke-linecap="round" stroke-linejoin="round" stroke-miterlimit="4" stroke="#3f3f3f" stroke-width="1" stroke-opacity="1"><g><path d="M 22 10L 87.59 10C 87.59 10 99.59 10 99.59 22L 99.59 55C 99.59 55 99.59 67 87.59 67L 22 67C 22 67 10 67 10 55L 10 22C 10 22 10 10 22 10"></path></g></g></g><g id="g-root-ro_1cw4t8816houg-fill" data-item-order="0" transform="translate(725.106689453125, 483)"></g><g id="g-root-ro_1cw4t8816houg-stroke" data-item-order="0" transform="translate(725.106689453125, 483)"><g id="ro_1cw4t8816houg-stroke" fill="none" stroke-linecap="round" stroke-linejoin="round" stroke-miterlimit="4" stroke="#3f3f3f" stroke-width="1" stroke-opacity="1"><g><path d="M 22 10L 157.08 10C 157.08 10 169.08 10 169.08 22L 169.08 55C 169.08 55 169.08 67 157.08 67L 22 67C 22 67 10 67 10 55L 10 22C 10 22 10 10 22 10"></path></g></g></g><g id="g-root-ic_neo_1urrz0816lwqp-fill" data-item-order="0" transform="translate(494.6719055175781, 503.9986572265625)"></g><g id="g-root-ic_neo_1urrz0816lwqp-stroke" data-item-order="0" transform="translate(494.6719055175781, 503.9986572265625)"><g id="ic_neo_1urrz0816lwqp-stroke" fill="none" stroke-linecap="round" stroke-linejoin="round" stroke-miterlimit="4" stroke="#3f3f3f" stroke-width="1" stroke-opacity="1"><g><path d="M 10.6275 25C 10.627501 32.937714 17.062288 39.372501 25 39.372501C 32.937714 39.372501 39.372501 32.937714 39.372501 25C 39.372501 17.062288 32.937714 10.627501 25 10.627501C 17.062288 10.627501 10.627501 17.062288 10.627501 25M 25.002501 22.997499L 25.002501 33.348751L 17.4125 29.89875L 17.4125 19.547501L 25.002501 15.40625L 32.59375 18.8575L 25.002501 22.997499ZM 32.59375 18.8575L 32.59375 29.89875L 25.002501 26.44875M 25.002501 22.997499L 17.4125 19.547501"></path></g></g></g><g id="g-root-ic_2_1hbbu9k16hr7z-fill" data-item-order="0" transform="translate(737.106689453125, 495)"></g><g id="g-root-ic_2_1hbbu9k16hr7z-stroke" data-item-order="0" transform="translate(737.106689453125, 495)"><g id="ic_2_1hbbu9k16hr7z-stroke" fill="none" stroke-linecap="round" stroke-linejoin="round" stroke-miterlimit="4" stroke="#3f3f3f" stroke-width="1" stroke-opacity="1"><g><path d="M 15.9375 23.125126C 18.698925 23.125126 20.9375 22.229725 20.9375 21.125149C 20.9375 20.020588 18.698925 19.125151 15.9375 19.125151C 13.176075 19.125151 10.9375 20.020588 10.9375 21.125149C 10.9375 22.229725 13.176075 23.125126 15.9375 23.125126ZM 10.9375 21.124962L 10.9375 29.125C 10.9375 30.25 13.1875 31.125 15.9375 31.125C 18.6875 31.125 20.9375 30.25 20.9375 29.125L 20.9375 21.124962M 35.751751 14.216625C 37.519127 14.216625 38.951752 13.440588 38.951752 12.4833C 38.951752 11.526 37.519127 10.74996 35.751751 10.74996C 33.984497 10.74996 32.55175 11.526 32.55175 12.4833C 32.55175 13.440588 33.984497 14.216625 35.751751 14.216625ZM 32.55175 12.483362L 32.55175 17.016687C 32.55175 17.950026 34.018501 18.750025 35.751751 18.750025C 37.485126 18.750025 38.951752 17.950026 38.951752 17.016687L 38.951752 12.483362M 35.751751 24.600126C 37.519127 24.600126 38.951752 23.824001 38.951752 22.866749C 38.951752 21.909462 37.519127 21.133425 35.751751 21.133425C 33.984497 21.133425 32.55175 21.909462 32.55175 22.866749C 32.55175 23.824001 33.984497 24.600126 35.751751 24.600126ZM 32.55175 22.866875L 32.55175 27.400126C 32.55175 28.3335 34.018501 29.133499 35.751751 29.133499C 37.485126 29.133499 38.951752 28.3335 38.951752 27.400126L 38.951752 22.866875M 35.751751 34.716625C 37.519127 34.716625 38.951752 33.940624 38.951752 32.98325C 38.951752 32.026001 37.519127 31.25 35.751751 31.25C 33.984497 31.25 32.55175 32.026001 32.55175 32.98325C 32.55175 33.940624 33.984497 34.716625 35.751751 34.716625ZM 32.55175 32.983376L 32.55175 37.51675C 32.55175 38.450001 34.018501 39.25 35.751751 39.25C 37.485126 39.25 38.951752 38.450001 38.951752 37.51675L 38.951752 32.983376M 29.557249 14.625L 27.057249 14.625L 27.057249 35.375L 29.557249 35.375M 29.557249 25L 23.932249 25M 10.9375 25.163876C 10.9375 26.221125 13.099663 27.086 15.937525 27.086C 18.775375 27.086 20.937536 26.221125 20.937536 25.163876"></path></g></g></g><g id="g-root-ro_zs5n9416nbia-fill" data-item-order="0" transform="translate(14, 520.998046875)"></g><g id="g-root-ro_zs5n9416nbia-stroke" data-item-order="0" transform="translate(14, 520.998046875)"><g id="ro_zs5n9416nbia-stroke" fill="none" stroke-linecap="round" stroke-linejoin="round" stroke-miterlimit="4" stroke="#3f3f3f" stroke-width="1" stroke-opacity="1"><g><path d="M 22 10L 176.34 10C 176.34 10 188.34 10 188.34 22L 188.34 70C 188.34 70 188.34 82 176.34 82L 22 82C 22 82 10 82 10 70L 10 22C 10 22 10 10 22 10"></path></g></g></g><g id="g-root-tx_db_6hf5k16lw5k-fill" data-item-order="0" transform="translate(530.671875, 509.9986572265625)"><g id="tx_db_6hf5k16lw5k-fill-merged" stroke="none" fill="#3f3f3f" fill-opacity="1"><g><text style="font: 15px Roboto, sans-serif; white-space: pre;" transform="translate(10, 19)" font-size="15px" font-family="Roboto, sans-serif"><tspan x="2" y="8.5" dominant-baseline="ideographic">DB</tspan></text></g></g></g><g id="g-root-tx_db_6hf5k16lw5k-stroke" data-item-order="0" transform="translate(530.671875, 509.9986572265625)"></g><g id="g-root-tx_db_4hbawo16hp1i-fill" data-item-order="0" transform="translate(773.106689453125, 501)"><g id="tx_db_4hbawo16hp1i-fill-merged" stroke="none" fill="#3f3f3f" fill-opacity="1"><g><text style="font: 15px Roboto, sans-serif; white-space: pre;" transform="translate(10, 19)" font-size="15px" font-family="Roboto, sans-serif"><tspan x="2" y="8.5" dominant-baseline="ideographic">DB</tspan></text></g></g></g><g id="g-root-tx_db_4hbawo16hp1i-stroke" data-item-order="0" transform="translate(773.106689453125, 501)"></g><g id="g-root-cu_qu13aw16szyk-fill" data-item-order="2" transform="translate(669.106689453125, 141.5)"></g><g id="g-root-cu_qu13aw16szyk-stroke" data-item-order="2" transform="translate(669.106689453125, 141.5)"><g id="cu_qu13aw16szyk-stroke" fill="none" stroke-linecap="round" stroke-linejoin="round" stroke-miterlimit="4" stroke="#3f3f3f" stroke-width="1" stroke-opacity="1"><style>.fillAsStrokeColor-mk-8d6vd2nklk { fill:#3f3f3f; }</style><g><path d="M 10 233.5L 24 233.5L 38 233.5L 38 121.8L 38 10L 52 10L 63.17 10"></path><path d="M 64.6 10L 59.6 12.8L 59.6 7.2Z" stroke-dasharray="none" class="fillAsStrokeColor-mk-8d6vd2nklk" fill="#3f3f3f"></path></g></g></g><g id="g-root-cu_zpo3js16sz5u-fill" data-item-order="2" transform="translate(669.106689453125, 215.5)"></g><g id="g-root-cu_zpo3js16sz5u-stroke" data-item-order="2" transform="translate(669.106689453125, 215.5)"><g id="cu_zpo3js16sz5u-stroke" fill="none" stroke-linecap="round" stroke-linejoin="round" stroke-miterlimit="4" stroke="#3f3f3f" stroke-width="1" stroke-opacity="1"><style>.fillAsStrokeColor-mk-8d6vd2nklj { fill:#3f3f3f; }</style><g><path d="M 10 159.5L 24 159.5L 38 159.5L 38 84.8L 38 10L 52 10L 63.17 10"></path><path d="M 64.6 10L 59.6 12.8L 59.6 7.2Z" stroke-dasharray="none" class="fillAsStrokeColor-mk-8d6vd2nklj" fill="#3f3f3f"></path></g></g></g><g id="g-root-cu_zpo3js16sz5s-fill" data-item-order="2" transform="translate(669.106689453125, 289.5)"></g><g id="g-root-cu_zpo3js16sz5s-stroke" data-item-order="2" transform="translate(669.106689453125, 289.5)"><g id="cu_zpo3js16sz5s-stroke" fill="none" stroke-linecap="round" stroke-linejoin="round" stroke-miterlimit="4" stroke="#3f3f3f" stroke-width="1" stroke-opacity="1"><style>.fillAsStrokeColor-mk-8d6vd2nkli { fill:#3f3f3f; }</style><g><path d="M 10 85.5L 24 85.5L 38 85.5L 38 47.8L 38 10L 52 10L 63.17 10"></path><path d="M 64.6 10L 59.6 12.8L 59.6 7.2Z" stroke-dasharray="none" class="fillAsStrokeColor-mk-8d6vd2nkli" fill="#3f3f3f"></path></g></g></g><g id="g-root-cu_hz0k5416sydk-fill" data-item-order="2" transform="translate(426.6719055175781, 365)"></g><g id="g-root-cu_hz0k5416sydk-stroke" data-item-order="2" transform="translate(426.6719055175781, 365)"><g id="cu_hz0k5416sydk-stroke" fill="none" stroke-linecap="round" stroke-linejoin="round" stroke-miterlimit="4" stroke="#3f3f3f" stroke-width="1" stroke-opacity="1"><style>.fillAsStrokeColor-mk-1lr5s6w16sxla { fill:#3f3f3f; }</style><g><path d="M 10 130L 24 130L 38 130L 38 70L 38 10L 52 10L 63.17 10"></path><path d="M 64.6 10L 59.6 12.8L 59.6 7.2Z" stroke-dasharray="none" class="fillAsStrokeColor-mk-1lr5s6w16sxla" fill="#3f3f3f"></path></g></g></g><g id="g-root-cu_1d0i4u016szyn-fill" data-item-order="2" transform="translate(669.106689453125, 365.00006103515625)"></g><g id="g-root-cu_1d0i4u016szyn-stroke" data-item-order="2" transform="translate(669.106689453125, 365.00006103515625)"><g id="cu_1d0i4u016szyn-stroke" fill="none" stroke-linecap="round" stroke-linejoin="round" stroke-miterlimit="4" stroke="#3f3f3f" stroke-width="1" stroke-opacity="1"><style>.fillAsStrokeColor-mk-hs5rzs16swzw { fill:#3f3f3f; }</style><g><path d="M 10 9.999939L 24 9.999939L 38 9.999939L 38 125.499939L 38 240.999939L 52 240.999939L 63.17 240.999939"></path><path d="M 64.6 240.999939L 59.6 243.799939L 59.6 238.199939Z" stroke-dasharray="none" class="fillAsStrokeColor-mk-hs5rzs16swzw" fill="#3f3f3f"></path></g></g></g><g id="g-root-cu_18lb3so16sxl6-fill" data-item-order="2" transform="translate(669.106689453125, 365)"></g><g id="g-root-cu_18lb3so16sxl6-stroke" data-item-order="2" transform="translate(669.106689453125, 365)"><g id="cu_18lb3so16sxl6-stroke" fill="none" stroke-linecap="round" stroke-linejoin="round" stroke-miterlimit="4" stroke="#3f3f3f" stroke-width="1" stroke-opacity="1"><style>.fillAsStrokeColor-mk-4o6ozt2njt7 { fill:#3f3f3f; }</style><g><path d="M 10 10L 24 10L 38 10L 38 83.3L 38 156.5L 52 156.5L 63.17 156.5"></path><path d="M 64.6 156.5L 59.6 159.3L 59.6 153.7Z" stroke-dasharray="none" class="fillAsStrokeColor-mk-4o6ozt2njt7" fill="#3f3f3f"></path></g></g></g><g id="g-root-cu_145hlo816sydg-fill" data-item-order="2" transform="translate(669.106689453125, 365)"></g><g id="g-root-cu_145hlo816sydg-stroke" data-item-order="2" transform="translate(669.106689453125, 365)"><g id="cu_145hlo816sydg-stroke" fill="none" stroke-linecap="round" stroke-linejoin="round" stroke-miterlimit="4" stroke="#3f3f3f" stroke-width="1" stroke-opacity="1"><style>.fillAsStrokeColor-mk-4o6ozt2njt8 { fill:#3f3f3f; }</style><g><path d="M 10 10L 24 10L 38 10L 38 46.3L 38 82.5L 52 82.5L 63.17 82.5"></path><path d="M 64.6 82.5L 59.6 85.3L 59.6 79.7Z" stroke-dasharray="none" class="fillAsStrokeColor-mk-4o6ozt2njt8" fill="#3f3f3f"></path></g></g></g><g id="g-root-cu_145hlo816sydi-fill" data-item-order="2" transform="translate(669.106689453125, 363.5)"></g><g id="g-root-cu_145hlo816sydi-stroke" data-item-order="2" transform="translate(669.106689453125, 363.5)"><g id="cu_145hlo816sydi-stroke" fill="none" stroke-linecap="round" stroke-linejoin="round" stroke-miterlimit="4" stroke="#3f3f3f" stroke-width="1" stroke-opacity="1"><style>.fillAsStrokeColor-mk-8d6vd2nklh { fill:#3f3f3f; }</style><g><path d="M 10 11.5L 24 11.5L 38 11.5L 38 10.8L 38 10L 52 10L 63.17 10"></path><path d="M 64.6 10L 59.6 12.8L 59.6 7.2Z" stroke-dasharray="none" class="fillAsStrokeColor-mk-8d6vd2nklh" fill="#3f3f3f"></path></g></g></g><g id="g-root-cu_meu29k16sxl7-fill" data-item-order="2" transform="translate(426.6719055175781, 446.4986572265625)"></g><g id="g-root-cu_meu29k16sxl7-stroke" data-item-order="2" transform="translate(426.6719055175781, 446.4986572265625)"><g id="cu_meu29k16sxl7-stroke" fill="none" stroke-linecap="round" stroke-linejoin="round" stroke-miterlimit="4" stroke="#3f3f3f" stroke-width="1" stroke-opacity="1"><style>.fillAsStrokeColor-mk-djtp8p2nj0i { fill:#3f3f3f; }</style><g><path d="M 10 48.5L 24 48.5L 38 48.5L 38 29.3L 38 10L 52 10L 63.17 10"></path><path d="M 64.6 10L 59.6 12.8L 59.6 7.2Z" stroke-dasharray="none" class="fillAsStrokeColor-mk-djtp8p2nj0i" fill="#3f3f3f"></path></g></g></g><g id="g-root-cu_hz0k5416sydm-fill" data-item-order="2" transform="translate(192.3359375, 484.9986572265625)"></g><g id="g-root-cu_hz0k5416sydm-stroke" data-item-order="2" transform="translate(192.3359375, 484.9986572265625)"><g id="cu_hz0k5416sydm-stroke" fill="none" stroke-linecap="round" stroke-linejoin="round" stroke-miterlimit="4" stroke="#3f3f3f" stroke-width="1" stroke-opacity="1"><style>.fillAsStrokeColor-mk-1hbca2g16sydk { fill:#3f3f3f; }</style><g><path d="M 10 82L 24 82L 38 82L 38 46L 38 10L 52 10L 63.17 10"></path><path d="M 64.6 10L 59.6 12.8L 59.6 7.2Z" stroke-dasharray="none" class="fillAsStrokeColor-mk-1hbca2g16sydk" fill="#3f3f3f"></path></g></g></g><g id="g-root-cu_qu13aw16szym-fill" data-item-order="2" transform="translate(426.6719055175781, 484.9986572265625)"></g><g id="g-root-cu_qu13aw16szym-stroke" data-item-order="2" transform="translate(426.6719055175781, 484.9986572265625)"><g id="cu_qu13aw16szym-stroke" fill="none" stroke-linecap="round" stroke-linejoin="round" stroke-miterlimit="4" stroke="#3f3f3f" stroke-width="1" stroke-opacity="1"><style>.fillAsStrokeColor-mk-1um6bco16szyb { fill:#3f3f3f; }</style><g><path d="M 10 10L 24 10L 38 10L 38 88L 38 166L 52 166L 63.17 166"></path><path d="M 64.6 166L 59.6 168.8L 59.6 163.2Z" stroke-dasharray="none" class="fillAsStrokeColor-mk-1um6bco16szyb" fill="#3f3f3f"></path></g></g></g><g id="g-root-cu_meu29k16sxl5-fill" data-item-order="2" transform="translate(426.6719055175781, 484.9986572265625)"></g><g id="g-root-cu_meu29k16sxl5-stroke" data-item-order="2" transform="translate(426.6719055175781, 484.9986572265625)"><g id="cu_meu29k16sxl5-stroke" fill="none" stroke-linecap="round" stroke-linejoin="round" stroke-miterlimit="4" stroke="#3f3f3f" stroke-width="1" stroke-opacity="1"><style>.fillAsStrokeColor-mk-djtp8p2nj0h { fill:#3f3f3f; }</style><g><path d="M 10 10L 24 10L 38 10L 38 27.8L 38 45.5L 52 45.5L 63.17 45.5"></path><path d="M 64.6 45.5L 59.6 48.3L 59.6 42.7Z" stroke-dasharray="none" class="fillAsStrokeColor-mk-djtp8p2nj0h" fill="#3f3f3f"></path></g></g></g><g id="g-root-cu_meu29k16sxl9-fill" data-item-order="2" transform="translate(192.3359375, 556.9967041015625)"></g><g id="g-root-cu_meu29k16sxl9-stroke" data-item-order="2" transform="translate(192.3359375, 556.9967041015625)"><g id="cu_meu29k16sxl9-stroke" fill="none" stroke-linecap="round" stroke-linejoin="round" stroke-miterlimit="4" stroke="#3f3f3f" stroke-width="1" stroke-opacity="1"><style>.fillAsStrokeColor-mk-1hbca2g16sydj { fill:#3f3f3f; }</style><g><path d="M 10 10L 24 10L 38 10L 38 58L 38 106L 52 106L 63.17 106"></path><path d="M 64.6 106L 59.6 108.8L 59.6 103.2Z" stroke-dasharray="none" class="fillAsStrokeColor-mk-1hbca2g16sydj" fill="#3f3f3f"></path></g></g></g></g></g></svg>