<?xml version="1.0" encoding="utf-8" standalone="yes"?>
<!DOCTYPE svg PUBLIC "-//W3C//DTD SVG 1.1//EN" "http://www.w3.org/Graphics/SVG/1.1/DTD/svg11.dtd">
<svg style="fill:none;stroke:none;fill-rule:evenodd;clip-rule:evenodd;stroke-linecap:round;stroke-linejoin:round;stroke-miterlimit:1.5;" version="1.1" xmlns="http://www.w3.org/2000/svg" xmlns:xlink="http://www.w3.org/1999/xlink" width="724" height="660" viewBox="0 0 724 660"><style class="text-font-style fontImports" data-font-family="Roboto">@import url(https://fonts.googleapis.com/css2?family=Roboto:wght@400;700&amp;amp;display=block);</style><g id="items" style="isolation: isolate"><g id="blend" style="mix-blend-mode: normal"><g id="g-root-sy_4_cu_1ut229k1gy70s-fill" data-item-order="-140153" transform="translate(235.815185546875, 398.0089111328125)"></g><g id="g-root-sy_4_cu_1ut229k1gy70s-stroke" data-item-order="-140153" transform="translate(235.815185546875, 398.0089111328125)"><g id="sy_4_cu_1ut229k1gy70s-stroke" fill="none" stroke-linecap="round" stroke-linejoin="round" stroke-miterlimit="4" stroke="#3f3f3f" stroke-width="1" stroke-opacity="1"><g><path d="M 249.119969 24.385875C 234.653969 30.568875 218.726969 33.990875 201.999969 33.990875C 174.984969 33.990875 150.055969 25.063875 129.999969 9.999875C 109.943969 25.063875 85.014969 33.990875 57.999969 33.990875C 41.272969 33.990875 25.345969 30.568875 10.879969 24.385875C 10.298969 29.172875 9.999969 34.046875 9.999969 38.990875C 9.999969 105.264875 63.725969 158.990875 129.999969 158.990875C 196.273969 158.990875 249.999969 105.264875 249.999969 38.990875C 249.999969 34.046875 249.700969 29.172875 249.119969 24.385875Z"></path></g></g></g><g id="g-root-sy_3_cu_1qdv1881gy4n9-fill" data-item-order="-140149" transform="translate(355.815185546875, 182)"></g><g id="g-root-sy_3_cu_1qdv1881gy4n9-stroke" data-item-order="-140149" transform="translate(355.815185546875, 182)"><g id="sy_3_cu_1qdv1881gy4n9-stroke" fill="none" stroke-linecap="round" stroke-linejoin="round" stroke-miterlimit="4" stroke="#3f3f3f" stroke-width="1" stroke-opacity="1"><g><path d="M 57.12 144.605C 57.701 139.818 58 134.944 58 130C 58 90.74 39.147 55.884 10 33.991C 30.056 18.927 54.985 10 82 10C 148.274 10 202 63.726 202 130C 202 179.547 171.971 222.081 129.12 240.395C 123.88 197.206 95.696 161.091 57.12 144.605Z"></path></g></g></g><g id="g-root-sy_1_cu_1qdv1881gy4na-fill" data-item-order="-140145" transform="translate(163.81515502929688, 182)"></g><g id="g-root-sy_1_cu_1qdv1881gy4na-stroke" data-item-order="-140145" transform="translate(163.81515502929688, 182)"><g id="sy_1_cu_1qdv1881gy4na-stroke" fill="none" stroke-linecap="round" stroke-linejoin="round" stroke-miterlimit="4" stroke="#3f3f3f" stroke-width="1" stroke-opacity="1"><g><path d="M 154.88 144.605C 154.299 139.818 154 134.944 154 130C 154 90.74 172.853 55.884 202 33.991C 181.944 18.927 157.015 10 130 10C 63.726 10 10 63.726 10 130C 10 179.547 40.029 222.081 82.88 240.395C 88.12 197.206 116.304 161.091 154.88 144.605Z"></path></g></g></g><g id="g-root-sy_7_cu_1hi80zc1gy5fz-fill" data-item-order="-140141" transform="translate(236.69515991210938, 316.60498046875)"></g><g id="g-root-sy_7_cu_1hi80zc1gy5fz-stroke" data-item-order="-140141" transform="translate(236.69515991210938, 316.60498046875)"><g id="sy_7_cu_1hi80zc1gy5fz-stroke" fill="none" stroke-linecap="round" stroke-linejoin="round" stroke-miterlimit="4" stroke="#3f3f3f" stroke-width="1" stroke-opacity="1"><g><path d="M 81.999995 9.999989C 43.423995 26.485989 15.239995 62.600989 9.999995 105.789989C 24.465995 111.972989 40.392995 115.394989 57.119995 115.394989C 84.134995 115.394989 109.063995 106.467989 129.119995 91.403989C 103.643995 72.267989 86.030995 43.227989 81.999995 9.999989Z"></path></g></g></g><g id="g-root-sy_6_cu_1d2eiuw1gy688-fill" data-item-order="-140137" transform="translate(355.815185546875, 316.60498046875)"></g><g id="g-root-sy_6_cu_1d2eiuw1gy688-stroke" data-item-order="-140137" transform="translate(355.815185546875, 316.60498046875)"><g id="sy_6_cu_1d2eiuw1gy688-stroke" fill="none" stroke-linecap="round" stroke-linejoin="round" stroke-miterlimit="4" stroke="#3f3f3f" stroke-width="1" stroke-opacity="1"><g><path d="M 57.12 9.999989C 53.089 43.227989 35.476 72.267989 10 91.403989C 30.056 106.467989 54.985 115.394989 82 115.394989C 98.727 115.394989 114.654 111.972989 129.12 105.789989C 123.88 62.600989 95.696 26.485989 57.12 9.999989Z"></path></g></g></g><g id="g-root-sy_2_cu_1d2eiuw1gy689-fill" data-item-order="-140133" transform="translate(307.815185546875, 205.990966796875)"></g><g id="g-root-sy_2_cu_1d2eiuw1gy689-stroke" data-item-order="-140133" transform="translate(307.815185546875, 205.990966796875)"><g id="sy_2_cu_1d2eiuw1gy689-stroke" fill="none" stroke-linecap="round" stroke-linejoin="round" stroke-miterlimit="4" stroke="#3f3f3f" stroke-width="1" stroke-opacity="1"><g><path d="M 105.119969 120.614003C 105.700969 115.827003 105.999969 110.953003 105.999969 106.009003C 105.999969 66.749003 87.146969 31.893003 57.999969 10.000003C 28.852969 31.893003 9.999969 66.749003 9.999969 106.009003C 9.999969 110.953003 10.298969 115.827003 10.879969 120.614003C 25.345969 114.431003 41.272969 111.009003 57.999969 111.009003C 74.726969 111.009003 90.653969 114.431003 105.119969 120.614003Z"></path></g></g></g><g id="g-root-sy_5_cu_18ml0qg1gy70i-fill" data-item-order="-140129" transform="translate(308.6951904296875, 307)"></g><g id="g-root-sy_5_cu_18ml0qg1gy70i-stroke" data-item-order="-140129" transform="translate(308.6951904296875, 307)"><g id="sy_5_cu_18ml0qg1gy70i-stroke" fill="none" stroke-linecap="round" stroke-linejoin="round" stroke-miterlimit="4" stroke="#3f3f3f" stroke-width="1" stroke-opacity="1"><g><path d="M 104.239965 19.605C 100.207965 52.833 82.595965 81.873 57.119965 101.009C 31.643965 81.873 14.030965 52.833 9.999965 19.605C 24.465965 13.422 40.392965 10 57.119965 10C 73.846965 10 89.773965 13.422 104.239965 19.605Z"></path></g></g></g><g id="g-root-tx_thesyner_hs6ayg1gzkld-fill" data-item-order="0" transform="translate(55.403717041015625, 38)"><g id="tx_thesyner_hs6ayg1gzkld-fill-merged" stroke="none" fill="#3f3f3f" fill-opacity="1"><g><text style="font: bold 25px Roboto, sans-serif; white-space: pre;" transform="translate(310.4114685058594, 40)" font-weight="bold" font-size="25px" font-family="Roboto, sans-serif"><tspan x="-298.41" y="0" dominant-baseline="ideographic">The Synergy of Data, Content, and Communication in </tspan><tspan x="-63.13" y="30" dominant-baseline="ideographic">AI Security</tspan></text></g></g></g><g id="g-root-tx_thesyner_hs6ayg1gzkld-stroke" data-item-order="0" transform="translate(55.403717041015625, 38)"></g><g id="g-root-tx_datadriv_mg3z7c1gy68c-fill" data-item-order="0" transform="translate(262.3633728027344, 152)"><g id="tx_datadriv_mg3z7c1gy68c-fill-merged" stroke="none" fill="#3f3f3f" fill-opacity="1"><g><text style="font: 15px Roboto, sans-serif; white-space: pre;" transform="translate(103.45181274414062, 19)" font-size="15px" font-family="Roboto, sans-serif"><tspan x="-91.45" y="8.5" dominant-baseline="ideographic">Data-Driven Misinformation</tspan></text></g></g></g><g id="g-root-tx_datadriv_mg3z7c1gy68c-stroke" data-item-order="0" transform="translate(262.3633728027344, 152)"></g><g id="g-root-ic_lock_1um5iwo1qs5xj-fill" data-item-order="0" transform="translate(223.81515502929688, 254)"></g><g id="g-root-ic_lock_1um5iwo1qs5xj-stroke" data-item-order="0" transform="translate(223.81515502929688, 254)"><g id="ic_lock_1um5iwo1qs5xj-stroke" fill="none" stroke-linecap="round" stroke-linejoin="round" stroke-miterlimit="4" stroke="#3f3f3f" stroke-width="1" stroke-opacity="1"><g><path d="M 35.526001 45.495998L 15.378 45.495998C 13.069907 45.493793 11.199999 43.622093 11.2 41.314003L 11.2 15.182C 11.199999 12.873906 13.069907 11.002208 15.378 11L 46.737999 11C 49.046875 11.001104 50.918003 12.873126 50.918003 15.182L 50.917999 27.854M 11.196 19.166L 50.917999 19.166M 11.196 36.515999L 35.526001 36.515999M 11.196 27.854L 50.917999 27.854M 27.42 19.166L 27.42 45.495998M 39.052002 19.166L 39.052002 33.206001M 39.672001 45.104C 39.671997 43.461506 41.003502 42.130001 42.646 42.130001L 53.830002 42.130001C 55.470932 42.132206 56.799999 43.463066 56.799999 45.104L 56.799999 54.026001C 56.799999 55.666935 55.470932 56.997791 53.829998 57L 42.646 57C 41.003502 57 39.671997 55.668495 39.671997 54.026001ZM 48.237999 33.200001L 48.237999 33.200001C 45.019161 33.266701 42.463272 35.929119 42.528 39.147999L 42.528 42.124001L 53.948002 42.124001L 53.948002 39.153999C 54.01609 35.9328 51.459229 33.266678 48.237999 33.199997ZM 48.237999 47.481998C 47.359489 47.446079 46.547329 47.94772 46.186138 48.749352C 45.824951 49.550987 45.987244 50.49168 46.596161 51.125946C 47.205082 51.760212 48.138378 51.960716 48.954067 51.6325C 49.76976 51.304287 50.304085 50.513248 50.304001 49.634003C 50.327431 48.469349 49.40263 47.506054 48.237999 47.481998L 48.237999 47.481998"></path></g></g></g><g id="g-root-ic_stat_1hgbabc1qpc7g-fill" data-item-order="0" transform="translate(331.815185546875, 242)"></g><g id="g-root-ic_stat_1hgbabc1qpc7g-stroke" data-item-order="0" transform="translate(331.815185546875, 242)"><g id="ic_stat_1hgbabc1qpc7g-stroke" fill="none" stroke-linecap="round" stroke-linejoin="round" stroke-miterlimit="4" stroke="#3f3f3f" stroke-width="1" stroke-opacity="1"><g><path d="M 56.240002 11.504L 11.248 56.495998M 41.414001 34L 41.414001 54.962002C 41.409595 56.088852 40.494858 57.000011 39.368 57L 20.452 57M 17.894001 49.849998L 17.894001 13.038C 17.898407 11.911151 18.813143 10.999991 19.940001 11L 39.368 11C 40.497974 11 41.414001 11.916025 41.414001 13.046L 41.414001 26.33M 17.894001 29.398001L 38.346001 29.398001M 47.548 29.91L 47.548 47.799999C 47.548477 49.494072 48.921925 50.867138 50.616001 50.867138C 52.310074 50.867138 53.683525 49.494072 53.683998 47.799999L 53.683998 35.534C 53.68383 33.53244 54.276035 31.575598 55.386002 29.91L 56.751999 27.864M 53.683998 35.534L 56.751999 35.534M 24.836 17.993999L 34.472 17.993999M 24.836 22.778L 34.472 22.778M 34.826 39.458C 36.496368 41.933731 36.177647 45.246052 34.065849 47.357849C 31.954052 49.469646 28.641731 49.788368 26.166 48.118"></path></g></g></g><g id="g-root-ic_2_18i6dq01qnw1y-fill" data-item-order="0" transform="translate(439.815185546875, 254)"></g><g id="g-root-ic_2_18i6dq01qnw1y-stroke" data-item-order="0" transform="translate(439.815185546875, 254)"><g id="ic_2_18i6dq01qnw1y-stroke" fill="none" stroke-linecap="round" stroke-linejoin="round" stroke-miterlimit="4" stroke="#3f3f3f" stroke-width="1" stroke-opacity="1"><g><path d="M 14.74 29.6L 30.780001 29.6C 30.780001 29.6 33.779999 29.6 33.779999 32.599998L 33.779999 44C 33.779999 44 33.779999 47 30.780001 47L 14.74 47C 14.74 47 11.74 47 11.74 44L 11.74 32.599998C 11.74 32.599998 11.74 29.6 14.74 29.6M 14.639999 29.648001L 14.639999 26.120001C 14.639999 21.635448 18.275448 18 22.76 18C 27.244553 18 30.879999 21.635448 30.879999 26.120001L 30.879999 29.648001M 19.279999 38.299999L 21.6 40.620003L 26.24 35.98M 44.259998 18C 44.260002 21.313709 46.946293 24 50.260002 24C 53.573711 24 56.260002 21.313709 56.260002 18C 56.260002 14.686292 53.573711 12 50.260002 12C 46.946293 12 44.260002 14.686292 44.260002 18M 44.259998 50C 44.260002 53.313709 46.946293 56 50.260002 56C 53.573711 56 56.260002 53.313709 56.260002 50C 56.260002 46.686295 53.573711 44 50.260002 44C 46.946293 44 44.260002 46.686295 44.260002 50M 44.259998 21L 37.260002 25M 44.259998 48L 38.260002 45"></path></g></g></g><g id="g-root-tx_privated_v30c8o1gzm68-fill" data-item-order="0" transform="translate(14.000030517578125, 269)"><g id="tx_privated_v30c8o1gzm68-fill-merged" stroke="none" fill="#3f3f3f" fill-opacity="1"><g><text style="font: 15px Roboto, sans-serif; white-space: pre;" transform="translate(147.81512451171875, 19)" font-size="15px" font-family="Roboto, sans-serif"><tspan x="-135.82" y="8.5" dominant-baseline="ideographic">Private Data Access</tspan></text></g></g></g><g id="g-root-tx_privated_v30c8o1gzm68-stroke" data-item-order="0" transform="translate(14.000030517578125, 269)"></g><g id="g-root-tx_untruste_zrkhko1gy4nf-fill" data-item-order="0" transform="translate(559.815185546875, 260.0025634765625)"><g id="tx_untruste_zrkhko1gy4nf-fill-merged" stroke="none" fill="#3f3f3f" fill-opacity="1"><g><text style="font: 15px Roboto, sans-serif; white-space: pre;" transform="translate(10, 27.9974365234375)" font-size="15px" font-family="Roboto, sans-serif"><tspan x="2" y="-0.5" dominant-baseline="ideographic">Untrusted Content </tspan><tspan x="2" y="17.5" dominant-baseline="ideographic">Processing</tspan></text></g></g></g><g id="g-root-tx_untruste_zrkhko1gy4nf-stroke" data-item-order="0" transform="translate(559.815185546875, 260.0025634765625)"></g><g id="g-root-ic_lock_qoegvs1qjpxe-fill" data-item-order="0" transform="translate(331.815185546875, 320)"></g><g id="g-root-ic_lock_qoegvs1qjpxe-stroke" data-item-order="0" transform="translate(331.815185546875, 320)"><g id="ic_lock_qoegvs1qjpxe-stroke" fill="none" stroke-linecap="round" stroke-linejoin="round" stroke-miterlimit="4" stroke="#3f3f3f" stroke-width="1" stroke-opacity="1"><g><path d="M 49.950001 40.5L 49.950001 43.5M 49.950001 49.5L 49.950001 51C 49.950001 52.656857 48.606857 54 46.950001 54L 45.450001 54M 39.450001 54L 34.950001 54M 17.950001 30L 17.950001 26.5M 17.950001 20.5L 17.950001 19C 17.950001 17.343145 19.293146 16 20.950001 16L 22.450001 16M 28.450001 16L 32.950001 16M 13.498 42C 13.498 45.313709 16.184292 48 19.498001 48C 22.811708 48 25.498001 45.313709 25.498001 42C 25.498001 38.686295 22.811708 36 19.498001 36C 16.184292 36 13.498 38.686295 13.498 42M 27.950001 57C 26.69569 53.406631 23.305992 50.999577 19.5 50.999577C 15.694006 50.999577 12.304309 53.406631 11.05 57M 41.950001 19L 53.950001 19C 53.950001 19 56.950001 19 56.950001 22L 56.950001 31C 56.950001 31 56.950001 34 53.950001 34L 41.950001 34C 41.950001 34 38.950001 34 38.950001 31L 38.950001 22C 38.950001 22 38.950001 19 41.950001 19M 47.950001 11L 47.950001 11C 44.636292 11 41.950001 13.686292 41.950001 17L 41.950001 19L 53.950001 19L 53.950001 17C 53.950001 13.686292 51.26371 11 47.950001 11ZM 47.950001 25.799999C 48.364216 25.799999 48.700001 26.135786 48.700001 26.550001C 48.700001 26.964214 48.364216 27.300001 47.950001 27.300001C 47.535786 27.300001 47.200001 26.964214 47.200001 26.550001C 47.200001 26.135786 47.535786 25.799999 47.950001 25.799999L 47.950001 25.799999"></path></g></g></g><g id="g-root-ic_1_1use9rs1ql3b4-fill" data-item-order="0" transform="translate(259.8151550292969, 362)"></g><g id="g-root-ic_1_1use9rs1ql3b4-stroke" data-item-order="0" transform="translate(259.8151550292969, 362)"><g id="ic_1_1use9rs1ql3b4-stroke" fill="none" stroke-linecap="round" stroke-linejoin="round" stroke-miterlimit="4" stroke="#3f3f3f" stroke-width="1" stroke-opacity="1"><g><path d="M 36 38L 33 38L 25 46L 25 38L 24 38C 16.828506 37.980225 11.019777 32.171494 11 25C 11 17.852001 16.85 11 24 11L 40 11C 47.150002 11 53 17.852001 53 25C 53.003578 26.71669 52.663567 28.416739 52 30M 41 41.001999L 55 41.001999C 55 41.001999 57 41.001999 57 43.001999L 57 55C 57 55 57 57 55 57L 41 57C 41 57 39 57 39 55L 39 43.001999C 39 43.001999 39 41.001999 41 41.001999M 45.5 49.125999C 45.5 50.506714 46.619289 51.625999 48 51.625999C 49.380711 51.625999 50.5 50.506714 50.5 49.125999C 50.5 47.745289 49.380711 46.625999 48 46.625999C 46.619289 46.625999 45.5 47.745289 45.5 49.125999M 53 38C 53 35.238579 50.761425 33 48 33C 45.238575 33 43 35.238579 43 38L 43 41L 53 41Z"></path></g></g></g><g id="g-root-ic_ques_94m5fc1qfim9-fill" data-item-order="0" transform="translate(403.815185546875, 362)"></g><g id="g-root-ic_ques_94m5fc1qfim9-stroke" data-item-order="0" transform="translate(403.815185546875, 362)"><g id="ic_ques_94m5fc1qfim9-stroke" fill="none" stroke-linecap="round" stroke-linejoin="round" stroke-miterlimit="4" stroke="#3f3f3f" stroke-width="1" stroke-opacity="1"><g><path d="M 13.796 45L 29.002001 45M 15.024 21L 52.992001 21M 32.001999 33L 11.022 33M 32.756001 56.967999C 20.755787 56.303814 11.290157 46.512341 11.032346 34.496521C 10.774534 22.480709 19.811474 12.29224 31.772156 11.11395C 43.732838 9.935659 54.584167 18.16486 56.676003 30M 32.538002 11.052C 20.538 24.052 20.756001 40.968002 32.756001 56.967999M 35.459999 11.052C 39.941879 15.717068 42.917374 21.62207 44.000004 28.000002M 33 45C 33 51.627419 38.372581 57 45 57C 51.627419 57 57 51.627419 57 45C 57 38.372581 51.627419 33 45 33C 38.372581 33 33 38.372581 33 45ZM 41.25 42.084C 41.25 40.012932 42.928932 38.334 45 38.334C 47.071068 38.334 48.75 40.012932 48.75 42.084003C 48.75 44.155071 47.071068 45.834003 45 45.834003L 45 47.834M 45 51.834C 45.276142 51.834 45.5 52.057858 45.5 52.334C 45.5 52.610142 45.276142 52.834 45 52.834C 44.723858 52.834 44.5 52.610142 44.5 52.334C 44.5 52.057858 44.723858 51.834 45 51.834"></path></g></g></g><g id="g-root-tx_dataleak_4pgfso1gy5fp-fill" data-item-order="0" transform="translate(132.44534301757812, 410.0001220703125)"><g id="tx_dataleak_4pgfso1gy5fp-fill-merged" stroke="none" fill="#3f3f3f" fill-opacity="1"><g><text style="font: 15px Roboto, sans-serif; white-space: pre;" transform="translate(101.36981201171875, 27.9974365234375)" font-size="15px" font-family="Roboto, sans-serif"><tspan x="-89.37" y="-0.5" dominant-baseline="ideographic">Data-Leaking </tspan><tspan x="-81.17" y="17.5" dominant-baseline="ideographic">Interactions</tspan></text></g></g></g><g id="g-root-tx_dataleak_4pgfso1gy5fp-stroke" data-item-order="0" transform="translate(132.44534301757812, 410.0001220703125)"></g><g id="g-root-tx_maliciou_1hjgz5k1gy7m6-fill" data-item-order="0" transform="translate(487.815185546875, 410.0001220703125)"><g id="tx_maliciou_1hjgz5k1gy7m6-fill-merged" stroke="none" fill="#3f3f3f" fill-opacity="1"><g><text style="font: 15px Roboto, sans-serif; white-space: pre;" transform="translate(10, 27.9974365234375)" font-size="15px" font-family="Roboto, sans-serif"><tspan x="2" y="-0.5" dominant-baseline="ideographic">Malicious Content </tspan><tspan x="2" y="17.5" dominant-baseline="ideographic">Propagation</tspan></text></g></g></g><g id="g-root-tx_maliciou_1hjgz5k1gy7m6-stroke" data-item-order="0" transform="translate(487.815185546875, 410.0001220703125)"></g><g id="g-root-ic_mess_4gpsl41gzm6a-fill" data-item-order="0" transform="translate(331.815185546875, 446)"></g><g id="g-root-ic_mess_4gpsl41gzm6a-stroke" data-item-order="0" transform="translate(331.815185546875, 446)"><g id="ic_mess_4gpsl41gzm6a-stroke" fill="none" stroke-linecap="round" stroke-linejoin="round" stroke-miterlimit="4" stroke="#3f3f3f" stroke-width="1" stroke-opacity="1"><g><path d="M 55.400002 25.1L 14.4 25.1M 55.400002 41.099998L 14.4 41.099998M 40 54.48C 42.880001 50.099998 44.82 42.16 44.82 33.099998C 44.82 24.040001 42.959999 16.1 40 11.72M 29.719999 54.48C 26.82 50.099998 24.9 42.16 24.9 33.099998C 24.9 24.040001 26.9 16.1 29.719999 11.72M 11.2 55.459999L 16.18 44.66C 10.314265 35.160789 12.493597 22.774128 21.249332 15.847445C 30.005068 8.920761 42.560799 9.65048 50.455162 17.544842C 58.349522 25.439201 59.079239 37.994934 52.152557 46.750668C 45.225872 55.506405 32.839211 57.685738 23.34 51.82L 12.54 56.799999C 12.155515 56.990494 11.692357 56.914463 11.388947 56.611053C 11.085535 56.307644 11.009508 55.844486 11.2 55.459999Z"></path></g></g></g><g id="g-root-tx_external_13ynchk1gzklr-fill" data-item-order="0" transform="translate(271.8360290527344, 554)"><g id="tx_external_13ynchk1gzklr-fill-merged" stroke="none" fill="#3f3f3f" fill-opacity="1"><g><text style="font: 15px Roboto, sans-serif; white-space: pre;" transform="translate(93.97915649414062, 19)" font-size="15px" font-family="Roboto, sans-serif"><tspan x="-81.98" y="8.5" dominant-baseline="ideographic">External Communication</tspan></text></g></g></g><g id="g-root-tx_external_13ynchk1gzklr-stroke" data-item-order="0" transform="translate(271.8360290527344, 554)"></g></g></g></svg>