<?xml version="1.0" encoding="utf-8" standalone="yes"?>
<!DOCTYPE svg PUBLIC "-//W3C//DTD SVG 1.1//EN" "http://www.w3.org/Graphics/SVG/1.1/DTD/svg11.dtd">
<svg style="fill:none;stroke:none;fill-rule:evenodd;clip-rule:evenodd;stroke-linecap:round;stroke-linejoin:round;stroke-miterlimit:1.5;" version="1.1" xmlns="http://www.w3.org/2000/svg" xmlns:xlink="http://www.w3.org/1999/xlink" width="667" height="654" viewBox="0 0 667 654"><style class="text-font-style fontImports" data-font-family="Roboto">@import url(https://fonts.googleapis.com/css2?family=Roboto:wght@400;700&amp;amp;display=block);</style><g id="items" style="isolation: isolate"><g id="blend" style="mix-blend-mode: normal"><g id="g-root-sy_4_cu_cu_1hegapl2nle5-fill" data-item-order="-109007" transform="translate(396.68231201171875, 357.351806640625)"></g><g id="g-root-sy_4_cu_cu_1hegapl2nle5-stroke" data-item-order="-109007" transform="translate(396.68231201171875, 357.351806640625)"><g id="sy_4_cu_cu_1hegapl2nle5-stroke" fill="none" stroke-linecap="round" stroke-linejoin="round" stroke-miterlimit="4" stroke="#3f3f3f" stroke-width="1" stroke-opacity="1"><g><path d="M 10 103.7652C 33.297301 99.300501 57.6155 95.773501 82.7263 93.0966C 89.353701 93.0966 94.7263 76.8785 94.7263 56.872501C 94.7263 36.866401 89.353701 20.648301 82.7263 20.648301C 57.653501 17.975401 33.370901 14.4551 10.1058 10L 10.9194 10.2599C 17.576001 13.1581 22.726201 32.919499 22.726201 56.866301C 22.726201 80.898501 17.539301 100.7154 10.8481 103.503101L 10 103.7652Z"></path></g></g></g><g id="g-root-sy_4_line_1cz99o92nj0m-fill" data-item-order="-109003" transform="translate(433.40887451171875, 445.052978515625)"></g><g id="g-root-sy_4_line_1cz99o92nj0m-stroke" data-item-order="-109003" transform="translate(433.40887451171875, 445.052978515625)"><g id="sy_4_line_1cz99o92nj0m-stroke" fill="none" stroke-linecap="round" stroke-linejoin="round" stroke-miterlimit="4" stroke="#3f3f3f" stroke-width="1" stroke-opacity="1"><style>.fillAsStrokeColor-mk-v98115cye4j { fill:#3f3f3f; }</style><g><path d="M 10 12.83L 10 40.95"></path><path d="M 10 11.4L 12.8 16.4L 7.2 16.4Z" stroke-dasharray="none" class="fillAsStrokeColor-mk-v98115cye4j" fill="#3f3f3f"></path></g></g></g><g id="g-root-sy_3_cu_cu_qs5r212nle7-fill" data-item-order="-108999" transform="translate(323.33465576171875, 338.998779296875)"></g><g id="g-root-sy_3_cu_cu_qs5r212nle7-stroke" data-item-order="-108999" transform="translate(323.33465576171875, 338.998779296875)"><g id="sy_3_cu_cu_qs5r212nle7-stroke" fill="none" stroke-linecap="round" stroke-linejoin="round" stroke-miterlimit="4" stroke="#3f3f3f" stroke-width="1" stroke-opacity="1"><g><path d="M 10 140.5245C 32.9898 133.1592 57.5424 127.0634 83.3475 122.1181L 84.1958 121.8561C 90.8869 119.0685 96.0739 99.2516 96.0739 75.2194C 96.0739 51.2726 90.9237 31.5111 84.267 28.613L 83.4533 28.3529C 57.6957 23.4205 33.1853 17.3424 10.2305 10L 10.9277 10.2271C 18.3462 14.1622 24.0735 41.7837 24.0735 75.103C 24.0735 108.6372 18.3473 136.5934 10.8594 140.2476L 10 140.5245Z"></path></g></g></g><g id="g-root-sy_3_line_mcyq0p2nj0o-fill" data-item-order="-108995" transform="translate(361.40887451171875, 295.999755859375)"></g><g id="g-root-sy_3_line_mcyq0p2nj0o-stroke" data-item-order="-108995" transform="translate(361.40887451171875, 295.999755859375)"><g id="sy_3_line_mcyq0p2nj0o-stroke" fill="none" stroke-linecap="round" stroke-linejoin="round" stroke-miterlimit="4" stroke="#3f3f3f" stroke-width="1" stroke-opacity="1"><style>.fillAsStrokeColor-mk-mdl0s9cyex8 { fill:#3f3f3f; }</style><g><path d="M 10 10L 10 60.77"></path><path d="M 10 62.2L 7.2 57.2L 12.8 57.2Z" stroke-dasharray="none" class="fillAsStrokeColor-mk-mdl0s9cyex8" fill="#3f3f3f"></path></g></g></g><g id="g-root-sy_2_cu_cu_hx57w92njsx-fill" data-item-order="-108991" transform="translate(250.42837524414062, 308.151123046875)"></g><g id="g-root-sy_2_cu_cu_hx57w92njsx-stroke" data-item-order="-108991" transform="translate(250.42837524414062, 308.151123046875)"><g id="sy_2_cu_cu_hx57w92njsx-stroke" fill="none" stroke-linecap="round" stroke-linejoin="round" stroke-miterlimit="4" stroke="#3f3f3f" stroke-width="1" stroke-opacity="1"><g><path d="M 10.0608 202.1131C 31.9453 190.0548 56.3858 179.8689 82.9059 171.3724L 83.7656 171.0952C 91.2535 167.441 96.9798 139.4849 96.9798 105.9507C 96.9798 72.6314 91.2525 45.0099 83.834 41.0747L 83.1364 40.8479C 56.5028 32.3288 31.9634 22.1079 10 10L 10.6127 10.3488C 18.7295 16.396 24.9797 56.9585 24.9797 106.0054C 24.9797 155.1719 18.7741 195.9028 10.6285 201.7964L 10.0608 202.1131Z"></path></g></g></g><g id="g-root-sy_2_line_91i7nd2nklm-fill" data-item-order="-108987" transform="translate(289.4088439941406, 482.000732421875)"></g><g id="g-root-sy_2_line_91i7nd2nklm-stroke" data-item-order="-108987" transform="translate(289.4088439941406, 482.000732421875)"><g id="sy_2_line_91i7nd2nklm-stroke" fill="none" stroke-linecap="round" stroke-linejoin="round" stroke-miterlimit="4" stroke="#3f3f3f" stroke-width="1" stroke-opacity="1"><style>.fillAsStrokeColor-mk-mdl0s9cyex9 { fill:#3f3f3f; }</style><g><path d="M 10 12.83L 10 64.16"></path><path d="M 10 11.4L 12.8 16.4L 7.2 16.4Z" stroke-dasharray="none" class="fillAsStrokeColor-mk-mdl0s9cyex9" fill="#3f3f3f"></path></g></g></g><g id="g-root-sy_1_cu_4lopix2nldv-fill" data-item-order="-108983" transform="translate(157.40887451171875, 248.224365234375)"></g><g id="g-root-sy_1_cu_4lopix2nldv-stroke" data-item-order="-108983" transform="translate(157.40887451171875, 248.224365234375)"><g id="sy_1_cu_4lopix2nldv-stroke" fill="none" stroke-linecap="round" stroke-linejoin="round" stroke-miterlimit="4" stroke="#3f3f3f" stroke-width="1" stroke-opacity="1"><g><path d="M 9.999969 166C 9.999969 252.156423 18.058844 322.000002 27.999969 322.000002C 37.941095 322.000002 45.999969 252.156423 45.999969 166.000002C 45.999969 79.843581 37.941095 10.000002 27.999969 10.000002C 18.058844 10.000002 9.999969 79.843581 9.999969 166.000002M 30.074188 320.97261C 46.413488 301.16501 71.289188 279.13801 103.506088 261.89621C 110.763288 256.38241 118.000488 223.07031 118.000488 166.01021C 118.000488 108.75101 110.388088 73.68591 102.969288 69.74051C 68.386688 51.34911 43.199288 27.21381 30.096388 11.04541"></path></g></g></g><g id="g-root-sy_1_line_1qbyq7t2njlw-fill" data-item-order="-108979" transform="translate(217.40884399414062, 223.750244140625)"></g><g id="g-root-sy_1_line_1qbyq7t2njlw-stroke" data-item-order="-108979" transform="translate(217.40884399414062, 223.750244140625)"><g id="sy_1_line_1qbyq7t2njlw-stroke" fill="none" stroke-linecap="round" stroke-linejoin="round" stroke-miterlimit="4" stroke="#3f3f3f" stroke-width="1" stroke-opacity="1"><style>.fillAsStrokeColor-mk-mdl0s9cyexa { fill:#3f3f3f; }</style><g><path d="M 10 10L 10 70.4"></path><path d="M 10 71.8L 7.2 66.9L 12.8 66.9Z" stroke-dasharray="none" class="fillAsStrokeColor-mk-mdl0s9cyexa" fill="#3f3f3f"></path></g></g></g><g id="g-root-tx_dataexfi_1hgbpyx2nkel-fill" data-item-order="0" transform="translate(186.4453125, 38.000244140625)"><g id="tx_dataexfi_1hgbpyx2nkel-fill-merged" stroke="none" fill="#3f3f3f" fill-opacity="1"><g><text style="font: bold 25px Roboto, sans-serif; white-space: pre;" transform="translate(142.96356201171875, 25)" font-weight="bold" font-size="25px" font-family="Roboto, sans-serif"><tspan x="-130.96" y="15" dominant-baseline="ideographic">Data Exfiltration Funnel</tspan></text></g></g></g><g id="g-root-tx_dataexfi_1hgbpyx2nkel-stroke" data-item-order="0" transform="translate(186.4453125, 38.000244140625)"></g><g id="g-root-tx_normalht_1lu9su131m2o-fill" data-item-order="0" transform="translate(163.7421875, 176.005615234375)"><g id="tx_normalht_1lu9su131m2o-fill-merged" stroke="none" fill="#3f3f3f" fill-opacity="1"><g><text style="font: 15px Roboto, sans-serif; white-space: pre;" transform="translate(63.666656494140625, 27.997314453125)" font-size="15px" font-family="Roboto, sans-serif"><tspan x="-51.67" y="-0.5" dominant-baseline="ideographic">Normal HTTPS </tspan><tspan x="-22.72" y="17.5" dominant-baseline="ideographic">Traffic</tspan></text></g></g></g><g id="g-root-tx_normalht_1lu9su131m2o-stroke" data-item-order="0" transform="translate(163.7421875, 176.005615234375)"></g><g id="g-root-tx_edrlacks_zlxc1l31ma6-fill" data-item-order="0" transform="translate(294.1810302734375, 266.222900390625)"><g id="tx_edrlacks_zlxc1l31ma6-fill-merged" stroke="none" fill="#3f3f3f" fill-opacity="1"><g><text style="font: 15px Roboto, sans-serif; white-space: pre;" transform="translate(77.22784423828125, 19)" font-size="15px" font-family="Roboto, sans-serif"><tspan x="-65.23" y="8.5" dominant-baseline="ideographic">EDR Lacks Visibility</tspan></text></g></g></g><g id="g-root-tx_edrlacks_zlxc1l31ma6-stroke" data-item-order="0" transform="translate(294.1810302734375, 266.222900390625)"></g><g id="g-root-ic_chec_1lpwh892xekr-fill" data-item-order="0" transform="translate(205.40884399414062, 380.000244140625)"></g><g id="g-root-ic_chec_1lpwh892xekr-stroke" data-item-order="0" transform="translate(205.40884399414062, 380.000244140625)"><g id="ic_chec_1lpwh892xekr-stroke" fill="none" stroke-linecap="round" stroke-linejoin="round" stroke-miterlimit="4" stroke="#3f3f3f" stroke-width="1" stroke-opacity="1"><g><path d="M 45.900002 24.400139L 21.900021 24.400139L 21.900021 56.4002L 45.900002 56.4002L 45.900002 24.400139ZM 49.900002 35.5998L 56.299999 35.5998M 49.900002 43.5998L 56.299999 43.5998M 49.900002 51.5998L 54.299999 51.5998C 55.5 51.5998 56.299999 50.799801 56.299999 49.5998L 56.299999 29.599859C 56.299999 28.39986 55.5 27.599859 54.299999 27.599859L 49.900002 27.599859M 22.900021 34.999802L 45.900002 34.999802M 22.900021 45.999802L 45.900002 45.999802M 17.899981 35.5998L 11.5 35.5998M 17.899981 43.5998L 11.5 43.5998M 17.9 51.5998L 13.5 51.5998C 12.3 51.5998 11.5 50.799801 11.5 49.5998L 11.5 29.599859C 11.5 28.39986 12.3 27.599859 13.5 27.599859L 17.9 27.599859M 10 10M 30.9 13.59986L 33.900002 16.399839L 38.900002 11.599854"></path></g></g></g><g id="g-root-ic_assi_1d1r60p2t6h5-fill" data-item-order="0" transform="translate(277.4088439941406, 380.000244140625)"></g><g id="g-root-ic_assi_1d1r60p2t6h5-stroke" data-item-order="0" transform="translate(277.4088439941406, 380.000244140625)"><g id="ic_assi_1d1r60p2t6h5-stroke" fill="none" stroke-linecap="round" stroke-linejoin="round" stroke-miterlimit="4" stroke="#3f3f3f" stroke-width="1" stroke-opacity="1"><g><path d="M 43.6866 46.699799L 24.286659 46.699799C 22.88666 46.699799 21.88666 45.699799 21.88666 44.299801L 21.88666 41.699799C 21.88666 41.0998 22.08666 40.299801 22.686661 39.899799L 24.686661 38.299801L 43.286598 38.299801L 45.286598 39.899799C 45.8866 40.299801 46.086601 41.0998 46.086601 41.699799L 46.086601 44.299801C 46.086601 45.699799 45.086601 46.699799 43.6866 46.699799ZM 10 10M 24.78664 38.299999L 25.58662 31.9C 25.786621 30.700001 26.786619 29.8999 27.98662 29.8999L 39.986603 29.8999C 41.1866 29.8999 42.1866 30.700001 42.3866 31.9L 43.1866 38.299999M 41.1866 46.699799L 41.1866 50.299801M 26.786619 46.699799L 26.786619 50.299801M 10 10M 11.500128 56.299801L 18.7001 32.299801C 19.24556 30.448 18.142181 29.699699 16.7001 29.699699L 11.500128 29.699699M 10 10M 56.473202 56.299801L 49.273201 32.299801C 48.727798 30.448 49.831001 29.699699 51.273201 29.699699L 56.473202 29.699699M 23.700199 11.5C 18.5002 12.1 14.3002 16.1 13.9002 21.299999M 44.273201 11.5C 49.473202 12.1 53.673199 16.1 54.0732 21.299999M 19.3001 22.6999C 19.7001 19.6999 22.1001 17.2999 25.1001 16.8999M 48.673199 22.6999C 48.273201 19.6999 45.873199 17.2999 42.873199 16.8999"></path></g></g></g><g id="g-root-ic_netw_8wieyh2rrpc-fill" data-item-order="0" transform="translate(349.40887451171875, 380.000244140625)"></g><g id="g-root-ic_netw_8wieyh2rrpc-stroke" data-item-order="0" transform="translate(349.40887451171875, 380.000244140625)"><g id="ic_netw_8wieyh2rrpc-stroke" fill="none" stroke-linecap="round" stroke-linejoin="round" stroke-miterlimit="4" stroke="#3f3f3f" stroke-width="1" stroke-opacity="1"><g><path d="M 17.827999 17.827999L 20.038 21.563999M 11 15C 11 17.209139 12.790861 19 15 19C 17.209139 19 19 17.209139 19 15C 19 12.790861 17.209139 11 15 11C 12.790861 11 11 12.790861 11 15M 31 15C 31 17.209139 32.790863 19 35 19C 37.209137 19 39 17.209139 39 15C 39 12.790861 37.209137 11 35 11C 32.790863 11 31 12.790861 31 15M 31 53C 31 55.209141 32.790863 57 35 57C 37.209137 57 39 55.209141 39 53C 39 50.790859 37.209137 49 35 49C 32.790863 49 31 50.790859 31 53M 49 15C 49 17.209139 50.790859 19 53 19C 55.209141 19 57 17.209139 57 15C 57 12.790861 55.209141 11 53 11C 50.790859 11 49 12.790861 49 15M 49 53C 49 55.209141 50.790859 57 53 57C 55.209141 57 57 55.209141 57 53C 57 50.790859 55.209141 49 53 49C 50.790859 49 49 50.790859 49 53M 11 53C 11 55.209141 12.790861 57 15 57C 17.209139 57 19 55.209141 19 53C 19 50.790859 17.209139 49 15 49C 12.790861 49 11 50.790859 11 53M 17.827999 50.172001L 20.038 46.563999M 48.037998 21.563999L 50.174 17.826M 48.037998 46.563999L 50.172001 50.172001M 34.954002 48.563999L 34.954002 46.563999M 34.954002 21.563999L 34.954002 19.563999M 27.332001 42L 25.478001 42C 22.38912 41.619514 20.052441 39.021786 20 35.910004C 19.999359 34.25824 20.671223 32.677402 21.860872 31.531519C 23.050522 30.385635 24.655422 29.773474 26.306 29.836C 27.958582 26.306025 31.798494 24.350433 35.625381 25.089825C 39.452271 25.829218 42.287327 29.074478 42.506001 32.966C 43.85062 32.68689 45.249454 33.027802 46.314888 33.894264C 47.380322 34.760731 47.999187 36.060715 48 37.433998C 47.985985 38.694099 47.458279 39.89389 46.538971 40.755814C 45.619659 41.617741 44.38839 42.067123 43.130001 42L 27.33 42Z"></path></g></g></g><g id="g-root-ic_plur_me7o6x2nl6u-fill" data-item-order="0" transform="translate(421.40887451171875, 380.000244140625)"></g><g id="g-root-ic_plur_me7o6x2nl6u-stroke" data-item-order="0" transform="translate(421.40887451171875, 380.000244140625)"><g id="ic_plur_me7o6x2nl6u-stroke" fill="none" stroke-linecap="round" stroke-linejoin="round" stroke-miterlimit="4" stroke="#3f3f3f" stroke-width="1" stroke-opacity="1"><g><path d="M 33.529999 57L 33.529999 30.018M 27.534 37.012001L 27.534 54.001999L 22.538 54.001999L 22.538 57M 15.542 57L 15.542 48.006001L 21.538 48.006001L 21.538 40.010002M 39.526001 37.012001L 39.526001 54.001999L 44.523998 54.001999L 44.523998 57M 51.52 57L 51.52 48.006001L 45.523998 48.006001L 45.523998 40.010002M 49 37.400002C 53.181938 36.334152 56.08078 32.530869 56 28.216C 56.001884 25.619896 54.946335 23.134996 53.076595 21.333933C 51.206856 19.532869 48.684216 18.571007 46.089996 18.669998C 43.484447 13.139819 37.459858 10.081257 31.45772 11.241485C 25.45558 12.401712 21.004866 17.485176 20.647999 23.587999C 18.534271 23.143478 16.332771 23.675255 14.655016 25.035618C 12.977261 26.395981 12.00195 28.440035 12 30.6C 11.812469 33.933861 14.140068 36.884327 17.426001 37.478001"></path></g></g></g><g id="g-root-tx_enterpri_v7z96h31m2p-fill" data-item-order="0" transform="translate(13.999984741210938, 395.000244140625)"><g id="tx_enterpri_v7z96h31m2p-fill-merged" stroke="none" fill="#3f3f3f" fill-opacity="1"><g><text style="font: 15px Roboto, sans-serif; white-space: pre;" transform="translate(141.4088592529297, 19)" font-size="15px" font-family="Roboto, sans-serif"><tspan x="-129.41" y="8.5" dominant-baseline="ideographic">Enterprise Network</tspan></text></g></g></g><g id="g-root-tx_enterpri_v7z96h31m2p-stroke" data-item-order="0" transform="translate(13.999984741210938, 395.000244140625)"></g><g id="g-root-tx_trustbou_qp1dmh31lok-fill" data-item-order="0" transform="translate(493.40887451171875, 395.000244140625)"><g id="tx_trustbou_qp1dmh31lok-fill-merged" stroke="none" fill="#3f3f3f" fill-opacity="1"><g><text style="font: 15px Roboto, sans-serif; white-space: pre;" transform="translate(10, 19)" font-size="15px" font-family="Roboto, sans-serif"><tspan x="2" y="8.5" dominant-baseline="ideographic">Trust Boundary</tspan></text></g></g></g><g id="g-root-tx_trustbou_qp1dmh31lok-stroke" data-item-order="0" transform="translate(493.40887451171875, 395.000244140625)"></g><g id="g-root-tx_exfiltra_2qtyx31lol-fill" data-item-order="0" transform="translate(370.3997802734375, 488.000244140625)"><g id="tx_exfiltra_2qtyx31lol-fill-merged" stroke="none" fill="#3f3f3f" fill-opacity="1"><g><text style="font: 15px Roboto, sans-serif; white-space: pre;" transform="translate(73.00909423828125, 19)" font-size="15px" font-family="Roboto, sans-serif"><tspan x="-61.01" y="8.5" dominant-baseline="ideographic">Exfiltration Occurs</tspan></text></g></g></g><g id="g-root-tx_exfiltra_2qtyx31lol-stroke" data-item-order="0" transform="translate(370.3997802734375, 488.000244140625)"></g><g id="g-root-tx_dlpseesn_hv9smx31lhj-fill" data-item-order="0" transform="translate(227.34375, 548.000244140625)"><g id="tx_dlpseesn_hv9smx31lhj-fill-merged" stroke="none" fill="#3f3f3f" fill-opacity="1"><g><text style="font: 15px Roboto, sans-serif; white-space: pre;" transform="translate(72.06509399414062, 27.99755859375)" font-size="15px" font-family="Roboto, sans-serif"><tspan x="-60.07" y="-0.5" dominant-baseline="ideographic">DLP Sees Normal </tspan><tspan x="-22.72" y="17.5" dominant-baseline="ideographic">Traffic</tspan></text></g></g></g><g id="g-root-tx_dlpseesn_hv9smx31lhj-stroke" data-item-order="0" transform="translate(227.34375, 548.000244140625)"></g></g></g></svg>