<?xml version="1.0" encoding="utf-8" standalone="yes"?>
<!DOCTYPE svg PUBLIC "-//W3C//DTD SVG 1.1//EN" "http://www.w3.org/Graphics/SVG/1.1/DTD/svg11.dtd">
<svg style="fill:none;stroke:none;fill-rule:evenodd;clip-rule:evenodd;stroke-linecap:round;stroke-linejoin:round;stroke-miterlimit:1.5;" version="1.1" xmlns="http://www.w3.org/2000/svg" xmlns:xlink="http://www.w3.org/1999/xlink" width="828" height="612" viewBox="0 0 828 612"><style class="text-font-style fontImports" data-font-family="Roboto">@import url(https://fonts.googleapis.com/css2?family=Roboto:wght@400;700&amp;amp;display=block);</style><g id="items" style="isolation: isolate"><g id="blend" style="mix-blend-mode: normal"><g id="g-root-cp_0_g-0_m9use120njlu-fill" data-item-order="-369709" transform="translate(13.999969482421875, 223.51318359375)"></g><g id="g-root-cp_0_g-0_m9use120njlu-stroke" data-item-order="-369709" transform="translate(13.999969482421875, 223.51318359375)"><g id="cp_0_g-0_m9use120njlu-stroke" fill="none" stroke-linecap="round" stroke-linejoin="round" stroke-miterlimit="4" stroke="#3f3f3f" stroke-width="1" stroke-opacity="1"><g><path d="M 652.000031 130.5L 705.468431 130.5L 705.468431 154.5L 777.474931 82.5026L 705.468431 10L 705.468431 34.5L 665.066731 34.5L 652.000031 130.5ZM 545.113531 34.5L 509.103331 34.5L 496.036631 130.5L 532.046931 130.5L 545.113531 34.5ZM 389.103331 34.5L 353.133731 34.5L 340.067031 130.5L 376.036631 130.5L 389.103331 34.5ZM 233.133731 34.5L 197.598331 34.5L 184.531631 130.5L 220.067031 130.5L 233.133731 34.5ZM 77.598331 34.5L 10.000031 34.5L 10.000031 130.5L 64.531631 130.5L 77.598331 34.5Z"></path></g></g></g><g id="g-root-cp_1_g-1_1lt1agp20nk7f-fill" data-item-order="-369705" transform="translate(38, 212)"></g><g id="g-root-cp_1_g-1_1lt1agp20nk7f-stroke" data-item-order="-369705" transform="translate(38, 212)"><g id="cp_1_g-1_1lt1agp20nk7f-stroke" fill="none" stroke-linecap="round" stroke-linejoin="round" stroke-miterlimit="4" stroke="#3f3f3f" stroke-width="1" stroke-opacity="1"><g><path d="M 58.5 10L 178.5 10L 154 190L 34 190L 58.5 10Z"></path></g></g><g id="cp_1_g-1_1lt1agp20nk7f-stroke" fill="none" stroke-linecap="round" stroke-linejoin="round" stroke-miterlimit="4" stroke="#3f3f3f" stroke-width="1" stroke-opacity="1"><g><path d="M 173.595581 46L 178.500081 10L 202.000081 46L 173.595581 46Z"></path></g></g><g id="cp_1_g-1_1lt1agp20nk7f-stroke" fill="none" stroke-linecap="round" stroke-linejoin="round" stroke-miterlimit="4" stroke="#3f3f3f" stroke-width="1" stroke-opacity="1"><g><path d="M 34 190L 10 142L 40.5 142L 34 190Z"></path></g></g></g><g id="g-root-cp_2_g-2_qrjprt20nhtw-fill" data-item-order="-369697" transform="translate(193.53500366210938, 212)"></g><g id="g-root-cp_2_g-2_qrjprt20nhtw-stroke" data-item-order="-369697" transform="translate(193.53500366210938, 212)"><g id="cp_2_g-2_qrjprt20nhtw-stroke" fill="none" stroke-linecap="round" stroke-linejoin="round" stroke-miterlimit="4" stroke="#3f3f3f" stroke-width="1" stroke-opacity="1"><g><path d="M 58.5 10L 178.5 10L 154 190L 34 190L 58.5 10Z"></path></g></g><g id="cp_2_g-2_qrjprt20nhtw-stroke" fill="none" stroke-linecap="round" stroke-linejoin="round" stroke-miterlimit="4" stroke="#3f3f3f" stroke-width="1" stroke-opacity="1"><g><path d="M 173.595581 46L 178.500081 10L 202.000081 46L 173.595581 46Z"></path></g></g><g id="cp_2_g-2_qrjprt20nhtw-stroke" fill="none" stroke-linecap="round" stroke-linejoin="round" stroke-miterlimit="4" stroke="#3f3f3f" stroke-width="1" stroke-opacity="1"><g><path d="M 34 190L 10 142L 40.5 142L 34 190Z"></path></g></g></g><g id="g-root-cp_3_g-3_18n71vd20ni19-fill" data-item-order="-369689" transform="translate(349.5039978027344, 212)"></g><g id="g-root-cp_3_g-3_18n71vd20ni19-stroke" data-item-order="-369689" transform="translate(349.5039978027344, 212)"><g id="cp_3_g-3_18n71vd20ni19-stroke" fill="none" stroke-linecap="round" stroke-linejoin="round" stroke-miterlimit="4" stroke="#3f3f3f" stroke-width="1" stroke-opacity="1"><g><path d="M 58.5 10L 178.5 10L 154 190L 34 190L 58.5 10Z"></path></g></g><g id="cp_3_g-3_18n71vd20ni19-stroke" fill="none" stroke-linecap="round" stroke-linejoin="round" stroke-miterlimit="4" stroke="#3f3f3f" stroke-width="1" stroke-opacity="1"><g><path d="M 173.595581 46L 178.500081 10L 202.000081 46L 173.595581 46Z"></path></g></g><g id="cp_3_g-3_18n71vd20ni19-stroke" fill="none" stroke-linecap="round" stroke-linejoin="round" stroke-miterlimit="4" stroke="#3f3f3f" stroke-width="1" stroke-opacity="1"><g><path d="M 34 190L 10 142L 40.5 142L 34 190Z"></path></g></g></g><g id="g-root-cp_4_g-4_1umsvg920oxse-fill" data-item-order="-369681" transform="translate(505.5159912109375, 212)"></g><g id="g-root-cp_4_g-4_1umsvg920oxse-stroke" data-item-order="-369681" transform="translate(505.5159912109375, 212)"><g id="cp_4_g-4_1umsvg920oxse-stroke" fill="none" stroke-linecap="round" stroke-linejoin="round" stroke-miterlimit="4" stroke="#3f3f3f" stroke-width="1" stroke-opacity="1"><g><path d="M 58.5 10L 178.5 10L 154 190L 34 190L 58.5 10Z"></path></g></g><g id="cp_4_g-4_1umsvg920oxse-stroke" fill="none" stroke-linecap="round" stroke-linejoin="round" stroke-miterlimit="4" stroke="#3f3f3f" stroke-width="1" stroke-opacity="1"><g><path d="M 173.595581 46L 178.500081 10L 202.000081 46L 173.595581 46Z"></path></g></g><g id="cp_4_g-4_1umsvg920oxse-stroke" fill="none" stroke-linecap="round" stroke-linejoin="round" stroke-miterlimit="4" stroke="#3f3f3f" stroke-width="1" stroke-opacity="1"><g><path d="M 34 190L 10 142L 40.5 142L 34 190Z"></path></g></g></g><g id="g-root-cp_1_g-1_1_dg37eh20owsn-fill" data-item-order="-369659" transform="translate(146, 92.0107421875)"></g><g id="g-root-cp_1_g-1_1_dg37eh20owsn-stroke" data-item-order="-369659" transform="translate(146, 92.0107421875)"><g id="cp_1_g-1_1_dg37eh20owsn-stroke" fill="none" stroke-linecap="round" stroke-linejoin="round" stroke-miterlimit="4" stroke="#3f3f3f" stroke-width="1" stroke-opacity="1"><g><path d="M 10 10L 10 129.989578"></path></g></g></g><g id="g-root-cp_3_g-3_1_6i4ah20oxds-fill" data-item-order="-369649" transform="translate(458, 110.0048828125)"></g><g id="g-root-cp_3_g-3_1_6i4ah20oxds-stroke" data-item-order="-369649" transform="translate(458, 110.0048828125)"><g id="cp_3_g-3_1_6i4ah20oxds-stroke" fill="none" stroke-linecap="round" stroke-linejoin="round" stroke-miterlimit="4" stroke="#3f3f3f" stroke-width="1" stroke-opacity="1"><g><path d="M 10 10L 10 111.994797"></path></g></g></g><g id="g-root-cp_2_g-2_1_zpomd520oxzd-fill" data-item-order="-369639" transform="translate(278, 392)"></g><g id="g-root-cp_2_g-2_1_zpomd520oxzd-stroke" data-item-order="-369639" transform="translate(278, 392)"><g id="cp_2_g-2_1_zpomd520oxzd-stroke" fill="none" stroke-linecap="round" stroke-linejoin="round" stroke-miterlimit="4" stroke="#3f3f3f" stroke-width="1" stroke-opacity="1"><g><path d="M 10 10L 10 111.994781"></path></g></g></g><g id="g-root-cp_4_g-4_1_1hi7l1520qb62-fill" data-item-order="-369629" transform="translate(590, 392)"></g><g id="g-root-cp_4_g-4_1_1hi7l1520qb62-stroke" data-item-order="-369629" transform="translate(590, 392)"><g id="cp_4_g-4_1_1hi7l1520qb62-stroke" fill="none" stroke-linecap="round" stroke-linejoin="round" stroke-miterlimit="4" stroke="#3f3f3f" stroke-width="1" stroke-opacity="1"><g><path d="M 10 10L 10 111.994812"></path></g></g></g><g id="g-root-tx_emailfil_1hbz0hl20vy16-fill" data-item-order="0" transform="translate(470, 140.0048828125)"><g id="tx_emailfil_1hbz0hl20vy16-fill-merged" stroke="none" fill="#3f3f3f" fill-opacity="1"><g><text style="font: 15px Roboto, sans-serif; white-space: pre;" transform="translate(10, 27.99755859375)" font-size="15px" font-family="Roboto, sans-serif"><tspan x="2" y="-0.5" dominant-baseline="ideographic">Email/File, target inbox, </tspan><tspan x="2" y="17.5" dominant-baseline="ideographic">normal interaction</tspan></text></g></g></g><g id="g-root-tx_emailfil_1hbz0hl20vy16-stroke" data-item-order="0" transform="translate(470, 140.0048828125)"></g><g id="g-root-tx_identify_4mbsqh20ul1c-fill" data-item-order="0" transform="translate(158, 122.0107421875)"><g id="tx_identify_4mbsqh20ul1c-fill-merged" stroke="none" fill="#3f3f3f" fill-opacity="1"><g><text style="font: 15px Roboto, sans-serif; white-space: pre;" transform="translate(10, 36.99462890625)" font-size="15px" font-family="Roboto, sans-serif"><tspan x="2" y="-9.49" dominant-baseline="ideographic">Identify agent, map </tspan><tspan x="2" y="8.5" dominant-baseline="ideographic">capabilities, assess </tspan><tspan x="2" y="26.49" dominant-baseline="ideographic">memory</tspan></text></g></g></g><g id="g-root-tx_identify_4mbsqh20ul1c-stroke" data-item-order="0" transform="translate(158, 122.0107421875)"></g><g id="g-root-tx_phase3de_qwjos920uj29-fill" data-item-order="0" transform="translate(470, 110.0048828125)"><g id="tx_phase3de_qwjos920uj29-fill-merged" stroke="none" fill="#3f3f3f" fill-opacity="1"><g><text style="font: bold 15px Roboto, sans-serif; white-space: pre;" transform="translate(10, 19)" font-weight="bold" font-size="15px" font-family="Roboto, sans-serif"><tspan x="2" y="8.5" dominant-baseline="ideographic">Phase 3 Delivery</tspan></text></g></g></g><g id="g-root-tx_phase3de_qwjos920uj29-stroke" data-item-order="0" transform="translate(470, 110.0048828125)"></g><g id="g-root-ic_box_mdlmwp20uk98-fill" data-item-order="0" transform="translate(98, 261)"></g><g id="g-root-ic_box_mdlmwp20uk98-stroke" data-item-order="0" transform="translate(98, 261)"><g id="ic_box_mdlmwp20uk98-stroke" fill="none" stroke-linecap="round" stroke-linejoin="round" stroke-miterlimit="4" stroke="#3f3f3f" stroke-width="1" stroke-opacity="1"><g><path d="M 34.407997 11.5L 11.5 24.109001L 34.407997 36.715L 57.313 24.109001L 34.407997 11.5ZM 38.284 59.797005L 34.407997 61.93L 11.5 49.323997L 11.5 24.109001M 57.313 24.109001L 57.313 36.715M 34.407997 36.715L 34.407997 61.93M 43.75 60.25C 43.750004 69.362701 51.137306 76.75 60.25 76.75C 69.362701 76.75 76.75 69.362701 76.75 60.25C 76.75 51.137306 69.362701 43.750004 60.25 43.750004C 51.137306 43.750004 43.750004 51.137306 43.750004 60.25M 71.917 71.917L 80.5 80.5"></path></g></g></g><g id="g-root-ic_2_qqaurd20jabs-fill" data-item-order="0" transform="translate(253.75201416015625, 261)"></g><g id="g-root-ic_2_qqaurd20jabs-stroke" data-item-order="0" transform="translate(253.75201416015625, 261)"><g id="ic_2_qqaurd20jabs-stroke" fill="none" stroke-linecap="round" stroke-linejoin="round" stroke-miterlimit="4" stroke="#3f3f3f" stroke-width="1" stroke-opacity="1"><g><path d="M 38.59 32.961998C 37.53492 35.35553 35.775875 37.370953 33.546997 38.739998L 36.516998 54.220001L 27.235001 54.220001L 24.601 40.452999C 19.323915 39.535633 15.165482 35.447891 14.157781 30.187305C 13.150081 24.926723 15.503498 19.591591 20.068001 16.789L 21.907 26.380001L 27.235001 29.994999L 30.849998 24.67L 29.011 15.076C 32.915306 15.753216 36.290337 18.190435 38.16114 21.68362C 40.031944 25.176804 40.190128 29.336834 38.59 32.961998ZM 59.577995 16.888C 58.681 20.923 53.935001 23.614 47.431 22.168001L 46.161999 27.870998L 76.582001 34.633003L 79.540001 21.325001L 59.577995 16.888ZM 53.524002 54.220001L 58.756004 30.681999L 67.417 32.607998L 62.367996 54.223L 53.524002 54.223ZM 79.75 73.989998L 79.75 54.220001L 12.25 54.220001L 12.25 73.989998C 12.25 75.610001 13.564 76.927002 15.184 76.927002L 76.815994 76.927002C 78.436005 76.927002 79.75 75.610001 79.75 73.989998ZM 50.401001 58.624001C 50.401001 61.054604 48.430603 63.025002 46 63.025002C 43.569397 63.025002 41.598999 61.054604 41.598999 58.624001L 41.598999 54.223L 50.401001 54.223L 50.401001 58.624001Z"></path></g></g></g><g id="g-root-ic_box_1lxep8920qd55-fill" data-item-order="0" transform="translate(410, 261)"></g><g id="g-root-ic_box_1lxep8920qd55-stroke" data-item-order="0" transform="translate(410, 261)"><g id="ic_box_1lxep8920qd55-stroke" fill="none" stroke-linecap="round" stroke-linejoin="round" stroke-miterlimit="4" stroke="#3f3f3f" stroke-width="1" stroke-opacity="1"><g><path d="M 17.5 41.142998L 46 50.142998M 61.237 37.519001L 74.5 41.142998M 46 50.142998L 74.5 41.142998M 46 77.143005L 17.5 66.643005L 17.5 41.142998M 74.5 41.142998L 74.5 66.643005L 46 77.143005L 46 50.142998M 46 36.642998L 46 27.643M 71.5 16.645C 68.457771 26.108744 58.319923 31.314663 48.856003 28.273001L 46 27.355C 49.042233 17.891258 59.180077 12.685337 68.643997 15.727ZM 20.5 16.645C 23.542231 26.108744 33.680077 31.314663 43.144001 28.273001L 46 27.355C 42.957771 17.891258 32.819923 12.685337 23.356001 15.727ZM 30.763 37.519001L 17.5 41.142998"></path></g></g></g><g id="g-root-ic_chec_1464oqh20t6a2-fill" data-item-order="0" transform="translate(566, 261)"></g><g id="g-root-ic_chec_1464oqh20t6a2-stroke" data-item-order="0" transform="translate(566, 261)"><g id="ic_chec_1464oqh20t6a2-stroke" fill="none" stroke-linecap="round" stroke-linejoin="round" stroke-miterlimit="4" stroke="#3f3f3f" stroke-width="1" stroke-opacity="1"><g><path d="M 63.850002 31.60021L 27.850029 31.60021L 27.850029 79.600296L 63.850002 79.600296L 63.850002 31.60021ZM 69.850006 48.3997L 79.449997 48.3997M 69.850006 60.3997L 79.449997 60.3997M 69.850006 72.399704L 76.449997 72.399704C 78.25 72.399704 79.449997 71.199699 79.449997 69.399704L 79.449997 39.399788C 79.449997 37.599792 78.25 36.399788 76.449997 36.399788L 69.850006 36.399788M 29.350029 47.499699L 63.850002 47.499699M 29.350029 63.999702L 63.850002 63.999702M 21.84997 48.3997L 12.25 48.3997M 21.84997 60.3997L 12.25 60.3997M 21.85 72.399704L 15.25 72.399704C 13.45 72.399704 12.25 71.199699 12.25 69.399704L 12.25 39.399788C 12.25 37.599792 13.45 36.399788 15.25 36.399788L 21.85 36.399788M 10 10M 41.349998 15.39979L 45.849998 19.59976L 53.349998 12.399781"></path></g></g></g><g id="g-root-tx_phase1re_mbqdyx20ujnz-fill" data-item-order="0" transform="translate(158, 92.0107421875)"><g id="tx_phase1re_mbqdyx20ujnz-fill-merged" stroke="none" fill="#3f3f3f" fill-opacity="1"><g><text style="font: bold 15px Roboto, sans-serif; white-space: pre;" transform="translate(10, 19)" font-weight="bold" font-size="15px" font-family="Roboto, sans-serif"><tspan x="2" y="8.5" dominant-baseline="ideographic">Phase 1 Reconnaissance</tspan></text></g></g></g><g id="g-root-tx_phase1re_mbqdyx20ujnz-stroke" data-item-order="0" transform="translate(158, 92.0107421875)"></g><g id="g-root-tx_aiagenta_94n0vt20qdj7-fill" data-item-order="0" transform="translate(254.94271850585938, 38)"><g id="tx_aiagenta_94n0vt20qdj7-fill-merged" stroke="none" fill="#3f3f3f" fill-opacity="1"><g><text style="font: bold 25px Roboto, sans-serif; white-space: pre;" transform="translate(159.05728149414062, 25)" font-weight="bold" font-size="25px" font-family="Roboto, sans-serif"><tspan x="-147.06" y="15" dominant-baseline="ideographic">AI Agent Attack Sequence</tspan></text></g></g></g><g id="g-root-tx_aiagenta_94n0vt20qdj7-stroke" data-item-order="0" transform="translate(254.94271850585938, 38)"></g><g id="g-root-tx_phase2pa_18i7fi120vxu3-fill" data-item-order="0" transform="translate(91.85679626464844, 428)"><g id="tx_phase2pa_18i7fi120vxu3-fill-merged" stroke="none" fill="#3f3f3f" fill-opacity="1"><g><text style="font: bold 15px Roboto, sans-serif; white-space: pre;" transform="translate(184.14320373535156, 19)" font-weight="bold" font-size="15px" font-family="Roboto, sans-serif"><tspan x="-172.14" y="8.5" dominant-baseline="ideographic">Phase 2 Payload Crafting</tspan></text></g></g></g><g id="g-root-tx_phase2pa_18i7fi120vxu3-stroke" data-item-order="0" transform="translate(91.85679626464844, 428)"></g><g id="g-root-tx_phase4pe_8dpvd20vxfx-fill" data-item-order="0" transform="translate(435.9791259765625, 428)"><g id="tx_phase4pe_8dpvd20vxfx-fill-merged" stroke="none" fill="#3f3f3f" fill-opacity="1"><g><text style="font: bold 15px Roboto, sans-serif; white-space: pre;" transform="translate(152.0208740234375, 19)" font-weight="bold" font-size="15px" font-family="Roboto, sans-serif"><tspan x="-140.02" y="8.5" dominant-baseline="ideographic">Phase 4 Persistence</tspan></text></g></g></g><g id="g-root-tx_phase4pe_8dpvd20vxfx-stroke" data-item-order="0" transform="translate(435.9791259765625, 428)"></g><g id="g-root-tx_embedhid_v8mce120vyf8-fill" data-item-order="0" transform="translate(81.1015625, 458)"><g id="tx_embedhid_v8mce120vyf8-fill-merged" stroke="none" fill="#3f3f3f" fill-opacity="1"><g><text style="font: 15px Roboto, sans-serif; white-space: pre;" transform="translate(194.8984375, 27.99755859375)" font-size="15px" font-family="Roboto, sans-serif"><tspan x="-182.9" y="-0.5" dominant-baseline="ideographic">Embed hidden instructions, </tspan><tspan x="-82.29" y="17.5" dominant-baseline="ideographic">create URLs</tspan></text></g></g></g><g id="g-root-tx_embedhid_v8mce120vyf8-stroke" data-item-order="0" transform="translate(81.1015625, 458)"></g><g id="g-root-tx_rulesexe_v3mjp520xcee-fill" data-item-order="0" transform="translate(416.5390625, 458)"><g id="tx_rulesexe_v3mjp520xcee-fill-merged" stroke="none" fill="#3f3f3f" fill-opacity="1"><g><text style="font: 15px Roboto, sans-serif; white-space: pre;" transform="translate(171.4609375, 27.99755859375)" font-size="15px" font-family="Roboto, sans-serif"><tspan x="-159.46" y="-0.5" dominant-baseline="ideographic">Rules execute everyday, </tspan><tspan x="-104.8" y="17.5" dominant-baseline="ideographic">survives restart</tspan></text></g></g></g><g id="g-root-tx_rulesexe_v3mjp520xcee-stroke" data-item-order="0" transform="translate(416.5390625, 458)"></g></g></g></svg>