<?xml version="1.0" encoding="utf-8" standalone="yes"?>
<!DOCTYPE svg PUBLIC "-//W3C//DTD SVG 1.1//EN" "http://www.w3.org/Graphics/SVG/1.1/DTD/svg11.dtd">
<svg style="fill:none;stroke:none;fill-rule:evenodd;clip-rule:evenodd;stroke-linecap:round;stroke-linejoin:round;stroke-miterlimit:1.5;" version="1.1" xmlns="http://www.w3.org/2000/svg" xmlns:xlink="http://www.w3.org/1999/xlink" width="972" height="654" viewBox="0 0 972 654"><style class="text-font-style fontImports" data-font-family="Roboto">@import url(https://fonts.googleapis.com/css2?family=Roboto:wght@400;700&amp;amp;display=block);</style><g id="items" style="isolation: isolate"><g id="blend" style="mix-blend-mode: normal"><g id="g-root-cp_0b_g-0b_qu1yrd48rcb0-fill" data-item-order="-460131" transform="translate(158, 320)"></g><g id="g-root-cp_0b_g-0b_qu1yrd48rcb0-stroke" data-item-order="-460131" transform="translate(158, 320)"><g id="cp_0b_g-0b_qu1yrd48rcb0-stroke" fill="none" stroke-linecap="round" stroke-linejoin="round" stroke-miterlimit="4" stroke="#3f3f3f" stroke-width="1" stroke-dasharray="2.5, 3.5" stroke-opacity="1"><g><path d="M 646 10L 10 10"></path></g></g></g><g id="g-root-cp_0a_g-0a_93efcp48rbid-fill" data-item-order="-460127" transform="translate(122, 188)"></g><g id="g-root-cp_0a_g-0a_93efcp48rbid-stroke" data-item-order="-460127" transform="translate(122, 188)"><g id="cp_0a_g-0a_93efcp48rbid-stroke" fill="none" stroke-linecap="round" stroke-linejoin="round" stroke-miterlimit="4" stroke="#3f3f3f" stroke-width="1" stroke-opacity="1"><g><path d="M 274 130L 334 34L 344 42.5L 364 10L 418 82L 430 70L 466 130L 274 130ZM 312 118L 331 89L 354 94L 339 76L 365 34L 418 106L 428 94L 443 118L 312 118ZM 46 106L 10 106L 16.5 118L 10 130L 46 130M 682 106L 718 106L 711.5 118L 718 130L 682 130"></path></g></g></g><g id="g-root-cp_0a_poles_1ly1fsp48raj2-fill" data-item-order="-460113" transform="translate(158, 284)"></g><g id="g-root-cp_0a_poles_1ly1fsp48raj2-stroke" data-item-order="-460113" transform="translate(158, 284)"><g id="cp_0a_poles_1ly1fsp48raj2-stroke" fill="none" stroke-linecap="round" stroke-linejoin="round" stroke-miterlimit="4" stroke="#3f3f3f" stroke-width="1" stroke-opacity="1"><g><path d="M 10 34L 10 10L 10 46M 646 34L 646 10L 646 46"></path></g></g></g><g id="g-root-cp_1_line_1_147dwe148r9qf-fill" data-item-order="-460091" transform="translate(290, 344)"></g><g id="g-root-cp_1_line_1_147dwe148r9qf-stroke" data-item-order="-460091" transform="translate(290, 344)"><g id="cp_1_line_1_147dwe148r9qf-stroke" fill="none" stroke-linecap="round" stroke-linejoin="round" stroke-miterlimit="4" stroke="#3f3f3f" stroke-width="1" stroke-opacity="1"><g><path d="M 10 10L 10 75.994812"></path></g></g></g><g id="g-root-cp_1_g-1_qvxe0p48rbbc-fill" data-item-order="-460081" transform="translate(386, 332)"></g><g id="g-root-cp_1_g-1_qvxe0p48rbbc-stroke" data-item-order="-460081" transform="translate(386, 332)"><g id="cp_1_g-1_qvxe0p48rbbc-stroke" fill="none" stroke-linecap="round" stroke-linejoin="round" stroke-miterlimit="4" stroke="#3f3f3f" stroke-width="1" stroke-opacity="1"><g><path d="M 28.706902 59.022045L 10 10L 202 10L 183.032501 75.994812L 169.996094 49.887703L 162.484695 75.930138L 50.5 75.930138L 41.668999 52.805992L 28.706902 59.022045Z"></path></g></g></g><g id="g-root-cp_2_line_3_959um148raip-fill" data-item-order="-460065" transform="translate(662, 409.9951171875)"></g><g id="g-root-cp_2_line_3_959um148raip-stroke" data-item-order="-460065" transform="translate(662, 409.9951171875)"><g id="cp_2_line_3_959um148raip-stroke" fill="none" stroke-linecap="round" stroke-linejoin="round" stroke-miterlimit="4" stroke="#3f3f3f" stroke-width="1" stroke-opacity="1"><g><path d="M 10 10L 10 75.994812"></path></g></g></g><g id="g-root-cp_2_g-2_1uuxe7t48rbwi-fill" data-item-order="-460057" transform="translate(426.5, 397.9951171875)"></g><g id="g-root-cp_2_g-2_1uuxe7t48rbwi-stroke" data-item-order="-460057" transform="translate(426.5, 397.9951171875)"><g id="cp_2_g-2_1uuxe7t48rbwi-stroke" fill="none" stroke-linecap="round" stroke-linejoin="round" stroke-miterlimit="4" stroke="#3f3f3f" stroke-width="1" stroke-opacity="1"><g><path d="M 53.5 123.994812L 10 10L 121.999901 10L 102.309097 72.425774L 81.163696 42.569901L 53.5 123.994812Z"></path></g></g></g><g id="g-root-he_1ha3rjt48sow4-fill" data-item-order="-460047" transform="translate(362, 370.99755859375)"></g><g id="g-root-he_1ha3rjt48sow4-stroke" data-item-order="-460047" transform="translate(362, 370.99755859375)"><g id="he_1ha3rjt48sow4-stroke" fill="none" stroke-linecap="round" stroke-linejoin="round" stroke-miterlimit="4" stroke="#3f3f3f" stroke-width="1" stroke-opacity="1"><g><path d="M 49 10L 10 10"></path></g></g></g><g id="g-root-he_13yn96h48sqh2-fill" data-item-order="-460045" transform="translate(526.5, 436.99267578125)"></g><g id="g-root-he_13yn96h48sqh2-stroke" data-item-order="-460045" transform="translate(526.5, 436.99267578125)"><g id="he_13yn96h48sqh2-stroke" fill="none" stroke-linecap="round" stroke-linejoin="round" stroke-miterlimit="4" stroke="#3f3f3f" stroke-width="1" stroke-opacity="1"><g><path d="M 10 10L 73.5 10"></path></g></g></g><g id="g-root-tx_llmsecur_v3mq0p48so3z-fill" data-item-order="0" transform="translate(234.27996826171875, 38)"><g id="tx_llmsecur_v3mq0p48so3z-fill-merged" stroke="none" fill="#3f3f3f" fill-opacity="1"><g><text style="font: bold 25px Roboto, sans-serif; white-space: pre;" transform="translate(251.72003173828125, 25)" font-weight="bold" font-size="25px" font-family="Roboto, sans-serif"><tspan x="-239.72" y="15" dominant-baseline="ideographic">LLM Security: Unveiling the Hidden Depths</tspan></text></g></g></g><g id="g-root-tx_llmsecur_v3mq0p48so3z-stroke" data-item-order="0" transform="translate(234.27996826171875, 38)"></g><g id="g-root-tx_llmtop10_v4vo6x48sqa0-fill" data-item-order="0" transform="translate(434.7096252441406, 128)"><g id="tx_llmtop10_v4vo6x48sqa0-fill-merged" stroke="none" fill="#3f3f3f" fill-opacity="1"><g><text style="font: bold 15px Roboto, sans-serif; white-space: pre;" transform="translate(51.290374755859375, 19)" font-weight="bold" font-size="15px" font-family="Roboto, sans-serif"><tspan x="-39.29" y="8.5" dominant-baseline="ideographic">LLM Top 10</tspan></text></g></g></g><g id="g-root-tx_llmtop10_v4vo6x48sqa0-stroke" data-item-order="0" transform="translate(434.7096252441406, 128)"></g><g id="g-root-tx_visiblel_1hf3k8p48soax-fill" data-item-order="0" transform="translate(387.3528747558594, 158)"><g id="tx_visiblel_1hf3k8p48soax-fill-merged" stroke="none" fill="#3f3f3f" fill-opacity="1"><g><text style="font: 15px Roboto, sans-serif; white-space: pre;" transform="translate(98.64712524414062, 19)" font-size="15px" font-family="Roboto, sans-serif"><tspan x="-86.65" y="8.5" dominant-baseline="ideographic">Visible LLM vulnerabilities</tspan></text></g></g></g><g id="g-root-tx_visiblel_1hf3k8p48soax-stroke" data-item-order="0" transform="translate(387.3528747558594, 158)"></g><g id="g-root-tx_memoryla_qu1yrd48sqgy-fill" data-item-order="0" transform="translate(74.45574951171875, 344)"><g id="tx_memoryla_qu1yrd48sqgy-fill-merged" stroke="none" fill="#3f3f3f" fill-opacity="1"><g><text style="font: bold 15px Roboto, sans-serif; white-space: pre;" transform="translate(213.54425048828125, 19)" font-weight="bold" font-size="15px" font-family="Roboto, sans-serif"><tspan x="-201.54" y="8.5" dominant-baseline="ideographic">Memory-Layer Vulnerabilities</tspan></text></g></g></g><g id="g-root-tx_memoryla_qu1yrd48sqgy-stroke" data-item-order="0" transform="translate(74.45574951171875, 344)"></g><g id="g-root-ic_warn_4il4jd48u3nw-fill" data-item-order="0" transform="translate(302, 346.99755859375)"></g><g id="g-root-ic_warn_4il4jd48u3nw-stroke" data-item-order="0" transform="translate(302, 346.99755859375)"><g id="ic_warn_4il4jd48u3nw-stroke" fill="none" stroke-linecap="round" stroke-linejoin="round" stroke-miterlimit="4" stroke="#3f3f3f" stroke-width="1" stroke-opacity="1"><g><path d="M 45 29L 45 21.827999C 44.999886 21.297611 44.789101 20.788986 44.414001 20.414L 35.587997 11.586C 35.213013 11.210901 34.704391 11.000113 34.174 11L 13 11C 11.895431 11 11 11.895431 11 13L 11 29L 13 29L 13 35L 11 35L 11 55C 11 56.104568 11.895431 57 13 57L 29 57M 19.001999 17L 19.001999 27M 25.001999 17L 25.001999 27M 31.002001 17L 31.002001 27M 37.001999 21L 37.001999 29M 45 51C 45.276142 51 45.5 51.223858 45.5 51.5C 45.5 51.776142 45.276142 52 45 52C 44.723858 52 44.5 51.776142 44.5 51.5C 44.5 51.223858 44.723858 51 45 51M 44.998001 47L 44.998001 41M 46.674 35C 46.34457 34.380157 45.69994 33.992744 44.997997 33.992744C 44.296055 33.992744 43.651424 34.380157 43.321999 35L 33.209999 54.268002C 32.906128 54.845463 32.929699 55.540451 33.271999 56.095997C 33.618462 56.654099 34.229111 56.993095 34.886002 56.992004L 55.110001 56.992001C 55.766891 56.993095 56.377544 56.654099 56.724003 56.096004C 57.066299 55.540451 57.08987 54.845463 56.785999 54.267998Z"></path></g></g></g><g id="g-root-tx_unaddres_8wj7eh48u4n7-fill" data-item-order="0" transform="translate(91.3828125, 374)"><g id="tx_unaddres_8wj7eh48u4n7-fill-merged" stroke="none" fill="#3f3f3f" fill-opacity="1"><g><text style="font: 15px Roboto, sans-serif; white-space: pre;" transform="translate(196.6171875, 27.99755859375)" font-size="15px" font-family="Roboto, sans-serif"><tspan x="-184.62" y="-0.5" dominant-baseline="ideographic">Unaddressed memory-layer </tspan><tspan x="-93.99" y="17.5" dominant-baseline="ideographic">vulnerabilities</tspan></text></g></g></g><g id="g-root-tx_unaddres_8wj7eh48u4n7-stroke" data-item-order="0" transform="translate(91.3828125, 374)"></g><g id="g-root-ic_chec_1d0j3g948kav8-fill" data-item-order="0" transform="translate(602, 412.99267578125)"></g><g id="g-root-ic_chec_1d0j3g948kav8-stroke" data-item-order="0" transform="translate(602, 412.99267578125)"><g id="ic_chec_1d0j3g948kav8-stroke" fill="none" stroke-linecap="round" stroke-linejoin="round" stroke-miterlimit="4" stroke="#3f3f3f" stroke-width="1" stroke-opacity="1"><g><path d="M 45.900002 24.400139L 21.900021 24.400139L 21.900021 56.4002L 45.900002 56.4002L 45.900002 24.400139ZM 49.900002 35.5998L 56.299999 35.5998M 49.900002 43.5998L 56.299999 43.5998M 49.900002 51.5998L 54.299999 51.5998C 55.5 51.5998 56.299999 50.799801 56.299999 49.5998L 56.299999 29.599859C 56.299999 28.39986 55.5 27.599859 54.299999 27.599859L 49.900002 27.599859M 22.900021 34.999802L 45.900002 34.999802M 22.900021 45.999802L 45.900002 45.999802M 17.899981 35.5998L 11.5 35.5998M 17.899981 43.5998L 11.5 43.5998M 17.9 51.5998L 13.5 51.5998C 12.3 51.5998 11.5 50.799801 11.5 49.5998L 11.5 29.599859C 11.5 28.39986 12.3 27.599859 13.5 27.599859L 17.9 27.599859M 10 10M 30.9 13.59986L 33.900002 16.399839L 38.900002 11.599854"></path></g></g></g><g id="g-root-tx_excessiv_4n4u148k9oi-fill" data-item-order="0" transform="translate(674, 409.9951171875)"><g id="tx_excessiv_4n4u148k9oi-fill-merged" stroke="none" fill="#3f3f3f" fill-opacity="1"><g><text style="font: bold 15px Roboto, sans-serif; white-space: pre;" transform="translate(10, 19)" font-weight="bold" font-size="15px" font-family="Roboto, sans-serif"><tspan x="2" y="8.5" dominant-baseline="ideographic">Excessive Trust in Agent Memory</tspan></text></g></g></g><g id="g-root-tx_excessiv_4n4u148k9oi-stroke" data-item-order="0" transform="translate(674, 409.9951171875)"></g><g id="g-root-tx_overreli_91j39548kaa3-fill" data-item-order="0" transform="translate(674, 439.9951171875)"><g id="tx_overreli_91j39548kaa3-fill-merged" stroke="none" fill="#3f3f3f" fill-opacity="1"><g><text style="font: 15px Roboto, sans-serif; white-space: pre;" transform="translate(10, 27.99755859375)" font-size="15px" font-family="Roboto, sans-serif"><tspan x="2" y="-0.5" dominant-baseline="ideographic">Over-reliance on agent memory </tspan><tspan x="2" y="17.5" dominant-baseline="ideographic">integrity</tspan></text></g></g></g><g id="g-root-tx_overreli_91j39548kaa3-stroke" data-item-order="0" transform="translate(674, 439.9951171875)"></g></g></g></svg>