<?xml version="1.0" encoding="utf-8" standalone="yes"?>
<!DOCTYPE svg PUBLIC "-//W3C//DTD SVG 1.1//EN" "http://www.w3.org/Graphics/SVG/1.1/DTD/svg11.dtd">
<svg style="fill:none;stroke:none;fill-rule:evenodd;clip-rule:evenodd;stroke-linecap:round;stroke-linejoin:round;stroke-miterlimit:1.5;" version="1.1" xmlns="http://www.w3.org/2000/svg" xmlns:xlink="http://www.w3.org/1999/xlink" width="792" height="510" viewBox="0 0 792 510"><style class="text-font-style fontImports" data-font-family="Roboto">@import url(https://fonts.googleapis.com/css2?family=Roboto:wght@400;700&amp;amp;display=block);</style><g id="items" style="isolation: isolate"><g id="blend" style="mix-blend-mode: normal"><g id="g-root-cp_1_lines-1_4mxb2hwi60w-fill" data-item-order="-299043" transform="translate(133.9644775390625, 193.33935546875)"></g><g id="g-root-cp_1_lines-1_4mxb2hwi60w-stroke" data-item-order="-299043" transform="translate(133.9644775390625, 193.33935546875)"><g id="cp_1_lines-1_4mxb2hwi60w-stroke" fill="none" stroke-linecap="round" stroke-linejoin="round" stroke-miterlimit="4" stroke="#3f3f3f" stroke-width="1" stroke-opacity="1"><g><path d="M 70.810242 34.655762L 162.810242 34.655762C 165.019342 34.655762 166.810242 36.446662 166.810242 38.655762L 166.810242 126.655762C 166.810242 128.864862 165.019342 130.655762 162.810242 130.655762L 70.810242 130.655762L 70.810242 34.655762Z"></path></g></g><g id="cp_1_lines-1_4mxb2hwi60w-stroke" fill="none" stroke-linecap="round" stroke-linejoin="round" stroke-miterlimit="4" stroke="#3f3f3f" stroke-width="1" stroke-opacity="1"><g><path d="M 71.810227 34.655724L 71.810227 12.003924C 71.810227 10.129424 69.463127 9.284824 68.268727 10.729624L 10.917027 80.107224C 9.694327 81.586224 9.694327 83.725224 10.917027 85.204324L 68.268727 154.581924C 69.463127 156.026724 71.810227 155.182124 71.810227 153.307624L 71.810227 130.655724"></path></g></g></g><g id="g-root-cp_2_lines-2_1hhkbihwi51l-fill" data-item-order="-299027" transform="translate(290.77471923828125, 217.9951171875)"></g><g id="g-root-cp_2_lines-2_1hhkbihwi51l-stroke" data-item-order="-299027" transform="translate(290.77471923828125, 217.9951171875)"><g id="cp_2_lines-2_1hhkbihwi51l-stroke" fill="none" stroke-linecap="round" stroke-linejoin="round" stroke-miterlimit="4" stroke="#3f3f3f" stroke-width="1" stroke-opacity="1"><g><path d="M 10 14C 10 11.7909 11.7909 10 14 10L 102 10C 104.2091 10 106 11.7909 106 14L 106 102C 106 104.2091 104.2091 106 102 106L 14 106C 11.7909 106 10 104.2091 10 102L 10 14Z"></path></g></g></g><g id="g-root-cp_3_lines-3_146qa89wi3gq-fill" data-item-order="-299019" transform="translate(386.77471923828125, 217.9951171875)"></g><g id="g-root-cp_3_lines-3_146qa89wi3gq-stroke" data-item-order="-299019" transform="translate(386.77471923828125, 217.9951171875)"><g id="cp_3_lines-3_146qa89wi3gq-stroke" fill="none" stroke-linecap="round" stroke-linejoin="round" stroke-miterlimit="4" stroke="#3f3f3f" stroke-width="1" stroke-opacity="1"><g><path d="M 10 14C 10 11.7909 11.7909 10 14 10L 102 10C 104.2091 10 106 11.7909 106 14L 106 102C 106 104.2091 104.2091 106 102 106L 14 106C 11.7909 106 10 104.2091 10 102L 10 14Z"></path></g></g></g><g id="g-root-cp_4_lines-4_zqws3twi48z-fill" data-item-order="-299011" transform="translate(482.77471923828125, 192.9951171875)"></g><g id="g-root-cp_4_lines-4_zqws3twi48z-stroke" data-item-order="-299011" transform="translate(482.77471923828125, 192.9951171875)"><g id="cp_4_lines-4_zqws3twi48z-stroke" fill="none" stroke-linecap="round" stroke-linejoin="round" stroke-miterlimit="4" stroke="#3f3f3f" stroke-width="1" stroke-opacity="1"><g><path d="M 10 39C 10 36.7909 11.7909 35 14 35L 106 35L 106 131L 14 131C 11.7909 131 10 129.2091 10 127L 10 39Z"></path></g></g><g id="cp_4_lines-4_zqws3twi48z-stroke" fill="none" stroke-linecap="round" stroke-linejoin="round" stroke-miterlimit="4" stroke="#3f3f3f" stroke-width="1" stroke-opacity="1"><g><path d="M 105 35L 105 12.004C 105 10.1295 107.3472 9.2849 108.5415 10.7297L 165.8932 80.1073C 167.1159 81.5863 167.1159 83.7253 165.8932 85.2044L 108.5415 154.582C 107.3471 156.0268 105 155.1822 105 153.3077L 105 131"></path></g></g></g><g id="g-root-tx_aiexfilt_mfg9qhwi5tw-fill" data-item-order="0" transform="translate(59.546875, 38)"><g id="tx_aiexfilt_mfg9qhwi5tw-fill-merged" stroke="none" fill="#3f3f3f" fill-opacity="1"><g><text style="font: bold 25px Roboto, sans-serif; white-space: pre;" transform="translate(336.453125, 25)" font-weight="bold" font-size="25px" font-family="Roboto, sans-serif"><tspan x="-324.45" y="15" dominant-baseline="ideographic">AI exfiltration methods ranked by persistence and impact.</tspan></text></g></g></g><g id="g-root-tx_aiexfilt_mfg9qhwi5tw-stroke" data-item-order="0" transform="translate(59.546875, 38)"></g><g id="g-root-tx_scenario_1q6c3t5wjj7y-fill" data-item-order="0" transform="translate(265.5077819824219, 116)"><g id="tx_scenario_1q6c3t5wjj7y-fill-merged" stroke="none" fill="#3f3f3f" fill-opacity="1"><g><text style="font: bold 15px Roboto, sans-serif; white-space: pre;" transform="translate(47.930999755859375, 19)" font-weight="bold" font-size="15px" font-family="Roboto, sans-serif"><tspan x="-35.93" y="8.5" dominant-baseline="ideographic">Scenario 2</tspan></text></g></g></g><g id="g-root-tx_scenario_1q6c3t5wjj7y-stroke" data-item-order="0" transform="translate(265.5077819824219, 116)"></g><g id="g-root-tx_scenario_1cwr0p5wjjt4-fill" data-item-order="0" transform="translate(434.28253173828125, 116)"><g id="tx_scenario_1cwr0p5wjjt4-fill-merged" stroke="none" fill="#3f3f3f" fill-opacity="1"><g><text style="font: bold 15px Roboto, sans-serif; white-space: pre;" transform="translate(47.93096923828125, 19)" font-weight="bold" font-size="15px" font-family="Roboto, sans-serif"><tspan x="-35.93" y="8.5" dominant-baseline="ideographic">Scenario 4</tspan></text></g></g></g><g id="g-root-tx_scenario_1cwr0p5wjjt4-stroke" data-item-order="0" transform="translate(434.28253173828125, 116)"></g><g id="g-root-tx_shortter_147z8ehwi5mt-fill" data-item-order="0" transform="translate(94.67578125, 163.9951171875)"><g id="tx_shortter_147z8ehwi5mt-fill-merged" stroke="none" fill="#3f3f3f" fill-opacity="1"><g><text style="font: 15px Roboto, sans-serif; white-space: pre;" transform="translate(49.32421875, 19)" font-size="15px" font-family="Roboto, sans-serif"><tspan x="-37.32" y="8.5" dominant-baseline="ideographic">Short-Term</tspan></text></g></g></g><g id="g-root-tx_shortter_147z8ehwi5mt-stroke" data-item-order="0" transform="translate(94.67578125, 163.9951171875)"></g><g id="g-root-tx_filebase_hte0qxwjifb-fill" data-item-order="0" transform="translate(230, 146)"><g id="tx_filebase_hte0qxwjifb-fill-merged" stroke="none" fill="#3f3f3f" fill-opacity="1"><g><text style="font: 15px Roboto, sans-serif; white-space: pre;" transform="translate(83.43878173828125, 27.99755859375)" font-size="15px" font-family="Roboto, sans-serif"><tspan x="-71.44" y="-0.5" dominant-baseline="ideographic">File-based exfiltration </tspan><tspan x="-48.6" y="17.5" dominant-baseline="ideographic">via image tags</tspan></text></g></g></g><g id="g-root-tx_filebase_hte0qxwjifb-stroke" data-item-order="0" transform="translate(230, 146)"></g><g id="g-root-tx_memorype_1up9zd5wjjm1-fill" data-item-order="0" transform="translate(400.8775634765625, 146)"><g id="tx_memorype_1up9zd5wjjm1-fill-merged" stroke="none" fill="#3f3f3f" fill-opacity="1"><g><text style="font: 15px Roboto, sans-serif; white-space: pre;" transform="translate(81.3359375, 27.99755859375)" font-size="15px" font-family="Roboto, sans-serif"><tspan x="-69.34" y="-0.5" dominant-baseline="ideographic">Memory persistence </tspan><tspan x="-40.66" y="17.5" dominant-baseline="ideographic">true zombie</tspan></text></g></g></g><g id="g-root-tx_memorype_1up9zd5wjjm1-stroke" data-item-order="0" transform="translate(400.8775634765625, 146)"></g><g id="g-root-tx_longterm_90vdxlwjkea-fill" data-item-order="0" transform="translate(601.5924072265625, 163.9951171875)"><g id="tx_longterm_90vdxlwjkea-fill-merged" stroke="none" fill="#3f3f3f" fill-opacity="1"><g><text style="font: 15px Roboto, sans-serif; white-space: pre;" transform="translate(47.95703125, 19)" font-size="15px" font-family="Roboto, sans-serif"><tspan x="-35.96" y="8.5" dominant-baseline="ideographic">Long-Term</tspan></text></g></g></g><g id="g-root-tx_longterm_90vdxlwjkea-stroke" data-item-order="0" transform="translate(601.5924072265625, 163.9951171875)"></g><g id="g-root-ic_targ_4mxb2hwjjez-fill" data-item-order="0" transform="translate(218.77471923828125, 241.9951171875)"></g><g id="g-root-ic_targ_4mxb2hwjjez-stroke" data-item-order="0" transform="translate(218.77471923828125, 241.9951171875)"><g id="ic_targ_4mxb2hwjjez-stroke" fill="none" stroke-linecap="round" stroke-linejoin="round" stroke-miterlimit="4" stroke="#3f3f3f" stroke-width="1" stroke-opacity="1"><g><path d="M 46.335999 14.6C 38.809334 9.810481 29.190666 9.810481 21.664001 14.6M 53.400002 46.335999C 58.19199 38.810051 58.19199 29.189945 53.399998 21.664M 14.6 21.664C 9.808009 29.189945 9.808009 38.810051 14.6 46.335999M 21.664 53.400002C 29.190666 58.189522 38.809334 58.189522 46.336002 53.400002M 57 57L 48 48M 11 57L 20 48M 57 11L 48 20M 11 11L 20 20M 47 28L 47 41C 47 42.104568 46.104568 43 45 43L 23 43C 21.895432 43 21 42.104568 21 41L 21 28M 47 28L 47 27C 47 25.895432 46.104568 25 45 25L 23 25C 21.895432 25 21 25.895432 21 27L 21 28L 32.41 34.506001C 33.382813 35.11401 34.617188 35.11401 35.59 34.506001Z"></path></g></g></g><g id="g-root-ic_1_de6zplwp6v5-fill" data-item-order="0" transform="translate(314.77471923828125, 241.9951171875)"></g><g id="g-root-ic_1_de6zplwp6v5-stroke" data-item-order="0" transform="translate(314.77471923828125, 241.9951171875)"><g id="ic_1_de6zplwp6v5-stroke" fill="none" stroke-linecap="round" stroke-linejoin="round" stroke-miterlimit="4" stroke="#3f3f3f" stroke-width="1" stroke-opacity="1"><g><path d="M 13 11L 55 11C 55 11 57 11 57 13L 57 55C 57 55 57 57 55 57L 13 57C 13 57 11 57 11 55L 11 13C 11 13 11 11 13 11M 18 23L 18 20L 30 20L 30 23M 24 31.5L 24 20M 36.5 20L 49 20M 36.5 29L 49 29M 18 38L 49 38M 18 47L 49 47"></path></g></g></g><g id="g-root-ic_emai_4osqbtws006-fill" data-item-order="0" transform="translate(410.77471923828125, 241.9951171875)"></g><g id="g-root-ic_emai_4osqbtws006-stroke" data-item-order="0" transform="translate(410.77471923828125, 241.9951171875)"><g id="ic_emai_4osqbtws006-stroke" fill="none" stroke-linecap="round" stroke-linejoin="round" stroke-miterlimit="4" stroke="#3f3f3f" stroke-width="1" stroke-opacity="1"><g><path d="M 39 43.015999L 55 43.015999C 55 43.015999 57 43.015999 57 45.015999L 57 55.015999C 57 55.015999 57 57.015999 55 57.015999L 39 57.015999C 39 57.015999 37 57.015999 37 55.015999L 37 45.015999C 37 45.015999 37 43.015999 39 43.015999M 37 46.015999L 45 50.616001C 46.23455 51.32592 47.753448 51.32592 48.987999 50.616001L 56.987999 46.015999M 11 37.015999C 11.019445 35.15937 11.403379 33.324646 12.13 31.615999C 12.93 30.016001 16.256001 28.916 20.436001 27.368C 21.566 26.950001 21.380001 24 20.880001 23.448C 19.268551 21.701832 18.479071 19.350853 18.709999 16.986C 18.565205 15.480259 19.052738 13.982075 20.055944 12.849911C 21.059151 11.717748 22.487778 11.053463 24 11.016C 25.512222 11.053463 26.940847 11.717748 27.944054 12.849911C 28.947262 13.982075 29.434793 15.480259 29.289999 16.986C 29.521515 19.351524 28.731993 21.70335 27.119999 23.450001C 26.620001 24.001999 26.434 26.952 27.563999 27.370001C 31.743999 28.917999 35.071999 30.024 35.870003 31.618C 36.596619 33.326645 36.980553 35.161373 37 37.017998ZM 31.823999 11.49C 32.506039 11.175062 33.248764 11.013273 34 11.016C 35.512222 11.053463 36.940849 11.717748 37.944054 12.849911C 38.947262 13.982075 39.434792 15.480259 39.290001 16.986C 39.521515 19.351524 38.731995 21.70335 37.119999 23.450001C 36.620003 24.001999 36.433998 26.952 37.563999 27.370001C 41.743999 28.917999 45.071999 30.024 45.869999 31.618C 46.596622 33.326645 46.980556 35.161373 47 37.017998L 41 37.017998"></path></g></g></g><g id="g-root-ic_toxi_1d0hv7twuq6d-fill" data-item-order="0" transform="translate(506.77471923828125, 241.9951171875)"></g><g id="g-root-ic_toxi_1d0hv7twuq6d-stroke" data-item-order="0" transform="translate(506.77471923828125, 241.9951171875)"><g id="ic_toxi_1d0hv7twuq6d-stroke" fill="none" stroke-linecap="round" stroke-linejoin="round" stroke-miterlimit="4" stroke="#3f3f3f" stroke-width="1" stroke-opacity="1"><g><path d="M 29 39L 13 39C 11.895431 39 11 38.104568 11 37L 11 19C 11 17.895432 11.895431 17 13 17L 55 17C 56.104568 17 57 17.895432 57 19L 57 31M 14 11C 18 11 18 16 18 16C 18 16 18 11 22 11M 30 11C 34 11 34 16 34 16C 34 16 34 11 38 11M 46 11C 50 11 50 16 50 16C 50 16 50 11 54 11M 23.004 17.004L 27.004 25.001999L 39.003998 25.001999L 43.004002 17.004M 11 27.002001L 21.004 31L 21.004 38.998001M 21.004 31L 27.004 25.001999M 39.003998 25.001999L 43 28.002001M 18 16.004L 18 17.004M 34 16.004L 34 17.004M 50 16.004L 50 17.004M 46 33C 39.924866 33 35 37.924866 35 44L 35 49C 35 50.104568 35.895432 51 37 51L 37.306 51C 38.282997 51.000286 39.116798 51.706394 39.278 52.669998L 39.722 55.327999C 39.883202 56.291603 40.717003 56.997715 41.694 56.998001L 50.306 56.998001C 51.282997 56.997715 52.116795 56.291603 52.278 55.327999L 52.720001 52.669998C 52.881329 51.70565 53.716248 50.99931 54.694 51L 55 51C 56.104568 51 57 50.104568 57 49L 57 44C 57 37.924866 52.075134 33 46 33ZM 39 44.998001C 39 46.10257 39.895432 46.998001 41 46.998001C 42.104568 46.998001 43 46.10257 43 44.998001C 43 43.893429 42.104568 42.998001 41 42.998001C 39.895432 42.998001 39 43.893429 39 44.998001M 49 44.998001C 49 46.10257 49.895432 46.998001 51 46.998001C 52.104568 46.998001 53 46.10257 53 44.998001C 53 43.893429 52.104568 42.998001 51 42.998001C 49.895432 42.998001 49 43.893429 49 44.998001M 43 56.993999L 43 51.995998M 49 56.993999L 49 51.995998"></path></g></g></g><g id="g-root-tx_scenario_1lt0i15wz0ul-fill" data-item-order="0" transform="translate(266.8385009765625, 349.9951171875)"><g id="tx_scenario_1lt0i15wz0ul-fill-merged" stroke="none" fill="#3f3f3f" fill-opacity="1"><g><text style="font: bold 15px Roboto, sans-serif; white-space: pre;" transform="translate(47.930999755859375, 19)" font-weight="bold" font-size="15px" font-family="Roboto, sans-serif"><tspan x="-35.93" y="8.5" dominant-baseline="ideographic">Scenario 1</tspan></text></g></g></g><g id="g-root-tx_scenario_1lt0i15wz0ul-stroke" data-item-order="0" transform="translate(266.8385009765625, 349.9951171875)"></g><g id="g-root-tx_scenario_v8ldmxwyzuv-fill" data-item-order="0" transform="translate(435.7447509765625, 349.9951171875)"><g id="tx_scenario_v8ldmxwyzuv-fill-merged" stroke="none" fill="#3f3f3f" fill-opacity="1"><g><text style="font: bold 15px Roboto, sans-serif; white-space: pre;" transform="translate(47.93096923828125, 19)" font-weight="bold" font-size="15px" font-family="Roboto, sans-serif"><tspan x="-35.93" y="8.5" dominant-baseline="ideographic">Scenario 3</tspan></text></g></g></g><g id="g-root-tx_scenario_v8ldmxwyzuv-stroke" data-item-order="0" transform="translate(435.7447509765625, 349.9951171875)"></g><g id="g-root-tx_singlese_4kfeq1wz0um-fill" data-item-order="0" transform="translate(235.86849975585938, 379.99462890625)"><g id="tx_singlese_4kfeq1wz0um-fill-merged" stroke="none" fill="#3f3f3f" fill-opacity="1"><g><text style="font: 15px Roboto, sans-serif; white-space: pre;" transform="translate(78.90103149414062, 27.99755859375)" font-size="15px" font-family="Roboto, sans-serif"><tspan x="-66.9" y="-0.5" dominant-baseline="ideographic">Single-session data </tspan><tspan x="-35.12" y="17.5" dominant-baseline="ideographic">extraction</tspan></text></g></g></g><g id="g-root-tx_singlese_4kfeq1wz0um-stroke" data-item-order="0" transform="translate(235.86849975585938, 379.99462890625)"></g><g id="g-root-tx_propagat_1lwrcjtwyyv4-fill" data-item-order="0" transform="translate(409.6705322265625, 379.9951171875)"><g id="tx_propagat_1lwrcjtwyyv4-fill-merged" stroke="none" fill="#3f3f3f" fill-opacity="1"><g><text style="font: 15px Roboto, sans-serif; white-space: pre;" transform="translate(74.00518798828125, 27.99755859375)" font-size="15px" font-family="Roboto, sans-serif"><tspan x="-52.16" y="-0.5" dominant-baseline="ideographic">Propagation via </tspan><tspan x="-62.01" y="17.5" dominant-baseline="ideographic">contact harvesting</tspan></text></g></g></g><g id="g-root-tx_propagat_1lwrcjtwyyv4-stroke" data-item-order="0" transform="translate(409.6705322265625, 379.9951171875)"></g></g></g></svg>