<?xml version="1.0" encoding="utf-8" standalone="yes"?>
<!DOCTYPE svg PUBLIC "-//W3C//DTD SVG 1.1//EN" "http://www.w3.org/Graphics/SVG/1.1/DTD/svg11.dtd">
<svg style="fill:none;stroke:none;fill-rule:evenodd;clip-rule:evenodd;stroke-linecap:round;stroke-linejoin:round;stroke-miterlimit:1.5;" version="1.1" xmlns="http://www.w3.org/2000/svg" xmlns:xlink="http://www.w3.org/1999/xlink" width="864" height="558" viewBox="0 0 864 558"><style class="text-font-style fontImports" data-font-family="Roboto">@import url(https://fonts.googleapis.com/css2?family=Roboto:wght@400;700&amp;amp;display=block);</style><g id="items" style="isolation: isolate"><g id="blend" style="mix-blend-mode: normal"><g id="g-root-cp_1_g-1_1upwpxl2aiwoy-fill" data-item-order="-347568" transform="translate(14, 134)"></g><g id="g-root-cp_1_g-1_1upwpxl2aiwoy-stroke" data-item-order="-347568" transform="translate(14, 134)"><g id="cp_1_g-1_1upwpxl2aiwoy-stroke" fill="none" stroke-linecap="round" stroke-linejoin="round" stroke-miterlimit="4" stroke="#3f3f3f" stroke-width="1" stroke-opacity="1"><g><path d="M 82 10L 139.6 10L 154 34L 139.6 58L 82 58L 96.4 34L 82 10ZM 38.8 10L 67.6 10L 82 34L 67.6 58L 38.8 58L 53.2 34L 38.8 10ZM 10 10L 24.4 10L 38.8 34L 24.4 58L 10 58L 24.4 34L 10 10ZM 82 34L 53.2 34M 38.8 34L 24.4 34M 96.4 34L 154 34M 82 70L 82 154"></path></g></g></g><g id="g-root-cp_2_g-2_18jfoeh2aivwr-fill" data-item-order="-347548" transform="translate(182, 134)"></g><g id="g-root-cp_2_g-2_18jfoeh2aivwr-stroke" data-item-order="-347548" transform="translate(182, 134)"><g id="cp_2_g-2_18jfoeh2aivwr-stroke" fill="none" stroke-linecap="round" stroke-linejoin="round" stroke-miterlimit="4" stroke="#3f3f3f" stroke-width="1" stroke-opacity="1"><g><path d="M 82 10L 139.6 10L 154 34L 139.6 58L 82 58L 96.4 34L 82 10ZM 38.8 10L 67.6 10L 82 34L 67.6 58L 38.8 58L 53.2 34L 38.8 10ZM 10 10L 24.4 10L 38.8 34L 24.4 58L 10 58L 24.4 34L 10 10ZM 82 34L 53.2 34M 38.8 34L 24.4 34M 96.4 34L 154 34M 82 70L 82 226"></path></g></g></g><g id="g-root-cp_3_g-3_143m6a12aiwp0-fill" data-item-order="-347530" transform="translate(350, 134)"></g><g id="g-root-cp_3_g-3_143m6a12aiwp0-stroke" data-item-order="-347530" transform="translate(350, 134)"><g id="cp_3_g-3_143m6a12aiwp0-stroke" fill="none" stroke-linecap="round" stroke-linejoin="round" stroke-miterlimit="4" stroke="#3f3f3f" stroke-width="1" stroke-opacity="1"><g><path d="M 82 10L 139.6 10L 154 34L 139.6 58L 82 58L 96.4 34L 82 10ZM 38.8 10L 67.6 10L 82 34L 67.6 58L 38.8 58L 53.2 34L 38.8 10ZM 10 10L 24.4 10L 38.8 34L 24.4 58L 10 58L 24.4 34L 10 10ZM 82 34L 53.2 34M 38.8 34L 24.4 34M 96.4 34L 154 34M 82 70L 82 154"></path></g></g></g><g id="g-root-cp_4_g-4_qss4zt2aiv45-fill" data-item-order="-347512" transform="translate(518, 134)"></g><g id="g-root-cp_4_g-4_qss4zt2aiv45-stroke" data-item-order="-347512" transform="translate(518, 134)"><g id="cp_4_g-4_qss4zt2aiv45-stroke" fill="none" stroke-linecap="round" stroke-linejoin="round" stroke-miterlimit="4" stroke="#3f3f3f" stroke-width="1" stroke-opacity="1"><g><path d="M 82 10L 139.6 10L 154 34L 139.6 58L 82 58L 96.4 34L 82 10ZM 38.8 10L 67.6 10L 82 34L 67.6 58L 38.8 58L 53.2 34L 38.8 10ZM 10 10L 24.4 10L 38.8 34L 24.4 58L 10 58L 24.4 34L 10 10ZM 82 34L 53.2 34M 38.8 34L 24.4 34M 96.4 34L 154 34M 82 70L 82 226"></path></g></g></g><g id="g-root-cp_5_g-5_hx54qx2aivwu-fill" data-item-order="-347494" transform="translate(686, 134)"></g><g id="g-root-cp_5_g-5_hx54qx2aivwu-stroke" data-item-order="-347494" transform="translate(686, 134)"><g id="cp_5_g-5_hx54qx2aivwu-stroke" fill="none" stroke-linecap="round" stroke-linejoin="round" stroke-miterlimit="4" stroke="#3f3f3f" stroke-width="1" stroke-opacity="1"><g><path d="M 82 10L 139.6 10L 154 34L 139.6 58L 82 58L 96.4 34L 82 10ZM 38.8 10L 67.6 10L 82 34L 67.6 58L 38.8 58L 53.2 34L 38.8 10ZM 10 10L 24.4 10L 38.8 34L 24.4 58L 10 58L 24.4 34L 10 10ZM 82 34L 53.2 34M 38.8 34L 24.4 34M 96.4 34L 154 34M 82 70L 82 154"></path></g></g></g><g id="g-root-tx_persiste_dhbmmh2aiwp3-fill" data-item-order="0" transform="translate(166.171875, 38)"><g id="tx_persiste_dhbmmh2aiwp3-fill-merged" stroke="none" fill="#3f3f3f" fill-opacity="1"><g><text style="font: bold 25px Roboto, sans-serif; white-space: pre;" transform="translate(265.828125, 25)" font-weight="bold" font-size="25px" font-family="Roboto, sans-serif"><tspan x="-253.83" y="15" dominant-baseline="ideographic">Persistent Memory-Based AI Attack Timeline</tspan></text></g></g></g><g id="g-root-tx_persiste_dhbmmh2aiwp3-stroke" data-item-order="0" transform="translate(166.171875, 38)"></g><g id="g-root-tx_day1_qu13612aixa8-fill" data-item-order="0" transform="translate(65.42578125, 92)"><g id="tx_day1_qu13612aixa8-fill-merged" stroke="none" fill="#3f3f3f" fill-opacity="1"><g><text style="font: 15px Roboto, sans-serif; white-space: pre;" transform="translate(30.57421875, 19)" font-size="15px" font-family="Roboto, sans-serif"><tspan x="-18.57" y="8.5" dominant-baseline="ideographic">Day 1</tspan></text></g></g></g><g id="g-root-tx_day1_qu13612aixa8-stroke" data-item-order="0" transform="translate(65.42578125, 92)"></g><g id="g-root-tx_day1_1ly0k7d2aivi9-fill" data-item-order="0" transform="translate(233.42578125, 92)"><g id="tx_day1_1ly0k7d2aivi9-fill-merged" stroke="none" fill="#3f3f3f" fill-opacity="1"><g><text style="font: 15px Roboto, sans-serif; white-space: pre;" transform="translate(30.57421875, 19)" font-size="15px" font-family="Roboto, sans-serif"><tspan x="-18.57" y="8.5" dominant-baseline="ideographic">Day 1</tspan></text></g></g></g><g id="g-root-tx_day1_1ly0k7d2aivi9-stroke" data-item-order="0" transform="translate(233.42578125, 92)"></g><g id="g-root-tx_day2_mg30ax2aiway-fill" data-item-order="0" transform="translate(401.22393798828125, 92)"><g id="tx_day2_mg30ax2aiway-fill-merged" stroke="none" fill="#3f3f3f" fill-opacity="1"><g><text style="font: bold 15px Roboto, sans-serif; white-space: pre;" transform="translate(30.77606201171875, 19)" font-weight="bold" font-size="15px" font-family="Roboto, sans-serif"><tspan x="-18.78" y="8.5" dominant-baseline="ideographic">Day 2</tspan></text></g></g></g><g id="g-root-tx_day2_mg30ax2aiway-stroke" data-item-order="0" transform="translate(401.22393798828125, 92)"></g><g id="g-root-tx_days330_1cu9du12ak9vn-fill" data-item-order="0" transform="translate(553.8073120117188, 92)"><g id="tx_days330_1cu9du12ak9vn-fill-merged" stroke="none" fill="#3f3f3f" fill-opacity="1"><g><text style="font: bold 15px Roboto, sans-serif; white-space: pre;" transform="translate(46.19268798828125, 19)" font-weight="bold" font-size="15px" font-family="Roboto, sans-serif"><tspan x="-34.19" y="8.5" dominant-baseline="ideographic">Days 3-30</tspan></text></g></g></g><g id="g-root-tx_days330_1cu9du12ak9vn-stroke" data-item-order="0" transform="translate(553.8073120117188, 92)"></g><g id="g-root-tx_day30_8wibt52akbgk-fill" data-item-order="0" transform="translate(732.9205932617188, 92)"><g id="tx_day30_8wibt52akbgk-fill-merged" stroke="none" fill="#3f3f3f" fill-opacity="1"><g><text style="font: bold 15px Roboto, sans-serif; white-space: pre;" transform="translate(35.07940673828125, 19)" font-weight="bold" font-size="15px" font-family="Roboto, sans-serif"><tspan x="-23.08" y="8.5" dominant-baseline="ideographic">Day 30</tspan></text></g></g></g><g id="g-root-tx_day30_8wibt52akbgk-stroke" data-item-order="0" transform="translate(732.9205932617188, 92)"></g><g id="g-root-tx_memoryin_v4usll2akah9-fill" data-item-order="0" transform="translate(24.930984497070312, 290)"><g id="tx_memoryin_v4usll2akah9-fill-merged" stroke="none" fill="#3f3f3f" fill-opacity="1"><g><text style="font: bold 15px Roboto, sans-serif; white-space: pre;" transform="translate(71.06901550292969, 19)" font-weight="bold" font-size="15px" font-family="Roboto, sans-serif"><tspan x="-59.07" y="8.5" dominant-baseline="ideographic">Memory Injection</tspan></text></g></g></g><g id="g-root-tx_memoryin_v4usll2akah9-stroke" data-item-order="0" transform="translate(24.930984497070312, 290)"></g><g id="g-root-tx_firstinv_1d0i4p52akbgh-fill" data-item-order="0" transform="translate(367.63671875, 290)"><g id="tx_firstinv_1d0i4p52akbgh-fill-merged" stroke="none" fill="#3f3f3f" fill-opacity="1"><g><text style="font: bold 15px Roboto, sans-serif; white-space: pre;" transform="translate(64.36328125, 19)" font-weight="bold" font-size="15px" font-family="Roboto, sans-serif"><tspan x="-52.36" y="8.5" dominant-baseline="ideographic">First Invocation</tspan></text></g></g></g><g id="g-root-tx_firstinv_1d0i4p52akbgh-stroke" data-item-order="0" transform="translate(367.63671875, 290)"></g><g id="g-root-tx_attacker_1um5vex2alq8d-fill" data-item-order="0" transform="translate(704.3919067382812, 290)"><g id="tx_attacker_1um5vex2alq8d-fill-merged" stroke="none" fill="#3f3f3f" fill-opacity="1"><g><text style="font: bold 15px Roboto, sans-serif; white-space: pre;" transform="translate(63.60809326171875, 27.9970703125)" font-weight="bold" font-size="15px" font-family="Roboto, sans-serif"><tspan x="-51.61" y="-0.5" dominant-baseline="ideographic">Attacker Gains </tspan><tspan x="-26.61" y="17.5" dominant-baseline="ideographic">Control</tspan></text></g></g></g><g id="g-root-tx_attacker_1um5vex2alq8d-stroke" data-item-order="0" transform="translate(704.3919067382812, 290)"></g><g id="g-root-tx_attacker_1q87sjt2akbv2-fill" data-item-order="0" transform="translate(20.380218505859375, 320)"><g id="tx_attacker_1q87sjt2akbv2-fill-merged" stroke="none" fill="#3f3f3f" fill-opacity="1"><g><text style="font: 15px Roboto, sans-serif; white-space: pre;" transform="translate(75.61978149414062, 36.9951171875)" font-size="15px" font-family="Roboto, sans-serif"><tspan x="-63.62" y="-9.49" dominant-baseline="ideographic">Attacker sends file </tspan><tspan x="-63.16" y="8.5" dominant-baseline="ideographic">with hidden rule to </tspan><tspan x="-31.73" y="26.49" dominant-baseline="ideographic">ChatGPT</tspan></text></g></g></g><g id="g-root-tx_attacker_1q87sjt2akbv2-stroke" data-item-order="0" transform="translate(20.380218505859375, 320)"></g><g id="g-root-tx_agentrea_1ut13d52akb9e-fill" data-item-order="0" transform="translate(357.66278076171875, 320)"><g id="tx_agentrea_1ut13d52akb9e-fill-merged" stroke="none" fill="#3f3f3f" fill-opacity="1"><g><text style="font: 15px Roboto, sans-serif; white-space: pre;" transform="translate(74.33721923828125, 45.9921875)" font-size="15px" font-family="Roboto, sans-serif"><tspan x="-42.02" y="-18.49" dominant-baseline="ideographic">Agent reads </tspan><tspan x="-62.34" y="-0.5" dominant-baseline="ideographic">memory, executes </tspan><tspan x="-61.48" y="17.5" dominant-baseline="ideographic">attacker rule, then </tspan><tspan x="-40.14" y="35.49" dominant-baseline="ideographic">serves user</tspan></text></g></g></g><g id="g-root-tx_agentrea_1ut13d52akb9e-stroke" data-item-order="0" transform="translate(357.66278076171875, 320)"></g><g id="g-root-tx_rulestor_hv9phl2akb2f-fill" data-item-order="0" transform="translate(209.1484375, 362)"><g id="tx_rulestor_hv9phl2akb2f-fill-merged" stroke="none" fill="#3f3f3f" fill-opacity="1"><g><text style="font: bold 15px Roboto, sans-serif; white-space: pre;" transform="translate(55.170562744140625, 19)" font-weight="bold" font-size="15px" font-family="Roboto, sans-serif"><tspan x="-43.17" y="8.5" dominant-baseline="ideographic">Rule Storage</tspan></text></g></g></g><g id="g-root-tx_rulestor_hv9phl2akb2f-stroke" data-item-order="0" transform="translate(209.1484375, 362)"></g><g id="g-root-tx_silentpe_i09i6h2akah7-fill" data-item-order="0" transform="translate(526.73046875, 362)"><g id="tx_silentpe_i09i6h2akah7-fill-merged" stroke="none" fill="#3f3f3f" fill-opacity="1"><g><text style="font: bold 15px Roboto, sans-serif; white-space: pre;" transform="translate(73.26953125, 19)" font-weight="bold" font-size="15px" font-family="Roboto, sans-serif"><tspan x="-61.27" y="8.5" dominant-baseline="ideographic">Silent Persistence</tspan></text></g></g></g><g id="g-root-tx_silentpe_i09i6h2akah7-stroke" data-item-order="0" transform="translate(526.73046875, 362)"></g><g id="g-root-tx_attacker_m97scp2alpfq-fill" data-item-order="0" transform="translate(688.3893432617188, 337.994140625)"><g id="tx_attacker_m97scp2alpfq-fill-merged" stroke="none" fill="#3f3f3f" fill-opacity="1"><g><text style="font: 15px Roboto, sans-serif; white-space: pre;" transform="translate(79.61065673828125, 54.9892578125)" font-size="15px" font-family="Roboto, sans-serif"><tspan x="-61.04" y="-27.49" dominant-baseline="ideographic">Attacker achieves </tspan><tspan x="-62.17" y="-9.49" dominant-baseline="ideographic">persistent access, </tspan><tspan x="-67.61" y="8.5" dominant-baseline="ideographic">API key control, and </tspan><tspan x="-55.75" y="26.49" dominant-baseline="ideographic">continuous data </tspan><tspan x="-16.57" y="44.49" dominant-baseline="ideographic">feed</tspan></text></g></g></g><g id="g-root-tx_attacker_m97scp2alpfq-stroke" data-item-order="0" transform="translate(688.3893432617188, 337.994140625)"></g><g id="g-root-tx_chatgptp_18jfoeh2aka2o-fill" data-item-order="0" transform="translate(182, 392)"><g id="tx_chatgptp_18jfoeh2aka2o-fill-merged" stroke="none" fill="#3f3f3f" fill-opacity="1"><g><text style="font: 15px Roboto, sans-serif; white-space: pre;" transform="translate(82.31900024414062, 36.9951171875)" font-size="15px" font-family="Roboto, sans-serif"><tspan x="-67.21" y="-9.49" dominant-baseline="ideographic">ChatGPT processes </tspan><tspan x="-70.32" y="8.5" dominant-baseline="ideographic">file and stores rule in </tspan><tspan x="-62.69" y="26.49" dominant-baseline="ideographic">long-term memory</tspan></text></g></g></g><g id="g-root-tx_chatgptp_18jfoeh2aka2o-stroke" data-item-order="0" transform="translate(182, 392)"></g><g id="g-root-tx_agentrep_18nt0092akcn8-fill" data-item-order="0" transform="translate(526.046875, 392)"><g id="tx_agentrep_18nt0092akcn8-fill-merged" stroke="none" fill="#3f3f3f" fill-opacity="1"><g><text style="font: 15px Roboto, sans-serif; white-space: pre;" transform="translate(73.953125, 45.9921875)" font-size="15px" font-family="Roboto, sans-serif"><tspan x="-58.15" y="-18.49" dominant-baseline="ideographic">Agent repeatedly </tspan><tspan x="-51" y="-0.5" dominant-baseline="ideographic">reads memory, </tspan><tspan x="-61.95" y="17.5" dominant-baseline="ideographic">executes rule, and </tspan><tspan x="-40.14" y="35.49" dominant-baseline="ideographic">serves user</tspan></text></g></g></g><g id="g-root-tx_agentrep_18nt0092akcn8-stroke" data-item-order="0" transform="translate(526.046875, 392)"></g></g></g></svg>