<?xml version="1.0" encoding="utf-8" standalone="yes"?>
<!DOCTYPE svg PUBLIC "-//W3C//DTD SVG 1.1//EN" "http://www.w3.org/Graphics/SVG/1.1/DTD/svg11.dtd">
<svg style="fill:none;stroke:none;fill-rule:evenodd;clip-rule:evenodd;stroke-linecap:round;stroke-linejoin:round;stroke-miterlimit:1.5;" version="1.1" xmlns="http://www.w3.org/2000/svg" xmlns:xlink="http://www.w3.org/1999/xlink" width="912" height="510" viewBox="0 0 912 510"><style class="text-font-style fontImports" data-font-family="Roboto">@import url(https://fonts.googleapis.com/css2?family=Roboto:wght@400;700&amp;amp;display=block);</style><g id="items" style="isolation: isolate"><g id="blend" style="mix-blend-mode: normal"><g id="g-root-cp_5_g-5_1umsvgp34x62z-fill" data-item-order="-357685" transform="translate(31, 337.68359375)"></g><g id="g-root-cp_5_g-5_1umsvgp34x62z-stroke" data-item-order="-357685" transform="translate(31, 337.68359375)"><g id="cp_5_g-5_1umsvgp34x62z-stroke" fill="none" stroke-linecap="round" stroke-linejoin="round" stroke-miterlimit="4" stroke="#3f3f3f" stroke-width="1" stroke-opacity="1"><g><path d="M 45.4363 57.9704L 149 109.3162L 252.0616 57.7224L 287 40.3162L 225.7619 10.2499L 149 49.3162L 71.747 10L 10 40.3162L 45.4363 57.9704ZM 288 40.316406L 389 40.316406"></path></g></g><g id="cp_5_g-5_1umsvgp34x62z-stroke" fill="none" stroke-linecap="round" stroke-linejoin="round" stroke-miterlimit="4" stroke="#3f3f3f" stroke-width="1" stroke-opacity="1"><g><path d="M 401 40.316406C 401 43.630106 398.3137 46.316406 395 46.316406C 391.6863 46.316406 389 43.630106 389 40.316406C 389 37.002706 391.6863 34.316406 395 34.316406C 398.3137 34.316406 401 37.002706 401 40.316406Z"></path></g></g></g><g id="g-root-cp_4_g-4_1uooaq134x538-fill" data-item-order="-357677" transform="translate(58, 289.2138671875)"></g><g id="g-root-cp_4_g-4_1uooaq134x538-stroke" data-item-order="-357677" transform="translate(58, 289.2138671875)"><g id="cp_4_g-4_1uooaq134x538-stroke" fill="none" stroke-linecap="round" stroke-linejoin="round" stroke-miterlimit="4" stroke="#3f3f3f" stroke-width="1" stroke-opacity="1"><g><path d="M 44.747 58.4699L 122 97.7861L 198.7619 58.7198L 234 40.7861L 172.9726 10L 122 35.7861L 71.0274 10L 10 40.7861L 44.747 58.4699ZM 234 40.786133L 362 40.786133"></path></g></g><g id="cp_4_g-4_1uooaq134x538-stroke" fill="none" stroke-linecap="round" stroke-linejoin="round" stroke-miterlimit="4" stroke="#3f3f3f" stroke-width="1" stroke-opacity="1"><g><path d="M 374 40.786133C 374 44.099833 371.3137 46.786133 368 46.786133C 364.6863 46.786133 362 44.099833 362 40.786133C 362 37.472433 364.6863 34.786133 368 34.786133C 371.3137 34.786133 374 37.472433 374 40.786133Z"></path></g></g></g><g id="g-root-cp_3_g-3_qrjps934x3id-fill" data-item-order="-357669" transform="translate(85, 240.740234375)"></g><g id="g-root-cp_3_g-3_qrjps934x3id-stroke" data-item-order="-357669" transform="translate(85, 240.740234375)"><g id="cp_3_g-3_qrjps934x3id-stroke" fill="none" stroke-linecap="round" stroke-linejoin="round" stroke-miterlimit="4" stroke="#3f3f3f" stroke-width="1" stroke-opacity="1"><g><path d="M 44.0274 58.4735L 95 84.2597L 145.9726 58.4735L 180 41.2597L 118.2076 10C 111.0485 13.5367 104.081 17.2324 95 21.7597L 71.2886 10.2549L 10 41.2597L 44.0274 58.4735ZM 180 41.259766L 335 41.259766"></path></g></g><g id="cp_3_g-3_qrjps934x3id-stroke" fill="none" stroke-linecap="round" stroke-linejoin="round" stroke-miterlimit="4" stroke="#3f3f3f" stroke-width="1" stroke-opacity="1"><g><path d="M 347 41.259766C 347 44.573466 344.3137 47.259766 341 47.259766C 337.6863 47.259766 335 44.573466 335 41.259766C 335 37.946066 337.6863 35.259766 341 35.259766C 344.3137 35.259766 347 37.946066 347 41.259766Z"></path></g></g></g><g id="g-root-cp_2_g-2_1cz9phl34x5ou-fill" data-item-order="-357661" transform="translate(112, 200)"></g><g id="g-root-cp_2_g-2_1cz9phl34x5ou-stroke" data-item-order="-357661" transform="translate(112, 200)"><g id="cp_2_g-2_1cz9phl34x5ou-stroke" fill="none" stroke-linecap="round" stroke-linejoin="round" stroke-miterlimit="4" stroke="#3f3f3f" stroke-width="1" stroke-opacity="1"><g><path d="M 44.2886 50.9952L 68 62.5C 77.081 57.9727 84.0485 54.277 91.2076 50.7403C 101.7512 45.5316 111.6258 40.6677 125 34L 77.913 10.0435L 68 15L 58 10L 10 34L 44.2886 50.9952ZM 125 34L 308 34"></path></g></g><g id="cp_2_g-2_1cz9phl34x5ou-stroke" fill="none" stroke-linecap="round" stroke-linejoin="round" stroke-miterlimit="4" stroke="#3f3f3f" stroke-width="1" stroke-opacity="1"><g><path d="M 320 34C 320 37.3137 317.3137 40 314 40C 310.6863 40 308 37.3137 308 34C 308 30.6863 310.6863 28 314 28C 317.3137 28 320 30.6863 320 34Z"></path></g></g></g><g id="g-root-cp_1_g-1_qvx1e134x62v-fill" data-item-order="-357653" transform="translate(134, 122)"></g><g id="g-root-cp_1_g-1_qvx1e134x62v-stroke" data-item-order="-357653" transform="translate(134, 122)"><g id="cp_1_g-1_qvx1e134x62v-stroke" fill="none" stroke-linecap="round" stroke-linejoin="round" stroke-miterlimit="4" stroke="#3f3f3f" stroke-width="1" stroke-opacity="1"><g><path d="M 10 74.5L 46 10L 82 74.5L 55.913 88.0435L 46 93L 36 88L 10 74.5ZM 76 64L 287 64"></path></g></g><g id="cp_1_g-1_qvx1e134x62v-stroke" fill="none" stroke-linecap="round" stroke-linejoin="round" stroke-miterlimit="4" stroke="#3f3f3f" stroke-width="1" stroke-opacity="1"><g><path d="M 286 64C 286 67.313709 288.686292 70 292 70C 295.313709 70 298 67.313709 298 64C 298 60.686292 295.313709 58 292 58C 288.686292 58 286 60.686292 286 64"></path></g></g></g><g id="g-root-tx_aimemory_1q6zdc934yk94-fill" data-item-order="0" transform="translate(324.95703125, 38)"><g id="tx_aimemory_1q6zdc934yk94-fill-merged" stroke="none" fill="#3f3f3f" fill-opacity="1"><g><text style="font: bold 25px Roboto, sans-serif; white-space: pre;" transform="translate(131.04296875, 25)" font-weight="bold" font-size="25px" font-family="Roboto, sans-serif"><tspan x="-119.04" y="15" dominant-baseline="ideographic">AI Memory Hierarchy</tspan></text></g></g></g><g id="g-root-tx_aimemory_1q6zdc934yk94-stroke" data-item-order="0" transform="translate(324.95703125, 38)"></g><g id="g-root-tx_lackofau_1hf37m134yj29-fill" data-item-order="0" transform="translate(446, 164)"><g id="tx_lackofau_1hf37m134yj29-fill-merged" stroke="none" fill="#3f3f3f" fill-opacity="1"><g><text style="font: 20px Roboto, sans-serif; white-space: pre;" transform="translate(10, 22)" font-size="20px" font-family="Roboto, sans-serif"><tspan x="2" y="11.33" dominant-baseline="ideographic">Lack of authentication for memory entries</tspan></text></g></g></g><g id="g-root-tx_lackofau_1hf37m134yj29-stroke" data-item-order="0" transform="translate(446, 164)"></g><g id="g-root-tx_unencryp_hz12yx34yiv6-fill" data-item-order="0" transform="translate(446, 212)"><g id="tx_unencryp_hz12yx34yiv6-fill-merged" stroke="none" fill="#3f3f3f" fill-opacity="1"><g><text style="font: 20px Roboto, sans-serif; white-space: pre;" transform="translate(10, 33.9990234375)" font-size="20px" font-family="Roboto, sans-serif"><tspan x="2" y="-0.67" dominant-baseline="ideographic">Unencrypted and unauthenticated memory </tspan><tspan x="2" y="23.33" dominant-baseline="ideographic">access</tspan></text></g></g></g><g id="g-root-tx_unencryp_hz12yx34yiv6-stroke" data-item-order="0" transform="translate(446, 212)"></g><g id="g-root-tx_critical_13ymzpl34dhj7-fill" data-item-order="0" transform="translate(446, 283.998046875)"><g id="tx_critical_13ymzpl34dhj7-fill-merged" stroke="none" fill="#3f3f3f" fill-opacity="1"><g><text style="font: 20px Roboto, sans-serif; white-space: pre;" transform="translate(10, 22)" font-size="20px" font-family="Roboto, sans-serif"><tspan x="2" y="11.33" dominant-baseline="ideographic">Critical behavioral rules and instructions</tspan></text></g></g></g><g id="g-root-tx_critical_13ymzpl34dhj7-stroke" data-item-order="0" transform="translate(446, 283.998046875)"></g><g id="g-root-tx_longterm_1uo1wsp34dhxo-fill" data-item-order="0" transform="translate(446, 331.998046875)"><g id="tx_longterm_1uo1wsp34dhxo-fill-merged" stroke="none" fill="#3f3f3f" fill-opacity="1"><g><text style="font: 20px Roboto, sans-serif; white-space: pre;" transform="translate(10, 22)" font-size="20px" font-family="Roboto, sans-serif"><tspan x="2" y="11.33" dominant-baseline="ideographic">Long-term storage of user preferences</tspan></text></g></g></g><g id="g-root-tx_longterm_1uo1wsp34dhxo-stroke" data-item-order="0" transform="translate(446, 331.998046875)"></g><g id="g-root-tx_temporar_18kp8p534dibp-fill" data-item-order="0" transform="translate(446, 379.998046875)"><g id="tx_temporar_18kp8p534dibp-fill-merged" stroke="none" fill="#3f3f3f" fill-opacity="1"><g><text style="font: 20px Roboto, sans-serif; white-space: pre;" transform="translate(10, 22)" font-size="20px" font-family="Roboto, sans-serif"><tspan x="2" y="11.33" dominant-baseline="ideographic">Temporary context within chat sessions</tspan></text></g></g></g><g id="g-root-tx_temporar_18kp8p534dibp-stroke" data-item-order="0" transform="translate(446, 379.998046875)"></g></g></g></svg>